<svg width="60" height="60" viewBox="0 0 60 60" fill="none" xmlns="http://www.w3.org/2000/svg">
<circle cx="30" cy="30" r="30" fill="#F7E3EC"/>
<g clip-path="url(#clip0)">
<path d="M4.11065 40.4475L10.0856 50.7898C10.3069 51.1199 10.6388 51.3399 11.0814 51.3399H23.142C23.5846 51.3399 23.9165 51.1199 24.1378 50.7898L29.7808 40.9976H36.5303C36.9729 40.9976 37.3048 40.7776 37.5261 40.4475L43.1691 30.6553H49.9186C50.3612 30.6553 50.6931 30.4353 50.9144 30.1052L56.8894 19.7629C57.1106 19.4329 57.1106 18.9928 56.8894 18.6627L50.9144 8.32039C50.6931 7.99031 50.3612 7.77026 49.9186 7.77026H37.9687C37.5261 7.77026 37.1942 7.99031 36.9729 8.32039L31.3299 18.1126H24.5804C24.1378 18.1126 23.8058 18.3326 23.5846 18.6627L17.9415 28.4549H11.0814C10.6388 28.4549 10.3069 28.6749 10.0856 29.005L4.11065 39.3473C4 39.6774 4 40.1175 4.11065 40.4475ZM38.6326 9.97075H49.3653L54.7871 19.2128L49.3653 28.4549H38.6326L33.2109 19.2128L38.6326 9.97075ZM25.1336 20.3131H31.3299L36.9729 30.1052C37.1942 30.4353 37.5261 30.6553 37.9687 30.6553H40.6242L35.8664 38.7972H25.1336L19.8225 29.5551L25.1336 20.3131ZM11.7453 30.6553H17.9415L23.5846 40.4475C23.8058 40.7776 24.1378 40.9976 24.5804 40.9976H27.2359L22.4781 49.1395H11.7453L6.32359 39.8974L11.7453 30.6553Z" fill="#591244"/>
<path d="M12.4092 35.3863H13.0731C13.737 35.3863 14.1795 34.9462 14.1795 34.286C14.1795 33.6259 13.737 33.1858 13.0731 33.1858H12.4092C11.7453 33.1858 11.3027 33.6259 11.3027 34.286C11.3027 34.9462 11.7453 35.3863 12.4092 35.3863Z" fill="#591244"/>
<path d="M17.8309 36.1565H18.4948C19.1587 36.1565 19.6013 35.7164 19.6013 35.0563C19.6013 34.3962 19.1587 33.9561 18.4948 33.9561H17.8309C17.2777 33.9561 16.7244 34.3962 16.7244 34.9463V35.0563C16.7244 35.7164 17.167 36.1565 17.8309 36.1565Z" fill="#591244"/>
<path d="M28.453 24.7139H29.1169C29.7808 24.7139 30.2234 24.2738 30.2234 23.6137C30.2234 22.9535 29.7808 22.5134 29.1169 22.5134H28.453C27.8998 22.5134 27.3466 22.9535 27.3466 23.5036V23.6137C27.3466 24.2738 27.7891 24.7139 28.453 24.7139Z" fill="#591244"/>
<path d="M23.9165 29.0049H24.5804C25.2443 29.0049 25.6869 28.5648 25.6869 27.9047C25.6869 27.2445 25.2443 26.8044 24.5804 26.8044H23.9165C23.3633 26.8044 22.81 27.2445 22.81 27.7947V27.9047C22.81 28.5648 23.2526 29.0049 23.9165 29.0049Z" fill="#591244"/>
<path d="M29.3382 28.4548C28.6743 28.4548 28.2317 28.8949 28.2317 29.5551C28.2317 30.2152 28.6743 30.6553 29.3382 30.6553H30.0021C30.666 30.6553 31.1086 30.2152 31.1086 29.5551C31.1086 28.8949 30.666 28.4548 30.0021 28.4548H29.3382Z" fill="#591244"/>
<path d="M28.1211 35.3863H28.785C29.4489 35.3863 29.8914 34.9462 29.8914 34.286C29.8914 33.6259 29.4489 33.1858 28.785 33.1858H28.1211C27.5679 33.1858 27.0146 33.6259 27.0146 34.176V34.286C27.0146 34.9462 27.4572 35.3863 28.1211 35.3863Z" fill="#591244"/>
<path d="M34.2067 33.9561H34.8706C35.5344 33.9561 35.977 33.516 35.977 32.8559C35.977 32.1957 35.5344 31.7556 34.8706 31.7556H34.2067C33.6534 31.7556 33.1002 32.1957 33.1002 32.7458V32.8559C33.1002 33.516 33.5428 33.9561 34.2067 33.9561Z" fill="#591244"/>
<path d="M15.5073 40.4473H16.1712C16.8351 40.4473 17.2777 40.0072 17.2777 39.3471C17.2777 38.6869 16.8351 38.2468 16.1712 38.2468H15.5073C14.8434 38.2468 14.4008 38.6869 14.4008 39.3471C14.4008 40.0072 14.8434 40.4473 15.5073 40.4473Z" fill="#591244"/>
<path d="M12.4092 39.3471C12.4092 38.7969 11.9666 38.2468 11.4134 38.2468H11.3027H10.6388C9.97495 38.2468 9.53236 38.6869 9.53236 39.3471C9.53236 40.0072 9.97495 40.4473 10.6388 40.4473H11.3027C11.8559 40.4473 12.2985 39.8972 12.4092 39.3471Z" fill="#591244"/>
<path d="M18.7161 41.3275C18.7161 41.8777 19.1587 42.4278 19.7119 42.4278H19.8226H20.4864C21.1503 42.4278 21.5929 41.9877 21.5929 41.3275C21.5929 40.6674 21.1503 40.2273 20.4864 40.2273H19.8226C19.2693 40.2273 18.7161 40.6674 18.7161 41.2175V41.3275Z" fill="#591244"/>
<path d="M15.5073 45.5085H14.8434C14.1795 45.5085 13.737 45.9486 13.737 46.6088C13.737 47.2689 14.1795 47.709 14.8434 47.709H15.5073C16.0605 47.709 16.6138 47.2689 16.6138 46.7188V46.6088C16.6138 45.9486 16.0605 45.5085 15.5073 45.5085Z" fill="#591244"/>
<path d="M20.1545 45.2885C20.1545 45.8386 20.5971 46.3887 21.1503 46.3887H21.261H21.9248C22.5887 46.3887 23.0313 45.9486 23.0313 45.2885C23.0313 44.6283 22.5887 44.1882 21.9248 44.1882H21.261C20.5971 44.1882 20.1545 44.6283 20.1545 45.2885Z" fill="#591244"/>
<path d="M15.1754 44.0782C15.8393 44.0782 16.2818 43.6381 16.2818 42.9779C16.2818 42.3178 15.8393 41.8777 15.1754 41.8777H14.5115C13.8476 41.8777 13.405 42.3178 13.405 42.9779C13.405 43.6381 13.8476 44.0782 14.5115 44.0782H15.1754Z" fill="#591244"/>
<path d="M44.4969 42.428C44.4969 41.8778 44.0543 41.4377 43.501 41.3277L38.4113 41.1077C37.7474 41.1077 37.3048 41.5478 37.3048 42.2079C37.3048 42.758 37.7474 43.3082 38.3006 43.3082H38.4113L40.9562 43.4182L34.2067 50.1297C33.7641 50.4597 33.6534 51.2299 33.9854 51.67C34.3173 52.1101 35.0919 52.2201 35.5344 51.8901C35.6451 51.78 35.6451 51.78 35.7557 51.67L42.2839 45.1786L42.1733 47.269C42.1733 47.8192 42.6159 48.3693 43.1691 48.3693H43.2797C43.9436 48.3693 44.3862 47.9292 44.3862 47.269C44.3862 44.6284 44.4969 42.758 44.4969 42.428Z" fill="#591244"/>
<path d="M28.1211 8.32029C28.1211 7.77017 27.6785 7.33007 27.1253 7.22005L22.0355 7C21.3716 7 20.929 7.4401 20.929 8.10024C20.929 8.65037 21.3716 9.20049 21.9248 9.20049H22.0355L24.5804 9.31051L17.8309 16.022C17.499 16.4621 17.6096 17.2323 18.0522 17.5623C18.4948 17.8924 18.9374 17.8924 19.38 17.5623L25.9081 11.0709L25.7975 13.1614C25.7975 13.7115 26.2401 14.2616 26.7933 14.2616H26.904C27.5679 14.2616 28.0104 13.8215 28.0104 13.1614L28.1211 8.32029Z" fill="#591244"/>
</g>
<defs>
<clipPath id="clip0">
<rect x="4" y="7" width="53" height="45" fill="white"/>
</clipPath>
</defs>
</svg>
