<svg width="72" height="82" viewBox="0 0 72 82" fill="none" xmlns="http://www.w3.org/2000/svg">
<circle cx="33" cy="50" r="30" fill="#F7E3EC"/>
<path d="M31.3381 21.4781C30.983 21.6664 30.6279 21.6664 30.2728 21.8547C29.9177 22.043 29.5626 22.1372 29.2075 22.3255C28.586 22.6079 27.9646 22.9846 27.3432 23.3612C26.0116 24.0203 24.8575 24.9619 23.7922 25.9034C21.6616 28.1632 20.0637 30.8938 19.1759 33.9068C18.0218 37.1081 17.0453 40.4036 16.2463 43.6991C15.3586 47.0888 14.826 50.5726 14.6484 54.1506C14.4709 55.8454 14.5596 57.5402 14.826 59.235C14.9147 59.9883 15.1811 60.6474 15.5362 61.3065C15.8912 61.8714 16.3351 62.4364 16.9565 62.7188C17.1341 62.813 17.4004 62.5305 17.2229 62.3422C16.4239 61.4948 15.98 60.3649 15.8912 59.1409C15.8025 57.7285 15.8912 56.222 16.0688 54.8097C16.3351 51.5142 16.8678 48.2187 17.6667 45.0173C18.3769 41.816 19.3535 38.6146 20.2412 35.4133C20.9514 32.4944 22.1943 29.7639 23.881 27.4099C24.9463 26.1859 26.1004 25.056 27.432 24.2086C28.0534 23.7378 28.7636 23.3612 29.385 22.9846C30.0952 22.6079 30.7166 22.043 31.4268 21.6664C31.6044 21.5722 31.4268 21.3839 31.3381 21.4781Z" fill="#591244"/>
<path d="M43.3224 12.1578C42.2571 13.3818 41.4581 14.7942 41.0143 16.3948C40.9255 16.8656 40.8367 17.4306 40.6592 17.9013C40.2153 19.4078 37.9959 21.6676 36.4867 21.1968C35.1551 20.726 33.8235 20.0669 32.5806 19.2195C31.249 18.4663 34.1786 21.1027 34.8 21.4793C35.1551 21.6676 37.1082 22.7975 38.0847 22.4208C38.7949 22.0442 39.5051 21.4793 40.0377 20.8202C40.0377 21.291 39.949 21.8559 39.8602 22.3267C39.4163 24.4923 38.9724 26.5637 38.6173 28.7293C38.1735 30.8008 37.9071 32.7781 37.8184 34.8495C37.8184 35.8852 37.8184 37.0151 37.9959 38.0508C37.552 37.8625 37.1969 37.6742 36.7531 37.58C36.2204 37.4859 35.7765 37.4859 35.2439 37.58C34.7112 37.6742 34.2674 37.7684 33.7347 37.8625C33.3796 37.9567 32.9357 38.145 32.5806 38.2391C32.1368 38.4274 31.7817 38.7099 31.4266 38.9924C30.7164 39.6515 30.0062 40.3106 29.3847 40.9697C28.7633 41.7229 28.0531 42.4762 27.3429 43.2294C26.899 43.7002 26.3664 44.171 25.8337 44.7359C26.5439 43.0411 27.1653 41.3463 27.5205 39.5573C27.698 38.8982 27.7868 38.3333 27.7868 37.6742C27.7868 37.2976 27.8756 37.0151 27.8756 36.6385C27.8756 36.4502 27.8756 36.356 27.8756 36.1677L27.7868 35.6969C27.7868 35.6028 27.698 35.6028 27.698 35.6028C27.6092 35.6028 27.6092 35.6028 27.6092 35.6969L27.3429 36.1677C27.2541 36.2618 27.1653 36.4502 27.1653 36.6385C26.9878 37.0151 26.899 37.2976 26.8103 37.6742C26.6327 38.3333 26.3664 39.0865 26.1888 39.7456C25.7449 41.0638 25.2123 42.2879 24.6796 43.5119C24.3245 44.171 23.9694 44.8301 23.6143 45.395C23.2592 45.96 22.9929 46.6191 22.7266 47.184C22.4603 47.6548 22.1939 48.0314 21.9276 48.408C21.5725 48.973 21.1286 49.5379 20.6848 50.1029C19.9746 51.0444 19.4419 51.986 18.9093 53.0217C18.3766 53.9633 18.1103 55.0931 17.9327 56.223C17.9327 56.4113 18.1991 56.4113 18.1991 56.223C18.4654 55.2815 18.9093 54.3399 19.2644 53.3983C19.7082 52.5509 20.2409 51.7977 20.8623 51.0444C21.0399 50.9503 21.2174 50.8561 21.3062 50.7619C21.5725 50.5736 21.8388 50.3853 22.0164 50.1029C22.1939 49.9145 22.3715 49.7262 22.549 49.5379C22.7266 49.3496 22.8154 49.2554 22.9929 49.1613C23.7919 48.5022 24.5021 47.7489 25.3011 47.0898C26.8102 45.7717 28.2307 44.2651 29.5623 42.7586C30.0949 42.0995 30.6276 41.3463 31.1602 40.6872C31.4266 40.4047 31.6929 40.0281 32.048 39.7456C32.4031 39.5573 32.6694 39.2749 33.0245 38.9924C33.3796 38.7099 33.8235 38.5216 34.3561 38.4274C34.8888 38.5216 35.5102 38.6158 35.9541 38.8041C36.9306 39.1807 38.2622 40.2164 39.2388 40.6872C39.6826 40.8755 39.6826 40.6872 39.7714 40.4989C40.0377 39.5573 39.6826 38.8041 39.5051 37.9567C39.4163 37.0151 39.3275 36.1677 39.3275 35.3203C39.4163 33.4372 39.5939 31.554 39.8602 29.6709C40.3928 25.6222 41.0143 21.5734 41.7245 17.6189C41.902 16.6773 42.0796 15.8299 42.3459 14.9825C42.6122 14.0409 43.0561 13.1935 43.5887 12.3461C43.5887 12.1578 43.5 12.0636 43.3224 12.1578Z" fill="#591244"/>
<path d="M50.3355 24.9622C49.8029 24.3031 49.1815 23.7381 48.4713 23.3615C47.7611 22.9849 46.9621 22.7966 46.1631 22.4199C45.9855 22.4199 45.808 22.7024 45.9855 22.7966C46.607 23.079 47.1396 23.4557 47.6723 23.9265C48.2049 24.3031 48.7376 24.7739 49.0927 25.2447C49.5366 25.8096 49.8029 26.3746 49.8917 27.1279C49.8917 27.9753 49.8029 28.8227 49.4478 29.576C48.9151 31.1767 48.2049 32.6832 47.2284 34.0956C46.4294 35.4138 45.5417 36.7321 44.3876 37.862C43.2335 39.086 41.7243 39.9335 40.5702 41.1575C40.4815 41.2517 40.4815 41.3459 40.5702 41.44L40.659 41.5342C42.3458 41.5342 43.9437 40.7809 45.0978 39.4627C46.4294 38.1445 47.5835 36.7321 48.4713 35.1314C49.359 33.5307 50.158 31.8358 50.7794 30.0468C51.4008 28.3519 51.3121 26.4688 50.3355 24.9622Z" fill="#591244"/>
<path d="M45.9847 27.599C45.452 28.0698 45.0969 28.7289 44.9194 29.388C44.9194 28.7289 44.8306 27.9756 44.8306 27.3165C44.4755 24.6801 44.3868 21.9495 44.3868 19.219C44.4755 18.4657 44.5643 17.7124 44.6531 16.9592C44.7419 16.2059 44.9194 15.4527 45.1857 14.7936C45.2745 14.6994 45.0082 14.6052 44.9194 14.6994C44.7419 15.2643 44.3868 15.8293 44.2092 16.4884C44.0317 17.1475 43.8541 17.7124 43.7653 18.3715C43.5878 19.6898 43.499 21.008 43.499 22.3262C43.499 25.0567 43.8541 27.8815 43.8541 30.612C43.8541 31.4594 43.8541 32.2127 43.8541 33.0601C43.8541 33.9075 43.8541 34.755 43.7653 35.5082C43.7653 35.6024 43.7653 35.6965 43.8541 35.6965C43.9429 35.6965 44.0317 35.6965 44.0317 35.6024C44.298 34.9433 44.4755 34.2842 44.6531 33.6251L44.7419 32.7777V32.6835C44.9194 31.8361 45.0969 30.9887 45.2745 30.1412C45.5408 29.2938 45.8959 28.5406 46.1622 27.6931C46.1622 27.599 46.1622 27.599 46.0735 27.5048C45.9847 27.5048 45.9847 27.5048 45.9847 27.599Z" fill="#591244"/>
<path d="M56.6385 72.4179L56.5497 72.2295C56.2834 70.4405 55.2181 68.8399 53.7977 67.8041C52.111 66.6742 50.3355 65.6385 48.4712 64.6969C45.5416 62.8138 43.1447 60.1773 41.5467 56.976C41.1029 56.1286 40.659 55.187 40.3927 54.3396C39.9488 53.3038 39.5937 52.3622 39.2386 51.3265C39.1498 51.2323 39.061 51.1382 38.8835 51.1382C38.7947 51.1382 38.7059 51.2323 38.7059 51.4207C38.7059 51.8914 38.7059 52.3622 38.7947 52.7389C38.8835 53.2097 38.9723 53.6804 39.061 54.1512V54.3396C37.7294 55.6578 36.5753 57.0701 35.5988 58.6708C34.5335 60.2715 33.557 61.9663 32.4917 63.567C30.1835 66.7684 27.2539 69.3107 23.7917 70.9113C20.507 72.6062 16.6009 72.7945 13.2275 71.288C11.7183 70.6289 10.4755 69.499 9.49893 68.1808C8.43363 66.6742 7.81221 64.7911 7.72343 62.9079C7.72343 60.7423 8.16731 58.6708 9.05506 56.6935C9.49893 55.7519 10.0316 54.9045 10.5642 53.9629C11.0969 53.0213 11.8071 52.1739 12.5173 51.4207C12.6948 51.3265 12.5173 51.1382 12.4285 51.2323C11.6295 51.8914 10.8306 52.5506 10.1204 53.3038C9.49893 53.9629 8.87751 54.7162 8.34486 55.5636C7.27956 57.3526 6.56936 59.3299 6.30303 61.4014C6.0367 63.4729 6.39181 65.6385 7.19078 67.5217C7.98976 69.3107 9.23261 70.8172 10.7418 71.8529C11.2744 72.2295 11.8071 72.512 12.3397 72.7945L11.9846 73.2653C11.6295 73.6419 11.2744 74.0185 10.8306 74.3952C10.3867 74.866 9.94281 75.1484 9.41016 75.4309C8.25608 75.9959 7.10201 76.4666 5.94793 76.7491C4.79385 77.0316 3.72855 77.4082 2.66325 77.879C2.39693 78.0673 2.04183 78.1615 1.7755 78.3498C1.50918 78.5381 1.33163 78.7264 1.15408 79.0089C0.621425 79.3855 0.266325 79.8563 0 80.4213C0 80.5154 0.0887751 80.6096 0.17755 80.5154C0.53265 80.1388 0.976526 79.7622 1.4204 79.3855C1.68673 79.2914 1.86428 79.1972 2.1306 79.1031C2.39693 78.9148 2.66325 78.8206 2.92958 78.6323C3.9061 78.2557 4.9714 77.879 6.03671 77.6907C7.19078 77.5024 8.34486 77.1258 9.41016 76.7491C10.4755 76.3725 11.452 75.7134 12.251 74.9601C12.6061 74.5835 13.0499 74.2069 13.4938 73.8302L13.9377 73.5478C14.9142 73.8302 15.9795 74.0185 17.0448 74.1127C17.3111 74.3952 17.5775 74.5835 17.9326 74.6777C18.3764 74.866 18.8203 75.0543 19.2642 75.1484C20.2407 75.4309 21.2172 75.4309 22.1938 75.2426C24.1468 74.866 26.0999 74.301 27.9641 73.3594C29.8284 72.512 31.7815 71.7588 33.7345 71.0997C35.6876 70.5347 37.6406 70.3464 39.6825 70.5347C40.7478 70.6289 41.8131 70.9113 42.7896 71.1938C43.3222 71.3821 43.8549 71.5704 44.3875 71.7588C44.6539 71.8529 44.9202 71.9471 45.1865 72.0412C45.4528 72.1354 45.8079 72.2295 46.0743 72.3237C46.6069 72.4179 47.0508 71.6646 46.6069 71.1938C46.2518 70.8172 45.8079 70.5347 45.3641 70.3464C44.9202 70.0639 44.3875 69.8756 43.8549 69.6873C42.8784 69.4048 41.9018 69.2165 40.9253 69.0282C38.8835 68.8399 36.9304 68.934 34.9774 69.4048C30.8937 70.4405 27.4315 73.077 23.3478 73.7361C22.2825 73.9244 21.1285 74.0185 20.0632 74.0185H19.8856C24.7682 73.1711 29.1182 70.4405 32.3141 66.4859C33.7345 64.6028 34.9774 62.6254 36.0427 60.554C36.5753 59.5182 37.108 58.5767 37.6406 57.5409C38.1733 56.6935 38.7059 55.8461 39.2386 55.0928C39.4161 55.6578 39.5937 56.2227 39.86 56.7877C40.5702 58.4825 41.5467 60.0832 42.7008 61.4956L43.3222 62.1547L42.612 61.8722C41.7243 61.5897 40.8365 61.2131 39.86 61.0248C39.5049 60.8364 39.061 60.7423 38.5284 60.6481C38.0845 60.554 37.5519 60.554 37.0192 60.4598C36.7529 60.4598 36.5753 60.8364 36.9304 60.9306C37.7294 61.1189 38.4396 61.4956 39.2386 61.778C39.9488 61.9663 40.7478 62.343 41.458 62.6254C42.9671 63.2846 44.3875 64.0378 45.7192 64.8852C47.1396 65.7327 48.4712 66.5801 49.8028 67.5217C51.1344 68.3691 52.3773 69.4048 53.5314 70.4405C54.9518 71.5704 55.8395 73.1711 56.1946 74.9601C56.2834 75.3368 56.9048 75.2426 56.9048 74.7718C56.9936 74.0185 56.9048 73.1711 56.6385 72.4179Z" fill="#591244"/>
<path d="M55.3064 76.1844C53.7085 76.561 52.1993 77.2201 50.6013 77.6909C49.0921 78.1617 47.4942 78.4441 45.8962 78.6324C42.6115 78.9149 39.2381 79.009 35.9534 78.8207C32.4024 78.7266 28.7626 78.7266 25.1228 78.7266C21.3943 78.8207 17.6657 78.9149 14.0259 79.2915C11.8953 79.4798 9.76472 79.574 7.72289 79.8564C5.68106 80.1389 3.55046 80.4213 1.50863 80.798C1.15353 80.8921 1.2423 81.457 1.50863 81.457C2.48515 81.457 3.37291 81.3629 4.34943 81.2687C5.32596 81.1746 6.30249 81.1746 7.19024 81.0804C9.05452 80.9863 10.9188 80.798 12.7831 80.7038C14.6474 80.6096 16.6004 80.6097 18.4647 80.5155C20.329 80.4213 22.1933 80.3272 24.0575 80.3272C27.6973 80.233 31.4259 80.3272 35.0657 80.4213C38.4391 80.5155 41.7238 80.5155 45.0973 80.233C46.9615 79.9506 48.8258 79.574 50.6013 79.1032C52.3768 78.7266 54.1523 77.8792 55.6615 76.7493C55.8391 76.561 55.5727 76.0903 55.3064 76.1844Z" fill="#591244"/>
<path d="M35.5105 41.8167C34.8003 42.2875 34.0901 42.8525 33.4687 43.5116C32.8473 44.1707 32.3146 44.924 31.782 45.5831C30.7167 47.0896 29.7402 48.6903 28.8524 50.291C27.2545 53.4924 25.3014 56.4113 22.9933 59.0478C22.3719 59.7069 21.6617 60.366 20.9515 60.931C20.5076 61.2134 20.1525 61.4959 19.7086 61.7784L19.0872 62.0609C18.8209 62.2492 18.6433 62.3433 18.377 62.4375C18.2882 62.4375 18.2882 62.5317 18.2882 62.6258C18.2882 62.72 18.377 62.72 18.4658 62.72C18.8209 62.6258 19.2647 62.5317 19.6198 62.4375C19.9749 62.2492 20.4188 62.0609 20.7739 61.8725C21.4841 61.4959 22.1943 61.0251 22.9045 60.5543C24.2361 59.4244 25.3902 58.1062 26.4555 56.5997C28.5861 53.5866 30.184 50.291 32.1371 47.1838C32.6697 46.3364 33.2912 45.4889 33.9126 44.7357C34.534 43.8882 35.2442 43.135 35.9544 42.3817C36.0432 42.2875 36.0432 42.005 35.9544 41.9109C35.8656 41.7226 35.6881 41.7226 35.5105 41.8167Z" fill="#591244"/>
<path d="M70.2218 78.8205C70.133 78.4438 69.8667 78.2555 69.6892 78.0672C69.4228 77.7847 69.2453 77.5023 69.0677 77.314C68.8014 76.749 68.4463 76.1841 68.0912 75.6191C67.381 74.4892 66.582 73.3594 65.7831 72.2295C65.3392 71.6645 64.8953 71.1937 64.4514 70.723C63.9188 70.2522 63.2974 69.7814 62.8535 69.3106C62.1433 68.5573 61.3443 67.8982 60.6341 67.2391C60.0127 66.4859 59.3913 65.7326 58.7698 65.0735C57.2607 63.2845 55.7515 61.4014 54.3311 59.4241C51.4903 55.6578 48.8271 51.609 46.5189 47.4661C45.3648 45.3947 44.2995 42.6641 42.0802 41.6284C41.8138 41.5342 41.4587 41.9109 41.7251 42.0992C42.524 42.8524 43.1455 43.6998 43.5893 44.6414C44.122 45.6771 44.6546 46.7129 45.1873 47.7486C46.3414 49.8201 47.5842 51.8915 48.8271 53.8688C51.4015 57.9176 54.3311 61.6839 57.527 65.1677C59.0362 66.7684 60.5453 68.2749 62.1433 69.6872L62.3208 69.8755C62.7647 70.4405 63.2086 71.0996 63.5637 71.6645C63.9188 72.2295 64.2739 72.7944 64.7178 73.4535C65.5167 74.5834 66.2269 75.8074 67.0259 76.8432C67.4698 77.314 67.9137 77.7847 68.3575 78.2555C68.8014 78.6322 69.3341 79.2913 69.8667 79.2913C70.133 79.2913 70.2218 79.1029 70.2218 78.8205C70.2218 78.9146 70.2218 78.8205 70.2218 78.8205Z" fill="#591244"/>
<path d="M63.7416 80.4204C63.1202 80.3263 62.5875 79.8555 62.2325 79.1964C61.8774 78.5373 61.5223 77.7841 61.1672 77.125C60.7233 76.3718 60.2794 75.7127 59.8355 74.9595C59.658 74.677 59.3917 74.3004 59.2141 73.9238C58.9478 73.5471 58.6815 73.1705 58.5039 72.8881C58.4151 72.6997 58.1488 72.8881 58.2376 73.0764C58.4151 73.5471 58.5927 74.0179 58.7702 74.5828C58.859 74.9595 59.0366 75.3361 59.2141 75.8069C59.5692 76.7484 59.9243 77.5958 60.2794 78.5373C60.6345 79.2906 61.1672 80.0438 61.7886 80.6088C62.0549 80.7971 62.41 80.9854 62.7651 81.0795C63.1202 81.1737 63.4753 81.0795 63.8304 80.8912C63.9192 80.7971 63.9192 80.6087 63.8304 80.5146C63.8304 80.5146 63.8304 80.4204 63.7416 80.4204Z" fill="#591244"/>
<path d="M64.895 80.6091C64.7174 80.6091 64.6287 80.7032 64.6287 80.8916V80.9857C64.8062 81.3624 65.1613 81.6449 65.5164 81.6449C65.9602 81.7391 66.4928 81.5507 66.6704 81.0799C67.0255 80.2324 65.3388 80.6091 64.895 80.6091Z" fill="#591244"/>
<path d="M68.8008 80.6089C68.5345 80.5148 68.3569 80.7031 68.0906 80.7972C68.0019 80.8913 67.7355 81.0796 67.558 80.9855C67.3804 80.8914 67.2917 81.1738 67.4692 81.2679C67.558 81.3621 67.6468 81.4562 67.8243 81.5504C68.0019 81.6445 68.1794 81.6445 68.2682 81.6445C68.6233 81.6445 69.0671 81.3621 69.0671 80.9855C69.0671 80.7972 68.9784 80.7031 68.8008 80.6089Z" fill="#591244"/>
<path d="M71.1088 79.8556C71.0201 79.573 70.7537 79.573 70.4874 79.6672C70.3986 79.7614 70.3986 79.8556 70.3098 79.9498C70.3098 80.1382 70.221 80.3266 70.221 80.4207C70.221 80.5149 70.0435 80.7975 69.9547 80.7975C69.7771 80.7975 69.7771 81.0801 69.9547 81.0801C70.1323 81.0801 70.221 81.1743 70.3986 81.1743C70.5762 81.1743 70.7537 81.0801 70.9313 80.9859C71.1976 80.7975 71.3752 80.2324 71.1088 79.8556Z" fill="#591244"/>
<path d="M46.6064 10.2734C46.6064 9.14351 46.0738 8.01362 45.2748 7.26036C44.5646 6.50709 43.6768 6.0363 42.8779 5.3772C41.9901 4.7181 41.1023 3.87068 40.3034 3.02326C40.2146 2.9291 40.1258 2.9291 40.037 3.02326C39.9483 3.11741 39.9483 3.21157 40.037 3.21157C40.5697 4.15315 41.1911 5.00057 41.9013 5.84799C42.5228 6.60125 43.233 7.1662 43.9432 7.91946C44.5646 8.57856 45.0085 9.42599 45.0973 10.2734C45.2748 10.8384 45.2748 11.3091 45.2748 11.8741C45.186 12.439 45.2748 13.004 45.3636 13.4748C45.3636 13.5689 45.5411 13.6631 45.6299 13.6631C45.7187 13.6631 45.7187 13.6631 45.7187 13.5689C46.0738 13.0981 46.2513 12.5332 46.3401 11.9682C46.5177 11.4033 46.6064 10.8384 46.6064 10.2734Z" fill="#591244"/>
<path d="M37.8191 17.1474C37.6416 17.2415 37.3753 17.2415 37.1089 17.3356C36.8426 17.4298 36.5763 17.5239 36.31 17.6181C36.1324 17.7122 34.9784 18.1829 34.8896 18.1829C34.8008 18.1829 34.8008 18.3712 34.8896 18.3712C35.0671 18.4653 36.2212 19.2184 37.0202 18.936C37.6416 18.7477 38.0854 18.0888 38.0854 17.4298C38.0854 17.3356 37.9079 17.0532 37.8191 17.1474Z" fill="#591244"/>
<path d="M32.3138 13.851C31.7812 14.0393 31.2485 14.4159 30.6271 14.5101C30.0944 14.7925 29.3842 14.7925 28.7628 14.7925C28.5853 14.7925 28.5853 14.9808 28.674 15.0749C29.2955 15.4515 30.0944 15.6398 30.8046 15.4515C31.5148 15.4515 32.225 14.9808 32.6689 14.3218C32.7577 14.1335 32.6689 13.7569 32.3138 13.851Z" fill="#591244"/>
<path d="M33.913 0.104481C31.7824 -0.272148 29.5631 0.386953 27.8763 1.79931C26.4559 3.21167 25.5682 5.09482 25.3906 7.16628C25.3906 8.39032 25.5682 9.52021 25.8345 10.6501C26.1008 11.4975 26.5447 12.1566 26.3672 11.1209C26.1896 10.0851 26.1896 9.04942 26.1896 8.01369C26.3672 6.2247 27.0774 4.52987 28.2314 3.21167C29.5631 1.89347 31.3386 1.32853 33.2028 1.51684C38.7957 1.70515 39.5059 6.03639 41.3702 10.1793C41.9916 11.4975 41.9916 11.215 41.9028 10.1793C41.9916 5.18897 38.6181 0.857739 33.913 0.104481Z" fill="#591244"/>
<path d="M41.5477 13.381C40.7487 12.4394 39.6834 11.6862 38.4406 11.4979C37.1977 11.2154 35.9549 10.7446 34.8008 9.99138C33.8243 9.23814 33.0253 8.29659 32.3151 7.35504C31.8712 6.79011 31.5161 6.22518 31.0722 5.66024C30.7171 5.00116 30.362 4.43623 29.8294 3.96545C29.7406 3.8713 29.4743 3.58883 29.563 4.24792C29.7406 5.09531 29.8294 6.03687 29.8294 6.88426C29.7406 7.44919 29.563 8.10828 29.2967 8.67321C29.0304 9.3323 28.6753 9.89723 28.409 10.4622C28.0539 10.9329 27.9651 11.592 28.0539 12.1569C28.0539 12.2511 28.2314 12.2511 28.2314 12.1569C28.3202 11.3096 28.6753 10.5563 29.2079 10.0855C29.7406 9.61476 30.1845 9.14399 30.6284 8.67321C30.8059 8.4849 30.8947 8.29659 30.9835 8.01412L31.0722 8.10828C31.7824 9.3323 32.6702 10.368 33.7355 11.2154C34.8896 12.0628 36.1324 12.5336 37.5528 12.7219C38.8844 12.9102 40.1273 13.1927 41.3701 13.6634C41.4589 13.7576 41.7252 13.5693 41.5477 13.381Z" fill="#591244"/>
</svg>
