<svg width="60" height="64" viewBox="0 0 60 64" fill="none" xmlns="http://www.w3.org/2000/svg">
<circle cx="30" cy="34" r="30" fill="#F7E3EC"/>
<g clip-path="url(#clip0)">
<path d="M58.0747 53.7274H5.00692C4.92033 53.7304 4.83404 53.7156 4.75342 53.6838C4.67281 53.652 4.59958 53.6039 4.53832 53.5425C4.47705 53.4811 4.42905 53.4078 4.3973 53.327C4.36556 53.2463 4.35074 53.1598 4.35378 53.0731V35.462C4.35522 34.6093 4.69401 33.7919 5.29593 33.1889C5.89786 32.5859 6.71382 32.2466 7.56506 32.2451H21.4443C21.6176 32.2451 21.7837 32.3141 21.9062 32.4368C22.0287 32.5595 22.0975 32.7259 22.0975 32.8994C22.0975 33.0729 22.0287 33.2393 21.9062 33.362C21.7837 33.4847 21.6176 33.5537 21.4443 33.5537H7.56506C7.06158 33.5593 6.58032 33.7622 6.22428 34.1189C5.86825 34.4755 5.66572 34.9576 5.66007 35.462V52.4733H57.476V35.462C57.4703 34.9576 57.2678 34.4755 56.9118 34.1189C56.5557 33.7622 56.0745 33.5593 55.571 33.5537H41.6373C41.4641 33.5537 41.298 33.4847 41.1755 33.362C41.053 33.2393 40.9842 33.0729 40.9842 32.8994C40.9842 32.7259 41.053 32.5595 41.1755 32.4368C41.298 32.3141 41.4641 32.2451 41.6373 32.2451H55.5166C56.3678 32.2466 57.1838 32.5859 57.7857 33.1889C58.3876 33.7919 58.7264 34.6093 58.7279 35.462V53.1276C58.7258 53.2104 58.7071 53.292 58.6729 53.3674C58.6386 53.4429 58.5896 53.5106 58.5286 53.5666C58.4676 53.6226 58.396 53.6657 58.318 53.6933C58.24 53.7209 58.1573 53.7325 58.0747 53.7274Z" fill="#591244" stroke="#591244" stroke-miterlimit="10"/>
<path d="M7.40178 43.8042C7.22855 43.8042 7.06242 43.7352 6.93994 43.6125C6.81745 43.4898 6.74863 43.3234 6.74863 43.1499C6.74863 42.9764 6.81745 42.8099 6.93994 42.6872C7.06242 42.5645 7.22855 42.4956 7.40178 42.4956C7.70973 42.4978 8.01505 42.4386 8.29998 42.3216C8.58492 42.2045 8.84378 42.0319 9.06155 41.8138C9.27931 41.5956 9.45162 41.3363 9.56847 41.0509C9.68532 40.7654 9.74437 40.4596 9.7422 40.1511C9.7422 39.9776 9.81101 39.8112 9.9335 39.6885C10.056 39.5658 10.2221 39.4968 10.3953 39.4968C10.5686 39.4968 10.7347 39.5658 10.8572 39.6885C10.9797 39.8112 11.0485 39.9776 11.0485 40.1511C11.0485 40.6308 10.9542 41.1059 10.7709 41.5491C10.5876 41.9923 10.319 42.395 9.98039 42.7342C9.64176 43.0734 9.23975 43.3425 8.79731 43.5261C8.35487 43.7097 7.88067 43.8042 7.40178 43.8042Z" fill="#591244" stroke="#591244" stroke-miterlimit="10"/>
<path d="M13.3889 43.8042C12.4217 43.8042 11.4942 43.4193 10.8103 42.7342C10.1264 42.0491 9.7422 41.12 9.7422 40.1511C9.7422 39.9776 9.81102 39.8112 9.9335 39.6885C10.056 39.5658 10.2221 39.4968 10.3953 39.4968C10.5686 39.4968 10.7347 39.5658 10.8572 39.6885C10.9797 39.8112 11.0485 39.9776 11.0485 40.1511C11.0485 40.7729 11.2951 41.3692 11.734 41.8089C12.1729 42.2486 12.7682 42.4956 13.3889 42.4956C14.0096 42.4956 14.6049 42.2486 15.0438 41.8089C15.4828 41.3692 15.7293 40.7729 15.7293 40.1511C15.7293 39.9776 15.7982 39.8112 15.9206 39.6885C16.0431 39.5658 16.2093 39.4968 16.3825 39.4968C16.5557 39.4968 16.7218 39.5658 16.8443 39.6885C16.9668 39.8112 17.0356 39.9776 17.0356 40.1511C17.0356 41.12 16.6514 42.0491 15.9675 42.7342C15.2836 43.4193 14.3561 43.8042 13.3889 43.8042Z" fill="#591244" stroke="#591244" stroke-miterlimit="10"/>
<path d="M19.4305 43.8042C18.4633 43.8042 17.5358 43.4193 16.8519 42.7342C16.168 42.0491 15.7838 41.12 15.7838 40.1511C15.7838 39.9776 15.8526 39.8112 15.9751 39.6885C16.0976 39.5658 16.2637 39.4968 16.4369 39.4968C16.6101 39.4968 16.7763 39.5658 16.8988 39.6885C17.0212 39.8112 17.0901 39.9776 17.0901 40.1511C17.0901 40.7729 17.3366 41.3692 17.7755 41.8089C18.2145 42.2486 18.8098 42.4956 19.4305 42.4956C20.0512 42.4956 20.6465 42.2486 21.0854 41.8089C21.5243 41.3692 21.7709 40.7729 21.7709 40.1511C21.7709 40.0652 21.7878 39.9801 21.8206 39.9007C21.8534 39.8213 21.9016 39.7492 21.9622 39.6885C22.0229 39.6277 22.0949 39.5795 22.1741 39.5466C22.2533 39.5138 22.3383 39.4968 22.424 39.4968C22.5098 39.4968 22.5947 39.5138 22.674 39.5466C22.7532 39.5795 22.8252 39.6277 22.8859 39.6885C22.9465 39.7492 22.9946 39.8213 23.0275 39.9007C23.0603 39.9801 23.0772 40.0652 23.0772 40.1511C23.0772 41.12 22.693 42.0491 22.0091 42.7342C21.3252 43.4193 20.3976 43.8042 19.4305 43.8042Z" fill="#591244" stroke="#591244" stroke-miterlimit="10"/>
<path d="M55.5166 43.8042C54.5494 43.8042 53.6219 43.4193 52.938 42.7342C52.2541 42.0491 51.8699 41.12 51.8699 40.1511C51.8699 39.9776 51.9387 39.8112 52.0612 39.6885C52.1837 39.5658 52.3498 39.4968 52.523 39.4968C52.6962 39.4968 52.8624 39.5658 52.9849 39.6885C53.1073 39.8112 53.1762 39.9776 53.1762 40.1511C53.174 40.4596 53.233 40.7654 53.3499 41.0509C53.4667 41.3363 53.639 41.5956 53.8568 41.8138C54.0746 42.0319 54.3334 42.2045 54.6184 42.3216C54.9033 42.4386 55.2086 42.4978 55.5166 42.4956C55.6032 42.4926 55.6895 42.5074 55.7701 42.5392C55.8507 42.571 55.9239 42.6191 55.9852 42.6805C56.0465 42.7418 56.0945 42.8152 56.1262 42.896C56.158 42.9767 56.1728 43.0631 56.1697 43.1499C56.1669 43.3225 56.0972 43.4873 55.9753 43.6094C55.8534 43.7315 55.6889 43.8014 55.5166 43.8042Z" fill="#591244" stroke="#591244" stroke-miterlimit="10"/>
<path d="M49.475 43.8042C48.5078 43.8042 47.5803 43.4193 46.8964 42.7342C46.2125 42.0491 45.8283 41.12 45.8283 40.1511C45.8283 39.9776 45.8971 39.8112 46.0196 39.6885C46.1421 39.5658 46.3082 39.4968 46.4814 39.4968C46.6547 39.4968 46.8208 39.5658 46.9433 39.6885C47.0658 39.8112 47.1346 39.9776 47.1346 40.1511C47.1346 40.7729 47.3812 41.3692 47.8201 41.8089C48.259 42.2486 48.8543 42.4956 49.475 42.4956C50.0957 42.4956 50.691 42.2486 51.1299 41.8089C51.5689 41.3692 51.8154 40.7729 51.8154 40.1511C51.8154 39.9776 51.8843 39.8112 52.0067 39.6885C52.1292 39.5658 52.2954 39.4968 52.4686 39.4968C52.6418 39.4968 52.8079 39.5658 52.9304 39.6885C53.0529 39.8112 53.1217 39.9776 53.1217 40.1511C53.1217 41.12 52.7375 42.0491 52.0536 42.7342C51.3697 43.4193 50.4422 43.8042 49.475 43.8042Z" fill="#591244" stroke="#591244" stroke-miterlimit="10"/>
<path d="M43.4879 43.8042C42.5207 43.8042 41.5932 43.4193 40.9093 42.7342C40.2254 42.0491 39.8412 41.12 39.8412 40.1511C39.8412 39.9776 39.91 39.8112 40.0325 39.6885C40.155 39.5658 40.3211 39.4968 40.4943 39.4968C40.6675 39.4968 40.8337 39.5658 40.9562 39.6885C41.0786 39.8112 41.1475 39.9776 41.1475 40.1511C41.1475 40.7729 41.394 41.3692 41.8329 41.8089C42.2719 42.2486 42.8672 42.4956 43.4879 42.4956C44.1086 42.4956 44.7039 42.2486 45.1428 41.8089C45.5817 41.3692 45.8283 40.7729 45.8283 40.1511C45.8283 39.9776 45.8971 39.8112 46.0196 39.6885C46.1421 39.5658 46.3082 39.4968 46.4814 39.4968C46.6547 39.4968 46.8208 39.5658 46.9433 39.6885C47.0658 39.8112 47.1346 39.9776 47.1346 40.1511C47.1346 41.12 46.7504 42.0491 46.0665 42.7342C45.3826 43.4193 44.455 43.8042 43.4879 43.8042Z" fill="#591244" stroke="#591244" stroke-miterlimit="10"/>
<path d="M31.4592 43.8042C30.492 43.8042 29.5645 43.4193 28.8806 42.7342C28.1967 42.0491 27.8125 41.12 27.8125 40.1511C27.8125 39.9776 27.8813 39.8112 28.0038 39.6885C28.1263 39.5658 28.2924 39.4968 28.4656 39.4968C28.6388 39.4968 28.805 39.5658 28.9275 39.6885C29.0499 39.8112 29.1188 39.9776 29.1188 40.1511C29.1188 40.7729 29.3653 41.3692 29.8042 41.8089C30.2432 42.2486 30.8385 42.4956 31.4592 42.4956C32.0799 42.4956 32.6752 42.2486 33.1141 41.8089C33.553 41.3692 33.7996 40.7729 33.7996 40.1511C33.7996 39.9776 33.8684 39.8112 33.9909 39.6885C34.1134 39.5658 34.2795 39.4968 34.4527 39.4968C34.626 39.4968 34.7921 39.5658 34.9146 39.6885C35.0371 39.8112 35.1059 39.9776 35.1059 40.1511C35.1059 41.12 34.7217 42.0491 34.0378 42.7342C33.3539 43.4193 32.4263 43.8042 31.4592 43.8042Z" fill="#591244" stroke="#591244" stroke-miterlimit="10"/>
<path d="M25.4176 43.8042C24.4504 43.8042 23.5229 43.4193 22.839 42.7342C22.1551 42.0491 21.7709 41.12 21.7709 40.1511C21.7709 39.9776 21.8397 39.8112 21.9622 39.6885C22.0847 39.5658 22.2508 39.4968 22.424 39.4968C22.5973 39.4968 22.7634 39.5658 22.8859 39.6885C23.0084 39.8112 23.0772 39.9776 23.0772 40.1511C23.0772 40.7729 23.3238 41.3692 23.7627 41.8089C24.2016 42.2486 24.7969 42.4956 25.4176 42.4956C26.0383 42.4956 26.6336 42.2486 27.0725 41.8089C27.5115 41.3692 27.758 40.7729 27.758 40.1511C27.758 39.9776 27.8269 39.8112 27.9493 39.6885C28.0718 39.5658 28.238 39.4968 28.4112 39.4968C28.5844 39.4968 28.7505 39.5658 28.873 39.6885C28.9955 39.8112 29.0643 39.9776 29.0643 40.1511C29.0643 41.12 28.6801 42.0491 27.9962 42.7342C27.3123 43.4193 26.3848 43.8042 25.4176 43.8042Z" fill="#591244" stroke="#591244" stroke-miterlimit="10"/>
<path d="M37.4463 43.8042C36.9674 43.8042 36.4932 43.7097 36.0508 43.5261C35.6083 43.3425 35.2063 43.0734 34.8677 42.7342C34.5291 42.395 34.2605 41.9923 34.0772 41.5491C33.8939 41.1059 33.7996 40.6308 33.7996 40.1511C33.7996 39.9776 33.8684 39.8112 33.9909 39.6885C34.1134 39.5658 34.2795 39.4968 34.4527 39.4968C34.626 39.4968 34.7921 39.5658 34.9146 39.6885C35.0371 39.8112 35.1059 39.9776 35.1059 40.1511C35.1059 40.7729 35.3525 41.3692 35.7914 41.8089C36.2303 42.2486 36.8256 42.4956 37.4463 42.4956C38.067 42.4956 38.6623 42.2486 39.1012 41.8089C39.5402 41.3692 39.7867 40.7729 39.7867 40.1511C39.7867 39.9776 39.8556 39.8112 39.978 39.6885C40.1005 39.5658 40.2667 39.4968 40.4399 39.4968C40.6131 39.4968 40.7792 39.5658 40.9017 39.6885C41.0242 39.8112 41.093 39.9776 41.093 40.1511C41.093 41.12 40.7088 42.0491 40.0249 42.7342C39.341 43.4193 38.4135 43.8042 37.4463 43.8042Z" fill="#591244" stroke="#591244" stroke-miterlimit="10"/>
<path d="M37.5552 27.011C37.4686 27.014 37.3823 26.9992 37.3017 26.9674C37.2211 26.9356 37.1478 26.8875 37.0866 26.8261C37.0253 26.7647 36.9773 26.6914 36.9456 26.6106C36.9138 26.5299 36.899 26.4434 36.902 26.3567V12.1261L33.7452 8.96371H29.1188L25.9619 12.1261V26.4112C25.9619 26.5847 25.8931 26.7512 25.7706 26.8739C25.6481 26.9966 25.482 27.0655 25.3088 27.0655C25.1355 27.0655 24.9694 26.9966 24.8469 26.8739C24.7244 26.7512 24.6556 26.5847 24.6556 26.4112V11.8535C24.6515 11.6924 24.7101 11.536 24.8189 11.4173L28.3568 7.87324C28.4752 7.76424 28.6314 7.70559 28.7922 7.70967H33.9629C34.1237 7.70559 34.2798 7.76424 34.3983 7.87324L37.9362 11.4173C38.045 11.536 38.1035 11.6924 38.0995 11.8535V26.4112C38.2083 26.7383 37.9362 27.011 37.5552 27.011Z" fill="#591244" stroke="#591244" stroke-miterlimit="10"/>
<path d="M39.8956 31.6455H22.9139C22.8273 31.6485 22.741 31.6337 22.6604 31.6019C22.5798 31.5701 22.5066 31.522 22.4453 31.4606C22.384 31.3993 22.336 31.3259 22.3043 31.2451C22.2725 31.1644 22.2577 31.0779 22.2608 30.9912V28.7557C22.2567 28.5946 22.3152 28.4383 22.4241 28.3196L24.7645 25.975C24.883 25.866 25.0391 25.8074 25.1999 25.8115H31.3503C31.5235 25.8115 31.6897 25.8804 31.8122 26.0031C31.9347 26.1258 32.0035 26.2922 32.0035 26.4658C32.0035 26.6393 31.9347 26.8057 31.8122 26.9284C31.6897 27.0511 31.5235 27.12 31.3503 27.12H25.5265L23.567 29.0829V30.446H39.2425V29.0829L37.1197 26.9565C37.059 26.8956 37.0108 26.8234 36.9779 26.7438C36.945 26.6643 36.9281 26.5791 36.9281 26.493C36.9281 26.407 36.945 26.3217 36.9779 26.2422C37.0108 26.1627 37.059 26.0904 37.1197 26.0296C37.1805 25.9687 37.2526 25.9204 37.332 25.8875C37.4114 25.8546 37.4965 25.8376 37.5824 25.8376C37.6683 25.8376 37.7534 25.8546 37.8328 25.8875C37.9121 25.9204 37.9843 25.9687 38.045 26.0296L40.3855 28.3741C40.4943 28.4928 40.5528 28.6492 40.5487 28.8103V31.0457C40.5351 31.2096 40.4602 31.3624 40.3392 31.4735C40.2182 31.5847 40.0598 31.6461 39.8956 31.6455Z" fill="#591244" stroke="#591244" stroke-miterlimit="10"/>
<path d="M31.4047 37.2614C29.7447 37.2614 28.1526 36.6008 26.9788 35.4249C25.8049 34.249 25.1455 32.6542 25.1455 30.9912C25.1455 30.8177 25.2143 30.6513 25.3368 30.5286C25.4593 30.4058 25.6254 30.3369 25.7986 30.3369C25.9718 30.3369 26.138 30.4058 26.2604 30.5286C26.3829 30.6513 26.4517 30.8177 26.4517 30.9912C26.4517 32.3216 26.9793 33.5974 27.9184 34.5382C28.8575 35.4789 30.1311 36.0074 31.4592 36.0074C32.7872 36.0074 34.0609 35.4789 35 34.5382C35.939 33.5974 36.4666 32.3216 36.4666 30.9912C36.4666 30.8177 36.5354 30.6513 36.6579 30.5286C36.7804 30.4058 36.9465 30.3369 37.1197 30.3369C37.293 30.3369 37.4591 30.4058 37.5816 30.5286C37.7041 30.6513 37.7729 30.8177 37.7729 30.9912C37.7292 32.6592 37.0409 34.2451 35.853 35.4147C34.6651 36.5844 33.0703 37.2464 31.4047 37.2614Z" fill="#591244" stroke="#591244" stroke-miterlimit="10"/>
<path d="M5.11579 22.4309C4.95958 22.4342 4.80744 22.3809 4.68741 22.2807C4.56738 22.1805 4.48755 22.0402 4.46264 21.8857C3.59179 16.2698 5.66007 9.39983 12.1371 7.70961C12.2251 7.68083 12.3182 7.67052 12.4104 7.67931C12.5026 7.68811 12.592 7.71583 12.673 7.76074C12.7541 7.80565 12.8251 7.8668 12.8815 7.94037C12.938 8.01394 12.9787 8.09836 13.0011 8.18838C13.0236 8.2784 13.0273 8.37209 13.0121 8.46362C12.9969 8.55514 12.963 8.64254 12.9125 8.72038C12.8621 8.79822 12.7962 8.86483 12.719 8.91606C12.6418 8.96729 12.5549 9.00205 12.4636 9.01817C6.80307 10.4358 5.00693 16.5969 5.76893 21.6676C5.78545 21.8392 5.73945 22.011 5.63941 22.1513C5.53937 22.2916 5.39206 22.3909 5.22464 22.4309H5.11579Z" fill="#591244" stroke="#591244" stroke-miterlimit="10"/>
<path d="M16.9268 16.4879C15.8249 16.4868 14.7539 16.1228 13.8788 15.4519C11.8649 13.9798 10.5586 10.872 12.1915 7.32793C13.8788 3.56581 19.0495 -0.032732 25.6898 0.294409C27.4024 0.367478 29.0207 1.10009 30.2072 2.33942C31.3936 3.57876 32.0566 5.22912 32.0579 6.94627V8.25483C32.0579 8.42836 31.9891 8.59477 31.8666 8.71747C31.7441 8.84018 31.578 8.90911 31.4048 8.90911C31.2315 8.90911 31.0654 8.84018 30.9429 8.71747C30.8204 8.59477 30.7516 8.42836 30.7516 8.25483V6.94627C30.7395 5.55567 30.1973 4.22228 29.2362 3.21889C28.275 2.21549 26.9674 1.61793 25.5809 1.54845C19.5938 1.27583 14.8041 4.54724 13.3345 7.81864C11.9193 10.9265 13.1168 13.271 14.5863 14.3615C16.0559 15.4519 17.7976 15.4519 19.0495 14.3069C19.4278 13.9971 19.7141 13.5893 19.8773 13.1279C20.0404 12.6665 20.0741 12.1691 19.9748 11.6898C19.7571 10.5448 18.8862 9.61792 17.4166 9.01816C16.4671 8.63545 15.4448 8.46788 14.4231 8.52745C14.3409 8.53103 14.2588 8.51835 14.1815 8.49015C14.1041 8.46195 14.0331 8.41877 13.9725 8.36307C13.9118 8.30738 13.8627 8.24027 13.828 8.16556C13.7932 8.09086 13.7735 8.01003 13.7699 7.92769C13.7663 7.84535 13.779 7.76311 13.8071 7.68566C13.8353 7.60822 13.8784 7.53709 13.934 7.47633C13.9896 7.41558 14.0566 7.36639 14.1312 7.33157C14.2057 7.29675 14.2864 7.27699 14.3686 7.27341C15.5591 7.22369 16.7465 7.42813 17.8521 7.87316C19.7026 8.58197 20.9545 9.94506 21.2266 11.5262C21.3499 12.226 21.2893 12.9458 21.0507 13.615C20.8121 14.2842 20.4038 14.8797 19.8659 15.3429C19.0743 16.0963 18.0186 16.5076 16.9268 16.4879Z" fill="#591244" stroke="#591244" stroke-miterlimit="10"/>
</g>
<defs>
<clipPath id="clip0">
<rect x="4" width="55" height="54" fill="white"/>
</clipPath>
</defs>
</svg>
