<svg width="60" height="63" viewBox="0 0 60 63" fill="none" xmlns="http://www.w3.org/2000/svg">
<circle cx="30" cy="30" r="30" fill="#F7E3EC"/>
<g clip-path="url(#clip0)">
<path d="M11.4598 32.6315C9.83021 24.7919 10.5744 18.3035 12.754 13.2337C14.6446 8.83736 17.6137 5.50829 21.053 3.2889C24.4956 1.06735 28.4105 -0.0412561 32.1885 0.00117326C35.974 0.0446905 39.6269 1.2425 42.5345 3.63595C44.0466 4.88055 45.5306 6.71263 46.7363 8.71442C47.9475 10.7249 48.8836 12.9117 49.2934 14.8504C49.4272 15.4846 49.5501 16.1591 49.6698 16.825C50.2716 20.1399 50.8335 23.2361 53.629 23.8476C53.8835 23.903 54.0442 24.1554 53.9892 24.4122C53.9342 24.6689 53.684 24.831 53.4295 24.7756C50.0225 24.0292 49.4056 20.6327 48.7456 16.9947C48.6302 16.3593 48.5137 15.7142 48.3713 15.0462C47.9831 13.2076 47.0879 11.1253 45.9318 9.2029C44.7799 7.29141 43.3703 5.54528 41.9403 4.36922C39.1998 2.11503 35.7562 0.98684 32.1788 0.945498C28.5766 0.904157 24.8418 1.96271 21.5556 4.08418C18.2651 6.20674 15.4254 9.39329 13.6136 13.6047C11.4943 18.5417 10.7836 24.8865 12.41 32.5858C12.7292 32.6511 13.0377 32.7991 13.3235 33.0254C13.455 33.1309 13.5769 33.2484 13.688 33.3757C13.8066 32.65 14.0018 31.9287 14.1658 31.3162C14.251 31.0018 14.0137 31.8798 14.2197 31.1106C16.381 23.0534 21.4456 19.8886 26.4336 17.8443C26.6375 17.7562 26.8413 17.6757 27.043 17.5996C27.964 17.2373 28.8786 16.9065 29.7662 16.5867C34.3056 14.9504 38.1353 13.5699 38.4449 9.09302C38.4707 8.83192 38.7015 8.64153 38.9593 8.66764C39.2063 8.69266 39.3907 8.9059 39.3831 9.15612C39.3594 9.50426 39.3163 9.85022 39.2526 10.1929C45.11 11.3537 46.0224 16.2331 46.8496 20.6567C47.4751 24.002 48.0489 27.0657 50.8271 27.6738C51.0816 27.7293 51.2423 27.9817 51.1873 28.2385C51.1323 28.4952 50.8821 28.6573 50.6275 28.6018C47.2411 27.8598 46.6112 24.4992 45.9253 20.8307C45.1531 16.6977 44.2989 12.1392 39.0175 11.1133C38.6293 12.3089 37.9628 13.25 37.0946 14.029C38.2065 14.3695 39.147 14.8406 39.9515 15.4106C40.9761 16.1374 41.7785 17.0251 42.4321 18.0162C43.5181 19.6634 43.7726 21.3616 44.0304 23.0817C44.4208 25.6883 44.8198 28.3505 48.4328 30.769C48.6496 30.9137 48.7089 31.2074 48.5655 31.4261C48.422 31.6448 48.1308 31.7046 47.914 31.5599C43.9506 28.9075 43.5213 26.0354 43.0996 23.2231C42.8581 21.6064 42.6186 20.0115 41.648 18.5395C41.0559 17.6409 40.3322 16.8402 39.4101 16.1853C38.5311 15.563 37.4688 15.0701 36.1649 14.7535C34.9829 15.563 33.5474 16.1874 31.9771 16.7847C32.1454 16.7945 32.3007 16.8097 32.4441 16.8271C38.8126 17.6496 39.9429 21.8371 41.1282 26.2203C41.992 29.4145 42.8839 32.7196 46.0278 34.6921C46.2467 34.8335 46.3092 35.1272 46.169 35.3481C46.031 35.5635 45.7484 35.6309 45.5306 35.4982C43.8287 34.4299 42.7362 33.0406 41.9575 31.5033C41.9392 31.4848 41.9219 31.4653 41.9057 31.4435C39.8167 28.6018 38.0437 29.3481 36.2717 30.0956C35.2482 30.5264 34.2225 30.9583 33.0934 30.8636C32.9995 30.856 32.9111 30.8201 32.8378 30.7603C32.6242 30.6036 32.4818 30.423 32.4053 30.2544C32.3449 30.1227 32.319 29.99 32.3265 29.8682C32.3363 29.6887 32.4085 29.5342 32.5379 29.421C32.6307 29.3405 32.745 29.2894 32.8669 29.2752C32.9769 29.2611 33.0934 29.2459 33.2357 29.2252C33.3295 29.2122 33.4029 29.2013 33.4298 29.1958C34.1783 29.0337 34.8524 28.8074 35.4952 28.5909C36.4766 28.2602 37.3879 27.9556 38.3812 27.9121C39.1405 27.8805 39.8965 28.0154 40.6396 28.4876C40.7043 28.5289 40.769 28.5724 40.8326 28.6181C40.6126 27.9055 40.4163 27.1842 40.2233 26.4673C39.1232 22.3963 38.0728 18.5069 32.3276 17.7649C31.6881 17.6812 30.7196 17.6855 29.5796 17.8846C28.8754 18.0086 28.1819 18.1925 27.5089 18.434C22.4993 20.3999 17.2751 23.3536 15.1289 31.3532C14.9595 31.9864 15.1946 31.1062 15.0706 31.5621C14.7794 32.6391 14.389 34.0861 14.5562 35.1066C14.5864 35.2164 14.6133 35.3329 14.6403 35.4504C14.6468 35.471 14.6511 35.4917 14.6532 35.5124C14.6996 35.7397 14.7374 35.9791 14.7643 36.2315C14.7891 36.4926 14.5993 36.7243 14.3405 36.7483C14.086 36.7722 13.8584 36.5872 13.8293 36.3316C13.8055 36.1107 13.7743 35.9029 13.7344 35.7071C13.6923 35.5755 13.6599 35.4406 13.6373 35.3046C13.5974 35.1621 13.5521 35.0282 13.5046 34.9009C13.304 34.3809 13.0398 34.0001 12.7432 33.7651C12.4833 33.5584 12.1975 33.4671 11.9139 33.4975C11.8157 33.5084 11.7187 33.5323 11.6259 33.5693C10.8332 33.8794 10.4288 34.666 10.2584 35.6027C9.98228 37.1105 10.2983 38.9807 10.6143 40.0871C11.1071 41.8158 11.9516 43.3117 12.9147 44.3899C13.8239 45.406 14.8247 46.0403 15.7091 46.1284C15.2615 44.8893 14.8657 43.5794 14.5217 42.201C14.4559 41.9475 14.6069 41.6886 14.8582 41.6222C15.1094 41.5558 15.3661 41.7081 15.4319 41.9616C15.433 41.9649 15.433 41.9682 15.4341 41.9714C15.8428 43.612 16.3292 45.1547 16.8857 46.5875C17.4541 48.0508 18.0893 49.3976 18.785 50.6172C18.9111 50.8457 18.8303 51.134 18.6038 51.2613C18.3816 51.3864 18.1012 51.3102 17.9707 51.0894C17.2675 49.8546 16.6258 48.5045 16.0564 47.0542C15.9992 47.076 15.9388 47.088 15.8784 47.088C14.6824 47.0727 13.3623 46.3046 12.218 45.0274C11.1611 43.8459 10.24 42.2195 9.70618 40.3504C9.3643 39.1526 9.02565 37.1138 9.33086 35.434C9.55735 34.1949 10.13 33.1396 11.284 32.6881C11.3412 32.6652 11.3994 32.6457 11.4587 32.6283L11.4598 32.6315ZM18.6059 53.881C20.6777 53.881 22.358 52.186 22.358 50.0961H23.3006C23.3006 52.186 24.9798 53.8799 27.0527 53.881V54.8319C24.9809 54.8319 23.3006 56.5269 23.3006 58.6168H22.358C22.358 56.5269 20.6777 54.8319 18.6059 54.8319V53.881ZM21.9245 53.4447C21.5556 53.8168 21.1274 54.1258 20.6583 54.3564C21.6031 54.8221 22.3666 55.5923 22.8282 56.5454C23.2898 55.5923 24.0534 54.8221 24.9982 54.3564C24.0534 53.8908 23.2898 53.1205 22.8282 52.1675C22.5996 52.6408 22.2933 53.0727 21.9245 53.4447ZM8 63.2057C10.652 63.2057 12.8015 61.0374 12.8015 58.3622H13.7441C13.7441 61.0374 15.8935 63.2057 18.5455 63.2057V64.1565C15.8935 64.1565 13.7441 66.3248 13.7441 69H12.8015C12.8015 66.3248 10.652 64.1565 8 64.1565V63.2057ZM12.0616 62.4594C11.5504 62.9761 10.9465 63.3906 10.2821 63.6811C11.6227 64.2675 12.6915 65.3467 13.2728 66.6979C13.8541 65.3456 14.9239 64.2675 16.2634 63.6811C14.9229 63.0947 13.8541 62.0155 13.2728 60.6643C12.9848 61.3333 12.5739 61.9426 12.0616 62.4594ZM27.0948 35.0391C27.2781 34.8531 27.5747 34.852 27.7591 35.0369C27.9435 35.2219 27.9446 35.5211 27.7613 35.7071C27.6577 35.8115 27.5585 35.9084 27.4636 35.9943C26.1964 37.1486 24.7156 37.6861 23.2866 37.6763C21.8468 37.6654 20.4663 37.0975 19.4116 36.0433C19.3318 35.9628 19.2573 35.8855 19.1905 35.8105C19.0168 35.6157 19.033 35.3154 19.2261 35.1403C19.4191 34.9651 19.7168 34.9815 19.8904 35.1762C19.9551 35.2491 20.0177 35.3144 20.0759 35.372C20.9538 36.2489 22.0981 36.7211 23.292 36.7308C24.4945 36.7406 25.752 36.2794 26.837 35.2904C26.9298 35.2045 27.0171 35.1218 27.0969 35.0402L27.0948 35.0391ZM27.62 30.7646C27.5467 30.8245 27.4571 30.8604 27.3633 30.868C26.2341 30.9626 25.2096 30.5318 24.185 30.0999C22.4119 29.3536 20.6389 28.6062 18.5509 31.4479C18.3967 31.6589 18.1033 31.7035 17.8941 31.5479C17.7 31.4032 17.6461 31.1334 17.7701 30.9235C18.4204 29.7039 19.1085 28.9445 19.8203 28.493C20.5634 28.0209 21.3173 27.886 22.0787 27.9175C23.0731 27.9599 23.9833 28.2656 24.9647 28.5964C25.6064 28.8129 26.2816 29.0381 27.0301 29.2013C27.057 29.2078 27.1304 29.2176 27.2242 29.2306C27.3665 29.2513 27.483 29.2665 27.593 29.2807C27.7149 29.2959 27.8292 29.346 27.922 29.4265C28.0514 29.5396 28.1237 29.6941 28.1344 29.8736C28.142 29.9965 28.115 30.1282 28.0557 30.2598C27.9781 30.4274 27.8368 30.608 27.6232 30.7657L27.62 30.7646ZM32.6965 35.7049C32.5142 35.5178 32.5174 35.2186 32.7019 35.0348C32.8863 34.8509 33.184 34.8542 33.3662 35.0402C33.4654 35.1414 33.5701 35.2436 33.6822 35.3437C34.7402 36.2946 35.9546 36.7374 37.1183 36.7287C38.2734 36.7189 39.3842 36.263 40.2438 35.4155C40.316 35.3437 40.3905 35.2643 40.4692 35.1762C40.645 34.9825 40.9426 34.9695 41.1346 35.1457C41.3223 35.3187 41.3395 35.6125 41.1734 35.8072C41.0915 35.8997 41.002 35.9954 40.9038 36.0911C39.8685 37.1138 38.5257 37.6632 37.1269 37.6752C35.7368 37.6871 34.2959 37.1682 33.0567 36.0531C32.9402 35.9475 32.8194 35.8322 32.6965 35.7049ZM26.5879 59.1009C26.342 59.0171 26.2104 58.7473 26.2934 58.4993C26.3765 58.2512 26.644 58.1185 26.8899 58.2023C28.2326 58.6636 29.6271 58.8224 31.0442 58.6494C32.4215 58.4808 33.8235 57.9977 35.2234 57.1742C35.4499 57.0458 35.7357 57.1263 35.8629 57.3537C35.988 57.5778 35.9136 57.8618 35.6947 57.9934C34.1805 58.8844 32.6576 59.4077 31.1542 59.5916C29.5969 59.783 28.0633 59.6079 26.5879 59.1009Z" fill="#591244"/>
</g>
<defs>
<clipPath id="clip0">
<rect x="8" width="42" height="63" fill="white"/>
</clipPath>
</defs>
</svg>
