<svg width="60" height="61" viewBox="0 0 60 61" fill="none" xmlns="http://www.w3.org/2000/svg">
<circle cx="30" cy="31" r="30" fill="#F7E3EC"/>
<path d="M56.9329 18.4383C54.9803 16.9303 52.4217 17.433 51.0751 17.792C50.2671 18.0793 49.4591 18.3665 48.6511 18.7256C47.8432 19.0847 46.9679 19.4437 46.0925 19.6592C45.6212 19.8028 45.0152 19.9464 44.4093 20.09L43.2646 20.3773L43.4666 20.09C43.8706 19.6592 44.2746 19.0847 44.5439 18.5102C44.7459 18.0075 44.8806 17.433 44.9479 16.8585L45.0152 16.643C45.2846 15.2068 45.6886 13.6987 46.2272 12.3343C47.4392 8.95905 48.9205 5.72748 50.6038 2.63953C50.8731 2.20865 50.9404 1.70596 50.8058 1.20328C50.6711 0.987837 50.5364 0.772399 50.3344 0.628773C48.9878 -0.448418 47.1025 -0.0175417 45.8905 0.987837C44.8806 1.99322 44.1399 3.14222 43.6013 4.50666L40.8407 10.898L35.4541 2.28047C35.1175 1.70596 34.6462 1.20328 34.1075 0.844211C33.5015 0.55696 32.7609 0.628773 32.2222 0.987837C31.4816 1.41871 30.9429 2.28047 30.8083 3.21403C30.7409 3.5731 30.7409 4.00397 30.8083 4.36304C30.4716 4.07579 30.1349 3.86035 29.6636 3.78853C29.125 3.71672 28.519 3.93216 28.115 4.36304C27.509 5.08116 27.1723 5.94292 27.2397 6.9483C27.307 7.73824 27.4417 8.45636 27.711 9.17449C26.3644 9.67718 25.1524 10.4671 24.2097 11.6161C23.7384 12.1906 23.1998 12.7651 22.7958 13.3396C22.2571 14.0578 21.7185 14.7041 21.1125 15.3504C19.6312 16.643 18.0152 17.7202 16.2646 18.4383C14.0427 19.5155 11.7534 20.7363 10.1374 22.8907C7.51149 26.4814 6.50151 30.7901 5.55887 34.9553L5.49154 35.2425C5.49154 35.3143 4.3469 41.203 4.01024 43.7164C3.94291 44.2191 4.21223 44.7218 4.68356 44.7936H4.75089H4.81822C5.22221 44.7936 5.6262 44.4346 5.69353 44.0037C5.96286 41.6339 7.1075 35.7452 7.1075 35.7452L7.17483 35.5298C8.11747 31.5801 9.06012 27.4867 11.4841 24.1115C12.8307 22.3162 14.8506 21.3108 16.9379 20.2337C18.8905 19.3719 20.7085 18.2229 22.2571 16.7866C22.9304 16.1403 23.4691 15.4222 24.0751 14.6323C24.4791 14.1296 24.9504 13.5551 25.4217 12.9806C26.2297 12.047 27.2397 11.3289 28.3843 10.9698L28.5863 11.4007C28.9903 12.2624 29.327 13.0524 29.5963 13.9859C29.1923 14.8477 28.6536 15.6376 27.913 16.2121C26.5664 17.5048 25.1524 18.8692 23.6711 20.1618L22.9978 19.731C22.5938 19.4437 22.0551 19.5873 21.8531 20.0182C21.6511 20.4491 21.7185 21.0236 22.1225 21.239L24.0751 22.5317C24.3444 22.7471 24.6137 22.8907 24.8831 22.9625C25.1524 23.0344 25.489 23.1062 25.8257 23.1062H26.0277C26.7684 23.1062 27.5763 23.0344 28.3843 23.0344V23.1062C28.1823 23.537 28.317 24.1115 28.7883 24.327C29.1923 24.5424 29.7309 24.327 29.9329 23.8961C30.5389 22.5317 31.0776 21.1672 31.5489 19.8028C32.5589 16.4276 31.6162 13.8423 30.2696 10.6826L30.1349 10.3235C29.5963 9.31812 29.1923 8.16911 29.0576 6.9483C29.0576 6.51742 29.125 6.08654 29.3943 5.79929C29.4616 5.72748 29.5289 5.72748 29.5963 5.72748C29.7309 5.72748 29.9329 5.94292 30.2696 6.73286L33.1649 13.196C33.4342 13.6987 33.5688 14.2014 33.7035 14.7759C33.8382 15.4222 33.8382 15.9967 33.8382 16.643L33.6362 26.1941C33.7035 26.8404 33.5688 27.4149 33.2995 27.9894C32.9629 28.3485 32.4915 28.5639 32.0202 28.7076C30.6736 29.2103 29.327 29.5693 27.9803 29.8566C26.3644 30.2156 24.7484 30.7183 23.1324 31.2928C21.0452 32.2264 17.2746 34.1653 15.8606 38.115C15.5913 38.9768 15.322 39.9104 15.1873 40.8439C15.12 41.1312 15.0526 41.4184 14.9853 41.7775C14.5813 43.8601 13.7733 51.4004 13.5713 54.4165C13.5713 54.9192 13.908 55.3501 14.312 55.3501H14.3793C14.8506 55.3501 15.1873 54.991 15.2546 54.4883C15.4566 51.6158 16.2646 44.0755 16.6686 42.1365C16.7359 41.8493 16.8033 41.562 16.8033 41.2748V41.203C16.9379 40.3412 17.1399 39.5513 17.4092 38.7613C18.5539 35.5298 21.8531 33.8063 23.6711 33.0881C25.2197 32.5136 26.7683 32.0109 28.317 31.6519C29.6636 31.2928 31.1449 30.9338 32.4915 30.4311C32.8955 30.2874 33.2322 30.1438 33.6362 29.9284C34.3768 30.072 35.1175 29.8566 35.6561 29.3539C37.0701 28.3485 39.3594 27.9176 41.3793 27.4867C42.322 27.2713 43.2646 27.1277 44.0726 26.9122C45.4866 26.4096 46.9005 25.7632 48.1798 24.9733C48.7858 24.6142 49.3918 24.2552 49.9978 23.9679C51.8831 23.0344 53.903 22.4599 55.9903 22.3162C56.7309 22.3162 57.4043 22.029 57.8756 21.3827C58.3469 20.3055 57.8083 19.0847 56.9329 18.4383ZM36.2621 14.8477C36.4641 15.135 36.6661 15.494 36.7334 15.8531C36.6661 16.0685 36.5988 16.2121 36.4641 16.4276C36.1275 16.9303 35.7908 17.5048 35.3868 18.1511V16.7148C35.4541 15.9249 35.3868 15.2068 35.2521 14.4168C35.1175 13.7705 34.8482 13.1242 34.5788 12.4779L34.1075 11.4007C34.7808 12.5497 35.5215 13.6987 36.2621 14.8477ZM35.1848 26.1941L35.2521 21.4545L36.2621 19.8028L36.6661 19.1565C37.0701 18.5102 37.4068 17.9356 37.8107 17.3611C38.0801 17.0021 38.2821 16.4994 38.4167 16.0685C38.4841 15.2068 38.2147 14.4168 37.6761 13.7705C36.0601 11.3289 34.5115 8.74362 33.1649 6.08654C32.6935 5.36842 32.4242 4.50666 32.4242 3.5731C32.4915 3.21403 32.6935 2.92678 32.9629 2.71134C33.0975 2.63953 33.2322 2.56772 33.3669 2.63953C33.6362 2.85497 33.8382 3.07041 33.9728 3.35766L40.8407 14.4168C41.11 14.7759 41.2447 15.135 41.3793 15.494C41.6487 16.4276 40.9753 17.5766 40.3694 18.582L35.4541 26.5532C35.3195 26.7686 35.1848 26.9841 35.0501 27.1995C35.1848 26.8404 35.1848 26.5532 35.1848 26.1941ZM45.2172 5.44023C45.6212 4.36304 46.2272 3.35766 47.0352 2.56772C47.5738 2.06503 48.3818 1.84959 49.1225 2.06503C47.3718 5.15298 45.8905 8.45636 44.6786 11.8316C44.1399 13.3396 43.6686 14.8477 43.3993 16.4276V16.643C43.3319 17.0739 43.2646 17.433 43.1299 17.792C42.928 18.2229 42.6586 18.582 42.322 18.8692L42.2546 18.941C42.928 17.7202 43.4666 16.4276 43.1299 14.9913C42.928 14.4168 42.6586 13.9141 42.322 13.4114L41.8506 12.6933L45.2172 5.44023ZM38.0801 26.3377L40.2347 23.9679L40.908 23.2498C42.1873 22.6753 43.5339 22.2444 44.8806 21.9572C45.4866 21.8135 46.0925 21.6699 46.6312 21.5263C47.5738 21.239 48.5165 20.88 49.3918 20.4491C50.1324 20.09 50.8731 19.8028 51.6137 19.5873C52.6237 19.2283 54.5763 18.8692 55.9903 19.9464C56.125 20.09 56.2596 20.2337 56.327 20.3773C56.125 20.4491 55.9903 20.4491 55.7883 20.4491C53.499 20.5927 51.2771 21.239 49.1898 22.3162C48.5165 22.6753 47.8432 23.0344 47.2372 23.3934C46.0925 24.1115 44.8806 24.7579 43.6013 25.1887C42.8606 25.4042 41.9853 25.5478 40.9753 25.7632C39.9654 25.9787 39.09 26.0505 38.0801 26.3377ZM29.7983 19.2283C29.6636 19.731 29.3943 20.3773 29.125 21.1672C28.0477 21.239 26.9703 21.3108 25.9604 21.3108C25.7584 21.3108 25.5564 21.3108 25.3544 21.239C25.2871 21.239 25.2197 21.1672 25.2197 21.1672C26.499 20.0182 27.711 18.8692 29.0576 17.5766C29.4616 17.2175 29.7983 16.8585 30.1349 16.4994C30.2023 17.3611 30.0676 18.2947 29.7983 19.2283Z" fill="#591244"/>
</svg>
