<svg width="62" height="60" viewBox="0 0 62 60" fill="none" xmlns="http://www.w3.org/2000/svg">
<circle cx="31" cy="30" r="30" fill="#F7E3EC"/>
<path d="M26.7 37.8001C24.4 40.2001 24.4 44.0001 26.8 46.3001C29.2 48.6001 33 48.6001 35.3 46.2001C37.6 43.9001 37.6 40.1001 35.3 37.8001C34.1 36.5001 33.5 34.8001 33.5 33.1001L32 7.9001V7.8001C32 7.7001 32 7.7001 32 7.6001C32 7.5001 31.9 7.5001 31.9 7.4001L31.7 7.3001C31.7 7.3001 31.6 7.2001 31.5 7.2001L31.3 7.1001H31.1H30.7H30.5L30.3 7.2001L30.2 7.3001L30.1 7.5001C30.1 7.5001 30 7.6001 30 7.7001C30 7.8001 30 7.8001 30 7.9001V8.0001L28.4 33.2001C28.5 34.8001 27.9 36.5001 26.7 37.8001ZM30.5 33.2001L31 24.8001L31.5 33.2001C31.5 35.4001 32.3 37.6001 33.8 39.2001C35.4 40.8001 35.4 43.3001 33.8 44.9001C32.2 46.5001 29.7 46.5001 28.1 44.9001C26.5 43.3001 26.5 40.8001 28.1 39.2001C29.6 37.5001 30.5 35.4001 30.5 33.2001Z" fill="#591244"/>
<path d="M58.7 32C56.9 32 55.3 32.9 54.2 34.3C53.3 35.2 52.6 36 51.2 36C49.8 36 49 35.3 48.2 34.3C46.4 31.8 43 31.2 40.5 32.9C40.5 32.9 40.5 32.9 40.4 32.9C39.9 33.3 39.5 33.7 39.1 34.2C38.8 34.5 38.6 34.8 38.3 35L38 34.8C36.5 33.2 36.6 30.6 38.2 29.1C38.9 28.4 39.9 28 40.9 28H61C61.6 28 62 27.6 62 27C62 26.4 61.6 26 61 26H40.9C37.6 26 34.8 28.7 34.8 32.1C34.8 33.6 35.4 35.1 36.5 36.3C39.7 39.4 39.7 44.4 36.7 47.6C33.6 50.8 28.6 50.8 25.4 47.8C22.2 44.8 22.2 39.7 25.2 36.5L25.4 36.3C27.7 33.9 27.6 30 25.2 27.7C24.1 26.6 22.6 26.1 21.1 26H1C0.4 26 0 26.4 0 27C0 27.6 0.4 28 1 28H21.1C23.3 28 25.2 29.8 25.2 32.1C25.2 33.1 24.8 34.1 24.1 34.9L23.9 35.2C23.6 35 23.4 34.7 23.1 34.4C22 33 20.4 32.1 18.6 32.1C16.8 32.2 15.2 33 14.1 34.4C13.2 35.3 12.5 36.1 11.1 36.1C9.7 36.1 8.9 35.4 8.1 34.4C6.9 32.8 5.2 32 3.3 32C2.3 32 1.3 32.3 0.5 32.8C0.1 33 0 33.7 0.3 34.1C0.6 34.6 1.2 34.7 1.7 34.4C2.2 34.1 2.8 33.9 3.4 33.9C4.6 33.9 5.7 34.6 6.4 35.6C7.5 37 9.2 37.9 10.9 37.9C12.7 37.9 14.3 37 15.4 35.6C16.3 34.7 17 33.9 18.4 33.9C19.6 33.9 20.7 34.6 21.4 35.6C21.7 36 22 36.3 22.4 36.6C21.4 38.2 21 40 21 41.9C21 47.4 25.5 51.9 31 51.9C36.5 51.9 41 47.4 41 41.9C41 40 40.5 38.2 39.5 36.6C39.8 36.3 40.2 36 40.5 35.6C41.4 34.7 42.1 33.9 43.5 33.9C44.7 33.9 45.8 34.6 46.5 35.6C48.3 38.1 51.7 38.7 54.2 36.9C54.7 36.5 55.1 36.1 55.5 35.6C56.4 34.7 57.1 33.9 58.5 33.9C59.1 33.9 59.8 34.1 60.3 34.4C60.8 34.7 61.4 34.6 61.7 34.1C62 33.6 61.9 33 61.4 32.7C60.6 32.3 59.6 32 58.7 32Z" fill="#591244"/>
<path d="M10 48C10.5523 48 11 47.5523 11 47C11 46.4477 10.5523 46 10 46C9.44772 46 9 46.4477 9 47C9 47.5523 9.44772 48 10 48Z" fill="#591244"/>
<path d="M14 42C14.5523 42 15 41.5523 15 41C15 40.4477 14.5523 40 14 40C13.4477 40 13 40.4477 13 41C13 41.5523 13.4477 42 14 42Z" fill="#591244"/>
<path d="M18 48C18.5523 48 19 47.5523 19 47C19 46.4477 18.5523 46 18 46C17.4477 46 17 46.4477 17 47C17 47.5523 17.4477 48 18 48Z" fill="#591244"/>
<path d="M52 42C52.5523 42 53 41.5523 53 41C53 40.4477 52.5523 40 52 40C51.4477 40 51 40.4477 51 41C51 41.5523 51.4477 42 52 42Z" fill="#591244"/>
<path d="M48 48C48.5523 48 49 47.5523 49 47C49 46.4477 48.5523 46 48 46C47.4477 46 47 46.4477 47 47C47 47.5523 47.4477 48 48 48Z" fill="#591244"/>
<path d="M44 42C44.5523 42 45 41.5523 45 41C45 40.4477 44.5523 40 44 40C43.4477 40 43 40.4477 43 41C43 41.5523 43.4477 42 44 42Z" fill="#591244"/>
</svg>
