<svg width="66" height="60" viewBox="0 0 66 60" fill="none" xmlns="http://www.w3.org/2000/svg">
<circle cx="32" cy="30" r="30" fill="#F7E3EC"/>
<path d="M58.7434 36.5133C58.8263 36.6695 58.9064 36.7458 58.9093 36.8257C59.1516 37.1352 59.4681 37.3619 59.7846 37.5886C60.4169 38.0427 61.1167 38.2548 61.8165 38.467C63.2162 38.8913 64.5328 39.1594 66 39.3425L65.9971 39.2633C64.6745 38.8361 63.3483 38.3289 62.0956 37.7397C61.4692 37.4448 60.917 37.0677 60.2906 36.7734C59.8977 36.5497 59.4277 36.3288 59.1083 36.0222C59.5467 35.4475 59.9851 34.8735 60.2642 34.1456C60.6225 33.4946 58.9974 35.1504 56.7518 36.6703C55.0313 37.8516 52.9172 38.8092 51.3986 39.2655C47.7504 40.2819 43.528 40.364 40.4989 39.5241C39.8792 39.3882 39.888 39.6273 39.8241 39.9484C39.7565 40.1903 39.6831 40.2724 39.6126 40.4344C39.4657 40.5994 39.3211 40.8442 39.1742 41.0091C38.8092 41.501 38.4413 41.9137 38 42.4084L38.0029 42.4876C38.5309 42.2283 39.0552 41.8897 39.4995 41.4741C39.7235 41.3063 39.9474 41.1385 40.0914 40.8936C40.5577 41.0353 40.9447 41.1 41.408 41.1617C41.1907 41.4887 41.0497 41.8127 40.8316 42.1396C40.3961 42.7935 39.8814 43.3711 39.2895 43.9516L39.3695 44.0279C40.0444 43.6036 40.6392 43.103 41.2311 42.5225C41.5285 42.2719 41.8229 41.942 42.0373 41.5359C42.0344 41.4567 42.1078 41.3739 42.1049 41.2939C42.4148 41.3615 42.7217 41.3499 43.1087 41.4145C43.0382 41.5766 42.9648 41.6594 42.8943 41.8214C42.7533 42.1454 42.6123 42.4695 42.395 42.7964C42.0366 43.4474 41.6012 44.1013 41.1657 44.7559L41.2457 44.8322C41.8405 44.3316 42.356 43.754 42.8679 43.0972C43.0852 42.7703 43.3797 42.4404 43.5178 42.0365C43.5883 41.8744 43.5787 41.6361 43.6463 41.3942C44.0333 41.4589 44.4166 41.4443 44.7999 41.4298C44.7265 41.5126 44.7323 41.6717 44.6589 41.7538C44.5179 42.0779 44.3769 42.4019 44.2359 42.7259C43.9539 43.374 43.5956 44.025 43.1601 44.6796L43.2402 44.7559C43.7586 44.2582 44.2734 43.6806 44.7088 43.0267C44.9262 42.6998 45.1443 42.3728 45.2824 41.9689C45.3528 41.8069 45.3462 41.6478 45.3374 41.4095C45.7207 41.3949 46.1812 41.3768 46.6416 41.3593C46.6445 41.4385 46.5682 41.4422 46.5711 41.5213C46.4301 41.8454 46.2921 42.2493 46.1547 42.6526C45.8794 43.4597 45.5232 44.1906 45.0914 44.9237L45.1715 45C45.6833 44.3432 46.1959 43.6857 46.6276 42.9526C46.8421 42.5458 47.0602 42.2188 47.1945 41.7357C47.1887 41.5766 47.2621 41.4937 47.2555 41.3354C47.6388 41.3208 47.9458 41.3092 48.3261 41.2147C48.2652 41.6151 48.2806 42.0132 48.296 42.4106C48.1741 43.212 48.0544 44.0926 47.9325 44.8939L48.0082 44.8917C48.3607 44.0817 48.636 43.2745 48.835 42.4702C48.9731 42.0662 49.0311 41.586 49.015 41.1886C49.012 41.1094 49.012 41.1094 49.0091 41.0295C49.316 41.0179 49.5429 40.9292 49.8499 40.9176C49.8558 41.0767 49.7889 41.3179 49.8719 41.4741C49.8873 41.8715 50.1333 42.261 50.2993 42.5734C50.6341 43.2774 50.969 43.9814 51.4544 44.6004L51.5308 44.5975C51.3464 43.8078 51.1643 43.0979 50.98 42.3082C50.8875 41.9137 50.8721 41.5155 50.7832 41.2002C50.7002 41.044 50.6173 40.8878 50.5313 40.6524C50.8354 40.5609 51.0652 40.5521 51.3692 40.4606C51.3817 40.7788 51.4676 41.0142 51.5535 41.2503C51.729 41.8011 52.1248 42.1048 52.4472 42.4905C53.1691 43.2592 53.8872 43.9487 54.6766 44.4762L54.7501 44.3933C54.1053 43.6218 53.537 42.8465 52.9656 41.9921C52.7196 41.6034 52.5478 41.1319 52.3018 40.7432C52.1425 40.5899 52.0558 40.3545 51.8965 40.2012C52.2005 40.1097 52.5038 40.0189 52.8078 39.9273C52.8907 40.0835 52.9737 40.2397 53.0567 40.3959C53.3857 40.9408 53.8615 41.3208 54.2603 41.7044C55.1356 42.4673 56.0843 43.1481 57.1065 43.746L57.18 43.6632C56.3817 42.8974 55.5035 42.0546 54.7787 41.206C54.3763 40.7432 54.1274 40.2753 53.7286 39.8917C53.6486 39.8154 53.5693 39.7384 53.5656 39.6592C54.0194 39.4827 54.3969 39.3083 54.8477 39.0526C54.9403 39.4471 55.1855 39.8365 55.4286 40.1453C55.8339 40.6873 56.3832 40.9852 56.9332 41.2823C57.9554 41.8803 59.051 42.3961 60.2179 42.7499L60.2149 42.6707C59.1928 42.0728 58.244 41.392 57.2923 40.6321C56.8165 40.2521 56.4912 39.7864 56.0183 39.4856C55.7789 39.256 55.5395 39.0257 55.3001 38.7961C55.6775 38.6225 55.9749 38.3718 56.2753 38.2011C56.4442 38.5927 56.6836 38.823 56.9266 39.1318C57.4091 39.6709 58.0347 39.9658 58.6611 40.2601C59.8397 40.9321 61.0859 41.3622 62.332 41.7923L62.3276 41.7132C61.7783 41.4153 61.149 41.0411 60.599 40.744C60.0461 40.3669 59.4968 40.069 58.9446 39.6919C58.3916 39.3149 57.9128 38.855 57.437 38.475C57.1976 38.2454 56.9611 38.095 56.7217 37.8654C57.0962 37.6119 57.4671 37.2791 57.8379 36.9463C57.8409 37.0255 57.8438 37.1055 57.9209 37.1026C58.0898 37.4942 58.3329 37.8037 58.5723 38.0332C59.1311 38.5694 59.7575 38.8644 60.3838 39.1587C61.6359 39.7479 62.9591 40.1751 64.2787 40.5231L64.2758 40.4439C63.6494 40.1489 63.0238 39.8547 62.4708 39.4776C61.8444 39.1826 61.2922 38.8056 60.7393 38.4285C60.1863 38.0514 59.7075 37.5915 59.1582 37.2944C58.8418 37.0677 58.4489 36.8439 58.28 36.4516C58.4518 36.9224 58.5987 36.7574 58.7434 36.5133Z" fill="#591144"/>
<path d="M6.97536 38.3847C6.90527 38.5464 6.83226 38.6291 6.83518 38.7081C6.61907 39.0345 6.32265 39.2847 6.02696 39.5342C5.43558 40.0339 4.75805 40.2986 4.08125 40.5634C2.72692 41.0928 1.44267 41.4605 0.00292053 41.7543L0 41.6752C1.2784 41.1487 2.55315 40.5431 3.74832 39.8606C4.34627 39.5197 4.86465 39.1019 5.4626 38.7603C5.83495 38.5072 6.28323 38.2519 6.57599 37.9219C6.09632 37.3838 5.61738 36.8456 5.28445 36.1428C4.87852 35.522 6.61834 37.0458 8.96196 38.3868C10.7595 39.4312 12.9293 40.2225 14.4705 40.5605C18.1656 41.293 22.3578 41.0522 25.295 39.9846C25.8988 39.8026 25.9083 40.0404 25.9966 40.3552C26.082 40.5902 26.1616 40.6671 26.2441 40.823C26.4025 40.976 26.5646 41.2081 26.7238 41.3612C27.1239 41.8232 27.5203 42.2054 27.9971 42.6638L28 42.7428C27.4568 42.5252 26.9107 42.2279 26.4376 41.8485C26.2025 41.6984 25.9674 41.5483 25.8061 41.3162C25.3549 41.4924 24.9767 41.5867 24.5218 41.6839C24.7627 41.9929 24.9277 42.3047 25.1694 42.613C25.652 43.2309 26.2076 43.7662 26.8391 44.2985L26.7661 44.3812C26.0645 44.0106 25.4352 43.558 24.8036 43.0249C24.489 42.7986 24.1721 42.4926 23.9275 42.1046C23.9246 42.0255 23.845 41.9486 23.8421 41.8696C23.5398 41.961 23.2346 41.9726 22.8565 42.0669C22.939 42.2228 23.0185 42.2989 23.101 42.4549C23.266 42.7667 23.431 43.0786 23.672 43.3876C24.0779 44.0084 24.5605 44.6256 25.0431 45.2435L24.9701 45.3262C24.3415 44.8729 23.7859 44.3377 23.2266 43.7234C22.9857 43.4144 22.6681 43.1083 22.5002 42.7174C22.4177 42.5615 22.4082 42.3236 22.3228 42.0879C21.9446 42.1822 21.5635 42.1967 21.1816 42.2112C21.2612 42.2873 21.267 42.4462 21.3466 42.523C21.5116 42.8349 21.6766 43.1468 21.8416 43.4586C22.1716 44.0824 22.5776 44.7025 23.0602 45.3204L22.9871 45.4031C22.4345 44.9469 21.8789 44.4117 21.3963 43.7944C21.1553 43.4855 20.9137 43.1765 20.7457 42.7856C20.6632 42.6297 20.6574 42.4708 20.6479 42.2329C20.2668 42.2474 19.809 42.2656 19.3513 42.283C19.3542 42.362 19.4308 42.3591 19.4338 42.4389C19.5988 42.7508 19.7667 43.1417 19.9346 43.5333C20.2704 44.3159 20.68 45.0158 21.1656 45.7128L21.0925 45.7955C20.534 45.1804 19.9748 44.5661 19.4892 43.8692C19.2447 43.4811 19.0037 43.1722 18.8329 42.7015C18.827 42.5426 18.7475 42.4665 18.7409 42.3076C18.3598 42.3221 18.0546 42.3338 17.6698 42.2692C17.7618 42.663 17.7772 43.0605 17.7925 43.4572C17.9757 44.2456 18.1627 45.113 18.3459 45.9014L18.27 45.9043C17.8575 45.1246 17.5216 44.3428 17.2617 43.5573C17.0938 43.1664 16.9989 42.6928 16.9835 42.2953C16.9806 42.2163 16.9806 42.2163 16.9777 42.1365C16.6725 42.1481 16.4404 42.0777 16.1359 42.0893C16.1417 42.2482 16.2279 42.4832 16.1578 42.6449C16.1731 43.0416 15.9599 43.4478 15.8198 43.7712C15.5423 44.498 15.2656 45.224 14.8327 45.8767L14.7567 45.8796C14.8779 45.0796 15.0028 44.3594 15.1247 43.5595C15.1853 43.1598 15.17 42.7624 15.2335 42.4418C15.3036 42.2801 15.3737 42.1183 15.4408 41.8768C15.1327 41.8094 14.9035 41.8181 14.5954 41.7506C14.6078 42.0683 14.5406 42.3091 14.4742 42.5506C14.3435 43.1127 13.9741 43.4449 13.685 43.8532C13.0293 44.6735 12.3708 45.4147 11.6297 46L11.5502 45.9238C12.1291 45.1065 12.6322 44.2913 13.1323 43.3977C13.3455 42.9916 13.4798 42.5093 13.693 42.1038C13.839 41.9392 13.9062 41.6977 14.0529 41.5331C13.7448 41.4656 13.4367 41.3974 13.1286 41.33C13.0585 41.4917 12.9884 41.6534 12.9184 41.8152C12.6351 42.3831 12.1926 42.7972 11.8269 43.2092C11.0186 44.0352 10.1316 44.7852 9.16492 45.4589L9.08534 45.3828C9.8169 44.5596 10.6222 43.6537 11.2742 42.7537C11.637 42.2627 11.8473 41.7775 12.2131 41.3655C12.2861 41.2828 12.3591 41.2009 12.3562 41.1211C11.8926 40.9797 11.5049 40.8361 11.0376 40.6149C10.977 41.0145 10.7638 41.4206 10.547 41.747C10.1871 42.3178 9.66577 42.6558 9.14448 42.9937C8.17783 43.6675 7.1316 44.2644 6.00287 44.7054L5.99995 44.6263C6.9666 43.9526 7.8544 43.2026 8.73855 42.3736C9.18099 41.9588 9.46718 41.4707 9.91254 41.1356C10.1323 40.8883 10.3513 40.6417 10.5711 40.3944C10.1834 40.25 9.86947 40.0238 9.55772 39.8765C9.42046 40.2798 9.20143 40.5264 8.98459 40.8527C8.54872 41.4264 7.95077 41.7673 7.35282 42.1082C6.2365 42.8668 5.03476 43.3905 3.83302 43.9141L3.8301 43.8351C4.35139 43.4971 4.94642 43.0764 5.46771 42.7385C5.98608 42.3207 6.50737 41.9827 7.02574 41.565C7.54411 41.1472 7.98289 40.6533 8.42533 40.2384C8.64509 39.9911 8.86777 39.8236 9.0868 39.577C8.6962 39.3536 8.30268 39.0505 7.90842 38.7473C7.91134 38.8263 7.91427 38.9061 7.83834 38.909C7.70108 39.3123 7.48497 39.6386 7.26521 39.8852C6.75268 40.4618 6.15546 40.8027 5.55751 41.1443C4.36161 41.8268 3.08393 42.3533 1.80261 42.8001L1.79969 42.721C2.39764 42.3802 2.99559 42.0386 3.51396 41.6208C4.11191 41.2799 4.63028 40.8622 5.14865 40.4444C5.66702 40.0267 6.10581 39.5328 6.62783 39.1948C6.92352 38.9446 7.29587 38.6922 7.4324 38.2889C7.2966 38.7698 7.13744 38.6167 6.97536 38.3847Z" fill="#591144"/>
<path d="M27.8772 26.4162C28.1377 26.5341 28.1449 26.4321 28.1449 26.4321C28.1449 26.4321 27.1189 25.7566 26.8584 25.6393C26.6015 25.4704 25.9946 25.4864 25.9946 25.4864C25.9946 25.4864 25.9946 25.4864 26.4557 25.6157C26.6527 25.6788 26.8461 25.7923 27.103 25.9611C26.9731 25.9025 26.8389 25.8942 26.6376 25.8828C26.5113 25.7731 26.4478 25.7177 26.385 25.6629C26.1952 25.4978 25.5848 25.5647 25.447 25.6081C25.1901 25.4392 24.9339 25.2703 24.8704 25.2155C24.7442 25.1059 24.4093 25.0861 24.2751 25.0779C24.0146 24.96 23.3371 25.023 23.3371 25.023C23.3371 25.023 23.3371 25.023 23.8025 25.1014C24.2679 25.1798 24.9548 25.8866 25.2117 26.0555C25.4686 26.2243 25.5509 26.0242 25.5509 26.0242C25.5509 26.0242 24.7254 25.3608 24.4057 25.1371C24.4728 25.1409 24.4728 25.1409 24.5356 25.1958C24.9303 25.3213 25.6288 25.8751 25.8186 26.0395C25.7515 26.0357 25.7515 26.0357 25.7515 26.0357C25.7515 26.0357 25.7515 26.0357 25.9485 26.0988C26.0156 26.1026 26.0783 26.1574 26.1454 26.1619C25.8777 26.1459 25.6057 26.1816 25.6057 26.1816C25.6057 26.1816 25.6057 26.1816 26.0711 26.26C26.3352 26.3269 26.6549 26.5506 26.9074 26.7705C26.7812 26.6609 26.7177 26.6054 26.6549 26.5506C26.4615 26.4366 25.9889 26.4601 25.7875 26.4487C25.7204 26.4448 25.724 26.3939 25.724 26.3939C25.5978 26.2842 25.263 26.2645 25.1287 26.2562C24.8719 26.0873 24.5522 25.8636 24.4223 25.805C24.2289 25.6909 24.1063 25.5303 23.9764 25.4711C23.9129 25.4163 23.8465 25.4124 23.7794 25.408C23.5225 25.2391 23.3371 25.023 23.2072 24.9644C22.9503 24.7955 22.2691 24.9096 22.2691 24.9096C22.2691 24.9096 22.2691 24.9096 22.7346 24.988C22.9359 24.9995 23.192 25.1684 23.4446 25.3882C23.3104 25.3806 23.2433 25.3767 23.1726 25.4233C22.9756 25.3602 22.7071 25.3449 22.5022 25.3838C22.2497 25.1639 21.93 24.9402 21.8037 24.83C21.6103 24.7159 21.2048 24.7439 21.0035 24.7318C20.8101 24.6177 20.6838 24.5081 20.6203 24.4533C20.3635 24.2844 19.6823 24.3985 19.6823 24.3985C19.6823 24.3985 19.6823 24.3985 20.1477 24.4769C20.4118 24.5438 20.7315 24.7675 20.984 24.9874C20.984 24.9874 20.984 24.9874 21.0511 24.9912C21.2409 25.1562 21.4935 25.3761 21.5562 25.4309C21.8131 25.5998 21.8954 25.3997 21.8954 25.3997C21.8954 25.3997 21.7056 25.2346 21.4494 25.0657C21.4494 25.0657 21.4494 25.0657 21.5165 25.0696C21.9149 25.1441 22.5462 25.6935 22.7952 25.965C22.5982 25.9019 22.3298 25.8866 22.1248 25.9254C21.8723 25.7056 21.5526 25.4819 21.4263 25.3716L21.3592 25.3678C21.0396 25.1441 20.4674 24.7006 20.2776 24.5355C20.1477 24.4769 19.9464 24.4648 19.7451 24.4533L19.6816 24.3985C19.6181 24.3437 19.4175 24.3316 19.2833 24.3239C19.157 24.2143 19.0935 24.1589 19.0307 24.1041C18.8373 23.99 18.2269 24.0569 18.2269 24.0569C18.2269 24.0569 18.2269 24.0569 18.6252 24.1315C18.7594 24.1391 18.8857 24.2494 19.0156 24.308C18.8814 24.3004 18.7435 24.3431 18.7435 24.3431C18.7435 24.3431 18.7435 24.3431 19.1418 24.4176C19.3944 24.6375 19.6469 24.8574 19.7775 24.916C19.5098 24.9001 19.3049 24.9396 19.3049 24.9396C19.3049 24.9396 19.3049 24.9396 19.7703 25.018C20.0344 25.0849 20.3541 25.3086 20.6066 25.5284C20.5431 25.4736 20.4768 25.4698 20.3425 25.4615C20.0857 25.2926 19.8966 25.1276 19.766 25.0689C19.6361 25.0103 19.4348 24.9982 19.2335 24.9867C19.2335 24.9867 18.2146 24.2092 17.9585 24.0404C17.7016 23.8715 16.9533 23.9817 16.9533 23.9817C16.9533 23.9817 16.9533 23.9817 17.4187 24.0601C17.817 24.1347 18.3185 24.6254 18.6346 24.9001C18.5083 24.7904 18.4448 24.735 18.382 24.6802C18.2557 24.5706 17.8495 24.598 17.716 24.5897C17.5262 24.4246 17.3329 24.3112 17.2701 24.2558C17.0767 24.1417 16.7376 24.1735 16.537 24.1614C16.4107 24.0518 16.2844 23.9416 16.1538 23.8829C15.8969 23.7141 15.1486 23.8243 15.1486 23.8243C15.1486 23.8243 15.1486 23.8243 15.6141 23.9027C15.9453 23.9734 16.3284 24.2519 16.5774 24.5228C16.4432 24.5151 16.2426 24.503 16.1047 24.5464C15.9113 24.4323 15.7851 24.3227 15.7216 24.2679C15.5917 24.2092 15.3904 24.1971 15.2562 24.1895C15.1299 24.0799 14.9993 24.0206 15.0036 23.9696C14.9401 23.9148 14.8066 23.9065 14.6724 23.8989C14.5461 23.7893 14.4826 23.7338 14.4199 23.679C14.163 23.5101 13.4147 23.6204 13.4147 23.6204C13.4147 23.6204 13.4147 23.6204 13.8801 23.6988C14.0143 23.7064 14.1442 23.7657 14.2705 23.8753C14.1363 23.8677 13.9985 23.9103 13.9985 23.9103C13.9985 23.9103 13.9985 23.9103 14.3968 23.9849C14.7799 24.2634 15.0916 24.5897 15.2179 24.6993C15.4113 24.8134 15.482 24.7662 15.4856 24.7152C15.5491 24.77 15.5491 24.77 15.6119 24.8249C15.4777 24.8172 15.3442 24.8089 15.2056 24.8523C15.0758 24.7936 15.0159 24.6872 14.9488 24.6834C14.8853 24.6286 14.7518 24.6203 14.6176 24.6126C14.2979 24.389 13.852 24.055 13.7257 23.9454C13.5958 23.8868 13.3945 23.8747 13.1932 23.8632C12.9998 23.7491 12.6607 23.781 12.4601 23.7689C12.2631 23.7058 12.0617 23.6943 11.8568 23.7338C11.5999 23.5649 11.4109 23.3999 11.3474 23.3451C11.0905 23.1762 10.3422 23.2864 10.3422 23.2864C10.3422 23.2864 10.3422 23.2864 10.8076 23.3648C11.2731 23.4432 11.9564 24.201 12.2169 24.3188C12.2169 24.3188 12.2169 24.3188 12.284 24.3227C12.2169 24.3188 12.2169 24.3188 12.1498 24.315C11.8972 24.0952 11.5776 23.8715 11.4513 23.7612C11.1944 23.5923 10.4461 23.7026 10.4461 23.7026C10.4461 23.7026 10.4461 23.7026 10.9116 23.781C11.3099 23.8555 11.8749 24.4011 12.1945 24.6247C12.1274 24.6209 12.1274 24.6209 12.1274 24.6209C12.0639 24.5661 11.9304 24.5578 11.7962 24.5502C11.5437 24.3303 11.224 24.1066 11.1605 24.0518C11.097 23.997 10.9635 23.9887 10.8293 23.9811C10.5767 23.7612 9.87393 23.259 9.68416 23.094C9.42727 22.9251 8.679 23.0354 8.679 23.0354C8.679 23.0354 8.679 23.0354 9.14442 23.1137C9.47562 23.1845 9.85445 23.514 10.1705 23.7893C10.1034 23.7854 10.0406 23.7306 10.0406 23.7306C9.97712 23.6758 9.83929 23.7192 9.7058 23.7109C9.37821 23.5892 8.53397 23.1807 8.27348 23.0634C7.94588 22.9417 7.32028 23.2125 7.32028 23.2125C7.32028 23.2125 7.32028 23.2125 7.79291 23.1889C8.19915 23.1615 8.90918 23.5618 9.29595 23.7893L9.23245 23.7345C8.97557 23.5656 8.2273 23.6758 8.2273 23.6758C8.2273 23.6758 8.2273 23.6758 8.42862 23.6873C8.2944 23.6797 8.15658 23.7223 8.01876 23.7657C7.95165 23.7619 7.95165 23.7619 7.88455 23.758C7.56128 23.5853 7.23369 23.4636 7.0367 23.4005C6.83971 23.3374 6.56767 23.3731 6.35914 23.4636C6.09143 23.4477 5.74869 23.5305 5.61086 23.5739C5.27605 23.5541 4.79116 23.7306 4.79116 23.7306C4.79116 23.7306 4.79116 23.7306 5.26379 23.7071C5.398 23.7147 5.59499 23.7778 5.79198 23.8402C5.51995 23.8753 5.2443 23.962 5.1772 23.9581C4.90516 23.9932 4.62591 24.1308 4.62591 24.1308C4.62591 24.1308 4.62591 24.1308 4.96866 24.0486C5.10648 24.0053 5.23637 24.0646 5.37058 24.0722C5.23637 24.0646 4.96073 24.1506 4.8229 24.1939C4.55881 24.127 4.23121 24.0053 4.097 23.9977C3.8329 23.9307 3.4079 24.2137 3.4079 24.2137C3.4079 24.2137 3.4079 24.2137 3.75064 24.1315C4.08978 24.1003 4.68148 24.2883 4.94124 24.4062C4.94124 24.4062 4.87414 24.4023 4.87053 24.4533C4.53933 24.3826 4.21173 24.2609 4.07824 24.2532C3.81414 24.1863 3.38913 24.4692 3.38913 24.4692C3.38913 24.4692 3.38914 24.4692 3.73188 24.387C3.93681 24.3475 4.26801 24.4183 4.5285 24.5362C4.3914 24.5795 4.32069 24.6267 4.25358 24.6228C4.11937 24.6152 4.05659 24.5597 3.98949 24.5559C3.92238 24.5521 3.78817 24.5444 3.71745 24.591C3.45336 24.5241 3.12576 24.4023 2.99155 24.3947C2.72745 24.3278 2.30244 24.6107 2.30244 24.6107C2.30244 24.6107 2.30244 24.6107 2.64519 24.5285C2.85012 24.489 3.18132 24.5597 3.44181 24.6776C3.3711 24.7248 3.30038 24.772 3.30038 24.772C3.30038 24.772 3.30038 24.772 3.57241 24.7369C3.63952 24.7407 3.63952 24.7407 3.7023 24.7955C3.63158 24.8427 3.49737 24.8351 3.42666 24.8822C3.16256 24.8153 2.83497 24.6936 2.70075 24.6859C2.43666 24.619 2.01165 24.902 2.01165 24.902C2.01165 24.902 2.01165 24.902 2.3544 24.8198C2.62643 24.7847 3.02041 24.9102 3.34801 25.032C3.21812 24.9733 3.08391 24.9651 3.0168 24.9612C2.88259 24.9536 2.67766 24.9925 2.53623 25.0868C2.46913 25.083 2.46913 25.083 2.46913 25.083C2.27214 25.0199 1.91784 25.2557 1.85074 25.2518C1.85074 25.2518 1.85074 25.2518 1.78363 25.248C1.51953 25.1811 1.09453 25.4641 1.09453 25.4641C1.09453 25.4641 1.09453 25.4641 1.43727 25.3818C1.5751 25.3385 1.83919 25.4054 2.03618 25.4679C2.10329 25.4717 2.16607 25.5265 2.23317 25.531C1.89403 25.5622 1.28719 25.5781 1.14937 25.6215C1.22802 25.4723 1 25.8177 1 25.8177C1 25.8177 1 25.8177 1.28358 25.6291C1.56716 25.4405 2.4381 25.4915 2.63942 25.5036C2.77363 25.5112 2.77724 25.4602 2.78085 25.4092C2.91073 25.4679 3.04494 25.4762 3.10844 25.531C3.30543 25.5941 3.31698 25.4405 3.31698 25.4405C3.31698 25.4405 2.98577 25.3697 2.65818 25.248C2.65818 25.248 2.65818 25.248 2.72529 25.2518C3.06803 25.1696 3.8495 25.5227 4.04649 25.5858C4.24348 25.6489 4.25502 25.4953 4.25502 25.4953C4.25502 25.4953 4.12514 25.4366 3.92743 25.3736C3.99814 25.3264 4.00175 25.2754 4.00175 25.2754C4.00175 25.2754 3.34295 25.083 3.01175 25.0122L3.07886 25.016C3.42161 24.9338 4.20307 25.2869 4.40006 25.35C4.59705 25.4131 4.6086 25.2595 4.6086 25.2595C4.6086 25.2595 4.3445 25.1926 4.0804 25.1263C4.21462 25.1339 4.22183 25.032 4.22183 25.032C4.22183 25.032 4.02484 24.9689 3.76075 24.9026C3.82857 24.9058 3.82857 24.9058 3.89929 24.8586C3.96639 24.8625 4.10061 24.8701 4.2341 24.8784C4.63241 24.9529 5.02278 25.1295 5.21977 25.1926C5.41676 25.2557 5.42831 25.1021 5.42831 25.1021C5.42831 25.1021 5.3612 25.0982 5.29842 25.0434C5.43264 25.0511 5.43985 24.9491 5.43985 24.9491C5.43985 24.9491 4.84816 24.7605 4.44985 24.6859C4.51696 24.6897 4.58767 24.6426 4.72188 24.6509C4.78899 24.6547 4.8561 24.6585 4.9232 24.6623C5.05309 24.721 5.1873 24.7293 5.2508 24.7841C5.3179 24.7879 5.38501 24.7917 5.38501 24.7917C5.64911 24.8586 5.9767 24.9804 6.10659 25.039C6.30358 25.1021 6.31512 24.9485 6.31512 24.9485C6.31512 24.9485 5.45933 24.6936 5.12813 24.6228C5.12813 24.6228 5.12813 24.6228 5.19524 24.6267C5.19524 24.6267 5.19524 24.6267 5.26234 24.6305C5.39656 24.6381 5.39656 24.6381 5.46727 24.591C5.86919 24.6146 6.45727 24.8542 6.65426 24.9166C6.85125 24.9797 6.8628 24.8261 6.8628 24.8261C6.8628 24.8261 5.87713 24.5119 5.6087 24.4967C5.54159 24.4928 5.47449 24.489 5.33667 24.5317C5.26956 24.5279 5.13968 24.4686 5.07257 24.4648C5.13968 24.4686 5.13968 24.4686 5.21039 24.4215C5.55314 24.3392 6.3346 24.6923 6.53159 24.7554C6.72858 24.8185 6.74013 24.6649 6.74013 24.6649C6.74013 24.6649 6.74013 24.6649 6.67302 24.6611C6.67302 24.6611 6.60592 24.6572 6.47603 24.598C6.54314 24.6018 6.55035 24.4998 6.55035 24.4998C6.55035 24.4998 5.62746 24.2405 5.36336 24.1742C5.43047 24.178 5.49758 24.1818 5.70251 24.143C5.83672 24.1506 6.03371 24.2137 6.2307 24.2762C6.15998 24.3233 6.09288 24.3195 6.09288 24.3195C6.09288 24.3195 6.09288 24.3195 6.2942 24.331C6.75168 24.5113 7.20194 24.7943 7.39893 24.8567C7.65942 24.9746 7.67457 24.77 7.67457 24.77C7.67457 24.77 7.47758 24.707 7.2842 24.5935L7.28781 24.5425C7.67818 24.7191 8.06494 24.9466 8.26265 25.0097C8.52314 25.1276 8.53829 24.923 8.53829 24.923C8.53829 24.923 8.24534 24.3418 7.85857 24.1143C7.92568 24.1181 7.99278 24.1219 8.05556 24.1774C8.37883 24.3501 8.63932 24.468 8.76992 24.5266C8.83342 24.5814 8.90413 24.5343 8.97124 24.5381C9.16462 24.6522 9.36161 24.7146 9.42511 24.7694C9.6856 24.8873 9.70075 24.6827 9.70075 24.6827C9.70075 24.6827 8.59602 24.157 8.26843 24.0353L8.33553 24.0391L8.40264 24.0429C8.53252 24.1015 8.60396 24.0544 8.67034 24.0588C8.73745 24.0627 8.73745 24.0627 8.80456 24.0665C9.12782 24.2392 9.38831 24.3571 9.51892 24.4157C9.58241 24.4705 9.65313 24.4234 9.72023 24.4272C9.91362 24.5413 10.107 24.6547 10.1741 24.6585C10.3711 24.7216 10.4418 24.6745 10.4461 24.6235C10.5804 24.6311 10.5876 24.5292 10.5876 24.5292C10.5876 24.5292 10.4613 24.4195 10.335 24.3093L10.3386 24.2583C10.4685 24.3169 10.5991 24.3762 10.6662 24.38C10.7961 24.4387 10.8675 24.3915 10.9383 24.345C11.128 24.51 11.3171 24.6745 11.3806 24.7299C11.5069 24.8395 11.5776 24.793 11.6483 24.7458C11.8381 24.9109 11.9643 25.0205 12.0271 25.0753C12.284 25.2442 12.3663 25.0441 12.3663 25.0441C12.3663 25.0441 11.794 24.6005 11.4109 24.322C11.478 24.3259 11.5451 24.3297 11.6122 24.3335C11.802 24.4986 11.991 24.663 12.1173 24.7732C12.3742 24.9421 12.4564 24.742 12.4564 24.742C12.4564 24.742 12.3929 24.6872 12.2667 24.577C12.6534 24.8045 13.0922 25.2404 13.2184 25.3506C13.4082 25.5157 13.5532 25.3704 13.5576 25.3194C13.6838 25.429 13.7473 25.4844 13.8101 25.5393C14.067 25.7081 14.1493 25.508 14.1493 25.508L14.0858 25.4532C14.22 25.4609 14.2943 25.3627 14.2943 25.3627C14.2943 25.3627 13.3425 24.5891 13.0864 24.4208C13.0229 24.366 12.8894 24.3577 12.7552 24.3501C12.6917 24.2953 12.5654 24.185 12.4391 24.0754C12.5062 24.0792 12.5733 24.0831 12.6404 24.0869C12.9717 24.1576 13.4176 24.4909 13.7336 24.7662C13.7336 24.7662 13.7336 24.7662 13.8007 24.77C13.927 24.8797 14.0533 24.9899 14.1168 25.0447C14.3737 25.2136 14.4559 25.0135 14.4559 25.0135C14.4559 25.0135 14.3924 24.9587 14.2662 24.8484L14.3333 24.8523C14.3968 24.9071 14.4631 24.9109 14.4631 24.9109C14.917 25.1422 15.4185 25.6329 15.6083 25.798C15.7382 25.8566 15.8053 25.8611 15.8724 25.8649C16.0694 25.928 16.148 25.7782 16.148 25.7782C16.148 25.7782 15.1963 25.0046 14.9401 24.8363C14.8766 24.7815 14.7431 24.7732 14.6089 24.7656C14.5454 24.7108 14.4191 24.6005 14.2929 24.4909C14.36 24.4947 14.4271 24.4986 14.4942 24.5024C14.9596 24.5808 15.6465 25.2875 15.9034 25.4564C16.1603 25.6253 16.2426 25.4252 16.2426 25.4252C16.2426 25.4252 15.5441 24.8714 15.1609 24.5929L15.228 24.5967C15.3579 24.6553 15.5513 24.7694 15.7411 24.9345C15.9308 25.0995 16.1199 25.2639 16.2462 25.3742C16.3097 25.429 16.4359 25.5393 16.503 25.5431C16.7599 25.712 16.8422 25.5118 16.8422 25.5118C16.8422 25.5118 16.7123 25.4532 16.5853 25.343C16.5853 25.343 16.5182 25.3391 16.5218 25.2882C16.5889 25.292 16.5889 25.292 16.656 25.2958C17.1214 25.3742 17.8048 26.1319 18.0653 26.2498C18.3221 26.4187 18.4044 26.2186 18.4044 26.2186C18.4044 26.2186 18.0212 25.9401 17.7059 25.6648C17.7766 25.6176 17.7802 25.5667 17.7802 25.5667C17.7802 25.5667 17.7131 25.5628 17.7167 25.5118C17.7838 25.5157 17.7838 25.5157 17.8509 25.5195C18.3164 25.5979 18.9997 26.3556 19.2602 26.4735C19.5171 26.6424 19.5993 26.4423 19.5993 26.4423C19.5993 26.4423 18.9008 25.8885 18.5177 25.61C18.5177 25.61 18.5177 25.61 18.4542 25.5552C18.4542 25.5552 18.4542 25.5552 18.5177 25.61C18.6476 25.6686 18.7147 25.6731 18.7818 25.6769C18.8489 25.6807 18.9117 25.7355 18.9752 25.791L19.0387 25.8458C19.0387 25.8458 19.0387 25.8458 19.1058 25.8496C19.4925 26.0771 19.8677 26.4582 19.994 26.5678C20.2509 26.7367 20.3332 26.5366 20.3332 26.5366C20.3332 26.5366 20.2697 26.4818 20.1434 26.3715C20.2105 26.3754 20.2812 26.3282 20.2848 26.2772C20.3555 26.2301 20.3591 26.1791 20.3591 26.1791L20.2956 26.1243L20.3627 26.1281C20.497 26.1358 20.6903 26.2498 20.8837 26.3639C20.9472 26.4187 21.01 26.4735 21.0735 26.529C21.0735 26.529 21.0735 26.529 21.1406 26.5328C21.3932 26.7526 21.6457 26.9725 21.7727 27.0821C22.0296 27.251 22.1118 27.0509 22.1118 27.0509C22.1118 27.0509 21.7287 26.7724 21.4134 26.4971C21.4134 26.4971 21.3499 26.4423 21.2236 26.332C21.2907 26.3359 21.3578 26.3397 21.5548 26.4028C22.0202 26.4812 22.7035 27.2389 22.964 27.3568C23.2209 27.5257 23.3032 27.3256 23.3032 27.3256C23.3032 27.3256 22.9243 26.9961 22.5412 26.717C22.5448 26.666 22.6119 26.6698 22.6119 26.6698C22.6119 26.6698 22.5484 26.615 22.4221 26.5047L22.4892 26.5086C22.9467 26.6889 23.5081 27.2861 23.7015 27.3995C23.9584 27.5684 24.0406 27.3683 24.0406 27.3683C24.0406 27.3683 23.8508 27.2032 23.5947 27.0343L23.6575 27.0407L23.721 27.0955C23.9778 27.2644 24.0601 27.0643 24.0601 27.0643C24.0601 27.0643 23.6769 26.7858 23.3616 26.5105C23.8191 26.6908 24.3805 27.288 24.5739 27.4014C24.8307 27.5703 24.913 27.3702 24.913 27.3702C24.913 27.3702 24.7232 27.2051 24.4671 27.0362L24.4707 26.9853C24.4707 26.9853 24.2809 26.8202 24.0247 26.6513L24.0918 26.6551L24.1553 26.7099C24.2816 26.8196 24.3523 26.773 24.423 26.7259C24.8805 26.9062 25.4419 27.5034 25.6981 27.6722C25.955 27.8411 26.0372 27.641 26.0372 27.641C26.0372 27.641 25.149 26.9228 24.8293 26.6991L24.8964 26.7029C24.8964 26.7029 24.8964 26.7029 24.9599 26.7577C25.0898 26.8164 25.1569 26.8208 25.224 26.8247C25.6815 27.005 26.2429 27.6021 26.4362 27.7156C26.6931 27.8845 26.7754 27.6844 26.7754 27.6844C26.7754 27.6844 26.2032 27.2408 25.82 26.9623C25.8871 26.9661 25.8871 26.9661 25.9542 26.97C26.144 27.135 26.3331 27.2994 26.3966 27.3549C26.6534 27.5238 26.7357 27.3237 26.7357 27.3237C26.7357 27.3237 26.6722 27.2688 26.6094 27.214C26.9962 27.4416 27.3714 27.8226 27.4977 27.9323C27.7546 28.1011 27.8368 27.901 27.8368 27.901C27.8368 27.901 27.7105 27.7914 27.4537 27.6225C27.5208 27.6264 27.5951 27.5282 27.5951 27.5282C27.5951 27.5282 26.8966 26.9744 26.5135 26.6959C26.5135 26.6959 26.5806 26.6997 26.6477 26.7036C26.8374 26.8686 27.0265 27.0331 27.09 27.0885C27.3469 27.2574 27.4291 27.0573 27.4291 27.0573C27.4291 27.0573 27.3656 27.0025 27.2394 26.8922L27.3065 26.896C27.6932 27.1235 28.1319 27.5594 28.321 27.7245C28.5779 27.8934 28.6601 27.6933 28.6601 27.6933C28.6601 27.6933 28.5339 27.5837 28.277 27.4148C28.3441 27.4186 28.4184 27.3205 28.4184 27.3205C28.4184 27.3205 28.3513 27.3166 28.3549 27.2657C28.3585 27.2147 28.4256 27.2185 28.4256 27.2185C28.4256 27.2185 28.2994 27.1089 28.106 26.9948C28.2402 27.0025 28.3145 26.9043 28.3145 26.9043C28.3145 26.9043 28.251 26.8495 28.1247 26.7393C28.1918 26.7431 28.1954 26.6921 28.1954 26.6921C28.1954 26.6921 27.3036 26.0249 27.0431 25.907C26.9132 25.8483 26.7155 25.7852 26.582 25.7776C26.582 25.7776 26.3251 25.6087 26.0726 25.3889C26.1397 25.3927 26.2739 25.4003 26.4709 25.4634C26.6051 25.4711 26.7314 25.5813 26.9284 25.6438C26.7941 25.6361 26.7234 25.6833 26.7234 25.6833C26.7234 25.6833 26.7234 25.6833 26.9875 25.7502C27.3707 26.0287 27.6824 26.355 27.8758 26.4684C28.1327 26.6373 28.2149 26.4372 28.2149 26.4372C28.2149 26.4372 27.8989 26.1625 27.5792 25.9388C28.0331 26.1702 28.4675 26.6571 28.6609 26.7711C28.9177 26.94 29 26.7399 29 26.7399C29 26.7399 28.1117 26.0217 27.7921 25.798C27.4948 26.1377 27.751 26.3065 27.8772 26.4162ZM21.1976 24.8459C21.1341 24.7911 21.0713 24.7363 20.9407 24.677C21.0078 24.6808 21.0749 24.6847 21.2048 24.7439C21.339 24.7516 21.4689 24.8108 21.5952 24.9204C21.4653 24.8618 21.3318 24.8542 21.1976 24.8459ZM3.00526 25.1135C2.87104 25.1059 2.73322 25.1486 2.5954 25.1919C2.39841 25.1288 2.2642 25.1212 2.2007 25.0664C2.26781 25.0702 2.33852 25.023 2.53984 25.0352C2.60695 25.039 2.80755 25.0511 3.00526 25.1135ZM4.91599 24.7643C4.7861 24.7057 4.65189 24.6974 4.58478 24.6936C4.65189 24.6974 4.78177 24.7567 4.91599 24.7643ZM7.68828 23.6962C7.62117 23.6924 7.61757 23.7434 7.55046 23.7396C7.28997 23.6217 7.09659 23.5082 6.8996 23.4451C7.1002 23.4566 7.36068 23.5745 7.68828 23.6962ZM6.80146 23.8492C6.4782 23.6765 6.0871 23.4999 5.88651 23.4878C5.95361 23.4917 6.02072 23.4955 6.15854 23.4528C6.43057 23.4177 6.82095 23.5943 7.14421 23.767C7.07711 23.7631 6.93928 23.8065 6.80146 23.8492ZM7.66158 24.0537C7.5317 23.9951 7.4682 23.9397 7.40109 23.9358C7.4682 23.9397 7.53531 23.9435 7.59808 23.9989C7.66158 24.0537 7.66158 24.0537 7.72797 24.0576C7.66158 24.0537 7.66158 24.0537 7.66158 24.0537ZM8.13782 23.9792C8.07071 23.9754 7.87733 23.8613 7.61684 23.7434C7.68395 23.7472 7.68395 23.7472 7.75106 23.751L7.81816 23.7549C7.94805 23.8135 8.07865 23.8727 8.20853 23.9314C8.20493 23.983 8.20493 23.983 8.13782 23.9792ZM9.57231 23.7039C9.7693 23.767 9.83641 23.7708 9.84002 23.7198C9.90712 23.7236 9.97423 23.7274 10.1041 23.7867C9.9699 23.7791 9.83641 23.7708 9.69787 23.8141C9.63509 23.7587 9.5687 23.7548 9.57231 23.7039C9.50521 23.7 9.57231 23.7039 9.57231 23.7039ZM8.55561 23.7982C8.49211 23.7434 8.42573 23.7396 8.35862 23.7351C8.35862 23.7351 8.35862 23.7351 8.42573 23.7389C8.49284 23.7427 8.62705 23.7504 8.68983 23.8058C8.62633 23.751 8.55561 23.7982 8.55561 23.7982ZM8.94959 23.9237L8.88249 23.9199C8.81899 23.8651 8.6855 23.8568 8.622 23.802C8.6891 23.8058 8.75621 23.8097 8.89403 23.767C9.22163 23.8887 9.60839 24.1162 9.86888 24.2341C9.93238 24.2889 9.93238 24.2889 9.99516 24.3437C9.60118 24.2182 9.1473 23.9868 8.94959 23.9237ZM10.5464 24.171C10.3531 24.0569 10.0926 23.9397 9.89558 23.8766C9.96268 23.8804 9.96268 23.8804 10.0298 23.8842C10.164 23.8925 10.3574 24.0066 10.5464 24.171ZM10.882 24.1908C10.8185 24.1359 10.8185 24.1359 10.7557 24.0811C10.8856 24.1398 10.9491 24.1952 11.079 24.2538C11.0155 24.1984 10.9491 24.1946 10.882 24.1908ZM11.4022 24.4266C11.3387 24.3717 11.276 24.3169 11.2088 24.3125C11.276 24.3163 11.2723 24.3673 11.3387 24.3711C11.4058 24.3749 11.4729 24.3788 11.4729 24.3788C11.4693 24.4304 11.4022 24.4266 11.4022 24.4266ZM12.6679 24.6031C12.735 24.6069 12.7978 24.6617 12.7978 24.6617C12.7985 24.6617 12.7314 24.6579 12.6679 24.6031C12.6643 24.6541 12.6643 24.6541 12.6679 24.6031ZM12.4038 24.5362C12.4002 24.5871 12.4002 24.5871 12.4038 24.5362C12.4673 24.591 12.5337 24.5948 12.5337 24.5948L12.4665 24.591C12.4002 24.5871 12.4002 24.5871 12.4038 24.5362C12.3367 24.5323 12.4038 24.5362 12.4038 24.5362ZM12.5127 23.9785C12.3865 23.8689 12.1931 23.7548 12.0704 23.5936C12.1375 23.5974 12.1375 23.5974 12.2046 23.6013C12.4059 23.6127 12.6621 23.7816 12.8519 23.9467C12.714 23.9906 12.6469 23.9868 12.5127 23.9785ZM13.922 24.9326C13.6023 24.7089 13.16 24.3239 13.0301 24.2653C12.9666 24.2105 12.766 24.1984 12.6318 24.1908C12.6354 24.1398 12.7025 24.1436 12.7025 24.1436C12.7696 24.1474 12.7696 24.1474 12.8367 24.1512C12.9709 24.1589 13.1008 24.2182 13.2271 24.3278C13.4169 24.4928 13.5431 24.6024 13.673 24.6617C13.7401 24.6655 13.7365 24.7165 13.8029 24.7203C13.8036 24.721 13.9299 24.8306 13.922 24.9326C13.9891 24.9364 13.922 24.9326 13.922 24.9326ZM14.0122 24.6305C13.8859 24.5209 13.7553 24.4616 13.6961 24.3558C13.4436 24.1359 12.9976 23.802 12.8042 23.6886L12.8714 23.6924L12.9385 23.6962C12.9385 23.6962 12.9385 23.6962 13.0056 23.7C13.4667 23.8294 13.9645 24.3711 14.2178 24.591C14.0829 24.5833 14.0122 24.6305 14.0122 24.6305ZM14.2957 24.4418C14.106 24.2768 13.7906 24.0021 13.5338 23.8332C13.8606 23.955 14.1096 24.2258 14.2957 24.4418C14.3628 24.4457 14.3628 24.4457 14.2957 24.4418ZM14.619 24.6145C14.5519 24.6107 14.5519 24.6107 14.619 24.6145C14.5519 24.6107 14.5519 24.6107 14.619 24.6145C14.5519 24.6107 14.4891 24.5559 14.4256 24.5005C14.4256 24.5005 14.4256 24.5005 14.4927 24.5043C14.4891 24.5559 14.5519 24.6107 14.619 24.6145ZM26.1909 26.471C26.1909 26.471 26.258 26.4754 26.1909 26.471C26.1909 26.471 26.0567 26.4633 25.986 26.5105C25.9189 26.5067 25.9225 26.4557 25.8561 26.4518C25.9268 26.4047 26.0567 26.4633 26.1909 26.471ZM25.3315 26.267L25.2644 26.2632L25.2009 26.2084C25.2009 26.2084 25.268 26.2122 25.3315 26.267ZM23.8956 25.6705C23.9591 25.7253 24.0854 25.8356 24.0854 25.8356C24.0854 25.8356 24.1525 25.8394 24.1489 25.8904C24.2751 26 24.4014 26.1103 24.4649 26.1651C24.3978 26.1612 24.3307 26.1574 24.3307 26.1574C24.1409 25.9924 23.7585 25.7139 23.4388 25.4902C23.6351 25.5526 23.765 25.6113 23.8956 25.6705ZM23.5124 25.3914C23.5124 25.3914 23.5795 25.3959 23.5124 25.3914C23.5124 25.3914 23.4453 25.3876 23.3782 25.3838L23.3147 25.3289C23.3782 25.3838 23.4453 25.3876 23.5124 25.3914ZM22.578 25.2856C22.6451 25.2894 22.7122 25.2933 22.7793 25.2971C22.8464 25.3009 22.9092 25.3557 23.0434 25.364C23.3039 25.4819 23.5564 25.7018 23.809 25.9216C23.7419 25.9178 23.6791 25.863 23.5449 25.8547C23.415 25.7961 23.2137 25.784 23.0795 25.7763C23.0795 25.7763 23.016 25.7215 22.9532 25.6667C23.0239 25.6196 23.0275 25.5686 23.0275 25.5686C23.0275 25.5686 22.7634 25.5017 22.578 25.2856ZM19.7862 24.8147C19.7905 24.7637 19.7905 24.7637 19.7862 24.8147C19.8533 24.8185 19.8533 24.8185 19.9161 24.8733C19.8533 24.8185 19.8533 24.8185 19.7862 24.8147ZM19.7465 24.4533C20.0741 24.575 20.4529 24.9045 20.7055 25.1244L20.6384 25.1206C20.445 25.0071 20.0662 24.677 19.7465 24.4533ZM20.1311 25.6036C20.1946 25.6584 20.2574 25.7132 20.3209 25.7687L20.2538 25.7649C20.2538 25.7649 20.2538 25.7649 20.1867 25.761C20.1867 25.761 20.1232 25.7062 19.9969 25.596C20.064 25.5998 20.1311 25.6036 20.1311 25.6036ZM20.0676 25.5488L20.0005 25.545C19.937 25.4902 19.8742 25.4354 19.8071 25.4309C19.8742 25.4347 19.8742 25.4347 19.9413 25.4386C20.0048 25.494 20.0048 25.494 20.0676 25.5488ZM19.8151 25.3289C19.748 25.3251 19.748 25.3251 19.6809 25.3213C19.5546 25.2117 19.3648 25.0466 19.2349 24.9874C19.4326 25.0505 19.6217 25.2149 19.8151 25.3289ZM19.2198 25.1919C19.1563 25.1371 19.1563 25.1371 19.0935 25.0823C19.0899 25.1327 19.1563 25.1365 19.2198 25.1919ZM17.9217 24.5515C18.0559 24.5591 18.1821 24.6694 18.312 24.728C18.1778 24.7203 18.04 24.763 18.04 24.763C18.04 24.763 18.04 24.763 18.4383 24.8376C18.6317 24.9517 18.7544 25.1123 18.8806 25.2225C18.8135 25.2187 18.8135 25.2187 18.7464 25.2149C18.6165 25.1562 18.4823 25.148 18.3481 25.1403C18.3517 25.0893 18.4188 25.0932 18.4188 25.0932C18.4188 25.0932 18.04 24.7637 17.6568 24.4845C17.7247 24.489 17.7918 24.4928 17.9217 24.5515ZM16.5413 24.1124C16.6084 24.1162 16.6084 24.1162 16.7426 24.1238C17.208 24.2022 17.895 24.909 18.1518 25.0779L18.2189 25.0817C18.1518 25.0779 18.0847 25.074 18.0847 25.074C17.9548 25.0154 17.895 24.909 17.8279 24.9052C17.7644 24.8503 17.6309 24.8421 17.5638 24.8382C17.5003 24.7834 17.4375 24.7286 17.3704 24.7242C17.3704 24.7248 16.8573 24.387 16.5413 24.1124ZM17.0197 24.909C16.9569 24.8542 16.9569 24.8542 17.0197 24.909C16.9569 24.8542 16.9569 24.8542 17.0197 24.909ZM16.4439 24.5164C16.5781 24.5241 16.708 24.5833 16.8342 24.6929C16.7 24.6853 16.5665 24.677 16.4323 24.6694C16.3688 24.6146 16.2426 24.5043 16.1798 24.4495C16.2426 24.5049 16.3097 24.5088 16.4439 24.5164ZM15.3947 24.1474C15.6588 24.2143 16.0383 24.5438 16.2274 24.7089L16.1603 24.705C15.9633 24.642 15.6473 24.3673 15.3947 24.1474ZM16.1105 25.3685C15.9207 25.2034 15.6011 24.9797 15.3485 24.7599C15.4156 24.7637 15.5498 24.7713 15.6797 24.8306C15.7468 24.8344 15.8139 24.8382 15.8096 24.8892C15.8767 24.893 15.8767 24.893 15.8731 24.944C16.0665 25.0581 16.3234 25.227 16.5124 25.3914C16.4496 25.3372 16.3154 25.3289 16.1105 25.3685ZM17.2383 25.5883C16.9858 25.3685 16.4763 24.9797 16.2195 24.8108L16.2866 24.8147L16.3501 24.8695C16.4799 24.9281 16.5471 24.9326 16.5514 24.8809C16.879 25.0027 17.2578 25.3321 17.5104 25.552C17.4389 25.5998 17.3725 25.596 17.2383 25.5883ZM17.0832 24.9638C17.0832 24.9638 17.1503 24.9682 17.0832 24.9638C17.3437 25.0817 17.5334 25.2467 17.7225 25.4112L17.6554 25.4073C17.4663 25.2429 17.2095 25.074 17.0832 24.9638ZM17.9751 25.6317C17.9116 25.5769 17.7853 25.4666 17.659 25.357C17.659 25.357 17.659 25.357 17.7261 25.3608C17.8488 25.5214 17.9123 25.5762 17.9751 25.6317ZM19.0516 25.6431C18.9254 25.5335 18.7948 25.4742 18.732 25.4194C18.6021 25.3608 18.4008 25.3487 18.1995 25.3372C18.136 25.2824 18.0732 25.2276 18.0061 25.2232C18.0732 25.227 18.2074 25.2346 18.3373 25.2939C18.6093 25.2582 18.8655 25.4271 19.0516 25.6431ZM19.1144 25.6979C19.1815 25.7018 19.1815 25.7018 19.1144 25.6979C19.3042 25.863 19.4976 25.9764 19.6239 26.0867C19.4976 25.9771 19.3078 25.812 19.1144 25.6979ZM20.7401 26.4595C20.4205 26.2358 19.911 25.8471 19.7848 25.7374C19.7213 25.6826 19.5878 25.6744 19.4536 25.6667C19.2638 25.5017 19.0704 25.3882 18.9441 25.278L19.0112 25.2818L19.0747 25.3366C19.2046 25.3952 19.2717 25.3997 19.2761 25.3481C19.3396 25.4029 19.4694 25.4621 19.5329 25.5169C19.6592 25.6266 19.7855 25.7368 19.849 25.7916L19.9161 25.7954L19.849 25.7916C19.849 25.7916 19.849 25.7916 19.9161 25.7954C20.1059 25.9605 20.2913 26.1765 20.4212 26.2352C20.6781 26.404 20.7603 26.2039 20.7603 26.2039C20.7603 26.2039 20.5706 26.0389 20.3815 25.8745C20.6456 25.9414 20.9653 26.1651 21.2813 26.4397C21.0786 26.4283 20.8736 26.4678 20.7401 26.4595ZM21.1839 25.9216C21.2546 25.8745 21.2582 25.8235 21.2582 25.8235C21.2582 25.8235 20.9422 25.5488 20.6225 25.3251C20.6896 25.3289 20.6932 25.278 20.6932 25.278L20.7603 25.2818C20.8274 25.2856 20.8274 25.2856 20.8902 25.3404C20.9537 25.3952 20.9537 25.3952 21.0165 25.45C21.08 25.5048 21.1464 25.5087 21.2135 25.5131C21.5331 25.7368 21.8492 26.0115 22.039 26.1765C21.9719 26.1727 21.9719 26.1727 21.9719 26.1727C21.842 26.1141 21.6407 26.102 21.4393 26.0905C21.3102 26.0319 21.2474 25.9771 21.1839 25.9216ZM21.5671 26.2008C21.5671 26.2008 21.5036 26.1453 21.5671 26.2008C21.5036 26.1453 21.5036 26.1453 21.5671 26.2008C21.5707 26.1498 21.5671 26.2008 21.5671 26.2008ZM21.9459 26.5302C21.8824 26.4754 21.7561 26.3652 21.6298 26.2556C21.6969 26.2594 21.764 26.2632 21.8312 26.267C21.961 26.3257 22.0916 26.3849 22.2179 26.4945C22.285 26.4984 22.2814 26.5494 22.3442 26.6042C22.2143 26.5462 22.0801 26.5379 21.9459 26.5302ZM22.6242 26.4678C22.4979 26.3582 22.4344 26.3027 22.3673 26.2989L22.4344 26.3027C22.5643 26.3614 22.6949 26.4206 22.8212 26.5302C22.7577 26.4754 22.6913 26.4716 22.6242 26.4678ZM23.4756 26.7737C23.2231 26.5538 22.9034 26.3301 22.7771 26.2199C22.7136 26.1651 22.5801 26.1568 22.4459 26.1491C22.3824 26.0943 22.2562 25.9841 22.1299 25.8745C22.197 25.8783 22.2641 25.8821 22.3312 25.8859C22.7295 25.9605 23.2945 26.506 23.5471 26.7259C23.48 26.7227 23.4756 26.7737 23.4756 26.7737ZM24.2131 26.817C24.1496 26.7622 24.0161 26.7539 23.949 26.7501C23.7592 26.585 23.2505 26.1963 22.9301 25.9726L22.9972 25.9764C23.0643 25.9803 23.1314 25.9841 23.2613 26.0433C23.6517 26.2199 24.0269 26.601 24.2802 26.8208L24.2131 26.817ZM24.5082 26.4754C24.4447 26.4206 24.4447 26.4206 24.3819 26.3658C24.449 26.3696 24.5233 26.2715 24.5233 26.2715L24.5905 26.2753C24.6576 26.2791 24.7247 26.283 24.7203 26.3339C24.7838 26.3888 24.8466 26.4436 24.9137 26.448C24.9772 26.5028 25.0436 26.5067 25.1107 26.5111C25.1742 26.5659 25.237 26.6207 25.3005 26.6762L25.2334 26.6723C25.1699 26.6175 25.1071 26.5627 25.04 26.5583C24.9101 26.499 24.7124 26.4359 24.5082 26.4754ZM25.2702 27.084C25.2067 27.0292 25.2067 27.0292 25.1403 27.0254C25.1403 27.0254 24.9505 26.8603 24.698 26.6405C24.895 26.7036 25.1482 26.9234 25.4044 27.0917C25.3366 27.0879 25.2702 27.084 25.2702 27.084ZM25.6757 27.056C25.5494 26.9464 25.4188 26.8871 25.2925 26.7775L25.3597 26.7813C25.4859 26.8916 25.6129 27.0012 25.6757 27.056ZM26.0264 26.8718C25.9629 26.817 25.8965 26.8132 25.9001 26.7622C25.8366 26.7074 25.7031 26.6991 25.636 26.6953C25.5097 26.5857 25.3164 26.4716 25.2572 26.3658C25.3207 26.4206 25.3871 26.4244 25.3835 26.4754C25.5768 26.5895 25.6512 26.4914 25.6512 26.4914C25.6512 26.4914 25.6512 26.4914 25.5841 26.4875C25.7774 26.6016 25.9708 26.715 26.1606 26.8801C26.0935 26.8756 26.0264 26.8718 26.0264 26.8718ZM26.5661 26.8521C26.4399 26.7424 26.3092 26.6832 26.1159 26.5691C26.183 26.5729 26.183 26.5729 26.2501 26.5768C26.4514 26.5882 26.6404 26.7533 26.8973 26.9222C26.7674 26.8635 26.6332 26.8559 26.5661 26.8521Z" fill="#591144"/>
<path d="M63.3132 21.9612C63.1064 21.993 62.4772 22.0337 62.2012 22.0766C62.2703 22.0662 62.3308 21.9997 62.4 21.9893C62.5988 21.902 62.8661 21.8036 63.0044 21.7821C63.3577 21.7844 63.3577 21.7844 63.3577 21.7844C63.3577 21.7844 62.8333 21.5809 62.6345 21.669C62.6345 21.669 62.6345 21.669 62.5653 21.6793C62.4881 21.6342 62.1181 21.521 61.8421 21.5639L61.7729 21.5743C61.6266 21.5402 61.403 21.4611 61.2733 21.538C61.2041 21.5484 61.0745 21.6253 60.9449 21.703C61.2733 21.538 61.6622 21.3072 61.9463 21.3205C62.2995 21.3227 62.2995 21.3227 62.2995 21.3227C62.2995 21.3227 61.7751 21.1193 61.5763 21.2073C61.4387 21.2287 61.1794 21.3826 60.8509 21.5469C60.7737 21.5017 60.7046 21.5128 60.5582 21.4781C60.6274 21.4677 60.6274 21.4677 60.6878 21.4011C60.9034 21.4248 60.9718 21.4137 60.9718 21.4137C60.9718 21.4137 60.8946 21.3686 60.8254 21.3797C61.0847 21.2258 61.4132 21.0608 61.628 21.0845C61.9812 21.0867 61.9812 21.0867 61.9812 21.0867C61.9812 21.0867 61.4569 20.8832 61.258 20.9713C61.1204 20.9927 60.8611 21.1466 60.6011 21.3005C60.4548 21.2665 60.3856 21.2768 60.3171 21.2879C60.2479 21.2983 60.1875 21.3649 60.0498 21.3863C59.9726 21.3412 59.9034 21.3523 59.7571 21.3175C60.0163 21.1636 60.3448 20.9987 60.5596 21.0223C60.9128 21.0246 60.9128 21.0246 60.9128 21.0246C60.9128 21.0246 60.3885 20.8211 60.1897 20.9091C60.06 20.9861 59.7236 21.0948 59.3951 21.2598C59.3951 21.2598 59.3259 21.2702 59.3179 21.2147C59.6464 21.0497 60.1649 20.7419 60.5181 20.7442C60.8713 20.7464 60.8713 20.7464 60.8713 20.7464C60.8713 20.7464 60.3477 20.5429 60.1489 20.6302C60.0192 20.7072 59.752 20.8056 59.4235 20.9698C59.2771 20.9358 58.9844 20.867 58.8467 20.8884C58.9764 20.8115 59.114 20.79 59.2524 20.7686C59.6056 20.7708 59.6056 20.7708 59.6056 20.7708C59.6056 20.7708 59.2356 20.6576 59.0201 20.6339C58.9509 20.6443 58.6581 20.5762 58.3741 20.5636C58.5729 20.4763 58.771 20.3883 58.9094 20.3668C59.3922 20.2921 59.3922 20.2921 59.3922 20.2921C59.3922 20.2921 58.8839 20.2004 58.5394 20.2536C58.393 20.2196 58.0311 20.1619 57.7638 20.2603C57.5482 20.2366 57.2642 20.224 57.0654 20.3113C56.9357 20.3883 56.616 20.6088 56.2956 20.8285C56.2264 20.8389 56.2264 20.8389 56.1579 20.85C56.0116 20.8159 55.8739 20.8374 55.7275 20.8026C55.9263 20.7153 55.9263 20.7153 55.9263 20.7153C55.9263 20.7153 55.1507 20.722 54.9687 20.9202L54.9075 20.9868C55.2192 20.7109 55.911 20.1486 56.3334 20.1404C56.8163 20.0657 56.8163 20.0657 56.8163 20.0657C56.8163 20.0657 56.0844 19.8948 55.8339 20.1042C55.5746 20.2581 54.8048 20.7752 54.4851 20.9957C54.3474 21.0172 54.2091 21.0386 54.1399 21.049C54.1399 21.049 54.0794 21.1156 54.0102 21.1259C54.2448 20.8048 54.6002 20.352 54.9366 20.2425C55.4027 20.0568 55.4027 20.0568 55.4027 20.0568C55.4027 20.0568 54.6271 20.0635 54.445 20.2618C54.263 20.4608 53.6563 21.1237 53.4138 21.3886C53.2761 21.41 53.1465 21.487 53.0853 21.5535C52.9637 21.686 52.7212 21.9516 52.4787 22.2164C52.341 22.2379 52.2027 22.2593 52.1422 22.3252L52.073 22.3355C52.3075 22.0145 52.7758 21.373 53.1727 21.1977C53.6388 21.012 53.6388 21.012 53.6388 21.012C53.6388 21.012 52.8632 21.0186 52.6811 21.2169C52.5595 21.3493 52.317 21.6149 52.014 21.9464C51.9449 21.9567 51.9449 21.9567 51.8764 21.9678C51.8764 21.9678 51.8764 21.9678 51.9456 21.9575C52.1968 21.7481 52.7008 20.8736 53.1669 20.6872C53.633 20.5015 53.633 20.5015 53.633 20.5015C53.633 20.5015 52.8574 20.5081 52.6753 20.7064C52.6149 20.773 52.3636 20.9824 52.1903 21.2369C51.9835 21.2687 51.7766 21.3013 51.5778 21.3886C51.371 21.4204 50.9566 21.4847 50.8357 21.6172C50.6289 21.649 50.422 21.6815 50.3004 21.814C50.1788 21.9464 49.7549 22.4103 49.5117 22.6759C49.3741 22.6973 49.2444 22.7743 49.1832 22.8409C49.1221 22.9074 49.0616 22.9733 48.932 23.0502C48.8628 23.0606 48.7252 23.082 48.5183 23.1146C48.5788 23.048 48.5788 23.048 48.6399 22.9822C48.7171 23.0273 48.7943 23.0717 48.916 22.9392C49.0376 22.8068 49.3238 22.3644 49.6268 22.033C50.0324 21.9131 50.0324 21.9131 50.0324 21.9131C50.0324 21.9131 49.8948 21.9346 49.7564 21.956C49.878 21.8236 50.0076 21.7466 50.1453 21.7252C50.6114 21.5395 50.6114 21.5395 50.6114 21.5395C50.6114 21.5395 49.8358 21.5461 49.6537 21.7444C49.5933 21.811 49.5321 21.8768 49.4112 22.0093C49.2735 22.0307 49.1439 22.1077 49.0827 22.1743C49.0223 22.2408 48.9611 22.3067 48.8402 22.4391C48.6334 22.4709 48.4266 22.5035 48.3654 22.5693C48.3042 22.6352 48.1833 22.7683 48.0012 22.9674C47.8636 22.9888 47.7252 23.0103 47.5184 23.0421C47.7529 22.721 48.1163 22.3237 48.3843 22.2253C48.8504 22.0396 48.8504 22.0396 48.8504 22.0396C48.8504 22.0396 48.0748 22.0463 47.8927 22.2445C47.8323 22.3111 47.7107 22.4436 47.5898 22.576C47.3829 22.6078 46.9686 22.6722 46.8477 22.8046C46.7872 22.8712 46.6051 23.0695 46.4835 23.2026C46.2767 23.2344 45.9235 23.2322 45.8019 23.3654C45.7414 23.432 45.6802 23.4978 45.5593 23.6303C45.7938 23.3092 46.2621 22.6677 46.6678 22.5486C47.1339 22.3629 47.1339 22.3629 47.1339 22.3629C47.1339 22.3629 46.3583 22.3696 46.1762 22.5679C45.9249 22.7772 45.0925 23.8167 45.0925 23.8167C44.8857 23.8485 44.6789 23.8811 44.5572 24.0135C44.4968 24.0801 44.2543 24.3449 44.0722 24.544C44.003 24.5543 43.8734 24.6313 43.8049 24.6424C44.0394 24.3213 44.3504 24.046 44.6184 23.9476C45.0845 23.762 45.0845 23.762 45.0845 23.762C45.0845 23.762 44.8689 23.7383 44.6017 23.8367C44.7233 23.7042 44.8966 23.4497 45.1391 23.1849C45.5448 23.065 45.5448 23.065 45.5448 23.065C45.5448 23.065 45.4071 23.0865 45.2688 23.1079C45.3904 22.9755 45.52 22.8986 45.6496 22.8216C46.0553 22.7018 46.0553 22.7018 46.0553 22.7018C46.0553 22.7018 45.4173 22.687 45.236 22.8852C45.1755 22.9518 45.1144 23.0177 44.9935 23.1501C44.8558 23.1716 44.657 23.2589 44.5966 23.3254L44.5361 23.392C44.3293 23.4238 44.1225 23.4564 44.0008 23.5888C43.8108 23.7324 43.3337 24.3183 43.0992 24.6387C43.0992 24.6387 43.03 24.649 43.0388 24.7052C42.9172 24.8377 42.6746 25.1033 42.3717 25.4347C42.1649 25.4665 41.8888 25.5094 41.69 25.5975C41.9245 25.2764 42.3841 24.5795 42.8589 24.4493C42.8589 24.4493 42.8589 24.4493 42.9281 24.4389C42.7548 24.6934 42.5727 24.8924 42.5727 24.8924C42.5727 24.8924 42.6754 25.104 42.9259 24.8946C43.0555 24.8177 43.1604 24.5736 43.3337 24.3198C43.5682 23.9987 43.8792 23.7235 44.078 23.6354C44.5441 23.4497 44.5441 23.4497 44.5441 23.4497C44.5441 23.4497 43.7685 23.4564 43.5864 23.6547C43.526 23.7213 43.4044 23.8537 43.2223 24.0527C43.0155 24.0845 42.5239 24.1038 42.411 24.2924C42.2894 24.4248 42.0469 24.6904 41.7439 25.0219C41.5371 25.0537 41.2611 25.0966 41.0622 25.1847C40.9931 25.195 40.8554 25.2165 40.7862 25.2276C40.9596 24.9731 41.2108 24.7637 41.4096 24.6756C41.8757 24.4899 41.8757 24.4899 41.8757 24.4899C41.8757 24.4899 41.1001 24.4966 40.918 24.6949C40.7884 24.7718 40.6151 25.0263 40.433 25.2253C40.3638 25.2357 40.3034 25.3023 40.2342 25.3126C40.1737 25.3792 39.9829 25.522 39.8701 25.7107C39.7404 25.7876 39.4979 26.0525 39.2554 26.3181C39.1177 26.3395 38.7806 26.4483 38.6597 26.5807L38.5992 26.6473C38.3924 26.6791 37.9008 26.6984 37.7187 26.8974C37.6583 26.964 37.5971 27.0298 37.4762 27.1622C37.7187 26.8974 37.9532 26.5763 38.2205 26.4779C38.6866 26.2922 38.6866 26.2922 38.6866 26.2922C38.6866 26.2922 38.4026 26.2796 38.1346 26.378C38.2038 26.3677 38.2642 26.3011 38.3334 26.2907C38.5322 26.2034 38.5322 26.2034 38.5322 26.2034C38.5322 26.2034 38.5322 26.2034 38.463 26.2138C38.6451 26.0148 39.243 25.2964 39.6406 25.121C39.7098 25.1107 39.7011 25.0544 39.7703 25.0441C39.4586 25.32 38.7478 26.2263 38.7478 26.2263C38.7478 26.2263 38.8505 26.4379 39.101 26.2286C39.2831 26.0296 39.8562 25.1447 40.3223 24.9583C40.7884 24.7726 40.7884 24.7726 40.7884 24.7726C40.7884 24.7726 40.082 24.7681 39.8307 24.9775C39.6239 25.0093 39.3559 25.1077 39.235 25.2401C39.1054 25.3171 38.932 25.5716 38.6808 25.781C38.5431 25.8024 37.9824 25.832 37.7923 25.9755C37.7318 26.0421 37.6707 26.108 37.5498 26.2404C37.3429 26.2722 37.2046 26.2937 37.0837 26.4261C37.2657 26.2271 37.5163 26.0177 37.6459 25.9408C38.0428 25.7654 38.0428 25.7654 38.0428 25.7654C38.0428 25.7654 37.4216 25.8616 37.2403 26.0606C36.989 26.27 36.1318 27.1423 36.1318 27.1423C36.1318 27.1423 36.2178 27.2429 36.4078 27.0994C36.5295 26.9669 36.772 26.7013 37.0225 26.4919C36.78 26.7568 36 27.6742 36 27.6742C36 27.6742 36.1027 27.8858 36.3532 27.6764C36.5353 27.4774 36.8739 26.9129 37.2548 26.6266C36.9519 26.958 36.6482 27.2895 36.6482 27.2895C36.6482 27.2895 36.7509 27.5011 37.0014 27.2917C37.123 27.1593 37.4092 26.7169 37.7814 26.3743C38.0486 26.2759 38.0486 26.2759 38.0486 26.2759C38.0486 26.2759 37.9795 26.2863 37.8418 26.3077C37.9634 26.1753 38.0931 26.0984 38.2227 26.0214C38.4215 25.9341 38.5592 25.9127 38.6283 25.9016C38.3858 26.1664 38.1346 26.3765 38.1346 26.3765C37.9969 26.398 37.7981 26.4853 37.6765 26.6185C37.4944 26.8175 36.6285 27.6343 36.6285 27.6343C36.6285 27.6343 36.6365 27.6897 36.7057 27.6794C36.5841 27.8118 36.5236 27.8784 36.5236 27.8784C36.5236 27.8784 36.6096 27.979 36.7472 27.9576C36.5651 28.1566 36.5127 28.2787 36.5127 28.2787C36.5127 28.2787 36.5207 28.3341 36.5899 28.3238C36.5295 28.3904 36.5295 28.3904 36.5295 28.3904C36.5295 28.3904 36.6067 28.4355 36.6839 28.4799C36.5018 28.6789 36.3809 28.8113 36.3809 28.8113C36.3809 28.8113 36.4836 29.0229 36.7341 28.8136C36.9242 28.67 37.1944 28.1166 37.5665 27.7741C37.5665 27.7741 37.5665 27.7741 37.6357 27.7637C37.5141 27.8962 37.4536 27.9627 37.4536 27.9627C37.4536 27.9627 37.5563 28.1743 37.8069 27.965C37.8673 27.8984 38.0414 27.6439 38.2227 27.4456C38.2919 27.4352 38.3603 27.4241 38.3603 27.4241C38.0574 27.7556 37.3903 28.4843 37.3903 28.4843C37.3903 28.4843 37.4675 28.5295 37.5447 28.5738C37.3626 28.7729 37.2417 28.9053 37.2417 28.9053C37.2417 28.9053 37.3444 29.1169 37.5949 28.9075C37.7165 28.7751 38.0632 28.2661 38.3749 27.9901C38.3145 28.0567 38.2533 28.1225 38.2533 28.1225C38.2533 28.1225 38.356 28.3341 38.6065 28.1248C38.6669 28.0582 38.849 27.8599 39.0223 27.6054C39.0915 27.595 39.16 27.5839 39.152 27.5285C38.7878 27.9265 38.372 28.4459 38.372 28.4459C38.372 28.4459 38.4747 28.6575 38.7252 28.4481C38.9073 28.2491 39.3675 27.5521 39.7477 27.2658C39.8249 27.3109 39.8941 27.2998 40.015 27.1674C40.015 27.1674 40.015 27.1674 40.0754 27.1008L40.1446 27.0905C39.8329 27.3664 39.1221 28.2727 39.1221 28.2727C39.1221 28.2727 39.2248 28.4843 39.4753 28.275C39.6574 28.0759 40.1089 27.3235 40.567 27.0816C40.6442 27.1267 40.7134 27.1156 40.8343 26.9832C40.8343 26.9832 40.8263 26.9277 40.8947 26.9166L40.9639 26.9063C40.7214 27.1711 40.6085 27.3598 40.6085 27.3598C40.6085 27.3598 40.6085 27.3598 40.6165 27.4153C40.4432 27.6698 40.2611 27.8688 40.2611 27.8688C40.2611 27.8688 40.3638 28.0804 40.6144 27.871C40.7964 27.672 41.2567 26.9751 41.6369 26.6887C41.3339 27.0202 41.0389 27.4071 41.0389 27.4071C41.0389 27.4071 41.1416 27.6187 41.3922 27.4093L41.4526 27.3428L41.5218 27.3324C41.3485 27.5869 41.1664 27.7859 41.1664 27.7859C41.1664 27.7859 41.2691 27.9975 41.5196 27.7881C41.7017 27.5891 42.1619 26.8922 42.5421 26.6059L42.6113 26.5955C42.4897 26.728 42.4292 26.7945 42.4292 26.7945C42.4292 26.7945 42.4372 26.85 42.5064 26.8397C42.2034 27.1711 41.8393 27.5692 41.8393 27.5692C41.8393 27.5692 41.942 27.7807 42.1925 27.5714C42.4431 27.362 42.9477 26.4875 43.4138 26.3011C43.5515 26.2796 43.6127 26.2138 43.7503 26.1923C43.6287 26.3247 43.5682 26.3913 43.5682 26.3913C43.2653 26.7228 42.9703 27.1097 42.9703 27.1097C42.9703 27.1097 43.073 27.3213 43.3235 27.1119C43.4452 26.9795 43.6185 26.725 43.853 26.4039C43.853 26.4039 43.853 26.4039 43.9222 26.3936C43.9826 26.327 44.0438 26.2611 44.1042 26.1945C44.2259 26.0621 44.416 25.9186 44.5456 25.8416C44.6148 25.8313 44.6148 25.8313 44.6148 25.8313C44.692 25.8764 44.7007 25.9319 44.7007 25.9319C44.7007 25.9319 44.7779 25.977 44.8551 26.0214C44.8631 26.0769 44.9323 26.0665 45.0015 26.0554C44.8799 26.1879 44.8194 26.2545 44.8194 26.2545C44.8194 26.2545 44.9221 26.4661 45.1726 26.2567C45.2943 26.1242 45.6409 25.6152 45.9526 25.3393C45.9526 25.3393 45.9526 25.3393 46.0218 25.3289L46.0822 25.2623C46.1427 25.1958 46.2119 25.1854 46.2723 25.1188C46.3495 25.1639 46.4187 25.1528 46.5396 25.0204C46.5396 25.0204 46.5396 25.0204 46.6 24.9538C46.5396 25.0204 46.5396 25.0204 46.5396 25.0204C46.2366 25.3519 45.5695 26.0806 45.5695 26.0806C45.5695 26.0806 45.6722 26.2922 45.9228 26.0828C46.174 25.8734 46.678 24.999 47.1441 24.8125C47.2133 24.8022 47.2133 24.8022 47.2817 24.7911C47.2213 24.8576 47.2213 24.8576 47.2213 24.8576C47.2213 24.8576 47.2293 24.9131 47.3072 24.9583C47.0042 25.2897 46.7093 25.6766 46.7093 25.6766C46.7093 25.6766 46.812 25.8882 47.0625 25.6789C47.3138 25.4695 47.8177 24.595 48.2838 24.4086C48.353 24.3982 48.353 24.3982 48.4215 24.3871C48.361 24.4537 48.361 24.4537 48.361 24.4537C48.2394 24.5861 48.1877 24.7082 48.1877 24.7082C48.1877 24.7082 48.2904 24.9198 48.5409 24.7104C48.6013 24.6438 48.6625 24.578 48.7142 24.4559C48.7747 24.3893 48.9487 24.1348 49.1301 23.9366C49.2517 23.8041 49.433 23.6051 49.5627 23.5282L49.6319 23.5178C49.3289 23.8493 48.6618 24.578 48.6618 24.578C48.6618 24.578 48.7645 24.7896 49.015 24.5802C49.1971 24.3812 49.7702 23.4963 50.2363 23.3099C50.3055 23.2996 50.366 23.233 50.4351 23.2226C50.3135 23.355 50.1926 23.4875 50.1322 23.5541C49.9945 23.5755 49.8649 23.6525 49.8037 23.719C49.5525 23.9284 48.712 24.9124 48.712 24.9124C48.712 24.9124 48.806 25.0685 48.9961 24.925C49.0653 24.9146 49.1425 24.959 49.2633 24.8266C49.4454 24.6276 49.8445 23.9972 50.2254 23.7102C50.2946 23.6998 50.2946 23.6998 50.355 23.6332C50.355 23.6332 50.4242 23.6229 50.4155 23.5666C50.2939 23.6991 50.2334 23.7656 50.2334 23.7656C50.2334 23.7656 50.3361 23.9772 50.5866 23.7679C50.6471 23.7013 50.7687 23.5689 50.8896 23.4364C50.9588 23.4261 50.9588 23.4261 50.9588 23.4261C51.1933 23.105 51.5487 22.6522 51.8771 22.4872C51.9463 22.4769 52.0068 22.4103 52.0759 22.3999C51.9543 22.5323 51.8334 22.6648 51.773 22.7314C51.6353 22.7528 51.5057 22.8298 51.4445 22.8963C51.1933 23.1057 50.3529 24.0897 50.3529 24.0897C50.3529 24.0897 50.4388 24.1903 50.5764 24.1689C50.516 24.2354 50.516 24.2354 50.516 24.2354C50.516 24.2354 50.6187 24.447 50.8692 24.2377C50.9296 24.1711 50.9821 24.0497 51.1037 23.9166C51.1117 23.9721 51.2668 24.0623 51.4489 23.8633C51.639 23.7198 51.9092 23.1664 52.2893 22.8801C52.1677 23.0125 52.1073 23.0791 52.1073 23.0791C52.1073 23.0791 52.21 23.2907 52.4605 23.0813C52.5209 23.0147 52.695 22.7602 52.8763 22.5619C52.9455 22.5516 53.014 22.5405 53.0751 22.4746C52.711 22.8727 52.226 23.4024 52.226 23.4024C52.226 23.4024 52.3287 23.614 52.5792 23.4046C52.6396 23.338 52.7525 23.1501 52.9346 22.9511C53.0118 22.9962 53.081 22.9851 53.2019 22.8527C53.2623 22.7861 53.4444 22.5878 53.6177 22.3333C53.6949 22.3785 53.7641 22.3674 53.8937 22.2904C53.9542 22.2238 54.0838 22.1469 54.145 22.081L54.153 22.1365C54.0314 22.269 53.9105 22.4014 53.9105 22.4014C53.9105 22.4014 53.9964 22.502 54.0649 22.4909C54.0729 22.5464 54.2193 22.5804 54.3489 22.5035C54.4093 22.4369 54.6001 22.2941 54.7902 22.1506C54.8594 22.1402 54.9279 22.1291 54.9971 22.1188C55.1267 22.0418 55.3779 21.8325 55.6285 21.6231C55.6977 21.6127 55.6977 21.6127 55.7661 21.6016C55.8433 21.6468 55.9125 21.6357 55.9729 21.5698L56.0421 21.5595L56.1113 21.5491C55.7916 21.7696 54.7713 22.4961 54.7713 22.4961C54.7713 22.4961 54.8048 22.7188 55.1332 22.5538C55.1937 22.4872 55.3845 22.3444 55.5746 22.2009C55.6438 22.1905 55.7122 22.1794 55.7814 22.1691C55.911 22.0921 56.1623 21.8828 56.4128 21.6734C56.482 21.663 56.5425 21.5964 56.6116 21.5861C56.2308 21.8724 55.7814 22.1698 55.7814 22.1698C55.7814 22.1698 55.8149 22.3925 56.1434 22.2275C56.3422 22.1402 56.6451 21.8088 57.034 21.5772C57.034 21.5772 57.034 21.5772 57.0421 21.6327C56.852 21.7762 56.6612 21.919 56.6612 21.919C56.6612 21.919 56.6947 22.1417 57.0231 21.9767C57.2219 21.8894 57.5854 21.4914 58.0434 21.2495C58.2503 21.2177 58.2503 21.2176 58.2503 21.2176C58.2503 21.2176 58.1811 21.228 58.1039 21.1836C58.3027 21.0963 58.5008 21.0083 58.6392 20.9868C58.7768 20.9654 58.846 20.955 58.9844 20.9336C58.7171 21.032 57.8614 21.4485 57.8614 21.4485C57.8614 21.4485 57.8781 21.5595 57.9473 21.5491C57.8177 21.626 57.7485 21.6364 57.7485 21.6364L57.6793 21.6468C57.6793 21.6468 57.7041 21.8132 57.9029 21.7259C58.1017 21.6386 58.8023 21.1318 59.2327 21.1784C59.3019 21.1681 59.3019 21.1681 59.3704 21.157C59.2407 21.2339 59.1715 21.2443 59.1111 21.3109C59.0419 21.3212 58.8955 21.2872 58.8351 21.3538C58.5678 21.4522 57.6516 21.9353 57.6516 21.9353C57.6516 21.9353 57.6764 22.1018 57.8752 22.0145C58.074 21.9272 58.653 21.5528 59.0667 21.4884C59.0747 21.5439 59.1439 21.5336 59.2735 21.4566C59.2735 21.4566 59.2735 21.4566 59.3427 21.4463C59.3427 21.4463 59.3427 21.4463 59.4119 21.4359C59.1446 21.5343 58.2889 21.9508 58.2889 21.9508C58.2889 21.9508 58.3136 22.1173 58.5124 22.03C58.6421 21.953 58.9013 21.7992 59.1693 21.7008C59.1693 21.7008 59.2465 21.7459 59.307 21.6793C59.3762 21.669 59.5058 21.592 59.6354 21.5143C59.7046 21.504 59.7731 21.4929 59.8423 21.4825C59.9799 21.4611 60.0578 21.5062 60.1263 21.4951C59.7294 21.6704 59.2021 21.9227 59.2021 21.9227C59.2021 21.9227 59.2189 22.0337 59.3565 22.0122C59.2873 22.0226 59.2269 22.0892 59.2269 22.0892C59.2269 22.0892 59.2516 22.2556 59.4505 22.1683C59.5801 22.0914 60.0382 21.8495 60.3666 21.6852C60.5043 21.6638 60.5655 21.5979 60.7118 21.632C60.781 21.6216 60.8495 21.6105 60.8582 21.666C60.5909 21.7644 60.3921 21.8517 60.3921 21.8517C60.3921 21.8517 60.4089 21.9627 60.5465 21.9412C60.2792 22.0396 60.0884 22.1831 60.0884 22.1831C60.0884 22.1831 60.1132 22.3496 60.312 22.2623C60.5108 22.175 61.2194 21.7237 61.6418 21.7148L61.711 21.7045C61.3141 21.8798 60.7264 22.1987 60.7264 22.1987C60.7264 22.1987 60.7344 22.2542 60.8123 22.2993C60.6135 22.3866 60.4839 22.4643 60.4839 22.4643C60.4839 22.4643 60.5086 22.6307 60.7075 22.5434C60.9063 22.4561 61.6069 21.9493 62.0373 21.996C62.0373 21.996 62.0373 21.996 62.1065 21.9856C61.778 22.1506 61.5188 22.3045 61.5188 22.3045C61.5188 22.3045 61.5435 22.4709 61.7423 22.3836C61.8115 22.3733 61.9412 22.2963 62.0708 22.2186C62.0788 22.2741 62.148 22.2638 62.2252 22.3082C62.5092 22.3207 63.3205 22.0818 63.6992 22.2505C64 22.3748 64 22.3748 64 22.3748C64 22.3748 63.598 21.9738 63.3132 21.9612ZM43.0592 24.3583C43.1968 24.3368 43.258 24.271 43.3264 24.2599C43.266 24.3264 43.2048 24.3923 43.1444 24.4589C43.0067 24.4803 42.8684 24.5018 42.7307 24.5232C42.7912 24.4567 42.9208 24.3797 43.0592 24.3583ZM48.9699 22.8172C48.7273 23.082 48.4244 23.4135 48.3108 23.6021L48.2416 23.6125C48.3384 23.3129 48.6327 22.9259 48.9699 22.8172ZM47.9241 23.3772C48.0617 23.3558 48.1229 23.2899 48.1913 23.2788C48.1389 23.4009 48.0093 23.4779 47.9488 23.5437C47.8112 23.5652 47.6728 23.5866 47.5352 23.6081C47.6648 23.5311 47.7864 23.3987 47.9241 23.3772ZM45.9737 24.0209C46.3794 23.901 46.3794 23.901 46.3794 23.901C46.3794 23.901 46.2417 23.9225 46.1034 23.9439C46.225 23.8115 46.3546 23.7346 46.4843 23.6576C46.6219 23.6362 46.6831 23.5703 46.7515 23.5592C46.4486 23.8907 46.0844 24.2887 46.0844 24.2887C46.0844 24.2887 46.0924 24.3442 46.1616 24.3338C46.024 24.3553 45.8164 24.3871 45.756 24.4537C45.756 24.4537 45.6868 24.4641 45.6183 24.4752C45.67 24.3523 45.7829 24.1637 45.9737 24.0209ZM45.394 24.3945C45.3336 24.4611 45.3336 24.4611 45.2724 24.5269C45.2644 24.4722 45.3336 24.4611 45.394 24.3945ZM45.1013 24.3264C44.9796 24.4589 44.8668 24.6475 44.6767 24.7903C44.6075 24.8007 44.6075 24.8007 44.539 24.8118C44.7903 24.6024 44.9804 24.4589 45.1013 24.3264ZM44.4866 24.9339C44.5558 24.9235 44.6242 24.9124 44.6242 24.9124C44.5638 24.979 44.5026 25.0448 44.5114 25.1003L44.4422 25.1107C44.4261 24.9997 44.4953 24.9893 44.4866 24.9339ZM44.3737 25.1218C44.4429 25.1114 44.4429 25.1114 44.5114 25.1003C44.3897 25.2327 44.3293 25.2993 44.3293 25.2993C44.3293 25.2993 44.3293 25.2993 44.2688 25.3659L44.1996 25.3763C44.1916 25.3208 44.2528 25.2542 44.3737 25.1218ZM44.4553 24.2554C44.4473 24.1999 44.5157 24.1888 44.5157 24.1888C44.5157 24.1888 44.5157 24.1888 44.5237 24.2443L44.4553 24.2554ZM44.5354 23.8456C44.2929 24.1104 43.9375 24.5639 43.7467 24.7075L43.6775 24.7178C43.912 24.3967 44.2069 24.0098 44.5354 23.8456ZM41.382 25.4147C41.4424 25.3482 41.5808 25.3274 41.6412 25.2609C41.7104 25.2505 41.7709 25.1839 41.84 25.1736C41.6667 25.4281 41.4846 25.6271 41.4846 25.6271C41.4846 25.6271 41.4927 25.6826 41.5706 25.7277C41.5101 25.7943 41.5101 25.7943 41.449 25.8601C41.2421 25.8919 41.0353 25.9245 40.9829 26.0458C40.9137 26.0562 40.776 26.0776 40.7156 26.1442C40.8882 25.889 41.1227 25.5686 41.382 25.4147ZM40.8911 25.434C40.9603 25.4236 41.0207 25.357 41.0899 25.3467L41.0295 25.4133C40.9596 25.4229 40.8911 25.434 40.8911 25.434C40.8219 25.4443 40.8219 25.4443 40.8911 25.434ZM39.2998 26.5903C39.2394 26.6569 39.1702 26.6673 39.1702 26.6673C39.2306 26.6014 39.2998 26.5903 39.2998 26.5903ZM38.3756 27.018C38.5133 26.9965 38.5745 26.9307 38.6429 26.9196C38.6429 26.9196 38.5825 26.9862 38.5133 26.9965C38.4441 27.0076 38.3756 27.018 38.3756 27.018C38.3064 27.0283 38.3064 27.0283 38.3756 27.018ZM38.0974 27.5159C37.9598 27.5373 37.8906 27.5477 37.761 27.6246C37.943 27.4256 38.1251 27.2266 38.3319 27.1948C38.4011 27.1844 38.4011 27.1844 38.4696 27.1733C38.34 27.251 38.2183 27.3835 38.0974 27.5159ZM38.5803 27.4412C38.5803 27.4412 38.5111 27.4515 38.4426 27.4626C38.6247 27.2636 38.7376 27.0757 38.9277 26.9322L38.8672 26.9987C38.8672 26.9987 38.884 27.1097 39.1432 26.9558C39.1432 26.9558 39.2037 26.8892 39.2649 26.8234C39.1432 26.9558 39.0223 27.0883 38.9007 27.2214C38.7631 27.2429 38.7019 27.3087 38.6415 27.3753C38.7012 27.3087 38.6407 27.3753 38.5803 27.4412ZM38.9583 27.6106C39.0107 27.4885 39.1403 27.4116 39.1928 27.2895L39.2619 27.2791C39.2008 27.345 39.0799 27.4782 38.9583 27.6106ZM39.4935 27.4138C39.5015 27.4693 39.4331 27.4804 39.4411 27.5359C39.3719 27.5462 39.3719 27.5462 39.3035 27.5573C39.4768 27.3028 39.728 27.0934 39.9181 26.9499C39.6756 27.2148 39.4935 27.4138 39.4935 27.4138ZM40.1002 26.7509C39.8934 26.7827 39.6865 26.8153 39.5649 26.9477C39.5045 27.0143 39.4433 27.0801 39.3828 27.1467C39.3828 27.1467 39.3828 27.1467 39.3137 27.1571C39.3741 27.0905 39.4353 27.0246 39.4957 26.958C39.5649 26.9477 39.6334 26.9366 39.6945 26.8707C39.755 26.8042 39.747 26.7487 39.8074 26.6828C39.8766 26.6725 39.9371 26.6059 39.9371 26.6059L40.0062 26.5955C40.0062 26.5955 40.0834 26.6407 40.1606 26.685C40.1606 26.6843 40.0915 26.6954 40.1002 26.7509ZM40.1191 26.4069C40.0499 26.4172 40.0499 26.4172 39.9815 26.4283C40.1031 26.2959 40.1548 26.1738 40.2764 26.0414C40.2764 26.0414 40.3456 26.031 40.3369 25.9748C40.3973 25.9082 40.4585 25.8424 40.5102 25.7203C40.6318 25.5879 40.7615 25.5109 40.8991 25.4895C40.6733 25.8653 40.3092 26.2633 40.1191 26.4069ZM40.6937 26.9433C40.5561 26.9647 40.4949 27.0306 40.4265 27.0416L40.3573 27.052C40.5998 26.7871 40.9472 26.2781 41.2669 26.0577C41.4045 26.0362 41.4657 25.9704 41.5342 25.9593L41.6033 25.9489C41.3696 26.27 40.8758 26.7442 40.6937 26.9433ZM41.9631 26.4624C41.8939 26.4727 41.8255 26.4838 41.7563 26.4942C41.8779 26.3617 42.0075 26.2848 42.068 26.2182L42.1372 26.2079C42.1452 26.2633 42.0928 26.3854 41.9631 26.4624ZM42.1117 26.0414C41.974 26.0628 41.8444 26.1398 41.7832 26.2064C41.6616 26.3388 41.4191 26.6044 41.1853 26.9248L41.1161 26.9351C41.3506 26.614 41.8189 25.9726 42.2158 25.7972C42.285 25.7869 42.3455 25.7203 42.4146 25.7099C42.2938 25.8424 42.2413 25.9644 42.1117 26.0414ZM42.4729 26.0991C42.4045 26.1095 42.4045 26.1095 42.4729 26.0991V26.0991ZM42.6615 26.4113C42.5239 26.4328 42.3943 26.5097 42.3331 26.5763C42.3935 26.5097 42.3935 26.5097 42.4547 26.4439C42.5763 26.3114 42.6368 26.2448 42.7577 26.1124C42.8269 26.1021 42.8953 26.091 42.9565 26.0251C42.8429 26.2123 42.722 26.3447 42.6615 26.4113ZM42.5945 25.9667L42.5253 25.977C42.7074 25.778 42.9332 25.4022 43.2449 25.1262C43.3141 25.1159 43.3825 25.1048 43.4437 25.0389C43.4437 25.0389 43.5042 24.9723 43.5653 24.9065C43.6345 24.8961 43.6258 24.8399 43.695 24.8295L43.7641 24.8192C43.7641 24.8192 43.8413 24.8643 43.9105 24.8532C43.6076 25.1847 43.3039 25.5161 43.3039 25.5161C43.3039 25.5161 43.3119 25.5716 43.3898 25.6167C43.3294 25.6833 43.2682 25.7492 43.2077 25.8157C43.0002 25.8468 42.7934 25.8786 42.5945 25.9667ZM44.7357 25.1795C44.614 25.3119 44.129 25.8424 43.8865 26.1072C43.7488 26.1287 43.5413 26.1605 43.3345 26.1931C43.569 25.872 43.8719 25.5413 44.1399 25.4429C43.9579 25.6419 43.7758 25.8409 43.7758 25.8409C43.7758 25.8409 43.8785 26.0525 44.129 25.8431C44.1895 25.7765 44.3635 25.522 44.5449 25.3237C44.614 25.3134 44.614 25.3134 44.614 25.3134L44.5449 25.3237C44.5449 25.3237 44.5449 25.3237 44.614 25.3134C44.6745 25.2468 44.7961 25.1144 44.909 24.9265C44.9694 24.8599 45.0991 24.7829 45.1602 24.7171C45.2374 24.7622 45.3066 24.7511 45.3671 24.6853L45.4275 24.6187L45.4967 24.6083C45.3751 24.7408 45.2542 24.8732 45.0721 25.0722C44.9338 25.0922 44.8653 25.1025 44.7357 25.1795ZM45.0008 25.5368C45.1224 25.4044 45.2433 25.272 45.3562 25.0833L45.4253 25.0729C45.2353 25.2157 45.1224 25.4044 45.0008 25.5368ZM46.2556 24.4892C46.0487 24.521 45.8419 24.5536 45.7203 24.686C45.6598 24.7526 45.5302 24.8295 45.4778 24.9509C45.4778 24.9509 45.4778 24.9509 45.4086 24.9612C45.5819 24.7067 45.8332 24.4973 46.032 24.4093C46.2308 24.322 46.2993 24.3109 46.3685 24.3005C46.3852 24.4123 46.316 24.4226 46.2556 24.4892ZM46.2993 24.3117C46.2993 24.3117 46.3685 24.3006 46.2993 24.3117C46.5418 24.0468 47.1149 23.1612 47.5898 23.031C47.659 23.0206 47.7274 23.0095 47.7886 22.9437C47.4849 23.2744 47.1295 23.7279 47.1295 23.7279C47.0691 23.7945 47.0079 23.8603 47.0079 23.8603C46.8702 23.8818 46.8091 23.9476 46.7486 24.0142C46.6882 24.0808 46.627 24.1467 46.4974 24.2236C46.4376 24.2902 46.3685 24.3006 46.2993 24.3117ZM47.4915 23.7856C47.4995 23.8411 47.4303 23.8522 47.4915 23.7856C47.4303 23.8522 47.4303 23.8522 47.4915 23.7856C47.4303 23.8522 47.4303 23.8522 47.4915 23.7856ZM46.5899 24.8355C46.6503 24.7689 46.7027 24.6475 46.8244 24.5144C46.8935 24.504 46.8935 24.504 46.8935 24.504C46.7719 24.6364 46.6503 24.7689 46.5899 24.8355ZM46.8244 24.5151C46.9372 24.3272 47.1193 24.1282 47.3094 23.9846L47.3786 23.9743C47.1878 24.1171 47.0064 24.3161 46.8244 24.5151ZM47.2715 24.6727C47.2023 24.683 47.0647 24.7045 46.9955 24.7156C47.23 24.3945 47.525 24.0076 47.8527 23.8433C47.9299 23.8885 47.9991 23.8774 48.0595 23.8115L48.12 23.7449L48.1891 23.7346C47.9991 23.8774 47.514 24.4078 47.2715 24.6727ZM48.4025 24.2132C48.2649 24.2347 48.0573 24.2665 47.9197 24.288C48.1018 24.089 48.2751 23.8345 48.5343 23.6806C48.5343 23.6806 48.6035 23.6702 48.5948 23.614C48.664 23.6036 48.7244 23.537 48.7244 23.537C48.9232 23.4497 48.9917 23.4386 49.0609 23.4283C48.8876 23.6828 48.5846 24.0142 48.4025 24.2132ZM49.8729 23.1893C49.8037 23.1997 49.8037 23.1997 49.8729 23.1893C49.8729 23.1893 49.8649 23.1338 49.9253 23.0672L49.9945 23.0569C49.9334 23.1227 49.8729 23.1893 49.8729 23.1893ZM50.0462 22.9348C50.2196 22.6803 50.4541 22.36 50.7053 22.1498C50.5313 22.4043 50.2283 22.7358 50.0462 22.9348ZM50.2786 23.0695C50.5211 22.8046 50.9122 22.118 51.3783 21.9316C51.4474 21.9212 51.4474 21.9212 51.4474 21.9212L51.5166 21.9109L51.5858 21.9005C51.4038 22.0995 51.0403 22.4968 50.7971 22.7624C50.6755 22.8949 50.615 22.9614 50.4941 23.0939C50.4162 23.048 50.347 23.0591 50.2786 23.0695ZM51.3236 22.5094C51.202 22.6418 50.7782 23.1057 50.5349 23.3713L50.4657 23.3817C50.5262 23.3151 50.6478 23.1827 50.7002 23.0606C50.7002 23.0606 50.7694 23.0502 50.8299 22.9836C50.8903 22.9171 51.0032 22.7291 51.1853 22.5301C51.3069 22.3977 51.4365 22.3207 51.5742 22.2993C51.6434 22.2889 51.6434 22.2889 51.7118 22.2778C51.7118 22.2778 51.7198 22.3333 51.789 22.323C51.5829 22.3555 51.4533 22.4325 51.3236 22.5094ZM51.489 22.1994C51.671 22.0004 51.9216 21.791 52.1204 21.7037C52.1896 21.6934 52.1896 21.6934 52.258 21.6823C52.0759 21.8813 51.9551 22.0137 51.8334 22.1461C51.6958 22.1676 51.6273 22.178 51.489 22.1994ZM51.6055 22.9777C51.6659 22.9111 51.7351 22.9008 51.7271 22.8453L51.7963 22.8349C51.7351 22.9008 51.6747 22.9674 51.6055 22.9777ZM52.0111 22.8579L51.9419 22.8682L52.0111 22.8579C52.0031 22.8024 52.0716 22.7913 52.0716 22.7913L52.1408 22.7809C52.0723 22.792 52.0723 22.792 52.0111 22.8579ZM53.0817 22.4643C53.0125 22.4746 53.0125 22.4746 52.9441 22.4857C53.0132 22.4754 53.0132 22.4754 53.0737 22.4088C53.0737 22.4088 53.1341 22.3422 53.2033 22.3318C53.1341 22.3429 53.1429 22.3984 53.0817 22.4643ZM53.523 22.1121C53.4538 22.1225 53.3934 22.1891 53.3934 22.1891C53.4538 22.1225 53.5835 22.0455 53.6447 21.9797C53.5755 21.99 53.5835 22.0455 53.523 22.1121ZM54.4829 21.4514C54.5601 21.4966 54.6293 21.4855 54.6897 21.4196L54.7589 21.4093L54.8281 21.3989C54.7589 21.4093 54.6985 21.4759 54.6985 21.4759C54.5608 21.4973 54.4224 21.5188 54.2848 21.5402C54.3533 21.5284 54.4225 21.5173 54.4829 21.4514ZM53.8682 22.0581C53.8595 22.0026 53.8595 22.0026 53.8682 22.0581C53.9811 21.8702 54.1712 21.7267 54.3788 21.6948C54.4479 21.6845 54.4479 21.6845 54.5164 21.6734C54.3096 21.7059 54.1275 21.9042 53.8682 22.0581ZM55.5513 21.5136L55.4821 21.5239C55.2833 21.6112 54.8419 21.9641 54.5222 22.1846C54.5827 22.118 54.5827 22.118 54.6438 22.0522C54.8951 21.8428 55.2061 21.5669 55.6037 21.3915C55.7414 21.3701 55.8105 21.3597 55.8797 21.3486C55.6722 21.3804 55.6117 21.447 55.5513 21.5136ZM55.8018 21.3035C55.8018 21.3035 55.7326 21.3138 55.6554 21.2694C55.7246 21.2591 55.8542 21.1821 55.9227 21.171C55.9227 21.171 55.9227 21.171 55.9919 21.1607C55.9314 21.2265 55.871 21.2931 55.8018 21.3035ZM57.4688 20.6472C57.2787 20.7908 57.0879 20.9336 56.8287 21.0874C56.7595 21.0978 56.7595 21.0978 56.6823 21.0534C56.9416 20.8995 57.27 20.7353 57.4688 20.6472ZM56.2497 21.4618L56.1805 21.4722C56.3101 21.3952 56.3706 21.3286 56.5614 21.1858L56.6306 21.1755C56.6998 21.1651 56.6998 21.1651 56.7682 21.154C56.509 21.3079 56.3182 21.4514 56.2497 21.4618ZM56.8097 21.4322L56.7406 21.4426C56.8097 21.4322 56.801 21.376 56.8702 21.3656C56.9306 21.299 56.9998 21.2887 57.069 21.2783C56.9998 21.2887 56.9394 21.3553 56.8097 21.4322ZM57.6043 21.0815C57.4579 21.0475 57.3887 21.0578 57.1739 21.0342C57.4936 20.8137 57.814 20.594 58.09 20.5511C58.2277 20.5296 58.2969 20.5192 58.3661 20.5081C58.3129 20.6302 57.924 20.861 57.6043 21.0815ZM59.7556 21.7725C59.8852 21.6956 59.9544 21.6852 60.0841 21.6075C59.9537 21.6845 59.8933 21.7511 59.7556 21.7725ZM61.7453 21.862C61.9441 21.7747 62.1422 21.6867 62.2886 21.7207C62.4262 21.6993 62.5646 21.6778 62.5646 21.6778C62.4954 21.6882 62.2973 21.7762 62.1677 21.8532C62.0213 21.8199 61.8749 21.7851 61.7453 21.862Z" fill="#591144"/>
</svg>
