<svg width="60" height="60" viewBox="0 0 60 60" fill="none" xmlns="http://www.w3.org/2000/svg">
<circle cx="30" cy="30" r="30" fill="#F7E3EC"/>
<path d="M42.8016 39.5033C42.8539 39.451 42.9063 39.451 42.9586 39.451C44.8425 38.509 46.4124 36.9391 47.9299 35.4739C49.3952 33.8517 50.8604 32.2295 52.5873 31.1829C50.8081 31.8631 48.9765 32.4911 47.145 32.9097C45.3658 33.5377 43.5342 34.0087 41.7027 34.1657C40.8131 34.218 39.9235 34.218 39.0339 34.061C39.5572 33.904 39.9758 33.7994 40.1851 33.6947C41.2317 33.2761 42.0167 30.9212 42.0167 30.9212C42.0167 30.9212 42.0167 30.9212 40.9177 32.2295C40.4468 32.7528 39.5048 33.1191 38.5106 33.433C39.3478 32.7004 39.9235 30.9735 39.9235 30.9735C39.9235 30.9735 39.9235 30.9735 38.8245 32.2818C38.4582 32.7528 37.7256 33.0667 36.8883 33.3284C36.7837 33.2761 36.7313 33.2237 36.6267 33.1714C37.2023 32.3864 37.621 31.0782 37.621 31.0782C37.621 31.0782 37.621 31.0782 36.6267 32.2295C36.4697 32.4388 36.2081 32.5958 35.8941 32.6481C35.6848 32.4911 35.4754 32.3341 35.3184 32.1771C34.8998 31.8631 34.4812 31.5492 34.0625 31.2875L32.7543 30.5026L31.3937 29.8746C27.7306 28.357 23.5965 27.5198 20.0904 29.456C18.0496 30.6072 16.6367 31.7585 15.0144 33.0144C13.3922 34.375 11.7177 35.2646 10.4094 36.9915C12.1363 35.9449 13.9679 35.1599 15.7994 34.5843C17.5786 33.8517 19.4102 33.2761 21.294 33.1191C21.8173 33.0667 22.2883 33.0144 22.8116 33.0144C21.5557 34.1657 20.8231 35.8402 20.8231 37.6718C20.8231 39.137 21.294 40.4976 22.1313 41.5442C22.079 41.5442 21.9743 41.4918 21.922 41.4918C20.4568 41.0732 19.0438 40.7592 17.5786 40.4452C14.6481 39.8173 11.7177 39.3986 8.73486 39.1893C11.5607 40.1836 14.3865 41.0209 17.2123 41.9628L21.3987 43.3234L23.4919 44.0037C24.1722 44.2653 24.8525 44.4746 25.6897 44.7363C27.3643 45.1549 29.0389 44.9456 30.5564 44.5793C31.0797 44.4223 31.603 44.2653 32.1263 44.1083C32.4403 44.1607 32.7543 44.2653 32.9636 44.4223C34.0102 45.3119 34.0102 45.3119 34.0102 45.3119C34.0102 45.3119 33.5916 44.4223 33.0683 43.7944C33.3299 43.6897 33.6439 43.585 33.9055 43.4804C34.4288 43.5327 34.8475 43.6897 35.1615 43.899C36.2604 44.684 36.2604 44.684 36.2604 44.684C36.2604 44.684 35.5801 43.585 34.8475 43.1141C34.8475 43.1141 34.8998 43.1141 34.8998 43.0617C34.9521 43.0094 35.0045 43.0094 35.1091 42.9571C35.8941 43.0094 36.5744 43.1141 36.993 43.428C38.0919 44.213 38.0919 44.213 38.0919 44.213C38.0919 44.213 37.3593 43.0617 36.6267 42.5908C37.5686 42.6431 38.5106 42.7478 39.0339 43.1664C40.1328 43.9513 40.1328 43.9513 40.1328 43.9513C40.1328 43.9513 39.0862 42.2768 38.1966 42.1198C37.9873 42.0675 37.6733 42.0675 37.307 42.0151L42.8016 39.5033ZM26.1084 42.6431C25.5851 42.5384 24.9571 42.2768 24.2768 42.0675C22.8116 41.1255 21.8173 39.451 21.8173 37.5671C21.8173 35.5786 22.8639 33.904 24.4338 32.9621C25.2188 33.0144 26.0037 33.1191 26.7887 33.3807C26.998 33.433 27.2073 33.4854 27.469 33.5377C25.6374 33.6424 24.1722 35.1076 24.1722 36.9915C24.1722 38.8753 25.7421 40.4452 27.6259 40.4452C29.5098 40.4452 31.0797 38.9277 31.0797 36.9915C31.0797 36.6775 31.0274 36.4158 30.9751 36.1542C30.8704 36.3635 30.6611 36.5205 30.3994 36.5205C30.0855 36.5205 29.8238 36.2065 29.8238 35.8925C29.8238 35.5786 30.1378 35.3169 30.4518 35.3169C30.5041 35.3169 30.6088 35.3169 30.6611 35.3692C30.5564 35.1599 30.3994 34.9506 30.2424 34.7936C30.3994 34.8983 30.6088 35.0029 30.7657 35.1076C31.1844 35.3692 31.603 35.5786 32.0217 35.8925L32.3356 36.1542C32.4403 36.6252 32.545 37.0961 32.545 37.6194C32.545 40.0789 30.8704 42.1721 28.5679 42.8001C27.7829 42.8001 26.9457 42.8001 26.1084 42.6431ZM34.3242 41.4395C33.4346 41.7012 32.545 41.9628 31.7077 42.1721C32.9113 41.0209 33.6962 39.3463 33.6962 37.5671C33.6962 37.4101 33.6962 37.3055 33.6962 37.1485L34.5335 37.8287C34.9521 38.1427 35.3184 38.5614 35.7894 38.823C36.2604 39.0847 36.679 39.3986 37.15 39.608C37.7779 39.9219 38.4582 40.0789 39.0862 40.1836C37.4116 40.5499 35.8417 41.0209 34.3242 41.4395Z" fill="#591144"/>
<path d="M11.5081 24.1707C17.3168 23.6997 37.4114 16.7921 45.6795 20.6646C53.9477 24.537 54 24.4846 54 24.4846C54 24.4846 44.9469 14.5943 38.8243 15.0129C32.7017 15.4316 7.16476 19.775 7.16476 19.775C7.16476 19.775 5.69952 24.6416 11.5081 24.1707Z" fill="#591144"/>
</svg>
