<svg width="60" height="63" viewBox="0 0 60 63" fill="none" xmlns="http://www.w3.org/2000/svg">
<circle cx="30" cy="30" r="30" fill="#F7E3EC"/>
<path d="M47 22.3434C47 22.2822 47 22.2209 47 22.1597C47 22.0985 46.9378 22.0985 46.9378 22.0985L46.8756 22.0372C46.8134 22.0372 46.8134 22.0372 46.7513 22.0372H46.6891L46.005 22.1597L40.9681 22.8945C40.6571 22.9557 40.3462 23.0169 40.1597 22.8945C40.0975 22.8945 40.0975 22.8332 40.0975 22.8332C40.1597 22.772 40.3462 22.7108 40.4084 22.6495C40.7193 22.4658 41.1546 22.2822 41.4034 21.8535C41.5899 21.4862 41.6521 21.1188 41.5277 20.6902C41.4034 20.2616 41.0303 19.833 40.595 19.588C39.9109 19.2819 39.2269 19.3431 38.7294 19.4044L31.5781 20.0779C31.205 20.1391 30.8319 20.1391 30.5832 20.0779C30.3966 20.0167 30.2723 19.8942 30.2723 19.833C30.2723 19.7717 30.3344 19.588 30.7697 19.2207C32.3244 17.9961 34.0034 17.0164 35.8689 16.3429C37.1748 15.853 37.1748 15.057 37.1126 14.7509C37.0504 14.4447 36.8017 13.7712 35.6823 13.6487C32.0756 13.0977 28.4689 14.0161 25.0487 14.9346C22.3748 15.6081 19.5765 16.3429 16.7781 16.3429C16.5294 16.3429 16.405 16.3429 16.3428 16.2816C16.405 16.2204 16.5916 16.0367 16.8403 15.9143C21.8151 13.1589 27.0386 10.7709 32.3244 8.81159C32.5109 8.75036 32.6353 8.50544 32.5109 8.32175C32.3244 8.07683 32.0756 7.95437 31.8891 8.0156C26.5412 9.97496 21.2554 12.4242 16.2807 15.1795C15.5966 15.6081 15.2235 16.0367 15.4101 16.4653C15.5344 16.7715 15.9075 16.9552 16.5916 16.9552H16.6538C19.4521 16.9552 22.3126 16.2204 24.9865 15.5469C28.3445 14.6897 31.8269 13.7712 35.3092 14.3223C35.8067 14.3835 36.1176 14.5672 36.1176 14.8733C36.1798 15.302 35.6202 15.5469 35.3092 15.6693C33.3815 16.4041 31.5781 17.3838 29.9613 18.6696C29.5882 18.9757 29.1529 19.3431 29.2151 19.833C29.2151 20.2616 29.6504 20.629 30.0235 20.7514C30.4588 20.8739 30.8941 20.8126 31.3294 20.8126L38.4807 20.1391C38.9781 20.0779 39.5378 20.0167 39.9731 20.2616C40.2218 20.384 40.4706 20.629 40.5328 20.9351C40.595 21.1188 40.595 21.3637 40.4706 21.4862C40.3462 21.7311 40.0353 21.8535 39.7866 21.976C39.4756 22.1597 39.1647 22.2822 39.1025 22.5883C38.9781 22.9557 39.2891 23.3843 39.6622 23.5068C40.0353 23.6292 40.5328 23.568 40.8437 23.5068L43.4555 23.1394L39.1025 25.3436C38.7916 25.5273 38.4807 25.711 38.2319 25.9559L5.27393 58.4078C5.27393 58.4078 5.27393 58.469 5.21174 58.469C5.21174 58.469 5.21174 58.469 5.21174 58.5302C5.14956 58.5914 4.40334 60.1834 6.14452 61.8979C7.07729 62.8163 8.01006 63 8.56973 63C9.12939 63 9.5025 62.8163 9.56469 62.8163C9.56469 62.8163 9.56469 62.8163 9.62687 62.8163C9.62687 62.8163 9.68906 62.8163 9.68906 62.7551L42.6471 30.3033C42.8958 30.0583 43.1445 29.7522 43.2689 29.446L45.5697 24.915L46.6891 22.4046C46.6891 22.4046 46.6891 22.4046 46.6891 22.3434C47 22.4046 47 22.4046 47 22.3434ZM45.3832 24.2415L44.7613 23.6292L45.8807 23.0781L45.3832 24.2415ZM6.89074 61.4693C6.08233 60.6733 5.95796 59.9385 5.95796 59.4487L8.94284 62.3877C8.44536 62.4489 7.69914 62.3265 6.89074 61.4693ZM42.8336 29.2011C42.7092 29.446 42.5227 29.691 42.3361 29.8747L9.62687 62.0816L6.26889 58.7751L38.9781 26.5682C39.1647 26.3846 39.4134 26.2009 39.6622 26.0784L44.0151 23.9354L45.0723 24.9763L42.8336 29.2011Z" fill="#591144"/>
</svg>
