<svg width="60" height="63" viewBox="0 0 60 63" fill="none" xmlns="http://www.w3.org/2000/svg">
<circle cx="30" cy="33" r="30" fill="#F7E3EC"/>
<path d="M24.4987 17.055L16.8657 20.8533V20.8542C16.7599 20.9099 16.6698 20.985 16.6137 21.0767C16.5677 21.1518 16.5419 21.2418 16.5475 21.3475C16.5695 21.7823 16.8611 22.3673 17.3247 23.0051C17.848 23.7264 18.582 24.4931 19.395 25.181C20.209 25.869 21.0864 26.4651 21.8811 26.8591C22.5829 27.2077 23.2064 27.3959 23.6369 27.3412C23.7399 27.3282 23.8236 27.2874 23.8871 27.2299C23.968 27.1576 24.0259 27.0547 24.0609 26.9416C24.0627 26.937 24.0646 26.9314 24.0655 26.9268L26.4329 18.7525C26.3492 18.3928 26.0549 18.0191 25.6879 17.7086C25.3099 17.3887 24.8675 17.1458 24.4978 17.054L24.4987 17.055ZM5.54543 29.9779C8.92643 27.5452 12.4684 25.0633 16.4215 22.9801C16.06 22.3988 15.8383 21.8481 15.8144 21.3808C15.8016 21.1166 15.8687 20.8839 15.9901 20.6874C16.1216 20.4732 16.3129 20.3072 16.5272 20.1951V20.196L16.5337 20.1923L24.1363 16.4088L37.1802 0.739738C37.538 0.309561 37.9841 0.0583151 38.4596 0.0091785C38.9185 -0.039031 39.3931 0.101889 39.8318 0.450481C39.8429 0.457898 39.853 0.466242 39.8631 0.475513C40.288 0.856554 40.5419 1.32474 40.5934 1.81425C40.6449 2.29542 40.5014 2.78586 40.1372 3.22346L27.1761 18.7933C27.1742 18.8202 27.1696 18.8471 27.1623 18.8739L27.1513 18.9138C28.2844 18.6524 29.4515 18.4363 30.6555 18.2695C32.759 17.9784 34.7723 18.2556 36.7323 19.026C38.6739 19.789 40.5593 21.0387 42.4218 22.7001C42.833 23.0617 43.0353 23.4251 43.0758 23.7162C43.0997 23.8849 43.0739 24.0388 43.0059 24.1686C42.9295 24.3133 42.8081 24.419 42.649 24.4774C42.4356 24.5552 42.1524 24.5395 41.8341 24.3949C41.8093 24.3837 41.7863 24.3698 41.7651 24.3541C38.6895 22.04 36.3487 20.9822 34.042 21.0313C31.7288 21.0814 29.3973 22.244 26.3502 24.3698C26.02 24.5997 25.6925 24.8362 25.3669 25.0763L24.7719 27.1326C24.77 27.1419 24.7673 27.1511 24.7645 27.1613C24.6918 27.394 24.5631 27.6128 24.3773 27.7797C24.2044 27.9355 23.9882 28.043 23.727 28.0764C23.2488 28.1367 22.6426 27.9985 21.9795 27.7167L21.9298 27.7565C18.9857 30.117 16.2559 32.3059 13.608 33.0234C12.5677 33.3053 11.1136 33.4824 9.59233 33.5C8.22098 33.5157 6.79169 33.4017 5.56015 33.1171C5.12787 33.0169 4.80228 32.8742 4.57418 32.6962C4.30837 32.4894 4.16857 32.2363 4.14282 31.9489C4.1189 31.6838 4.19892 31.4075 4.37183 31.1275C4.59993 30.7585 5.00186 30.3673 5.54451 29.977L5.54543 29.9779ZM16.8445 23.5929C12.9062 25.6594 9.35871 28.145 5.9722 30.5814C5.50864 30.9152 5.17477 31.2341 4.99818 31.5206C4.90897 31.6643 4.86666 31.7885 4.87494 31.8868C4.88137 31.9628 4.93012 32.0388 5.02485 32.113C5.16926 32.2261 5.40011 32.3216 5.7257 32.3976C6.90114 32.6693 8.27065 32.7787 9.58773 32.7629C11.0428 32.7462 12.4298 32.5775 13.4194 32.3096C15.8549 31.6495 18.4523 29.6015 21.2474 27.3607C20.4858 26.9481 19.6765 26.3844 18.9241 25.7475C18.1239 25.0698 17.3936 24.3161 16.8455 23.5929H16.8445ZM26.914 19.7324L25.698 23.9304C25.7771 23.8748 25.8553 23.8191 25.9353 23.7635C29.0993 21.5561 31.5458 20.349 34.0301 20.2952C36.5115 20.2414 38.9783 21.3382 42.1744 23.7375C42.2462 23.7681 42.3032 23.7839 42.3446 23.7885C42.3124 23.6569 42.1864 23.4742 41.9408 23.2582L41.939 23.2573C40.1409 21.6534 38.3271 20.45 36.4665 19.7176C34.6224 18.9926 32.7295 18.7321 30.7548 19.0047C29.4313 19.1882 28.1519 19.433 26.914 19.7315V19.7324ZM25.0515 16.4616C25.4276 16.6146 25.8204 16.8528 26.1607 17.1402C26.4522 17.3869 26.7098 17.6733 26.8956 17.9802L39.5752 2.74878C39.8033 2.47435 39.8944 2.17675 39.864 1.89306C39.8318 1.58897 39.6626 1.28673 39.3756 1.02992C39.096 0.807417 38.8054 0.717488 38.535 0.745301C38.2517 0.774968 37.9767 0.936285 37.744 1.21534L25.0524 16.4625L25.0515 16.4616ZM9.5491 29.7452C9.45069 29.8249 9.30629 29.8092 9.22627 29.71C9.14717 29.6108 9.1628 29.4652 9.26122 29.3845C9.57301 29.1305 9.90044 28.8885 10.2352 28.666C10.5608 28.4491 10.8956 28.2498 11.2322 28.0727C11.3444 28.0143 11.4833 28.0588 11.5413 28.1719C11.5992 28.285 11.5551 28.425 11.4429 28.4834C11.1219 28.6512 10.8018 28.8431 10.4882 29.0508C10.1635 29.2668 9.84802 29.5004 9.54818 29.7443L9.5491 29.7452ZM15.6323 41.1495C15.4852 41.1301 15.3389 41.1106 15.1918 41.0902L14.9103 41.0494L14.8027 41.7827C15.0474 41.8189 15.2929 41.8532 15.5385 41.8856L15.6323 41.1495ZM40.8095 30.028C40.7203 30.154 40.6302 30.2792 40.54 30.4053L40.3818 30.6213L40.9714 31.0654C41.1186 30.8633 41.2657 30.6621 41.4092 30.4581L40.8104 30.027L40.8095 30.028ZM39.0224 32.342C38.8652 32.5284 38.7051 32.711 38.5433 32.8936L39.0905 33.3896C39.2561 33.2033 39.4198 33.0151 39.5807 32.8241L39.0224 32.3411V32.342ZM37.0303 34.4753C36.9162 34.5856 36.8013 34.695 36.6863 34.8035L36.5005 34.975L36.9944 35.5248C37.1784 35.356 37.3605 35.1845 37.5398 35.0112L37.0303 34.4753ZM34.833 36.3833L34.5672 36.5863C34.4623 36.6651 34.3566 36.743 34.2508 36.8209L34.6803 37.4226C34.7898 37.3428 34.8992 37.2612 35.0077 37.1806C35.0979 37.112 35.1889 37.0424 35.2791 36.9738L34.833 36.3833ZM32.4352 38.0252C32.2283 38.1513 32.0176 38.2718 31.807 38.3905L32.1639 39.0394C32.2641 38.9829 32.3635 38.9263 32.4637 38.8688C32.5796 38.8012 32.6964 38.7335 32.8114 38.663L32.4361 38.0252H32.4352ZM29.8618 39.3611C29.6401 39.4585 29.4175 39.553 29.1931 39.6448L29.4653 40.3337C29.6971 40.2428 29.9261 40.1427 30.1542 40.0426L29.8618 39.3611ZM27.143 40.3661C26.9112 40.4356 26.6794 40.4996 26.4458 40.5636L26.6325 41.2812C26.7226 41.2571 26.8137 41.232 26.9038 41.207C27.0538 41.1653 27.2018 41.1217 27.3508 41.0772L27.1439 40.3652L27.143 40.3661ZM24.3203 41.0318C24.1841 41.0568 24.0471 41.0781 23.9101 41.1004C23.808 41.1161 23.7059 41.1319 23.6029 41.1458L23.7059 41.8801L23.899 41.8513C24.0802 41.8226 24.2623 41.7948 24.4426 41.7623L24.3193 41.0309L24.3203 41.0318ZM21.4387 41.3674C21.1968 41.3813 20.9549 41.3934 20.713 41.4017L20.7378 42.1434C20.9043 42.1378 21.0699 42.1304 21.2363 42.1221L21.4801 42.1082L21.4387 41.3674ZM18.5323 41.3961C18.3345 41.3878 18.1359 41.3785 17.9381 41.3674L17.8057 41.359L17.7597 42.0989C17.9418 42.11 18.1248 42.1202 18.3069 42.1285L18.5029 42.1369L18.5332 41.3961H18.5323ZM12.4702 39.1358C12.5484 38.9467 12.7645 38.8586 12.9512 38.9374C13.1389 39.0163 13.2263 39.2341 13.1481 39.4223C12.8574 40.1195 12.5585 40.7935 12.2476 41.4434C11.9929 41.9746 11.7335 42.4818 11.4677 42.962C12.9421 43.4552 14.6031 43.7927 16.369 43.9716C16.3994 43.9707 16.4297 43.9735 16.4601 43.9809C18.0043 44.1329 19.6277 44.1635 21.2759 44.0727C21.2897 44.0708 21.3044 44.0699 21.3191 44.0699C21.5481 44.0569 21.7772 44.0421 22.0062 44.0245C22.02 44.0226 22.0356 44.0208 22.0494 44.0208C22.3511 43.9976 22.6528 43.9698 22.9544 43.9383C22.9682 43.9355 22.983 43.9336 22.9967 43.9318C23.0069 43.9308 23.0161 43.9308 23.0262 43.9308C23.5063 43.8798 23.9882 43.8177 24.4683 43.7463L24.4711 43.7454C24.4858 43.7426 24.5005 43.7399 24.5153 43.7389C24.7231 43.7074 24.931 43.674 25.1379 43.6388C25.148 43.6351 25.1572 43.6314 25.1683 43.6277C25.2115 43.6138 25.2556 43.6082 25.2989 43.611C25.9924 43.4895 26.6831 43.3468 27.3665 43.1808C27.3812 43.1762 27.3968 43.1725 27.4115 43.1697C28.14 42.9926 28.8601 42.7905 29.5674 42.5634C29.71 42.5179 29.8516 42.4706 29.9933 42.4234C29.996 42.4224 29.9988 42.4215 30.0016 42.4197C30.0126 42.415 30.0236 42.4122 30.0347 42.4085C30.2646 42.3307 30.4936 42.2491 30.7199 42.1656C30.764 42.136 30.8165 42.1174 30.8689 42.11C32.2724 41.5834 33.6088 40.9539 34.8358 40.2178C34.8486 40.2094 34.8615 40.2011 34.8744 40.1946C35.7987 39.6374 36.6605 39.02 37.4423 38.3422C37.4681 38.3116 37.4975 38.2857 37.5297 38.2662C39.142 36.8477 40.4048 35.1669 41.1581 33.22C41.2308 33.0299 41.4432 32.9344 41.6327 33.0086C41.6502 33.0151 41.6676 33.0234 41.6833 33.0327C43.5623 34.0219 45.6888 34.4465 47.6662 34.1332C49.4441 33.8513 51.1043 32.9697 52.357 31.3593C52.4811 31.1989 52.712 31.1701 52.8711 31.2953C53.0109 31.4047 53.0495 31.5966 52.9741 31.7496C51.9587 33.8198 50.4163 35.3931 48.173 36.0273C45.904 36.6688 43.3471 36.2145 40.9879 35.2578C40.9346 35.3486 40.8813 35.4385 40.8261 35.5285C42.8661 36.476 45.1185 37.1936 47.3057 37.3178C49.1268 37.4216 50.9019 37.112 52.4637 36.1756C52.6384 36.0718 52.8637 36.1302 52.9668 36.3063C53.0698 36.4825 53.0118 36.7096 52.8371 36.8134C51.1392 37.8314 49.2234 38.1679 47.2652 38.0567C44.9787 37.9269 42.6361 37.1824 40.5207 36.2006C43.0142 37.7443 45.9215 38.7622 48.7681 38.9819C51.4519 39.1887 54.0778 38.6862 56.2401 37.2436C56.4094 37.1305 56.6366 37.1778 56.7488 37.3484C56.8509 37.5041 56.8214 37.709 56.6871 37.8286C54.511 40.1334 51.8437 41.0781 49.0247 41.1226C45.6235 41.1764 42.0107 39.9118 38.7916 38.1522C38.7778 38.1448 38.7649 38.1364 38.753 38.1281C38.6509 38.2301 38.5469 38.3302 38.4421 38.4294L38.4531 38.4433C38.6178 38.6667 38.7916 38.8846 38.9728 39.096C40.1436 39.9638 41.3752 40.6813 42.6058 41.1504C43.9845 41.6761 45.3586 41.8875 46.637 41.6409C46.8366 41.6029 47.0289 41.7345 47.0666 41.9348C47.1043 42.136 46.9737 42.3297 46.775 42.3677C45.4294 42.6273 44.0056 42.4373 42.5856 41.9301C43.6525 42.4864 44.8012 42.8953 45.9813 43.1354C48.7893 43.7065 51.772 43.318 54.2452 41.6678C54.4144 41.5547 54.6416 41.6019 54.7538 41.7725C54.8587 41.932 54.8247 42.1443 54.6803 42.263C54.2231 42.6403 53.7393 42.9843 53.2335 43.2911C50.4393 44.9877 47.1944 45.4263 44.2393 44.9368C43.8502 44.8728 43.4667 44.7921 43.0887 44.6957C41.9335 44.6058 40.7516 44.1849 39.589 43.5229C38.2747 42.7747 36.9834 41.7197 35.7877 40.4913L35.6001 40.6109L35.7114 40.7425C38.4448 43.9679 41.4846 47.554 51.3756 46.6945C51.5779 46.6779 51.7555 46.8299 51.772 47.0339C51.7886 47.2378 51.6377 47.4168 51.4354 47.4334H51.4308C46.2112 48.1575 42.7621 47.4974 40.2338 46.2468C40.2779 46.3274 40.2926 46.4248 40.2669 46.5212C40.2144 46.7187 40.013 46.8364 39.8171 46.7835C38.7116 46.485 37.6024 45.862 36.5281 45.0035C35.4547 44.145 34.4145 43.0482 33.4497 41.8041C33.4184 41.8198 33.3862 41.8347 33.355 41.8504C34.5019 43.5943 35.8824 45.366 37.8065 46.6686C39.7261 47.9684 42.202 48.8121 45.5554 48.7166C45.6419 48.7082 45.7283 48.6989 45.8157 48.6897C46.0171 48.6674 46.1983 48.8139 46.2213 49.0169C46.2222 49.0281 46.2232 49.0392 46.2232 49.0494C46.2232 49.0531 46.2241 49.0568 46.2241 49.0596C46.2324 49.2636 46.076 49.436 45.8737 49.4453C45.7872 49.449 45.7017 49.4518 45.6161 49.4545C42.3188 49.7762 39.7573 49.105 37.6925 47.9415C35.5789 46.7502 33.9988 45.0499 32.6845 43.3727C32.5787 43.2383 32.4122 42.9704 32.2513 42.7117C32.1887 42.6116 32.1271 42.5124 32.0728 42.4261C31.8732 42.5096 31.6718 42.5902 31.4695 42.67C32.2117 43.8576 33.0128 44.9284 33.8498 45.8249C34.7125 46.7492 35.6102 47.4826 36.5152 47.9591C36.6946 48.0537 36.7645 48.2762 36.6707 48.4579C36.5768 48.6387 36.3561 48.7091 36.1758 48.6146C35.1926 48.0973 34.2306 47.3139 33.3145 46.333C32.4168 45.3716 31.5596 44.2164 30.7677 42.9342C30.7153 42.9527 30.6638 42.9713 30.6113 42.9898C31.7941 45.9974 33.343 48.1853 35.0436 49.6696C37.0376 51.4089 39.2404 52.1793 41.3016 52.1663H41.3025C41.5048 52.1515 41.6814 52.3045 41.6962 52.5084C41.7109 52.7124 41.5591 52.8904 41.3568 52.9052C39.1549 53.0786 36.7571 52.3184 34.5175 50.5383C32.5557 48.978 30.7125 46.6315 29.2317 43.4395C29.1278 43.471 29.0248 43.5007 28.9199 43.5313C29.4644 44.8144 30.0577 45.9992 30.7033 47.0227C31.3867 48.1056 32.1299 49.0095 32.9392 49.6576C33.0983 49.7846 33.1241 50.0173 32.9981 50.1777C32.8721 50.3381 32.6412 50.364 32.4821 50.237C31.6084 49.5371 30.8119 48.571 30.0853 47.4195C29.3973 46.3302 28.7728 45.0767 28.2053 43.7287C28.1188 43.7519 28.0324 43.7742 27.945 43.7964C28.5033 45.4819 29.1186 47.0274 30.0834 48.419C31.0767 49.8513 32.4518 51.1372 34.5396 52.2739C34.615 52.3082 34.6904 52.3425 34.7677 52.3759C34.9535 52.4574 35.0381 52.6753 34.9572 52.8626C34.9562 52.8654 34.9544 52.8681 34.9535 52.8719C34.9489 52.883 34.9443 52.8932 34.9388 52.9034C34.8449 53.0851 34.6233 53.1555 34.443 53.061C34.3575 53.0165 34.2738 52.9711 34.191 52.9256C31.9293 51.8863 30.3915 50.631 29.2372 49.1885C28.0416 47.6949 27.2681 46.014 26.5286 44.171C26.5231 44.1561 26.5175 44.1413 26.5139 44.1265C26.2628 44.1784 26.0108 44.2284 25.7588 44.2748C26.2002 45.6302 26.6941 46.8985 27.2497 48.0277C27.8558 49.2589 28.5364 50.3279 29.3016 51.1678C29.4387 51.318 29.4295 51.5526 29.2805 51.6907C29.1315 51.8289 28.8988 51.8196 28.7617 51.6694C27.9468 50.7757 27.2285 49.6483 26.592 48.355C26.0034 47.159 25.4856 45.824 25.0266 44.4018L24.9862 44.4083C25.435 46.4461 26.0613 48.3263 27.0032 49.9561C27.9928 51.6694 29.3357 53.111 31.1926 54.1763C31.3692 54.2773 31.4308 54.5026 31.3306 54.6806C31.2303 54.8586 31.0068 54.9208 30.8302 54.8197L30.8284 54.8188C28.8004 53.7906 27.2984 52.3378 26.1552 50.581C25.0257 48.8436 24.2504 46.8114 23.6654 44.5965C23.5863 44.6058 23.5081 44.616 23.429 44.6243C23.5891 46.1207 23.9376 47.5697 24.4398 48.9066C24.9926 50.3761 25.7302 51.7102 26.6077 52.8246C26.7337 52.985 26.7079 53.2177 26.5488 53.3447C26.3897 53.4717 26.1588 53.4457 26.0328 53.2853C25.1094 52.1116 24.3322 50.7089 23.7528 49.1671C23.2276 47.77 22.8634 46.2588 22.6969 44.7013C22.6086 44.7096 22.5212 44.718 22.4329 44.7254L22.7622 54.8299C22.7686 55.0339 22.6095 55.2045 22.4072 55.2109C22.2048 55.2174 22.0356 55.057 22.0292 54.8531L21.7008 44.7819L21.6741 44.7838C21.6171 46.6241 21.4644 48.304 21.16 49.7762C20.8317 51.3644 20.3276 52.717 19.5799 53.7804C19.4622 53.9464 19.2331 53.9853 19.0685 53.8676C18.9039 53.7489 18.8652 53.518 18.982 53.3521C19.6673 52.3786 20.1336 51.1178 20.4417 49.6261C20.7332 48.2122 20.8822 46.5972 20.9393 44.8246C20.805 44.8301 20.6716 44.8357 20.5383 44.8394C20.4196 46.1383 20.2504 47.3463 20.0103 48.444C19.75 49.6363 19.4051 50.7034 18.9508 51.6203C18.8606 51.8038 18.6399 51.878 18.4578 51.7871C18.2757 51.6963 18.2021 51.4738 18.2922 51.2902C18.7181 50.4308 19.0427 49.4212 19.2911 48.2845C19.5192 47.2397 19.682 46.091 19.7979 44.8552C19.6351 44.857 19.4732 44.857 19.3113 44.857C19.0032 46.612 18.5258 48.368 17.859 49.9014C17.2345 51.3375 16.4417 52.5826 15.464 53.4606C15.3122 53.5969 15.0805 53.5829 14.9453 53.43C14.8101 53.277 14.8239 53.0434 14.9756 52.9071C15.8705 52.1042 16.6027 50.9472 17.1867 49.6066C17.8149 48.1631 18.2702 46.5091 18.5682 44.8468C18.3971 44.8422 18.2269 44.8366 18.0568 44.8292C17.7588 46.1717 17.4019 47.3899 16.9595 48.4551C16.4766 49.6177 15.8917 50.6014 15.1724 51.3699C15.0336 51.5192 14.8009 51.5257 14.6537 51.3857C14.5056 51.2457 14.4992 51.0112 14.6381 50.8628C15.2938 50.1619 15.8319 49.2534 16.2817 48.1714C16.6937 47.1794 17.0303 46.0428 17.3136 44.7893C17.0846 44.7745 16.8574 44.756 16.6312 44.7365C16.1612 46.0743 15.5817 47.3546 14.9572 48.469C14.2748 49.6872 13.5362 50.7089 12.8252 51.4005C12.679 51.5424 12.4472 51.5378 12.3065 51.3903C12.1658 51.2429 12.1704 51.0093 12.3166 50.8675C12.9788 50.224 13.6723 49.2608 14.3189 48.1075C14.8947 47.0802 15.4327 45.9009 15.8788 44.6595C15.7004 44.6391 15.5229 44.6169 15.3463 44.5928C14.9526 45.6701 14.5185 46.6417 14.0274 47.4881C13.5003 48.3967 12.9071 49.1634 12.2302 49.7623C12.0775 49.8968 11.8457 49.881 11.7123 49.7271C11.579 49.5732 11.5946 49.3396 11.7473 49.2052C12.3626 48.6609 12.9071 47.9563 13.3955 47.1136C13.8425 46.3441 14.2417 45.4606 14.6059 44.4815C14.4192 44.4509 14.2343 44.4185 14.0503 44.3842C13.768 45.0897 13.4691 45.6988 13.1048 46.2477C12.6965 46.8633 12.2118 47.3982 11.5854 47.9016C11.4263 48.0287 11.1954 48.0027 11.0694 47.8423C10.9434 47.6819 10.9692 47.4492 11.1283 47.3222C11.694 46.8679 12.1299 46.3867 12.4951 45.837C12.8068 45.3669 13.0699 44.8422 13.3182 44.2359C13.0441 44.1756 12.7737 44.1107 12.5089 44.0412C12.0674 44.8904 11.5974 45.6562 11.0924 46.3237C10.5369 47.0589 9.93815 47.6736 9.28605 48.1492C9.12142 48.2688 8.8924 48.2326 8.77283 48.0667C8.65418 47.9007 8.69005 47.6699 8.85469 47.5493C9.44793 47.1164 9.9961 46.5527 10.5084 45.8741C10.9572 45.2798 11.3803 44.5974 11.7832 43.8372C11.5486 43.7667 11.3178 43.6926 11.0915 43.6147C10.6482 44.3545 10.158 45.0712 9.59693 45.7266C9.46448 45.8815 9.23271 45.8982 9.07911 45.7647C8.92551 45.6312 8.90895 45.3975 9.0414 45.2427C9.3256 44.9108 9.60152 44.5483 9.87009 44.1571C10.1396 43.7649 10.4035 43.3412 10.662 42.8897C10.9775 42.339 11.2837 41.7484 11.5836 41.1226C11.8797 40.5043 12.1741 39.8395 12.4665 39.1368L12.4702 39.1358ZM49.8911 39.77C48.8123 40.19 47.6782 40.3049 46.523 40.1955C47.3618 40.3318 48.196 40.3995 49.0146 40.3865C50.6352 40.3615 52.2006 40.0175 53.6373 39.2573C52.4388 39.6087 51.176 39.7718 49.8911 39.7709V39.77ZM43.1291 39.3074C41.8792 38.7965 40.6458 38.1142 39.475 37.3595C39.4106 37.4337 39.3453 37.5069 39.2781 37.5802C40.518 38.2495 41.8139 38.842 43.1282 39.3074H43.1291ZM39.9496 36.7866C41.4892 37.7721 43.1328 38.6241 44.7654 39.0978C45.4782 39.3046 46.1882 39.439 46.8845 39.4798C44.4683 39.0264 42.0788 38.0623 39.9854 36.7393C39.9735 36.755 39.9615 36.7708 39.9486 36.7856L39.9496 36.7866ZM38.4715 39.6448C38.2213 39.4585 37.9739 39.2647 37.7302 39.0663C37.4727 39.2833 37.2069 39.4946 36.9337 39.6995C37.1085 39.986 37.3053 40.2632 37.5223 40.5302C38.844 42.1554 40.8877 43.3681 43.2082 43.9679C43.2698 43.9716 43.3306 43.9753 43.3913 43.9772C43.4795 43.98 43.5605 44.0134 43.6221 44.0681C43.864 44.1228 44.1096 44.17 44.357 44.2108C45.9408 44.4732 47.6111 44.4537 49.2418 44.0977C48.1059 44.1756 46.958 44.0912 45.8369 43.8632C43.0068 43.2874 40.345 41.7892 38.4715 39.6448ZM34.1183 41.4684C35.0225 42.619 35.991 43.6323 36.9852 44.4278C37.893 45.1537 38.8201 45.6961 39.738 45.9918C37.6713 44.8542 36.2393 43.3217 34.9057 41.894C34.7254 41.7011 34.5469 41.5092 34.3768 41.3303C34.2913 41.3767 34.2057 41.4221 34.1193 41.4675L34.1183 41.4684ZM41.343 34.6097C43.5439 35.4886 45.904 35.904 47.9753 35.318C48.8665 35.0658 49.7062 34.6255 50.4604 33.9524C49.6198 34.4178 48.7138 34.7173 47.7785 34.8656C45.7651 35.1845 43.6166 34.7988 41.6897 33.8643C41.5821 34.1174 41.4671 34.365 41.3439 34.6088L41.343 34.6097ZM14.6224 30.4368L14.8652 30.8308L14.4744 31.0756L14.2315 30.6816L14.6224 30.4368ZM17.7487 28.4825L17.9915 28.8765L17.6006 29.1212L17.3578 28.7272L17.7487 28.4825ZM16.1851 29.4596L16.4279 29.8537L16.037 30.0984L15.7942 29.7044L16.1851 29.4596ZM12.5778 27.1502L12.8206 27.5442L12.4298 27.789L12.1869 27.395L12.5778 27.1502ZM15.7041 25.1959L15.9469 25.5899L15.556 25.8347L15.3132 25.4406L15.7041 25.1959ZM14.1405 26.173L14.3833 26.5671L13.9924 26.8118L13.7496 26.4178L14.1405 26.173ZM10.7227 30.7288L10.9692 31.1201L10.5811 31.3685L10.3346 30.9773L10.7227 30.7288ZM16.9338 26.7525L17.1803 27.1437L16.7921 27.3922L16.5456 27.001L16.9338 26.7525ZM15.3812 27.7463L15.6277 28.1376L15.2396 28.386L14.9931 27.9948L15.3812 27.7463ZM13.8287 28.7402L14.0752 29.1314L13.687 29.3799L13.4406 28.9887L13.8287 28.7402ZM12.2762 29.7341L12.5226 30.1253L12.1345 30.3738L11.888 29.9825L12.2762 29.7341Z" fill="#591144"/>
</svg>
