<svg width="17" height="18" viewBox="0 0 17 18" fill="none" xmlns="http://www.w3.org/2000/svg">
<g clip-path="url(#clip0)">
<path d="M8.47319 4.45544C6.08529 4.45544 4.1521 6.40903 4.1521 8.81736C4.1521 11.2278 6.0874 13.1793 8.47319 13.1793C10.8611 13.1793 12.7943 11.2257 12.7943 8.81736C12.7943 6.4069 10.859 4.45544 8.47319 4.45544ZM8.47319 11.6486C6.92312 11.6486 5.66848 10.3814 5.66848 8.81736C5.66848 7.25336 6.92383 5.98615 8.47319 5.98615C10.0225 5.98615 11.2779 7.25336 11.2779 8.81736C11.2786 10.3814 10.0232 11.6486 8.47319 11.6486Z" fill="white"/>
<path d="M11.9421 0.375176C10.3927 0.302218 6.55509 0.30576 5.00432 0.375176C3.64162 0.439635 2.4396 0.771843 1.47055 1.75005C-0.148984 3.38488 0.0580184 5.5878 0.0580184 8.81851C0.0580184 12.125 -0.124424 14.2769 1.47055 15.887C3.09639 17.5275 5.31027 17.3128 8.47284 17.3128C11.7175 17.3128 12.8374 17.315 13.9847 16.8666C15.5446 16.2553 16.7221 14.8478 16.8371 12.3198C16.9101 10.7551 16.9059 6.88193 16.8371 5.31651C16.6982 2.3323 15.1117 0.52251 11.9421 0.375176ZM14.3945 14.8053C13.3328 15.8771 11.86 15.7814 8.45249 15.7814C4.94398 15.7814 3.53706 15.8338 2.51047 14.7947C1.3281 13.6068 1.54212 11.6993 1.54212 8.80718C1.54212 4.89363 1.14425 2.07518 5.0352 1.87401C5.92917 1.84213 6.19231 1.83151 8.44267 1.83151L8.47425 1.85276C12.2136 1.85276 15.1474 1.45751 15.3236 5.38451C15.3636 6.28055 15.3727 6.54972 15.3727 8.8178C15.372 12.3184 15.4379 13.7471 14.3945 14.8053Z" fill="white"/>
<path d="M12.9655 5.30286C13.5232 5.30286 13.9753 4.84651 13.9753 4.28357C13.9753 3.72063 13.5232 3.26428 12.9655 3.26428C12.4078 3.26428 11.9557 3.72063 11.9557 4.28357C11.9557 4.84651 12.4078 5.30286 12.9655 5.30286Z" fill="white"/>
</g>
<defs>
<clipPath id="clip0">
<rect x="0.0499268" y="0.320312" width="16.8409" height="17" fill="white"/>
</clipPath>
</defs>
</svg>
