<svg width="67" height="83" viewBox="0 0 67 83" fill="none" xmlns="http://www.w3.org/2000/svg">
<circle cx="37" cy="53" r="30" fill="#F7E3EC"/>
<path d="M48.5614 2.8761C48.5042 2.95186 48.4203 3.06458 48.3088 3.21548C48.1545 3.42429 48.0721 3.53627 48.0586 3.55486C46.0772 6.3039 44.7347 8.97073 43.8167 11.2488C42.8959 13.5335 42.4054 15.4133 42.1237 16.6C41.1103 20.8695 40.6048 26.0589 40.4222 31.0915C40.1765 37.8665 40.5165 44.3432 40.9909 47.9149C41.4146 51.105 42.471 52.0689 44.8334 54.2241C44.9716 54.3502 44.9127 54.2964 44.8333 54.2242L44.8327 54.225L45.1688 54.5325C46.0489 55.3373 46.8577 56.1683 47.4556 57.3095C48.0548 58.4532 48.4295 59.8837 48.4295 61.8673C48.4295 63.9002 47.9527 65.8137 47.1146 67.4812C46.2442 69.213 44.9819 70.6794 43.4571 71.7391C41.8235 72.8743 39.9545 73.4836 38.0669 73.5547C36.1838 73.6256 34.282 73.1608 32.5764 72.1484C31.8988 71.7461 31.2674 71.2689 30.692 70.7272C30.1153 70.1845 29.5906 69.573 29.1278 68.9035C28.5771 68.1069 28.118 67.233 27.7675 66.3003C27.4248 65.3885 27.1846 64.4212 27.0627 63.416C26.8985 62.0619 27.185 61.4569 27.8203 61.3782C28.6361 61.277 29.8811 62.6339 31.415 64.3058C33.859 66.9694 37.1285 70.5327 39.0638 69.4306C39.2382 69.3313 39.1164 68.9618 38.8125 68.416C38.261 67.4258 37.1505 66.0919 35.9304 64.6267C32.7319 60.7851 28.8256 56.0934 31.4345 53.3721C32.0703 52.709 32.5472 52.0817 32.8755 51.3523C33.2039 50.6226 33.3895 49.7784 33.4437 48.6786C33.4867 47.8056 33.5098 46.7561 33.5369 45.5213C33.6551 40.1385 33.8495 31.2889 35.9687 20.0311C36.5352 17.0217 38.2695 11.8918 40.5737 7.61208C42.3013 4.40338 44.3635 1.65199 46.5302 0.561798C46.7232 0.464708 47.2301 0.351993 47.6875 0.403577C47.9521 0.433336 48.2177 0.514431 48.4385 0.676C48.6947 0.863238 48.8756 1.13616 48.915 1.52402C48.9486 1.8551 48.8685 2.27 48.6161 2.78732L48.5928 2.83506L48.5614 2.8761ZM2.23713 2.38643L1.2872 2.88788L0.79126 1.92739L1.74119 1.42594L2.23713 2.38643ZM26.465 49.5975L25.515 50.0989L25.0191 49.1384L25.969 48.637L26.465 49.5975ZM25.4732 47.6764L24.5233 48.1778L24.0274 47.2173L24.9773 46.7159L25.4732 47.6764ZM24.4815 45.7554L23.5315 46.2568L23.0356 45.2964L23.9855 44.7949L24.4815 45.7554ZM23.4896 43.8343L22.5397 44.3357L22.0437 43.3752L22.9937 42.8738L23.4896 43.8343ZM22.4978 41.9133L21.5479 42.4148L21.052 41.4543L22.0019 40.9528L22.4978 41.9133ZM21.5061 39.9923L20.5562 40.4938L20.0602 39.5333L21.0102 39.0318L21.5061 39.9923ZM9.33441 29.5488L9.8702 28.6105L10.7982 29.1523L10.2624 30.0906L9.33441 29.5488ZM11.1905 30.6323L11.7263 29.694L12.6543 30.2358L12.1185 31.1741L11.1905 30.6323ZM13.0465 31.716L13.5823 30.7777L14.5102 31.3194L13.9744 32.2577L13.0465 31.716ZM14.9025 32.7994L15.4383 31.8612L16.3663 32.4029L15.8305 33.3412L14.9025 32.7994ZM16.6993 24.58H17.7709V25.6635H16.6993V24.58ZM16.6993 26.747H17.7709V27.8305H16.6993V26.747ZM16.6993 28.914H17.7709V29.9975H16.6993V28.914ZM16.6993 31.081H17.7709V32.1645H16.6993V31.081ZM24.6377 28.5446L25.1735 29.4829L24.2455 30.0246L23.7097 29.0863L24.6377 28.5446ZM22.7816 29.6281L23.3174 30.5664L22.3894 31.1081L21.8536 30.1698L22.7816 29.6281ZM20.9255 30.7116L21.4613 31.6499L20.5334 32.1916L19.9976 31.2533L20.9255 30.7116ZM19.0695 31.7951L19.6052 32.7334L18.6773 33.2751L18.1415 32.3368L19.0695 31.7951ZM25.2112 37.4781L24.6754 38.4164L23.7474 37.8747L24.2832 36.9364L25.2112 37.4781ZM23.3551 36.3946L22.8193 37.3329L21.8913 36.7912L22.4271 35.8529L23.3551 36.3946ZM21.499 35.3112L20.9632 36.2495L20.0352 35.7077L20.571 34.7694L21.499 35.3112ZM19.643 34.2277L19.1072 35.166L18.1791 34.6242L18.7149 33.6859L19.643 34.2277ZM17.8463 42.4471H16.7747V41.3636H17.8463V42.4471ZM17.8463 40.28H16.7747V39.1965H17.8463V40.28ZM17.8463 38.113H16.7747V37.0295H17.8463V38.113ZM17.8463 35.946H16.7747V34.8625H17.8463V35.946ZM9.90785 38.4824L9.37206 37.5441L10.3 37.0024L10.8358 37.9407L9.90785 38.4824ZM11.7639 37.3989L11.2281 36.4606L12.1561 35.9189L12.6919 36.8572L11.7639 37.3989ZM13.6199 36.3154L13.0841 35.3771L14.0121 34.8354L14.5479 35.7737L13.6199 36.3154ZM15.476 35.2319L14.9402 34.2936L15.8682 33.7519L16.404 34.6902L15.476 35.2319ZM14.1387 25.4389L13.1887 25.9404L12.6928 24.9799L13.6427 24.4784L14.1387 25.4389ZM13.1468 23.5178L12.1968 24.0193L11.7009 23.0588L12.6508 22.5573L13.1468 23.5178ZM12.155 21.5968L11.2051 22.0983L10.7092 21.1378L11.6591 20.6364L12.155 21.5968ZM11.1631 19.6757L10.2132 20.1772L9.71728 19.2167L10.6672 18.7152L11.1631 19.6757ZM10.1714 17.7548L9.22146 18.2562L8.72552 17.2957L9.67546 16.7943L10.1714 17.7548ZM9.17964 15.8337L8.22971 16.3351L7.73377 15.3746L8.68371 14.8732L9.17964 15.8337ZM8.18777 13.9127L7.23783 14.4141L6.7419 13.4536L7.69183 12.9522L8.18777 13.9127ZM7.19602 11.9916L6.24608 12.493L5.75014 11.5325L6.70008 11.0311L7.19602 11.9916ZM6.20426 10.0706L5.25433 10.572L4.75839 9.61155L5.70833 9.1101L6.20426 10.0706ZM5.21251 8.14949L4.26258 8.65094L3.76664 7.69045L4.71657 7.189L5.21251 8.14949ZM4.22076 6.22851L3.27082 6.72996L2.77489 5.76947L3.72482 5.26802L4.22076 6.22851ZM3.22901 4.30741L2.27907 4.80886L1.78313 3.84837L2.73307 3.34692L3.22901 4.30741ZM47.4506 2.56796C47.5027 2.49741 47.5792 2.39536 47.6793 2.26268C47.8175 1.96967 47.865 1.7678 47.8514 1.63389C47.8471 1.59123 47.8332 1.56569 47.8145 1.55192C47.7605 1.51249 47.6706 1.4898 47.5699 1.47839C47.321 1.45037 47.0845 1.49178 47.007 1.53084C45.0576 2.51179 43.1443 5.09467 41.511 8.12829C39.261 12.3074 37.5699 17.3041 37.0191 20.2299C34.9144 31.4105 34.7214 40.1975 34.604 45.5422C34.5763 46.8059 34.5527 47.88 34.5108 48.7292C34.4492 49.9796 34.2336 50.9498 33.8506 51.8008C33.4673 52.6522 32.9222 53.3722 32.2003 54.1253C30.2632 56.1457 33.8278 60.427 36.7464 63.9324C38.0063 65.4457 39.1533 66.8233 39.7458 67.8869C40.3751 69.0169 40.4454 69.8854 39.5868 70.3744C36.9187 71.8937 33.3213 67.9729 30.6321 65.0421C29.8143 64.1506 29.0912 63.3626 28.592 62.8965C27.7726 62.1316 27.9095 62.3973 28.0106 63.2308C28.1225 64.1537 28.4565 65.0908 28.7677 65.9191C29.0878 66.7706 29.5044 67.5649 30.0024 68.2854C30.4183 68.887 30.8938 69.4404 31.4201 69.9357C31.9426 70.4276 32.5109 70.8579 33.1161 71.2172C34.6421 72.123 36.3439 72.5387 38.029 72.4754C39.7188 72.4118 41.3919 71.8663 42.8541 70.8503C44.2287 69.895 45.3697 68.5671 46.16 66.9945C46.9234 65.4757 47.3576 63.7283 47.3576 61.8673C47.3576 60.0778 47.0313 58.8093 46.5094 57.8132C45.9862 56.8147 45.2535 56.0647 44.4528 55.3325C43.622 54.5728 44.7146 55.5732 44.1174 55.0283C41.5539 52.6897 40.4078 51.6441 39.9316 48.0589C39.4512 44.4418 39.1065 37.8927 39.3546 31.0536C39.5394 25.9605 40.0534 20.6985 41.0853 16.3504C41.3773 15.1199 41.8843 13.1753 42.8244 10.8426C43.7672 8.50338 45.1495 5.7598 47.1961 2.92012C47.3488 2.70858 47.4345 2.58991 47.4506 2.56796ZM44.8333 54.2243C44.7269 54.1274 44.5841 53.9976 44.8327 54.2251L44.8333 54.2243ZM66.0001 53.6771H56.8829L56.8535 53.675C54.1075 53.5228 53.8724 56.6605 53.5718 60.6751C53.2678 64.735 52.9024 69.6142 49.9412 73.2788C48.6077 74.9291 46.8754 76.1901 44.9315 77.0641C42.8767 77.988 40.5829 78.4801 38.2742 78.5426C35.8882 78.6072 33.4827 78.2124 31.3058 77.3604C29.2352 76.55 27.369 75.3251 25.9183 73.6873C22.6385 69.9849 22.2569 64.8889 21.9413 60.675C21.6407 56.6604 21.4057 53.5226 18.6596 53.675L7.70593 53.7089V52.6296L18.601 52.5959C22.394 52.3854 22.6637 55.9869 23.0087 60.5946C23.312 64.6444 23.6788 69.5418 26.7136 72.9678C28.0464 74.4724 29.771 75.6016 31.6908 76.353C33.7358 77.1535 35.9998 77.5242 38.249 77.4633C40.4186 77.4045 42.5712 76.9434 44.4962 76.0779C46.2934 75.2698 47.89 74.11 49.1124 72.5973C51.8602 69.1967 52.2118 64.5014 52.5044 60.5946C52.8485 55.9989 53.1182 52.4045 56.8829 52.5945V52.5935H66.0001V53.6771Z" fill="#591144"/>
</svg>
