<svg width="70" height="70" viewBox="0 0 70 70" fill="none" xmlns="http://www.w3.org/2000/svg">
<circle cx="30" cy="30" r="30" fill="#F7E3EC"/>
<path d="M7.78414 11.8364C6.95046 12.6252 6.06467 13.481 5.164 14.3963C5.05945 14.5009 5.00073 14.6427 5.00073 14.7906C5.00073 14.9385 5.05945 15.0804 5.164 15.185C5.26868 15.2895 5.41057 15.3482 5.55851 15.3482C5.70645 15.3482 5.84835 15.2895 5.95302 15.185C6.84625 14.2846 7.7246 13.4363 8.55083 12.655L9.29519 11.9853C13.1807 8.29436 16.8579 4.81926 18.8825 5.13924C21.2422 5.51875 25.418 8.36133 27.4873 10.9956C29.7874 13.9721 42.5011 24.7397 46.3866 27.2697C47.2426 27.8353 48.0912 28.4455 48.9174 29.0408C50.2543 30.0536 51.654 30.9807 53.1082 31.8164L53.9716 32.2852C55.4407 32.9874 56.8119 33.8779 58.0507 34.9343C58.4899 35.3436 58.9142 35.7975 59.3608 36.2812C60.5815 37.5834 61.8395 38.9377 63.6036 39.5703C63.7897 39.6372 64.0949 39.7191 64.4671 39.8084C65.4422 40.0614 67.4445 40.5525 67.8316 41.2966C67.8606 41.357 67.8757 41.4231 67.8757 41.4901C67.8757 41.5571 67.8606 41.6232 67.8316 41.6836C67.7646 41.8547 67.452 42.1524 66.7746 42.4277C65.204 43.1198 62.8742 43.3579 61.7949 42.9263C61.2028 42.6304 60.6286 42.2999 60.0754 41.9366C58.5867 40.9916 56.7034 39.8233 55.371 39.5703C54.2163 39.449 53.0522 39.6854 52.0363 40.2474C51.5708 40.4578 51.0906 40.6344 50.5997 40.7758C50.2333 40.8852 49.8447 40.8967 49.4725 40.8092C49.1003 40.7218 48.7575 40.5383 48.4783 40.2772C47.9688 39.688 47.7026 38.9271 47.7339 38.149C47.7339 37.9108 47.7339 37.6281 47.7339 37.3304C47.7711 36.4226 47.8083 35.2989 47.2054 34.5697C45.9847 33.0814 41.9428 31.5485 37.2682 29.7477C33.4645 28.2594 29.5269 26.7712 26.7802 25.1713C24.8925 24.1741 23.3877 22.5808 22.5001 20.6395C22.0289 19.5632 21.8271 18.3883 21.9121 17.2165L22.5076 16.8147C22.5758 16.7792 22.6359 16.7299 22.6841 16.6701C22.7324 16.6103 22.7678 16.5411 22.7881 16.467C22.8084 16.3928 22.8131 16.3153 22.802 16.2392C22.7909 16.1632 22.7642 16.0902 22.7236 16.025C22.683 15.9597 22.6293 15.9035 22.566 15.86C22.5027 15.8164 22.431 15.7864 22.3555 15.7718C22.28 15.7572 22.2023 15.7584 22.1273 15.7752C22.0523 15.792 21.9815 15.8242 21.9195 15.8696C19.366 17.4002 17.3325 19.6639 16.0837 22.3659C12.3577 23.8119 8.75339 25.5537 5.30543 27.5748C5.1839 27.6504 5.09605 27.7698 5.06004 27.9083C5.02402 28.0468 5.04258 28.1938 5.11189 28.319C5.16175 28.4023 5.23277 28.471 5.31774 28.518C5.40271 28.5651 5.49862 28.5888 5.59573 28.5869C5.69495 28.5876 5.79259 28.5619 5.87858 28.5124C9.3166 26.5047 12.9111 24.7777 16.6271 23.3482C16.6903 23.333 16.7506 23.3079 16.8058 23.2738C18.2945 22.6933 19.8998 22.1005 21.6218 21.4953C22.6349 23.466 24.2203 25.0846 26.1698 26.1387C28.9909 27.7758 32.9658 29.3012 36.8142 30.7821L39.0026 31.6304C40.4317 34.3316 42.6499 39.2652 44.4438 43.2463C45.6423 45.9252 46.6769 48.232 47.1682 49.1993C48.4059 51.4627 49.9048 53.5731 51.6344 55.4873C52.1405 56.0826 52.6318 56.663 53.1231 57.2657C53.9915 58.3882 54.6957 59.6284 55.2147 60.9492C55.5721 61.8072 55.9823 62.6422 56.4429 63.4495C57.3138 64.9378 58.9216 64.9378 60.0903 65.0122C61.0654 65.0122 61.3259 65.1015 61.3408 65.2949C61.4152 66.1581 59.8521 67.4752 57.7976 67.8845C56.3834 68.1673 53.8302 66.1358 52.1405 64.7964C51.5843 64.3282 51.0029 63.891 50.3987 63.4867C49.5508 63.0844 48.5999 62.952 47.6744 63.1072C47.0266 63.1996 46.3665 63.1513 45.739 62.9658C45.2552 62.7723 43.7814 62.2217 44.4513 59.4535C44.5332 59.1484 44.6671 58.7689 44.816 58.3596C45.1956 57.3178 45.6274 56.1272 45.3966 55.1375C44.9426 53.1581 40.9975 49.1845 37.2087 45.3745C35.3004 43.5688 33.4914 41.661 31.7897 39.6596C27.7479 34.3316 28.9463 29.6435 28.9612 29.584C28.9802 29.5132 28.9851 29.4392 28.9756 29.3665C28.9661 29.2938 28.9424 29.2236 28.9057 29.16C28.8691 29.0964 28.8203 29.0407 28.7621 28.996C28.7039 28.9513 28.6375 28.9185 28.5667 28.8994C28.4958 28.8803 28.4219 28.8754 28.3491 28.8849C28.2763 28.8944 28.2061 28.9182 28.1425 28.9548C28.079 28.9914 28.0232 29.0402 27.9785 29.0984C27.9337 29.1565 27.9009 29.2229 27.8818 29.2938C27.7969 29.6359 27.7396 29.9843 27.7106 30.3356C25.1426 31.7122 23.0212 33.7958 20.9667 35.8124C19.7907 36.9732 18.5699 38.1713 17.3045 39.1982C13.829 42.153 9.79374 44.3776 5.43941 45.7391C5.31401 45.7811 5.20729 45.8657 5.13779 45.9782C5.06829 46.0907 5.04041 46.2239 5.05899 46.3548C5.07757 46.4857 5.14143 46.606 5.23949 46.6947C5.33754 46.7834 5.46359 46.835 5.59573 46.8404C5.64758 46.8477 5.70019 46.8477 5.75204 46.8404C10.247 45.4335 14.4134 43.1384 18.0042 40.0912C19.3143 39.0345 20.5499 37.8141 21.726 36.6309C23.4955 34.7494 25.4791 33.0811 27.6362 31.6601C27.7578 34.8283 28.9016 37.8721 30.8965 40.3367C32.6177 42.3773 34.4439 44.3271 36.3675 46.1782C39.7246 49.5416 43.9005 53.7311 44.2875 55.4054C44.3158 56.2996 44.1295 57.1875 43.7441 57.995C43.5923 58.3899 43.4606 58.7922 43.3496 59.2005C42.7616 61.5668 43.4538 63.2783 45.2999 64.015C46.0816 64.2712 46.9117 64.345 47.7265 64.2308C48.4267 64.112 49.1462 64.1919 49.8032 64.4615C50.1754 64.6847 50.7411 65.1387 51.4036 65.6596C53.2049 67.0957 55.6167 69.0156 57.4925 69.0156C57.6523 69.0158 57.8118 69.0009 57.9688 68.9709C60.5518 68.4649 62.5392 66.7386 62.435 65.1908C62.3085 63.9406 61.0728 63.9034 60.0754 63.8736C59.0779 63.8439 57.9167 63.8067 57.351 62.8542C56.9141 62.0857 56.5263 61.2904 56.1898 60.473C55.629 59.0695 54.8776 57.7499 53.9567 56.5514C53.4804 55.9412 52.9816 55.3459 52.468 54.7431C50.7994 52.8931 49.3553 50.8524 48.1656 48.6636C47.6892 47.7483 46.6769 45.4489 45.4636 42.7924C43.893 39.3024 41.9949 35.0906 40.5806 32.2554C43.2975 33.3568 45.5827 34.4209 46.2973 35.2841C46.6323 35.6784 46.595 36.5714 46.5727 37.2858C46.554 37.598 46.554 37.9111 46.5727 38.2234C46.5671 39.2833 46.9665 40.3054 47.6892 41.0809C48.1082 41.4662 48.6193 41.7371 49.1734 41.8674C49.7276 41.9978 50.3059 41.9832 50.8528 41.825C51.4009 41.6714 51.936 41.4748 52.4531 41.2371C53.2721 40.7747 54.2097 40.565 55.1477 40.6344C56.2717 40.8502 58.1252 42.0036 59.465 42.8668C60.0822 43.2853 60.729 43.6583 61.4003 43.983C62.0018 44.1972 62.6378 44.2982 63.2761 44.2806C64.6411 44.2701 65.9911 43.9946 67.251 43.4695C67.9609 43.2355 68.5512 42.7335 68.896 42.0705C68.9776 41.8637 69.0138 41.6417 69.0023 41.4196C68.9907 41.1975 68.9316 40.9805 68.8291 40.7832C68.2187 39.6149 66.1345 39.0791 64.75 38.722C64.4224 38.6401 64.147 38.5657 64.0056 38.5061C62.5169 37.9629 61.3334 36.7202 60.2094 35.5296C59.7628 35.0608 59.3087 34.5697 58.8397 34.1307C57.5233 33.0002 56.0643 32.047 54.5001 31.2955L53.6441 30.8341C52.2335 30.0197 50.8737 29.1201 49.5725 28.1404C48.7388 27.5302 47.8753 26.9051 46.997 26.3321C42.8286 23.6235 30.4722 12.9898 28.388 10.3035C26.1549 7.43861 21.6888 4.45464 19.0835 4.03792C16.4783 3.62121 12.9798 6.95492 8.51362 11.1667L7.78414 11.8364ZM17.6469 21.7557C18.4485 20.3491 19.4859 19.0906 20.7137 18.0351C20.7592 18.8619 20.9195 19.6783 21.1901 20.4609C19.9346 20.8975 18.7535 21.3291 17.6469 21.7557Z" fill="#591144"/>
</svg>
