<svg width="60" height="60" viewBox="0 0 60 60" fill="none" xmlns="http://www.w3.org/2000/svg">
<circle cx="30" cy="30" r="30" fill="#F7E3EC"/>
<g clip-path="url(#clip0)">
<path d="M59.8544 22H0V24.7265H59.8544V22Z" fill="#591144"/>
<path d="M49.5874 40.87C47.9529 40.8477 46.3917 40.198 45.2359 39.0591C44.08 37.9201 43.4207 36.3818 43.3981 34.7713C43.3794 33.8446 42.9975 32.961 42.3324 32.3056C41.6673 31.6503 40.7705 31.274 39.8301 31.2556H39.5388C39.3914 31.2671 39.2452 31.2911 39.1019 31.3274C39.0291 31.3274 38.9563 31.3991 38.8835 31.3991C38.742 31.4584 38.5959 31.5064 38.4466 31.5426C37.8348 31.8276 37.3142 32.2727 36.9418 32.8295C36.5694 33.3863 36.3595 34.0332 36.3349 34.6996C36.3349 36.317 35.6829 37.8682 34.5221 39.012C33.3614 40.1557 31.7871 40.7982 30.1456 40.7982C28.5041 40.7982 26.9298 40.1557 25.7691 39.012C24.6084 37.8682 23.9563 36.317 23.9563 34.6996C23.9563 33.7671 23.5804 32.8729 22.9113 32.2136C22.2422 31.5543 21.3346 31.1839 20.3883 31.1839C19.4421 31.1839 18.5345 31.5543 17.8654 32.2136C17.1963 32.8729 16.8204 33.7671 16.8204 34.6996C16.7978 36.3101 16.1384 37.8484 14.9826 38.9873C13.8267 40.1263 12.2655 40.7759 10.6311 40.7982C8.99659 40.7759 7.43541 40.1263 6.27955 38.9873C5.12369 37.8484 4.46435 36.3101 4.44175 34.6996C4.42312 33.7729 4.04123 32.8893 3.3761 32.2339C2.71097 31.5785 1.81423 31.2022 0.873785 31.1839C0.6288 31.1721 0.383401 31.1963 0.14563 31.2556V28.6009C0.364076 28.6009 0.655339 28.5291 0.873785 28.5291C2.50826 28.5514 4.06944 29.2011 5.2253 30.34C6.38116 31.479 7.04051 33.0173 7.06311 34.6278C7.08173 35.5545 7.46362 36.4381 8.12875 37.0935C8.79388 37.7488 9.69062 38.1251 10.6311 38.1435C11.5715 38.1251 12.4683 37.7488 13.1334 37.0935C13.7985 36.4381 14.1804 35.5545 14.199 34.6278C14.199 33.0103 14.8511 31.4591 16.0118 30.3154C17.1726 29.1717 18.7468 28.5291 20.3883 28.5291C22.0299 28.5291 23.6041 29.1717 24.7649 30.3154C25.9256 31.4591 26.5777 33.0103 26.5777 34.6278C26.5777 35.5602 26.9536 36.4545 27.6227 37.1138C28.2918 37.7731 29.1993 38.1435 30.1456 38.1435C31.0919 38.1435 31.9994 37.7731 32.6686 37.1138C33.3377 36.4545 33.7136 35.5602 33.7136 34.6278C33.7254 33.2086 34.2306 31.8362 35.1449 30.7395C36.0591 29.6428 37.3273 28.888 38.7379 28.6009L38.9563 28.5291C39.268 28.4696 39.5856 28.4456 39.9029 28.4574C41.5489 28.4647 43.1264 29.1073 44.2971 30.2475C45.4678 31.3876 46.1384 32.9344 46.165 34.5561C46.1829 35.4707 46.5547 36.3441 47.2043 36.9976C47.854 37.6511 48.7325 38.0353 49.6602 38.0717C50.6006 38.0534 51.4974 37.6771 52.1625 37.0217C52.8276 36.3663 53.2095 35.4827 53.2282 34.5561C53.2508 32.9455 53.9101 31.4072 55.066 30.2683C56.2218 29.1294 57.783 28.4797 59.4175 28.4574C59.6145 28.4458 59.812 28.4701 60 28.5291V31.1839C59.7816 31.1839 59.6359 31.1121 59.4175 31.1121C58.477 31.1305 57.5803 31.5068 56.9152 32.1621C56.25 32.8175 55.8681 33.7011 55.8495 34.6278C55.8274 36.2642 55.1628 37.8286 53.9952 38.9925C52.8276 40.1564 51.2478 40.8293 49.5874 40.87Z" fill="#591144"/>
<path d="M30 47.0404C29.6544 47.0404 29.3165 46.9394 29.0291 46.7501C28.7417 46.5609 28.5177 46.292 28.3855 45.9773C28.2532 45.6627 28.2186 45.3165 28.286 44.9824C28.3535 44.6484 28.5199 44.3416 28.7643 44.1008C29.0087 43.8599 29.3201 43.6959 29.6591 43.6295C29.9981 43.5631 30.3495 43.5972 30.6688 43.7275C30.9881 43.8578 31.261 44.0785 31.4531 44.3617C31.6451 44.6449 31.7476 44.9778 31.7476 45.3184C31.7505 45.5453 31.7073 45.7705 31.6205 45.9808C31.5338 46.191 31.4051 46.382 31.2423 46.5424C31.0794 46.7029 30.8856 46.8297 30.6722 46.9152C30.4589 47.0007 30.2303 47.0432 30 47.0404Z" fill="#591144"/>
<path d="M5.89805 47.1121C6.86321 47.1121 7.64563 46.3411 7.64563 45.3901C7.64563 44.4391 6.86321 43.6682 5.89805 43.6682C4.9329 43.6682 4.15048 44.4391 4.15048 45.3901C4.15048 46.3411 4.9329 47.1121 5.89805 47.1121Z" fill="#591144"/>
<path d="M42.0145 54C42.9797 54 43.7621 53.2291 43.7621 52.278C43.7621 51.327 42.9797 50.5561 42.0145 50.5561C41.0494 50.5561 40.267 51.327 40.267 52.278C40.267 53.2291 41.0494 54 42.0145 54Z" fill="#591144"/>
<path d="M17.9854 54C18.9506 54 19.733 53.2291 19.733 52.278C19.733 51.327 18.9506 50.5561 17.9854 50.5561C17.0203 50.5561 16.2379 51.327 16.2379 52.278C16.2379 53.2291 17.0203 54 17.9854 54Z" fill="#591144"/>
<path d="M54.0291 47.1121C54.9943 47.1121 55.7767 46.3411 55.7767 45.3901C55.7767 44.4391 54.9943 43.6682 54.0291 43.6682C53.064 43.6682 52.2816 44.4391 52.2816 45.3901C52.2816 46.3411 53.064 47.1121 54.0291 47.1121Z" fill="#591144"/>
</g>
<defs>
<clipPath id="clip0">
<rect y="22" width="60" height="32" fill="white"/>
</clipPath>
</defs>
</svg>
