<svg width="60" height="65" viewBox="0 0 60 65" fill="none" xmlns="http://www.w3.org/2000/svg">
<circle cx="30" cy="35" r="30" fill="#F7E3EC"/>
<g clip-path="url(#clip0)">
<path d="M55.8697 52C55.6926 51.9985 55.518 51.958 55.3585 51.8813C46.1455 47.2917 14.9113 45.5339 6.56736 51.7739C6.32482 51.9538 6.02041 52.0304 5.72109 51.987C5.42177 51.9435 5.15205 51.7835 4.97128 51.5422C4.79051 51.3008 4.71349 50.9979 4.75716 50.7001C4.80084 50.4022 4.96163 50.1338 5.20416 49.9539C15.0021 42.64 47.2361 45.2965 56.3695 49.8522C56.6013 49.9639 56.7881 50.1506 56.8992 50.3818C57.0103 50.613 57.0392 50.8749 56.9811 51.1246C56.923 51.3743 56.7813 51.5969 56.5794 51.756C56.3775 51.915 56.1272 52.0011 55.8697 52Z" fill="#591144"/>
<path d="M27.3788 47.043C27.1552 47.0424 26.9368 46.9761 26.7508 46.8524C26.5649 46.7287 26.4198 46.5532 26.3337 46.3478L19.3019 29.6683C19.2463 29.5302 19.2186 29.3826 19.2204 29.2339C19.2221 29.0852 19.2533 28.9383 19.3121 28.8015C19.3709 28.6648 19.4562 28.541 19.5631 28.437C19.67 28.3331 19.7965 28.2512 19.9352 28.1959C20.074 28.1406 20.2223 28.113 20.3717 28.1148C20.5212 28.1165 20.6688 28.1475 20.8062 28.206C20.9436 28.2646 21.0681 28.3494 21.1725 28.4558C21.2769 28.5622 21.3593 28.688 21.4149 28.8261L28.424 45.483C28.5374 45.7583 28.5371 46.0669 28.4234 46.342C28.3096 46.6171 28.0914 46.8365 27.8162 46.9526C27.6784 47.0128 27.5294 47.0436 27.3788 47.043Z" fill="#591144"/>
<path d="M6.28904 35.0039C6.14344 34.9981 5.99968 34.9695 5.86304 34.9191C5.58546 34.8044 5.36487 34.5849 5.2496 34.3087C3.61512 30.4381 3.59273 26.08 5.18734 22.193C6.78195 18.3061 9.86295 15.2086 13.7525 13.5822C17.6421 11.9557 22.0217 11.9334 25.9278 13.5202C29.8339 15.107 32.9466 18.1729 34.5811 22.0435C34.6963 22.3203 34.6963 22.6314 34.5811 22.9083C34.5246 23.0461 34.4414 23.1715 34.3361 23.2772C34.2308 23.3829 34.1056 23.4669 33.9676 23.5243L6.73776 34.9078C6.59719 34.9725 6.44392 35.0054 6.28904 35.0039ZM19.921 14.6222C17.7683 14.6199 15.6457 15.1249 13.7269 16.096C11.8081 17.067 10.1476 18.4765 8.88153 20.2089C7.61541 21.9414 6.7796 23.9476 6.44253 26.0633C6.10545 28.179 6.27669 30.3441 6.94224 32.3813L31.9967 21.9191C30.8475 19.7162 29.1115 17.8702 26.9786 16.5832C24.8458 15.2962 22.3983 14.6178 19.904 14.6222H19.921Z" fill="#591144"/>
<path d="M14.1956 15.7696C13.971 15.77 13.7513 15.7042 13.5643 15.5805C13.3772 15.4568 13.2313 15.2806 13.1448 15.0743L12.2701 13C12.1975 12.8611 12.1547 12.7087 12.1444 12.5524C12.1341 12.3961 12.1565 12.2395 12.2103 12.0923C12.264 11.9451 12.3479 11.8107 12.4566 11.6975C12.5654 11.5843 12.6965 11.4948 12.8418 11.4346C12.9871 11.3745 13.1434 11.3451 13.3007 11.3483C13.458 11.3514 13.613 11.387 13.7558 11.4529C13.8985 11.5188 14.026 11.6134 14.13 11.7309C14.2341 11.8483 14.3125 11.986 14.3603 12.1352L15.2407 14.2209C15.3541 14.4961 15.3539 14.8048 15.2401 15.0799C15.1263 15.355 14.9082 15.5743 14.6329 15.6904C14.4943 15.7467 14.3453 15.7737 14.1956 15.7696Z" fill="#591144"/>
<path d="M45.6457 17.4709C44.5423 17.4709 43.4636 17.1452 42.5463 16.5351C41.6289 15.9249 40.914 15.0577 40.492 14.0432C40.07 13.0286 39.9598 11.9124 40.1755 10.8355C40.3912 9.75869 40.923 8.7697 41.7036 7.99369C42.4843 7.21767 43.4787 6.68949 44.561 6.47596C45.6434 6.26244 46.765 6.37316 47.7841 6.79413C48.8032 7.21509 49.674 7.92738 50.2862 8.84089C50.8984 9.7544 51.2246 10.8281 51.2234 11.9261C51.2219 13.3972 50.6336 14.8075 49.5877 15.8472C48.5419 16.8869 47.124 17.4709 45.6457 17.4709ZM45.6457 8.63087C44.9919 8.63087 44.3527 8.8238 43.8091 9.18526C43.2655 9.54672 42.8418 10.0605 42.5916 10.6616C42.3414 11.2627 42.2759 11.9241 42.4034 12.5622C42.531 13.2003 42.8458 13.7865 43.3082 14.2465C43.7705 14.7066 44.3595 15.0199 45.0008 15.1468C45.642 15.2737 46.3067 15.2086 46.9107 14.9596C47.5148 14.7106 48.0311 14.289 48.3943 13.748C48.7576 13.2071 48.9514 12.5711 48.9514 11.9204C48.9514 11.048 48.6032 10.2113 47.9832 9.59436C47.3633 8.97745 46.5224 8.63087 45.6457 8.63087Z" fill="#591144"/>
<path d="M45.6457 24.8696C45.3444 24.8696 45.0555 24.7505 44.8424 24.5385C44.6294 24.3265 44.5097 24.0389 44.5097 23.7391V21.4783C44.5097 21.1784 44.6294 20.8909 44.8424 20.6789C45.0555 20.4669 45.3444 20.3478 45.6457 20.3478C45.947 20.3478 46.2359 20.4669 46.449 20.6789C46.662 20.8909 46.7817 21.1784 46.7817 21.4783V23.7391C46.7817 24.0389 46.662 24.3265 46.449 24.5385C46.2359 24.7505 45.947 24.8696 45.6457 24.8696Z" fill="#591144"/>
<path d="M45.6457 4.52174C45.3444 4.52174 45.0555 4.40264 44.8424 4.19064C44.6294 3.97864 44.5097 3.69111 44.5097 3.3913V1.13043C44.5097 0.830625 44.6294 0.543094 44.8424 0.331097C45.0555 0.119099 45.3444 0 45.6457 0C45.947 0 46.2359 0.119099 46.449 0.331097C46.662 0.543094 46.7817 0.830625 46.7817 1.13043V3.3913C46.7817 3.69111 46.662 3.97864 46.449 4.19064C46.2359 4.40264 45.947 4.52174 45.6457 4.52174Z" fill="#591144"/>
<path d="M55.8697 12.4348H53.5977C53.2964 12.4348 53.0074 12.3157 52.7944 12.1037C52.5814 11.8917 52.4617 11.6042 52.4617 11.3043C52.4617 11.0045 52.5814 10.717 52.7944 10.505C53.0074 10.293 53.2964 10.1739 53.5977 10.1739H55.8697C56.171 10.1739 56.4599 10.293 56.6729 10.505C56.886 10.717 57.0057 11.0045 57.0057 11.3043C57.0057 11.6042 56.886 11.8917 56.6729 12.1037C56.4599 12.3157 56.171 12.4348 55.8697 12.4348Z" fill="#591144"/>
<path d="M37.6937 12.4348H35.4217C35.1204 12.4348 34.8315 12.3157 34.6184 12.1037C34.4054 11.8917 34.2857 11.6042 34.2857 11.3043C34.2857 11.0045 34.4054 10.717 34.6184 10.505C34.8315 10.293 35.1204 10.1739 35.4217 10.1739H37.6937C37.995 10.1739 38.2839 10.293 38.497 10.505C38.71 10.717 38.8297 11.0045 38.8297 11.3043C38.8297 11.6042 38.71 11.8917 38.497 12.1037C38.2839 12.3157 37.995 12.4348 37.6937 12.4348Z" fill="#591144"/>
<path d="M53.6772 21.5574C53.3761 21.5549 53.0874 21.4376 52.8706 21.2296L50.911 19.2852C50.8055 19.1802 50.7218 19.0555 50.6646 18.9183C50.6075 18.781 50.5781 18.634 50.5781 18.4854C50.5781 18.3369 50.6075 18.1898 50.6646 18.0526C50.7218 17.9154 50.8055 17.7907 50.911 17.6857C51.0166 17.5806 51.1419 17.4973 51.2798 17.4405C51.4177 17.3836 51.5655 17.3544 51.7148 17.3544C51.864 17.3544 52.0118 17.3836 52.1497 17.4405C52.2876 17.4973 52.4129 17.5806 52.5185 17.6857L54.4781 19.63C54.5837 19.735 54.6675 19.8597 54.7246 19.9969C54.7818 20.1341 54.8112 20.2812 54.8112 20.4298C54.8112 20.5783 54.7818 20.7254 54.7246 20.8627C54.6675 20.9999 54.5837 21.1246 54.4781 21.2296C54.2651 21.4398 53.9772 21.5576 53.6772 21.5574Z" fill="#591144"/>
<path d="M39.0569 7.01435C38.7561 7.01309 38.4681 6.89316 38.256 6.68087L36.8076 5.23957C36.6114 5.02488 36.5057 4.74333 36.5124 4.45322C36.519 4.16311 36.6376 3.88666 36.8434 3.6811C37.0492 3.47555 37.3266 3.35663 37.6181 3.34898C37.9096 3.34133 38.1929 3.44553 38.4094 3.64L39.8635 5.08696C40.075 5.29876 40.1938 5.58527 40.1938 5.88391C40.1938 6.18256 40.075 6.46907 39.8635 6.68087C39.7578 6.78666 39.6321 6.87059 39.4937 6.92783C39.3553 6.98506 39.2068 7.01447 39.0569 7.01435Z" fill="#591144"/>
<path d="M51.8653 6.64696C51.7158 6.64782 51.5676 6.6193 51.4292 6.56305C51.2908 6.50679 51.1649 6.4239 51.0588 6.31913C50.9531 6.21414 50.8694 6.08947 50.8122 5.95224C50.755 5.815 50.7256 5.6679 50.7256 5.51935C50.7256 5.37079 50.755 5.22369 50.8122 5.08646C50.8694 4.94923 50.9531 4.82455 51.0588 4.71957L52.1436 3.64C52.3568 3.42788 52.6459 3.30872 52.9474 3.30872C53.2488 3.30872 53.5379 3.42788 53.7511 3.64C53.9642 3.85212 54.084 4.13981 54.084 4.43978C54.084 4.73976 53.9642 5.02745 53.7511 5.23957L52.6548 6.31913C52.4447 6.52661 52.1614 6.64423 51.8653 6.64696Z" fill="#591144"/>
<path d="M37.6085 20.8339C37.3834 20.8341 37.1632 20.7677 36.9761 20.6431C36.7889 20.5186 36.6432 20.3415 36.5574 20.1344C36.4716 19.9272 36.4495 19.6994 36.4941 19.4798C36.5386 19.2601 36.6478 19.0586 36.8076 18.9009L38.4094 17.307C38.5129 17.1937 38.6385 17.1025 38.7785 17.039C38.9185 16.9754 39.0701 16.9409 39.2239 16.9374C39.3778 16.9339 39.5307 16.9615 39.6735 17.0186C39.8163 17.0757 39.9459 17.1611 40.0545 17.2696C40.1632 17.378 40.2485 17.5073 40.3054 17.6496C40.3623 17.7919 40.3895 17.9442 40.3855 18.0973C40.3814 18.2504 40.3461 18.401 40.2818 18.5401C40.2174 18.6793 40.1254 18.8039 40.0112 18.9065L38.4094 20.5004C38.1973 20.7127 37.9093 20.8327 37.6085 20.8339Z" fill="#591144"/>
</g>
<defs>
<clipPath id="clip0">
<rect x="4" width="53" height="52" fill="white"/>
</clipPath>
</defs>
</svg>
