<svg width="61" height="68" viewBox="0 0 61 68" fill="none" xmlns="http://www.w3.org/2000/svg">
<circle cx="30" cy="38" r="30" fill="#F7E3EC"/>
<path d="M4.88263 46.0546C4.81578 46.0659 4.74733 46.064 4.68122 46.0489C4.61512 46.0338 4.55267 46.0058 4.49748 45.9665C4.44229 45.9272 4.39545 45.8774 4.35965 45.8199C4.32386 45.7625 4.29983 45.6985 4.28894 45.6318C4.27805 45.565 4.28052 45.4968 4.29621 45.431C4.3119 45.3652 4.3405 45.3032 4.38035 45.2485C4.42021 45.1937 4.47053 45.1474 4.52842 45.1122C4.58631 45.077 4.65063 45.0535 4.71765 45.0432C11.0523 44.0031 16.2946 43.7162 19.945 44.3433C21.611 44.6295 22.9599 45.1076 23.9473 45.7934C24.988 46.5158 25.6303 47.4607 25.8257 48.6447C25.9158 49.1901 25.9083 49.7803 25.7985 50.4164C25.6799 51.1023 25.6303 51.7382 25.6406 52.3242C25.6701 54.0163 26.1933 55.3299 26.9949 56.2657C27.7877 57.1913 28.8584 57.7528 29.9937 57.9479C30.3285 58.0057 30.668 58.0319 31.0077 58.0263H31.0238C31.3635 58.0319 31.703 58.0057 32.0378 57.9479C33.1732 57.7528 34.2438 57.1913 35.0367 56.2657C35.8383 55.3299 36.3612 54.0163 36.391 52.3242C36.4008 51.7382 36.3517 51.1025 36.2331 50.4164C36.1232 49.7803 36.1158 49.1901 36.2059 48.6447C36.4013 47.4611 37.0436 46.5161 38.0843 45.7934C39.0717 45.1081 40.4206 44.6298 42.0866 44.3433C45.7369 43.7163 50.979 44.0031 57.3139 45.0432C57.3809 45.0535 57.4453 45.077 57.5031 45.1122C57.561 45.1474 57.6114 45.1937 57.6512 45.2485C57.6911 45.3032 57.7197 45.3652 57.7354 45.431C57.751 45.4968 57.7535 45.565 57.7426 45.6318C57.7317 45.6985 57.7077 45.7625 57.6719 45.8199C57.6361 45.8774 57.5893 45.9272 57.5341 45.9665C57.4789 46.0058 57.4165 46.0338 57.3503 46.0489C57.2842 46.064 57.2158 46.0659 57.1489 46.0546C50.9252 45.0327 45.7974 44.7468 42.2596 45.3547C40.7432 45.6152 39.5332 46.0381 38.6719 46.636C37.8638 47.1968 37.3672 47.9173 37.2201 48.8086C37.1488 49.2397 37.1565 49.7177 37.2473 50.2431C37.375 50.9844 37.4289 51.6834 37.4173 52.3399C37.3829 54.2926 36.7651 55.8252 35.8174 56.9314C34.8611 58.0484 33.5738 58.7245 32.2113 58.9589C31.4192 59.0797 30.6133 59.0797 29.8212 58.9589C28.4583 58.7247 27.171 58.0476 26.2146 56.9314C25.267 55.8252 24.6492 54.2926 24.6148 52.3399C24.6032 51.6834 24.6566 50.9847 24.7848 50.2431C24.8755 49.7177 24.883 49.2401 24.812 48.8086C24.6646 47.917 24.1683 47.1968 23.3602 46.636C22.4989 46.0383 21.2889 45.6152 19.7725 45.3547C16.2352 44.7472 11.1068 45.0327 4.88312 46.0546H4.88263ZM48.0939 41.4134C48.0894 41.4806 48.0716 41.5463 48.0417 41.6066C48.0117 41.667 47.9701 41.7209 47.9193 41.7652C47.8684 41.8095 47.8093 41.8435 47.7453 41.865C47.6814 41.8866 47.6137 41.8953 47.5464 41.8908C47.479 41.8863 47.4131 41.8686 47.3526 41.8388C47.2921 41.8089 47.238 41.7674 47.1936 41.7167C47.1491 41.666 47.1151 41.6071 47.0935 41.5433C47.0719 41.4795 47.0631 41.412 47.0676 41.3448C47.4323 35.9154 48.4259 30.1947 50.1922 24.7983C51.0744 22.1027 52.1501 19.4866 53.4369 17.0273C51.467 19.7777 49.959 22.7885 48.8005 25.9287C46.9293 31 45.9671 36.408 45.4411 41.6056C45.4245 41.738 45.3566 41.8587 45.252 41.942C45.1474 42.0253 45.0144 42.0646 44.8812 42.0515C44.748 42.0384 44.6252 41.974 44.5389 41.872C44.4526 41.7699 44.4097 41.6384 44.4192 41.5052C44.9533 36.2287 45.9313 30.735 47.8349 25.5757C49.748 20.3908 52.5941 15.5425 56.8588 11.5871L61 7.74622L57.6211 12.2674C54.8186 16.0179 52.7003 20.4401 51.17 25.1158C49.4317 30.4271 48.4534 36.0625 48.0939 41.4134ZM23.7468 37.4335C23.7843 37.414 23.8253 37.4022 23.8674 37.3985C23.9095 37.3949 23.9519 37.3995 23.9922 37.4122C24.0325 37.4249 24.0698 37.4454 24.1022 37.4725C24.1345 37.4996 24.1612 37.5328 24.1807 37.5702C24.2002 37.6076 24.2121 37.6484 24.2158 37.6904C24.2194 37.7324 24.2147 37.7747 24.202 37.8148C24.1893 37.855 24.1687 37.8923 24.1415 37.9245C24.1144 37.9568 24.0811 37.9834 24.0436 38.0028L20.95 39.6054C20.9125 39.6248 20.8716 39.6367 20.8295 39.6403C20.7874 39.644 20.745 39.6393 20.7047 39.6266C20.6644 39.6139 20.627 39.5934 20.5947 39.5663C20.5623 39.5392 20.5356 39.5061 20.5161 39.4687C20.4967 39.4313 20.4848 39.3904 20.4811 39.3485C20.4774 39.3065 20.4821 39.2642 20.4948 39.224C20.5076 39.1839 20.5281 39.1466 20.5553 39.1143C20.5825 39.0821 20.6158 39.0555 20.6533 39.036L23.7468 37.4335ZM25.9234 39.7195C25.9458 39.684 25.9751 39.6531 26.0095 39.6288C26.0439 39.6045 26.0828 39.5872 26.1239 39.5779C26.165 39.5686 26.2075 39.5674 26.2491 39.5745C26.2906 39.5816 26.3304 39.5968 26.3661 39.6192C26.4018 39.6416 26.4327 39.6707 26.457 39.705C26.4814 39.7394 26.4988 39.7781 26.5081 39.8191C26.5175 39.8601 26.5186 39.9025 26.5115 39.944C26.5044 39.9854 26.4892 40.025 26.4667 40.0606L24.6141 42.9896C24.5919 43.0257 24.5627 43.0571 24.5283 43.0819C24.4938 43.1067 24.4548 43.1244 24.4134 43.134C24.3721 43.1436 24.3292 43.145 24.2873 43.138C24.2454 43.131 24.2053 43.1157 24.1694 43.0932C24.1334 43.0706 24.1024 43.0412 24.0779 43.0065C24.0535 42.9719 24.0361 42.9328 24.027 42.8914C24.0178 42.85 24.017 42.8073 24.0245 42.7656C24.032 42.7239 24.0478 42.6841 24.0708 42.6486L25.9234 39.7195ZM26.251 37.141C26.311 37.0808 26.3926 37.0469 26.4777 37.0466C26.5199 37.0465 26.5616 37.0547 26.6006 37.0707C26.6396 37.0866 26.6751 37.1101 26.705 37.1398C26.7349 37.1694 26.7586 37.2046 26.7748 37.2434C26.7911 37.2822 26.7995 37.3238 26.7996 37.3659C26.7997 37.4079 26.7915 37.4496 26.7755 37.4884C26.7595 37.5273 26.7359 37.5627 26.7062 37.5925L21.3273 43.003C21.2673 43.0632 21.1857 43.0971 21.1006 43.0973C21.0154 43.0976 20.9337 43.0641 20.8733 43.0042C20.8129 42.9443 20.7789 42.863 20.7787 42.7781C20.7784 42.6932 20.812 42.6117 20.8721 42.5515L26.251 37.141ZM24.4957 31.0804C24.526 31.1102 24.55 31.1458 24.5664 31.1849C24.5828 31.2241 24.5912 31.2661 24.5912 31.3086C24.5911 31.351 24.5826 31.393 24.5662 31.4322C24.5497 31.4713 24.5256 31.5068 24.4953 31.5366C24.4649 31.5663 24.4289 31.5898 24.3894 31.6055C24.3499 31.6213 24.3076 31.6291 24.2651 31.6284C24.2225 31.6278 24.1805 31.6187 24.1415 31.6017C24.1025 31.5847 24.0673 31.5602 24.0379 31.5295L21.5885 29.0559C21.5582 29.026 21.5342 28.9905 21.5178 28.9513C21.5014 28.9122 21.4929 28.8701 21.493 28.8277C21.493 28.7853 21.5015 28.7433 21.518 28.7041C21.5345 28.665 21.5586 28.6295 21.5889 28.5997C21.6193 28.57 21.6552 28.5465 21.6947 28.5307C21.7343 28.515 21.7765 28.5072 21.8191 28.5078C21.8616 28.5085 21.9036 28.5176 21.9426 28.5346C21.9816 28.5516 22.0169 28.5761 22.0463 28.6068L24.4957 31.0804ZM27.437 29.8647C27.4474 29.9055 27.4496 29.948 27.4435 29.9897C27.4375 30.0314 27.4232 30.0715 27.4016 30.1078C27.38 30.144 27.3515 30.1756 27.3176 30.2008C27.2838 30.226 27.2452 30.2444 27.2043 30.2547C27.1633 30.2651 27.1207 30.2674 27.0789 30.2613C27.0371 30.2553 26.9968 30.2411 26.9605 30.2195C26.9242 30.198 26.8925 30.1695 26.8672 30.1357C26.8419 30.102 26.8235 30.0636 26.8131 30.0227L25.9535 26.6675C25.9431 26.6266 25.9409 26.5842 25.947 26.5424C25.953 26.5007 25.9673 26.4606 25.9889 26.4244C26.0105 26.3882 26.039 26.3566 26.0729 26.3313C26.1067 26.3061 26.1453 26.2878 26.1862 26.2774C26.2272 26.2671 26.2698 26.2648 26.3116 26.2709C26.3534 26.2769 26.3937 26.2911 26.43 26.3127C26.4663 26.3342 26.498 26.3627 26.5233 26.3964C26.5486 26.4302 26.567 26.4686 26.5774 26.5094L27.437 29.8647ZM26.9034 32.2874C26.9231 32.3251 26.9351 32.3662 26.9386 32.4085C26.9422 32.4507 26.9374 32.4933 26.9243 32.5337C26.9113 32.5741 26.8903 32.6115 26.8627 32.6437C26.835 32.676 26.8012 32.7024 26.7632 32.7215C26.7253 32.7406 26.6838 32.752 26.6414 32.755C26.599 32.758 26.5563 32.7526 26.516 32.7391C26.4757 32.7255 26.4385 32.7041 26.4065 32.6761C26.3746 32.6481 26.3485 32.614 26.3299 32.5759L22.8802 25.778C22.8432 25.7023 22.8376 25.6152 22.8645 25.5354C22.8915 25.4556 22.9489 25.3896 23.0243 25.3517C23.0997 25.3137 23.187 25.307 23.2674 25.3328C23.3477 25.3586 23.4147 25.4149 23.4537 25.4896L26.9034 32.2874ZM2.27798 23.5164C2.15768 23.4545 2.06677 23.3476 2.02503 23.2192C1.98328 23.0907 1.99407 22.951 2.05505 22.8304C2.11603 22.7099 2.22227 22.6182 2.35068 22.5753C2.47908 22.5324 2.61928 22.5418 2.74078 22.6014L26.9193 34.7677C27.0396 34.8297 27.1305 34.9365 27.1723 35.065C27.214 35.1935 27.2032 35.3332 27.1423 35.4537C27.0813 35.5743 26.975 35.666 26.8466 35.7089C26.7182 35.7518 26.578 35.7424 26.4565 35.6828L2.27798 23.5164ZM53.8078 60.5155C53.7991 60.557 53.7822 60.5964 53.758 60.6313C53.7339 60.6662 53.7031 60.696 53.6673 60.719C53.6315 60.7419 53.5915 60.7576 53.5496 60.7649C53.5077 60.7723 53.4647 60.7713 53.4232 60.762C53.3817 60.7527 53.3425 60.7353 53.3078 60.7107C53.2731 60.6861 53.2437 60.6549 53.2212 60.6189C53.1987 60.5829 53.1836 60.5428 53.1768 60.5009C53.17 60.459 53.1716 60.4162 53.1815 60.375L55.923 48.3877C55.9322 48.3466 55.9495 48.3079 55.9738 48.2735C55.9981 48.2391 56.0289 48.2099 56.0645 48.1874C56.1001 48.1649 56.1399 48.1497 56.1814 48.1425C56.2229 48.1353 56.2655 48.1364 56.3066 48.1456C56.3477 48.1548 56.3867 48.172 56.4211 48.1963C56.4556 48.2205 56.4849 48.2512 56.5074 48.2868C56.53 48.3223 56.5453 48.3619 56.5525 48.4033C56.5597 48.4447 56.5586 48.4872 56.5494 48.5282L53.8078 60.5155ZM49.7117 61.3592C49.703 61.4005 49.6861 61.4398 49.6621 61.4746C49.6381 61.5094 49.6074 61.5392 49.5718 61.5621C49.5362 61.585 49.4963 61.6007 49.4546 61.6081C49.4129 61.6156 49.3701 61.6148 49.3287 61.6057C49.2873 61.5965 49.2481 61.5793 49.2134 61.555C49.1788 61.5307 49.1493 61.4998 49.1266 61.464C49.104 61.4283 49.0887 61.3884 49.0817 61.3467C49.0746 61.3051 49.0759 61.2624 49.0854 61.2212L52.0896 47.7637C52.1079 47.6809 52.1585 47.6087 52.2302 47.5631C52.302 47.5175 52.3889 47.5021 52.472 47.5204C52.555 47.5387 52.6274 47.5891 52.6732 47.6606C52.7189 47.7321 52.7343 47.8189 52.716 47.9017L49.7117 61.3592ZM45.48 61.9709C45.4713 62.012 45.4545 62.0511 45.4306 62.0858C45.4067 62.1205 45.3762 62.1502 45.3408 62.1731C45.3054 62.196 45.2658 62.2118 45.2243 62.2195C45.1828 62.2272 45.1402 62.2267 45.0989 62.2179C45.0576 62.2092 45.0185 62.1924 44.9837 62.1686C44.9489 62.1448 44.9191 62.1144 44.8961 62.0791C44.8731 62.0438 44.8573 62.0043 44.8496 61.963C44.8419 61.9216 44.8424 61.8791 44.8512 61.8379L47.9177 47.5389C47.9265 47.4977 47.9433 47.4586 47.9672 47.4239C47.991 47.3892 48.0215 47.3596 48.0569 47.3366C48.0923 47.3137 48.1319 47.2979 48.1734 47.2902C48.2149 47.2825 48.2575 47.283 48.2988 47.2918C48.3401 47.3005 48.3792 47.3172 48.414 47.341C48.4488 47.3649 48.4786 47.3953 48.5016 47.4306C48.5246 47.4658 48.5404 47.5053 48.5481 47.5467C48.5559 47.5881 48.5553 47.6305 48.5466 47.6717L45.48 61.9709ZM41.2639 62.3893C41.2453 62.4722 41.1944 62.5442 41.1224 62.5896C41.0505 62.635 40.9634 62.6501 40.8803 62.6314C40.7973 62.6128 40.725 62.5621 40.6795 62.4903C40.634 62.4186 40.6189 62.3318 40.6375 62.2489L43.939 47.7973C43.9587 47.7156 44.0099 47.6448 44.0815 47.6004C44.1531 47.5559 44.2393 47.5413 44.3216 47.5598C44.4039 47.5783 44.4756 47.6283 44.5212 47.699C44.5668 47.7697 44.5826 47.8555 44.5653 47.9378L41.2638 62.3893H41.2639ZM36.9672 62.6479C36.9472 62.7304 36.8951 62.8016 36.8225 62.8458C36.7498 62.89 36.6625 62.9037 36.5798 62.8837C36.4971 62.8637 36.4257 62.8118 36.3813 62.7394C36.337 62.6669 36.3233 62.5799 36.3433 62.4974L39.7187 48.6365C39.7387 48.554 39.7908 48.4829 39.8634 48.4386C39.9361 48.3944 40.0234 48.3808 40.1061 48.4007C40.1888 48.4207 40.2602 48.4726 40.3046 48.5451C40.3489 48.6175 40.3626 48.7045 40.3426 48.787L36.9672 62.6483V62.6479ZM32.5901 62.7449C32.5815 62.7865 32.5646 62.826 32.5405 62.861C32.5164 62.896 32.4855 62.9259 32.4497 62.9489C32.4139 62.972 32.3739 62.9876 32.3319 62.9951C32.29 63.0025 32.247 63.0015 32.2054 62.9922C32.1638 62.9829 32.1245 62.9654 32.0898 62.9408C32.0551 62.9162 32.0256 62.8849 32.0031 62.8488C31.9807 62.8127 31.9656 62.7726 31.9589 62.7306C31.9521 62.6887 31.9538 62.6458 31.9638 62.6045L32.3706 60.7967C32.3793 60.7551 32.3962 60.7156 32.4203 60.6806C32.4444 60.6455 32.4752 60.6157 32.511 60.5926C32.5468 60.5696 32.5869 60.5539 32.6288 60.5465C32.6708 60.5391 32.7138 60.5401 32.7554 60.5494C32.7969 60.5587 32.8362 60.5762 32.8709 60.6008C32.9057 60.6254 32.9351 60.6567 32.9576 60.6927C32.9801 60.7288 32.9952 60.769 33.0019 60.811C33.0087 60.8529 33.007 60.8958 32.9969 60.9371L32.5901 62.7449ZM28.4285 62.7086C28.4078 62.7911 28.3551 62.862 28.282 62.9057C28.2088 62.9495 28.1213 62.9624 28.0385 62.9418C27.9558 62.9212 27.8847 62.8686 27.8408 62.7957C27.797 62.7228 27.7839 62.6355 27.8046 62.553L28.3433 60.431C28.364 60.3485 28.4167 60.2776 28.4898 60.2339C28.5629 60.1901 28.6505 60.1771 28.7332 60.1978C28.816 60.2184 28.8871 60.271 28.9309 60.3439C28.9748 60.4168 28.9878 60.5041 28.9671 60.5866L28.4285 62.7086ZM24.4369 62.5336C24.4182 62.6164 24.3673 62.6884 24.2954 62.7338C24.2234 62.7792 24.1363 62.7943 24.0533 62.7756C23.9702 62.757 23.898 62.7062 23.8524 62.6345C23.8069 62.5627 23.7918 62.4759 23.8105 62.3931L24.771 58.122C24.7796 58.0804 24.7965 58.0409 24.8206 58.0059C24.8447 57.9709 24.8756 57.941 24.9114 57.918C24.9472 57.8949 24.9873 57.8793 25.0292 57.8718C25.0711 57.8644 25.1142 57.8654 25.1557 57.8747C25.1973 57.884 25.2366 57.9015 25.2713 57.9261C25.306 57.9507 25.3355 57.982 25.358 58.0181C25.3805 58.0542 25.3955 58.0944 25.4023 58.1363C25.409 58.1783 25.4073 58.2211 25.3973 58.2624L24.4369 62.5336ZM20.3985 62.2091C20.39 62.2507 20.3733 62.2902 20.3494 62.3253C20.3255 62.3604 20.2948 62.3905 20.2592 62.4137C20.2236 62.4369 20.1837 62.4529 20.1418 62.4606C20.0999 62.4683 20.0569 62.4677 20.0153 62.4587C19.9737 62.4498 19.9343 62.4327 19.8993 62.4084C19.8644 62.3841 19.8347 62.3532 19.8118 62.3174C19.7889 62.2816 19.7734 62.2416 19.7662 62.1997C19.759 62.1579 19.7601 62.115 19.7696 62.0737L22.5127 49.4382C22.5212 49.3966 22.5379 49.3571 22.5618 49.322C22.5857 49.2868 22.6163 49.2568 22.652 49.2336C22.6876 49.2103 22.7275 49.1944 22.7694 49.1867C22.8113 49.1789 22.8543 49.1796 22.8959 49.1885C22.9375 49.1975 22.9769 49.2146 23.0118 49.2389C23.0468 49.2631 23.0765 49.2941 23.0994 49.3299C23.1222 49.3657 23.1377 49.4057 23.145 49.4475C23.1522 49.4894 23.1511 49.5322 23.1416 49.5736L20.3985 62.2091ZM16.2745 61.728C16.2537 61.8105 16.201 61.8814 16.1278 61.9252C16.0546 61.9689 15.967 61.9819 15.8842 61.9612C15.8015 61.9405 15.7303 61.8879 15.6865 61.815C15.6426 61.742 15.6296 61.6546 15.6503 61.5721L19.0729 47.9293C19.0935 47.8468 19.1462 47.7759 19.2194 47.7321C19.2925 47.6884 19.38 47.6754 19.4628 47.696C19.5455 47.7166 19.6166 47.7692 19.6605 47.8421C19.7044 47.915 19.7174 48.0023 19.6967 48.0848L16.2745 61.728ZM12.0512 61.0107C12.0403 61.0513 12.0215 61.0895 11.9958 61.1229C11.9701 61.1563 11.9381 61.1844 11.9015 61.2054C11.8649 61.2265 11.8246 61.2402 11.7827 61.2457C11.7409 61.2513 11.6983 61.2485 11.6575 61.2376C11.6167 61.2268 11.5785 61.208 11.545 61.1824C11.5114 61.1568 11.4833 61.1248 11.4622 61.0884C11.441 61.0519 11.4273 61.0117 11.4218 60.9699C11.4162 60.9282 11.419 60.8858 11.4299 60.8451L14.9242 47.7963C14.9462 47.7141 15 47.644 15.0738 47.6015C15.1477 47.5589 15.2354 47.5473 15.3178 47.5692C15.4002 47.5912 15.4705 47.6449 15.5132 47.7185C15.5559 47.7921 15.5675 47.8796 15.5455 47.9617L12.0512 61.0107ZM8.07014 60.0479C8.04679 60.1298 7.99179 60.199 7.91723 60.2404C7.84268 60.2818 7.75468 60.292 7.67259 60.2687C7.5905 60.2455 7.52105 60.1906 7.47951 60.1163C7.43798 60.0419 7.42776 59.9542 7.45111 59.8723L10.8773 47.867C10.8889 47.8265 10.9083 47.7886 10.9346 47.7556C10.9608 47.7225 10.9933 47.695 11.0302 47.6745C11.0671 47.654 11.1077 47.6409 11.1497 47.636C11.1917 47.6312 11.2342 47.6346 11.2749 47.6461C11.3155 47.6577 11.3535 47.6771 11.3866 47.7032C11.4197 47.7294 11.4474 47.7618 11.4679 47.7986C11.4885 47.8354 11.5016 47.8759 11.5065 47.9178C11.5113 47.9596 11.5079 48.002 11.4963 48.0426L8.07014 60.0478V60.0479ZM4.21054 58.6297C4.18751 58.7116 4.13282 58.781 4.0585 58.8226C3.98417 58.8643 3.8963 58.8748 3.81421 58.8518C3.73212 58.8289 3.66254 58.7743 3.62078 58.7002C3.57901 58.6261 3.56848 58.5385 3.59151 58.4566L6.35779 48.681C6.38081 48.5992 6.4355 48.5298 6.50983 48.4881C6.58415 48.4465 6.67202 48.436 6.75411 48.4589C6.8362 48.4819 6.90578 48.5364 6.94755 48.6105C6.98931 48.6847 6.99984 48.7723 6.97682 48.8541L4.21054 58.6297ZM38.4758 9.28059C35.4159 13.5525 33.4703 18.4533 32.2168 23.4918C30.4628 30.5408 30.0596 37.8655 29.858 44.1295C29.784 46.4304 29.2881 47.3713 28.8066 48.2839C28.3885 49.0768 27.9831 49.8455 27.9578 51.7212C27.9568 51.7961 27.9593 51.6692 27.9593 51.7898C27.9593 52.8792 28.3138 53.8445 28.8829 54.5372C29.4302 55.2035 30.1744 55.6133 30.9815 55.6242C31.0677 55.6253 30.9068 55.6224 31.0157 55.6224V55.6244H31.0331C31.8478 55.6192 32.5959 55.2095 33.1457 54.5397C33.7186 53.8411 34.0742 52.8659 34.0742 51.7644V51.73C34.0604 49.5801 33.6419 48.6978 33.207 47.7799C32.7917 46.9038 32.3625 45.9984 32.1943 44.1264C31.6011 37.5285 32.0311 29.5597 33.87 21.8774C34.9202 17.4872 36.4321 13.1865 38.4758 9.28059ZM31.2185 23.247C33.005 16.0671 36.1726 9.15048 41.8969 3.84083L46.0381 0L42.6596 4.52101C38.923 9.52202 36.4026 15.716 34.8716 22.1142C33.0575 29.6932 32.6323 37.5444 33.216 44.038C33.3672 45.7201 33.758 46.5446 34.1362 47.3423C34.6198 48.3625 35.0847 49.3431 35.1001 51.7258V51.7643C35.1001 53.1141 34.6566 54.3185 33.9421 55.1898C33.204 56.0898 32.1761 56.6403 31.0371 56.6477H31.0156V56.6497C30.9335 56.6497 31.0824 56.649 30.9694 56.6474C29.8421 56.6323 28.8206 56.0815 28.086 55.1875C27.373 54.3198 26.9289 53.125 26.9289 51.79C26.9289 51.7191 26.9297 51.8341 26.9314 51.7093C26.9601 49.5831 27.4212 48.7085 27.8969 47.8063C28.3243 46.9958 28.7651 46.1603 28.8314 44.0977C29.0348 37.778 29.4425 30.385 31.2184 23.2475L31.2185 23.247Z" fill="#591144"/>
</svg>
