<svg width="226" height="227" viewBox="0 0 226 227" fill="none" xmlns="http://www.w3.org/2000/svg">
<path d="M100.505 105.655C100.755 105.125 101.125 104.725 101.615 104.455C102.115 104.185 102.73 104.05 103.46 104.05V105.085L103.205 105.07C102.375 105.07 101.725 105.325 101.255 105.835C100.785 106.345 100.55 107.06 100.55 107.98V112H99.485V104.11H100.505V105.655ZM112.616 104.11V112H111.596V110.56C111.316 111.04 110.931 111.415 110.441 111.685C109.951 111.945 109.391 112.075 108.761 112.075C107.731 112.075 106.916 111.79 106.316 111.22C105.726 110.64 105.431 109.795 105.431 108.685V104.11H106.496V108.58C106.496 109.41 106.701 110.04 107.111 110.47C107.521 110.9 108.106 111.115 108.866 111.115C109.696 111.115 110.351 110.865 110.831 110.365C111.311 109.855 111.551 109.15 111.551 108.25V104.11H112.616ZM122.903 104.11V111.04C122.903 112.38 122.573 113.37 121.913 114.01C121.263 114.66 120.278 114.985 118.958 114.985C118.228 114.985 117.533 114.875 116.873 114.655C116.223 114.445 115.693 114.15 115.283 113.77L115.823 112.96C116.203 113.3 116.663 113.565 117.203 113.755C117.753 113.945 118.328 114.04 118.928 114.04C119.928 114.04 120.663 113.805 121.133 113.335C121.603 112.875 121.838 112.155 121.838 111.175V110.17C121.508 110.67 121.073 111.05 120.533 111.31C120.003 111.57 119.413 111.7 118.763 111.7C118.023 111.7 117.348 111.54 116.738 111.22C116.138 110.89 115.663 110.435 115.313 109.855C114.973 109.265 114.803 108.6 114.803 107.86C114.803 107.12 114.973 106.46 115.313 105.88C115.663 105.3 116.138 104.85 116.738 104.53C117.338 104.21 118.013 104.05 118.763 104.05C119.433 104.05 120.038 104.185 120.578 104.455C121.118 104.725 121.553 105.115 121.883 105.625V104.11H122.903ZM118.868 110.755C119.438 110.755 119.953 110.635 120.413 110.395C120.873 110.145 121.228 109.8 121.478 109.36C121.738 108.92 121.868 108.42 121.868 107.86C121.868 107.3 121.738 106.805 121.478 106.375C121.228 105.935 120.873 105.595 120.413 105.355C119.963 105.105 119.448 104.98 118.868 104.98C118.298 104.98 117.783 105.1 117.323 105.34C116.873 105.58 116.518 105.92 116.258 106.36C116.008 106.8 115.883 107.3 115.883 107.86C115.883 108.42 116.008 108.92 116.258 109.36C116.518 109.8 116.873 110.145 117.323 110.395C117.783 110.635 118.298 110.755 118.868 110.755ZM101.6 130.075C100.96 130.075 100.345 129.985 99.755 129.805C99.175 129.615 98.72 129.38 98.39 129.1L98.87 128.26C99.2 128.52 99.615 128.735 100.115 128.905C100.615 129.065 101.135 129.145 101.675 129.145C102.395 129.145 102.925 129.035 103.265 128.815C103.615 128.585 103.79 128.265 103.79 127.855C103.79 127.565 103.695 127.34 103.505 127.18C103.315 127.01 103.075 126.885 102.785 126.805C102.495 126.715 102.11 126.63 101.63 126.55C100.99 126.43 100.475 126.31 100.085 126.19C99.695 126.06 99.36 125.845 99.08 125.545C98.81 125.245 98.675 124.83 98.675 124.3C98.675 123.64 98.95 123.1 99.5 122.68C100.05 122.26 100.815 122.05 101.795 122.05C102.305 122.05 102.815 122.12 103.325 122.26C103.835 122.39 104.255 122.565 104.585 122.785L104.12 123.64C103.47 123.19 102.695 122.965 101.795 122.965C101.115 122.965 100.6 123.085 100.25 123.325C99.91 123.565 99.74 123.88 99.74 124.27C99.74 124.57 99.835 124.81 100.025 124.99C100.225 125.17 100.47 125.305 100.76 125.395C101.05 125.475 101.45 125.56 101.96 125.65C102.59 125.77 103.095 125.89 103.475 126.01C103.855 126.13 104.18 126.335 104.45 126.625C104.72 126.915 104.855 127.315 104.855 127.825C104.855 128.515 104.565 129.065 103.985 129.475C103.415 129.875 102.62 130.075 101.6 130.075ZM110.094 130.075C109.314 130.075 108.614 129.905 107.994 129.565C107.384 129.225 106.904 128.75 106.554 128.14C106.204 127.52 106.029 126.825 106.029 126.055C106.029 125.285 106.204 124.595 106.554 123.985C106.904 123.375 107.384 122.9 107.994 122.56C108.614 122.22 109.314 122.05 110.094 122.05C110.774 122.05 111.379 122.185 111.909 122.455C112.449 122.715 112.874 123.1 113.184 123.61L112.389 124.15C112.129 123.76 111.799 123.47 111.399 123.28C110.999 123.08 110.564 122.98 110.094 122.98C109.524 122.98 109.009 123.11 108.549 123.37C108.099 123.62 107.744 123.98 107.484 124.45C107.234 124.92 107.109 125.455 107.109 126.055C107.109 126.665 107.234 127.205 107.484 127.675C107.744 128.135 108.099 128.495 108.549 128.755C109.009 129.005 109.524 129.13 110.094 129.13C110.564 129.13 110.999 129.035 111.399 128.845C111.799 128.655 112.129 128.365 112.389 127.975L113.184 128.515C112.874 129.025 112.449 129.415 111.909 129.685C111.369 129.945 110.764 130.075 110.094 130.075ZM119.179 122.05C120.169 122.05 120.954 122.34 121.534 122.92C122.124 123.49 122.419 124.325 122.419 125.425V130H121.354V125.53C121.354 124.71 121.149 124.085 120.739 123.655C120.329 123.225 119.744 123.01 118.984 123.01C118.134 123.01 117.459 123.265 116.959 123.775C116.469 124.275 116.224 124.97 116.224 125.86V130H115.159V118.87H116.224V123.49C116.514 123.03 116.914 122.675 117.424 122.425C117.934 122.175 118.519 122.05 119.179 122.05ZM128.564 130.075C127.804 130.075 127.119 129.905 126.509 129.565C125.899 129.215 125.419 128.735 125.069 128.125C124.719 127.515 124.544 126.825 124.544 126.055C124.544 125.285 124.719 124.595 125.069 123.985C125.419 123.375 125.899 122.9 126.509 122.56C127.119 122.22 127.804 122.05 128.564 122.05C129.324 122.05 130.009 122.22 130.619 122.56C131.229 122.9 131.704 123.375 132.044 123.985C132.394 124.595 132.569 125.285 132.569 126.055C132.569 126.825 132.394 127.515 132.044 128.125C131.704 128.735 131.229 129.215 130.619 129.565C130.009 129.905 129.324 130.075 128.564 130.075ZM128.564 129.13C129.124 129.13 129.624 129.005 130.064 128.755C130.514 128.495 130.864 128.13 131.114 127.66C131.364 127.19 131.489 126.655 131.489 126.055C131.489 125.455 131.364 124.92 131.114 124.45C130.864 123.98 130.514 123.62 130.064 123.37C129.624 123.11 129.124 122.98 128.564 122.98C128.004 122.98 127.499 123.11 127.049 123.37C126.609 123.62 126.259 123.98 125.999 124.45C125.749 124.92 125.624 125.455 125.624 126.055C125.624 126.655 125.749 127.19 125.999 127.66C126.259 128.13 126.609 128.495 127.049 128.755C127.499 129.005 128.004 129.13 128.564 129.13ZM141.854 122.11V130H140.834V128.56C140.554 129.04 140.169 129.415 139.679 129.685C139.189 129.945 138.629 130.075 137.999 130.075C136.969 130.075 136.154 129.79 135.554 129.22C134.964 128.64 134.669 127.795 134.669 126.685V122.11H135.734V126.58C135.734 127.41 135.939 128.04 136.349 128.47C136.759 128.9 137.344 129.115 138.104 129.115C138.934 129.115 139.589 128.865 140.069 128.365C140.549 127.855 140.789 127.15 140.789 126.25V122.11H141.854ZM152.037 118.87V130H151.017V128.44C150.697 128.97 150.272 129.375 149.742 129.655C149.222 129.935 148.632 130.075 147.972 130.075C147.232 130.075 146.562 129.905 145.962 129.565C145.362 129.225 144.892 128.75 144.552 128.14C144.212 127.53 144.042 126.835 144.042 126.055C144.042 125.275 144.212 124.58 144.552 123.97C144.892 123.36 145.362 122.89 145.962 122.56C146.562 122.22 147.232 122.05 147.972 122.05C148.612 122.05 149.187 122.185 149.697 122.455C150.217 122.715 150.642 123.1 150.972 123.61V118.87H152.037ZM148.062 129.13C148.612 129.13 149.107 129.005 149.547 128.755C149.997 128.495 150.347 128.13 150.597 127.66C150.857 127.19 150.987 126.655 150.987 126.055C150.987 125.455 150.857 124.92 150.597 124.45C150.347 123.98 149.997 123.62 149.547 123.37C149.107 123.11 148.612 122.98 148.062 122.98C147.502 122.98 146.997 123.11 146.547 123.37C146.107 123.62 145.757 123.98 145.497 124.45C145.247 124.92 145.122 125.455 145.122 126.055C145.122 126.655 145.247 127.19 145.497 127.66C145.757 128.13 146.107 128.495 146.547 128.755C146.997 129.005 147.502 129.13 148.062 129.13ZM161.873 126.385H155.273C155.333 127.205 155.648 127.87 156.218 128.38C156.788 128.88 157.508 129.13 158.378 129.13C158.868 129.13 159.318 129.045 159.728 128.875C160.138 128.695 160.493 128.435 160.793 128.095L161.393 128.785C161.043 129.205 160.603 129.525 160.073 129.745C159.553 129.965 158.978 130.075 158.348 130.075C157.538 130.075 156.818 129.905 156.188 129.565C155.568 129.215 155.083 128.735 154.733 128.125C154.383 127.515 154.208 126.825 154.208 126.055C154.208 125.285 154.373 124.595 154.703 123.985C155.043 123.375 155.503 122.9 156.083 122.56C156.673 122.22 157.333 122.05 158.063 122.05C158.793 122.05 159.448 122.22 160.028 122.56C160.608 122.9 161.063 123.375 161.393 123.985C161.723 124.585 161.888 125.275 161.888 126.055L161.873 126.385ZM158.063 122.965C157.303 122.965 156.663 123.21 156.143 123.7C155.633 124.18 155.343 124.81 155.273 125.59H160.868C160.798 124.81 160.503 124.18 159.983 123.7C159.473 123.21 158.833 122.965 158.063 122.965ZM165.075 123.655C165.325 123.125 165.695 122.725 166.185 122.455C166.685 122.185 167.3 122.05 168.03 122.05V123.085L167.775 123.07C166.945 123.07 166.295 123.325 165.825 123.835C165.355 124.345 165.12 125.06 165.12 125.98V130H164.055V122.11H165.075V123.655ZM172.132 130.075C171.492 130.075 170.877 129.985 170.287 129.805C169.707 129.615 169.252 129.38 168.922 129.1L169.402 128.26C169.732 128.52 170.147 128.735 170.647 128.905C171.147 129.065 171.667 129.145 172.207 129.145C172.927 129.145 173.457 129.035 173.797 128.815C174.147 128.585 174.322 128.265 174.322 127.855C174.322 127.565 174.227 127.34 174.037 127.18C173.847 127.01 173.607 126.885 173.317 126.805C173.027 126.715 172.642 126.63 172.162 126.55C171.522 126.43 171.007 126.31 170.617 126.19C170.227 126.06 169.892 125.845 169.612 125.545C169.342 125.245 169.207 124.83 169.207 124.3C169.207 123.64 169.482 123.1 170.032 122.68C170.582 122.26 171.347 122.05 172.327 122.05C172.837 122.05 173.347 122.12 173.857 122.26C174.367 122.39 174.787 122.565 175.117 122.785L174.652 123.64C174.002 123.19 173.227 122.965 172.327 122.965C171.647 122.965 171.132 123.085 170.782 123.325C170.442 123.565 170.272 123.88 170.272 124.27C170.272 124.57 170.367 124.81 170.557 124.99C170.757 125.17 171.002 125.305 171.292 125.395C171.582 125.475 171.982 125.56 172.492 125.65C173.122 125.77 173.627 125.89 174.007 126.01C174.387 126.13 174.712 126.335 174.982 126.625C175.252 126.915 175.387 127.315 175.387 127.825C175.387 128.515 175.097 129.065 174.517 129.475C173.947 129.875 173.152 130.075 172.132 130.075ZM177.476 128.44C177.706 128.44 177.896 128.52 178.046 128.68C178.196 128.83 178.271 129.02 178.271 129.25C178.271 129.37 178.251 129.5 178.211 129.64C178.181 129.78 178.131 129.94 178.061 130.12L177.431 132.19H176.711L177.221 130.015C177.061 129.965 176.931 129.875 176.831 129.745C176.731 129.605 176.681 129.44 176.681 129.25C176.681 129.02 176.756 128.83 176.906 128.68C177.056 128.52 177.246 128.44 177.476 128.44ZM102.71 148.075C101.95 148.075 101.265 147.905 100.655 147.565C100.045 147.215 99.565 146.735 99.215 146.125C98.865 145.515 98.69 144.825 98.69 144.055C98.69 143.285 98.865 142.595 99.215 141.985C99.565 141.375 100.045 140.9 100.655 140.56C101.265 140.22 101.95 140.05 102.71 140.05C103.47 140.05 104.155 140.22 104.765 140.56C105.375 140.9 105.85 141.375 106.19 141.985C106.54 142.595 106.715 143.285 106.715 144.055C106.715 144.825 106.54 145.515 106.19 146.125C105.85 146.735 105.375 147.215 104.765 147.565C104.155 147.905 103.47 148.075 102.71 148.075ZM102.71 147.13C103.27 147.13 103.77 147.005 104.21 146.755C104.66 146.495 105.01 146.13 105.26 145.66C105.51 145.19 105.635 144.655 105.635 144.055C105.635 143.455 105.51 142.92 105.26 142.45C105.01 141.98 104.66 141.62 104.21 141.37C103.77 141.11 103.27 140.98 102.71 140.98C102.15 140.98 101.645 141.11 101.195 141.37C100.755 141.62 100.405 141.98 100.145 142.45C99.895 142.92 99.77 143.455 99.77 144.055C99.77 144.655 99.895 145.19 100.145 145.66C100.405 146.13 100.755 146.495 101.195 146.755C101.645 147.005 102.15 147.13 102.71 147.13ZM111.814 144.04L109.954 145.75V148H108.889V136.87H109.954V144.415L114.664 140.11H115.984L112.609 143.335L116.299 148H114.994L111.814 144.04ZM119.779 148.075C119.139 148.075 118.524 147.985 117.934 147.805C117.354 147.615 116.899 147.38 116.569 147.1L117.049 146.26C117.379 146.52 117.794 146.735 118.294 146.905C118.794 147.065 119.314 147.145 119.854 147.145C120.574 147.145 121.104 147.035 121.444 146.815C121.794 146.585 121.969 146.265 121.969 145.855C121.969 145.565 121.874 145.34 121.684 145.18C121.494 145.01 121.254 144.885 120.964 144.805C120.674 144.715 120.289 144.63 119.809 144.55C119.169 144.43 118.654 144.31 118.264 144.19C117.874 144.06 117.539 143.845 117.259 143.545C116.989 143.245 116.854 142.83 116.854 142.3C116.854 141.64 117.129 141.1 117.679 140.68C118.229 140.26 118.994 140.05 119.974 140.05C120.484 140.05 120.994 140.12 121.504 140.26C122.014 140.39 122.434 140.565 122.764 140.785L122.299 141.64C121.649 141.19 120.874 140.965 119.974 140.965C119.294 140.965 118.779 141.085 118.429 141.325C118.089 141.565 117.919 141.88 117.919 142.27C117.919 142.57 118.014 142.81 118.204 142.99C118.404 143.17 118.649 143.305 118.939 143.395C119.229 143.475 119.629 143.56 120.139 143.65C120.769 143.77 121.274 143.89 121.654 144.01C122.034 144.13 122.359 144.335 122.629 144.625C122.899 144.915 123.034 145.315 123.034 145.825C123.034 146.515 122.744 147.065 122.164 147.475C121.594 147.875 120.799 148.075 119.779 148.075ZM131.873 144.385H125.273C125.333 145.205 125.648 145.87 126.218 146.38C126.788 146.88 127.508 147.13 128.378 147.13C128.868 147.13 129.318 147.045 129.728 146.875C130.138 146.695 130.493 146.435 130.793 146.095L131.393 146.785C131.043 147.205 130.603 147.525 130.073 147.745C129.553 147.965 128.978 148.075 128.348 148.075C127.538 148.075 126.818 147.905 126.188 147.565C125.568 147.215 125.083 146.735 124.733 146.125C124.383 145.515 124.208 144.825 124.208 144.055C124.208 143.285 124.373 142.595 124.703 141.985C125.043 141.375 125.503 140.9 126.083 140.56C126.673 140.22 127.333 140.05 128.063 140.05C128.793 140.05 129.448 140.22 130.028 140.56C130.608 140.9 131.063 141.375 131.393 141.985C131.723 142.585 131.888 143.275 131.888 144.055L131.873 144.385ZM128.063 140.965C127.303 140.965 126.663 141.21 126.143 141.7C125.633 142.18 125.343 142.81 125.273 143.59H130.868C130.798 142.81 130.503 142.18 129.983 141.7C129.473 141.21 128.833 140.965 128.063 140.965ZM134.055 136.87H135.12V148H134.055V136.87ZM140.199 148.075C139.559 148.075 138.944 147.985 138.354 147.805C137.774 147.615 137.319 147.38 136.989 147.1L137.469 146.26C137.799 146.52 138.214 146.735 138.714 146.905C139.214 147.065 139.734 147.145 140.274 147.145C140.994 147.145 141.524 147.035 141.864 146.815C142.214 146.585 142.389 146.265 142.389 145.855C142.389 145.565 142.294 145.34 142.104 145.18C141.914 145.01 141.674 144.885 141.384 144.805C141.094 144.715 140.709 144.63 140.229 144.55C139.589 144.43 139.074 144.31 138.684 144.19C138.294 144.06 137.959 143.845 137.679 143.545C137.409 143.245 137.274 142.83 137.274 142.3C137.274 141.64 137.549 141.1 138.099 140.68C138.649 140.26 139.414 140.05 140.394 140.05C140.904 140.05 141.414 140.12 141.924 140.26C142.434 140.39 142.854 140.565 143.184 140.785L142.719 141.64C142.069 141.19 141.294 140.965 140.394 140.965C139.714 140.965 139.199 141.085 138.849 141.325C138.509 141.565 138.339 141.88 138.339 142.27C138.339 142.57 138.434 142.81 138.624 142.99C138.824 143.17 139.069 143.305 139.359 143.395C139.649 143.475 140.049 143.56 140.559 143.65C141.189 143.77 141.694 143.89 142.074 144.01C142.454 144.13 142.779 144.335 143.049 144.625C143.319 144.915 143.454 145.315 143.454 145.825C143.454 146.515 143.164 147.065 142.584 147.475C142.014 147.875 141.219 148.075 140.199 148.075ZM103.505 158.05C104.495 158.05 105.28 158.34 105.86 158.92C106.45 159.49 106.745 160.325 106.745 161.425V166H105.68V161.53C105.68 160.71 105.475 160.085 105.065 159.655C104.655 159.225 104.07 159.01 103.31 159.01C102.46 159.01 101.785 159.265 101.285 159.775C100.795 160.275 100.55 160.97 100.55 161.86V166H99.485V158.11H100.505V159.565C100.795 159.085 101.195 158.715 101.705 158.455C102.225 158.185 102.825 158.05 103.505 158.05ZM116.536 162.385H109.936C109.996 163.205 110.311 163.87 110.881 164.38C111.451 164.88 112.171 165.13 113.041 165.13C113.531 165.13 113.981 165.045 114.391 164.875C114.801 164.695 115.156 164.435 115.456 164.095L116.056 164.785C115.706 165.205 115.266 165.525 114.736 165.745C114.216 165.965 113.641 166.075 113.011 166.075C112.201 166.075 111.481 165.905 110.851 165.565C110.231 165.215 109.746 164.735 109.396 164.125C109.046 163.515 108.871 162.825 108.871 162.055C108.871 161.285 109.036 160.595 109.366 159.985C109.706 159.375 110.166 158.9 110.746 158.56C111.336 158.22 111.996 158.05 112.726 158.05C113.456 158.05 114.111 158.22 114.691 158.56C115.271 158.9 115.726 159.375 116.056 159.985C116.386 160.585 116.551 161.275 116.551 162.055L116.536 162.385ZM112.726 158.965C111.966 158.965 111.326 159.21 110.806 159.7C110.296 160.18 110.006 160.81 109.936 161.59H115.531C115.461 160.81 115.166 160.18 114.646 159.7C114.136 159.21 113.496 158.965 112.726 158.965ZM121.643 162.04L119.783 163.75V166H118.718V154.87H119.783V162.415L124.493 158.11H125.813L122.438 161.335L126.128 166H124.823L121.643 162.04Z" fill="#D256AD"/>
<path d="M84.5 208H225V1H39V21" stroke="#D256AD"/>
<path d="M86.5244 221.09C84.7599 215.896 79.2381 210.454 77.4113 208.668L77.3283 208.584C76.4149 207.691 76.3526 207.172 76.3111 206.819C76.2903 206.57 76.2488 206.279 75.8752 206.092C75.6468 205.967 75.1901 205.967 74.6712 206.029L74.7957 205.635C75.7091 205.302 76.4149 204.97 76.5187 204.742C76.8093 204.16 77.3906 200.172 77.3906 199.341C77.3906 198.987 77.2245 198.53 77.0169 197.928C76.6225 196.827 76.1035 195.331 76.2073 193.607C76.3526 191.364 76.2696 186.275 76.2281 184.114C76.2281 183.657 76.2073 183.346 76.2073 183.242C76.2073 182.972 75.9582 182.473 75.46 181.455C74.7334 179.98 73.7578 177.965 73.654 176.615C73.4879 174.393 71.931 166.104 71.5573 164.733C71.3913 164.11 71.329 163.092 71.246 161.887C71.1629 160.475 71.0384 158.709 70.7062 156.985C70.1665 154.118 68.7757 144.521 68.5473 142.839C69.2116 142.818 70.208 142.756 71.1629 141.862C72.3047 140.803 72.4707 140.159 72.5953 139.681C72.616 139.598 72.6368 139.515 72.6576 139.432C72.6991 139.328 72.8651 139.183 73.052 139.017C73.4671 138.643 74.0276 138.144 74.2145 137.23C74.4636 135.942 74.4636 130.666 74.2145 127.986C74.0484 126.304 74.2767 124.102 74.4636 122.191C74.5674 121.11 74.6712 120.113 74.6919 119.303C74.7127 118.763 74.858 117.309 75.0863 115.273C75.7506 109.166 76.9961 97.8034 76.145 93.7112C76.3319 92.7349 75.9374 86.3992 75.8336 85.4852C75.7714 84.9035 75.6261 84.5712 75.5223 84.2804C75.4185 84.0103 75.3354 83.8026 75.3354 83.4702C75.3354 83.0132 75.1694 82.764 75.0448 82.5562C74.9203 82.39 74.8372 82.2446 74.8372 81.933C74.8372 81.0814 74.1314 79.2326 73.82 78.5055C73.737 78.3186 73.4256 77.1969 73.0312 75.7635C71.9518 71.8583 69.9174 64.567 68.319 61.098C66.3676 56.8811 62.9425 56.2787 60.9081 55.9256C60.576 55.8632 60.2853 55.8217 60.0155 55.7594C58.2925 55.3647 53.3312 54.2637 52.4178 54.0768C52.2932 53.599 52.1064 53.2874 51.878 53.142C50.7363 52.4981 47.8716 49.7353 47.5602 49.4445C47.3111 48.2189 47.062 46.8894 46.8544 45.8508C46.7299 45.1861 46.6468 44.7498 46.6053 44.5213C47.1035 44.1474 48.5566 42.8387 48.4321 40.2421C48.3283 37.8948 47.1658 36.6277 46.3562 36.6277C46.2939 36.6277 46.2524 36.6692 46.2109 36.6692C46.1279 35.963 45.941 34.4673 45.4843 33.6572C44.9031 32.6185 41.7478 28.1732 38.8415 26.4906C35.8315 24.7457 29.2925 28.1524 28.1923 28.9833C26.9675 29.9389 26.1787 32.9301 26.1787 36.6485C26.1787 40.2629 27.3204 42.8387 27.611 43.4411C27.5072 43.6073 27.4657 43.8358 27.528 44.1266C27.7148 45.4976 28.0677 46.2455 29.0226 47.3672C29.8945 48.4058 30.3097 48.9044 30.7871 49.6522L30.8909 49.8184C31.3269 50.5039 32.178 51.8749 33.2159 53.0797C32.7385 52.8512 32.1987 52.5812 31.7835 52.3319L31.7005 52.2903C30.6003 51.6464 30.2266 51.5425 28.5452 53.0589C27.8601 53.6821 26.5939 54.3053 25.2445 54.9492C23.4593 55.8217 21.6118 56.7149 20.7814 57.8159C19.4113 59.6231 7.57883 69.2201 6.70696 69.8641C6.52013 69.9887 6.37482 70.0926 6.25027 70.1964C6.20875 70.2172 6.20875 70.238 6.18799 70.2588C6.04268 70.1964 5.83509 70.1133 5.56523 70.1757C5.21233 70.238 4.88019 70.4665 4.61032 70.8819C3.92528 71.8998 0.977538 77.9447 0.852986 78.2355C0.790709 78.4224 -0.828475 83.0132 0.562363 84.6543C1.45499 85.6929 2.76279 87.2093 5.83509 87.2093C6.97682 87.2093 8.3469 87.0016 10.0491 86.4615C16.0899 84.5712 22.6497 79.3364 23.1687 78.5055C23.5008 77.9862 24.5803 77.5084 25.1823 77.2799C25.3276 77.8408 25.5559 78.6509 25.8258 79.648C26.6561 82.5978 27.9017 87.0847 28.1508 88.6011C28.5037 90.7407 27.8394 99.3406 27.4242 100.836C27.2581 101.397 27.009 102.81 26.6561 104.617C26.0334 107.982 25.1615 112.573 24.4972 114.235C23.8329 115.876 24.1028 116.914 24.3934 118.098C24.5803 118.825 24.7671 119.636 24.7878 120.695C24.7878 121.048 24.9747 121.401 25.2861 121.713C25.1823 122.606 24.4142 129.233 25.3068 133.47C26.3655 138.435 26.407 140.554 26.241 141.447C26.0334 142.714 29.9568 154.347 31.6175 158.979C32.6969 161.991 33.984 164.442 34.8143 166.063C35.3956 167.164 35.8315 168.015 35.8315 168.327C35.8315 168.597 35.8107 168.805 35.79 168.992C35.7485 169.407 35.707 169.823 35.8315 170.799C35.8938 171.297 36.0599 172.419 36.2882 173.852C36.7241 176.719 37.3054 180.624 37.5337 182.93C37.8243 185.88 40.2531 195.207 41.9969 197.346C41.9553 197.741 41.8308 198.344 41.6232 198.572L41.3741 198.863C38.717 201.792 36.9525 203.661 36.1429 204.43C34.7105 205.759 33.548 209.769 33.8387 210.953L33.8802 211.16C34.0463 211.929 34.4199 213.549 35.707 214.214C36.1014 214.401 36.5373 214.505 37.0148 214.505C37.679 214.505 38.4264 214.318 39.2775 213.965C43.9067 211.97 46.3562 208.481 46.7921 207.795C47.4979 206.715 49.906 203.495 50.7571 202.747C51.0062 202.54 51.3383 202.311 51.6912 202.083C52.5631 201.522 53.518 200.899 53.7256 199.964C53.9539 198.842 53.7878 197.741 53.7463 197.492C53.8086 197.409 53.8916 197.326 53.8916 197.222C53.9539 196.432 53.9747 192.673 52.916 189.847C52.7707 189.453 52.6461 189.12 52.5216 188.83C51.8158 187.002 51.5667 186.316 50.9024 182.12C50.6948 180.77 50.4457 179.025 50.1758 177.072C49.4493 171.858 48.5359 165.398 47.664 161.991C46.7091 158.252 46.5638 146.765 46.6676 142.901C47.9546 147.263 52.3555 161.472 55.9052 169.116C58.853 175.431 59.6003 181.372 60.0985 185.298C60.2853 186.773 60.4306 187.916 60.6382 188.684C61.4271 191.447 62.2367 196.474 62.2367 197.575V204.638C62.2367 205.24 62.465 205.759 62.9217 206.175C63.2954 206.507 63.7936 206.736 64.3541 206.902C64.188 207.754 63.7728 210.599 64.8107 211.513C65.0391 211.721 65.3297 211.95 65.6411 212.178C66.8036 213.092 68.3812 214.339 69.3984 216.208C70.7477 218.659 78.0964 226.013 81.1271 226.013C81.397 226.013 81.6876 226.013 81.9782 226.034C82.2689 226.034 82.5802 226.054 82.8709 226.054C84.3032 226.054 85.7563 225.909 86.4621 224.933C87.1264 224.102 87.1264 222.855 86.5244 221.09ZM74.0899 206.113C73.0105 206.32 71.8064 206.777 71.4743 207.276C71.3498 207.463 71.2252 207.67 71.1214 207.837C70.81 208.356 70.6647 208.564 70.4779 208.501C69.8136 208.335 68.402 207.65 68.0284 207.234C68.402 207.214 68.7757 207.193 69.0871 207.172C69.7928 207.11 72.2839 206.486 74.1937 205.842L74.0899 206.113ZM74.6089 115.19C74.3805 117.226 74.2145 118.701 74.2145 119.262C74.1937 120.051 74.0899 121.048 73.9861 122.108C73.7785 124.06 73.5709 126.262 73.737 128.007C73.9861 130.666 73.9861 135.838 73.737 137.105C73.5917 137.833 73.1143 138.269 72.7406 138.601C72.5122 138.809 72.3047 138.996 72.2216 139.224C72.1801 139.307 72.1593 139.411 72.1386 139.515C72.0348 139.931 71.8687 140.491 70.8515 141.468C70.042 142.236 69.2116 142.257 68.5681 142.299C68.4643 142.299 68.3813 142.319 68.2775 142.319C68.0699 142.34 67.8623 142.361 67.6962 142.444C67.3226 142.652 66.1601 142.673 65.7656 142.589C65.9317 142.299 66.4299 141.675 66.7828 141.218C67.198 140.678 67.5924 140.18 67.7585 139.91C68.1114 139.266 68.402 134.966 67.9246 134.093C67.8 133.865 67.6132 133.886 67.5509 133.886C67.198 133.948 67.0527 134.467 66.679 138.061C66.596 138.83 66.513 139.619 66.4714 139.764C66.3884 140.055 65.8072 140.242 65.0599 140.284C64.9976 140.18 65.0599 139.723 65.1221 139.307C65.2052 138.601 65.3505 137.646 65.2882 136.482C65.1636 134.135 66.2016 130.25 66.9697 128.796C67.6962 127.405 68.9417 124.808 69.2946 123.728C69.6683 122.627 69.5645 110.163 69.3154 106.819C69.0871 103.828 68.2152 97.8242 68.0076 96.4532C68.0076 96.4532 68.0076 96.4532 68.0284 96.4532C68.2359 96.4532 68.485 96.4324 68.7549 96.3909C70.6647 96.1416 74.5258 94.8952 75.7921 94.1059C76.4357 98.4474 75.2524 109.291 74.6089 115.19ZM63.6898 110.392C63.669 107.857 63.6275 105.489 63.669 104.347C63.7313 101.522 63.4822 94.0228 63.2123 92.5895C63.0462 91.6962 63.5445 90.5122 63.8558 89.8475C64.7277 92.0494 66.6168 95.6431 66.9281 96.1624C67.0112 96.3078 67.198 96.3909 67.4264 96.4532C67.5717 97.4503 68.5266 103.828 68.7549 106.923C69.0248 110.412 69.0663 122.689 68.7757 123.624C68.4435 124.642 67.2188 127.218 66.4714 128.609C66.2223 129.087 65.9525 129.814 65.7034 130.624C65.1636 128.007 63.5237 122.731 63.1916 121.692C63.3576 121.401 63.4199 120.882 63.5029 119.989C63.5445 119.532 63.586 119.054 63.6483 118.638C63.7728 117.932 63.7313 114.089 63.6898 110.392ZM31.2023 49.3821C30.7041 48.5928 30.2889 48.0942 29.3963 47.0348C28.5037 45.9962 28.1923 45.3107 28.0262 44.0436C27.9847 43.732 28.047 43.6489 28.0885 43.6489C28.2753 43.6489 28.6282 43.8566 28.815 44.0228C28.8981 44.0851 29.0226 44.1059 29.1264 44.0228C29.2095 43.9605 29.251 43.8358 29.2095 43.7112C27.9639 40.4083 28.3791 36.8354 28.3791 36.7731C28.4206 36.5446 29.7284 36.2122 30.7664 35.9422C31.3061 35.7968 31.9081 35.6514 32.5516 35.4644C34.586 34.9035 35.6447 33.9688 36.7449 32.9717C37.077 32.6809 37.4092 32.39 37.7621 32.0992C37.9489 31.9538 38.115 31.8915 38.281 31.8915C39.1529 31.8915 39.921 33.6572 40.1493 34.3427C40.1701 34.405 40.2116 34.4673 40.2739 34.4881C44.218 36.3369 45.0069 40.533 45.0484 40.6576C45.0484 40.7407 45.0484 40.7822 45.0692 40.8238C45.1314 41.0107 45.4013 41.0523 45.5259 40.9069C45.6089 40.803 45.5881 40.6991 45.5674 40.6368C45.5466 40.1798 45.775 38.2895 46.0656 37.3547C46.0863 37.2924 46.1071 37.2924 46.1279 37.2509V37.2301C46.1901 37.147 46.2732 37.1262 46.2939 37.1262C46.8129 37.1262 47.7678 38.1649 47.8508 40.2421C47.9754 42.9634 46.1901 44.1266 46.1071 44.1682C46.0033 44.2305 45.9618 44.3551 46.0033 44.459C46.0241 44.5629 46.1486 45.1861 46.2939 45.9131C46.543 47.1802 46.8544 48.9251 47.1658 50.3377C47.664 52.6227 47.664 56.798 47.4564 57.8782C47.2488 58.8753 44.6125 61.2849 42.3498 62.8013C40.6268 63.9646 40.1493 66.1873 39.9417 67.2675C39.921 67.3298 39.921 67.4129 39.9002 67.4752C39.2775 66.8313 37.679 65.0033 36.8487 64.0477C36.2467 63.3622 35.9353 63.0091 35.8523 62.926C35.8523 62.8637 35.9768 62.7183 36.0806 62.6144L36.2052 62.469C36.6203 61.9704 36.911 57.7743 36.5996 56.8396C36.5373 56.6526 36.4958 56.4657 36.4543 56.3202C36.309 55.6763 36.1844 55.1362 34.7936 53.9729C33.2367 52.685 31.8043 50.3792 31.2853 49.5276L31.2023 49.3821ZM6.99758 70.3003C7.86945 69.6563 19.7227 60.0593 21.1758 58.1482C21.9231 57.1512 23.7291 56.2787 25.4521 55.4478C26.8222 54.7831 28.13 54.1599 28.8773 53.4744C30.3512 52.1449 30.4965 52.228 31.4306 52.7681L31.5137 52.8097C32.5309 53.3913 34.0463 54.056 34.2123 54.1391C34.3161 54.243 34.4199 54.3468 34.5237 54.4299C35.79 55.4686 35.873 55.9048 36.0183 56.4864C36.0599 56.6734 36.1014 56.8603 36.1637 57.0681C36.4543 57.9405 36.1014 61.8042 35.8523 62.1989L35.7485 62.3236C35.707 62.3651 35.6654 62.4274 35.6032 62.4897C35.3333 62.2405 34.8558 61.7419 34.5445 60.8695C34.1085 59.7062 33.0706 58.5429 32.3025 58.356C31.9496 58.2729 31.7213 58.3975 31.576 58.5222C30.1021 59.8932 28.0055 61.5134 27.009 61.5134C26.5731 61.5134 26.1994 61.4927 25.8881 61.4719C25.1615 61.4303 24.6633 61.4096 24.2481 61.6796C23.6876 62.0535 19.0169 67.496 17.4185 70.1341C16.9825 70.8612 16.6296 71.4636 16.3805 71.9414C15.6747 73.2085 15.4464 73.5616 14.9897 73.5616C14.8029 73.5616 14.4707 73.6239 13.9518 73.7278C12.0627 74.1017 8.13931 74.8703 6.72772 72.793C6.70696 72.7723 6.6862 72.7515 6.66544 72.7307C6.45785 72.5645 5.89737 72.0037 5.95964 71.5051C6.02192 70.9858 6.04268 70.9858 6.56165 70.6119C6.66544 70.5288 6.81075 70.4249 6.99758 70.3003ZM24.9539 114.422C25.639 112.718 26.5108 108.086 27.1336 104.7C27.4657 102.976 27.7356 101.501 27.8809 100.961C28.3168 99.3614 28.9811 90.7199 28.6282 88.4972C28.3791 86.9393 27.1751 82.6185 26.3032 79.4819C25.9919 78.3394 25.722 77.3838 25.5767 76.8437C25.5767 76.8437 25.5767 76.8437 25.5767 76.8229C25.0577 74.8703 24.5595 74.0186 24.5387 73.9771C24.4557 73.8524 24.3104 73.8109 24.1858 73.894C24.0613 73.9563 24.0198 74.1225 24.1028 74.2471C24.1028 74.2471 24.5595 75.0573 25.0162 76.7606C24.4765 76.9684 23.1479 77.5084 22.6912 78.2147C22.2138 78.9833 15.654 84.135 9.86229 85.963C3.9668 87.8117 2.14003 85.7137 0.936021 84.3011C-0.0604001 83.1379 0.873744 79.648 1.30968 78.4224C1.33044 78.3601 4.36122 72.1491 5.0255 71.152C5.21233 70.8612 5.41991 70.695 5.6275 70.6534C5.64826 70.6534 5.64826 70.6534 5.66902 70.6534C5.52371 70.8404 5.46143 71.0481 5.39916 71.4428C5.29536 72.2529 6.0842 72.9592 6.25027 73.1254C7.10137 74.351 8.65828 74.7041 10.2359 74.7041C11.6268 74.7041 13.0384 74.4341 13.9725 74.2471C14.3877 74.164 14.7614 74.1017 14.9067 74.1017C15.2803 74.1017 15.5502 73.9563 15.7993 73.6863C15.9446 73.9771 16.0899 74.3718 15.8201 74.6834C15.6125 74.9326 15.1558 75.722 14.5745 76.6983C13.848 77.9447 12.5194 80.2712 12.1458 80.4166C11.3984 80.7282 10.4643 82.4108 10.3605 82.5978C10.2982 82.7224 10.3397 82.8886 10.4643 82.9509C10.5058 82.9717 10.5473 82.9925 10.5888 82.9925C10.6719 82.9925 10.7757 82.9509 10.8172 82.847C11.1701 82.1823 11.9174 81.0814 12.3741 80.8944C12.8723 80.6867 13.7649 79.191 15.0727 76.9476C15.5917 76.0544 16.0692 75.2234 16.256 75.0157C16.7957 74.3925 16.3805 73.5616 16.1937 73.2293C16.3805 72.9592 16.5674 72.6269 16.7957 72.2114C17.0656 71.7336 17.3977 71.1312 17.8337 70.4249C19.4736 67.7037 24.1028 62.4067 24.518 62.1366C24.7878 61.9497 25.203 61.9704 25.8465 62.012C26.1787 62.0327 26.5523 62.0535 27.009 62.0535C28.0677 62.0535 29.7284 60.8279 30.8909 59.8516C30.6833 61.0149 30.3927 63.1753 31.0777 64.1931L31.1608 64.3178C31.9496 65.4603 32.2818 65.938 32.6554 65.9796C32.7385 66.0003 32.8838 65.9796 33.0083 65.8549C33.1951 65.668 33.1744 65.2941 33.0498 63.9438C33.0291 63.653 32.9876 63.2791 32.9668 62.9883C33.6934 63.84 35.2503 65.8549 35.4371 66.6235C35.4579 66.7482 35.5616 66.8105 35.6862 66.8105C35.707 66.8105 35.7277 66.8105 35.7485 66.8105C35.8938 66.7689 35.9768 66.6443 35.9353 66.4989C35.6654 65.3979 33.382 62.6144 32.9876 62.2613C32.8215 62.1158 32.6762 62.1782 32.6347 62.1989C32.3856 62.3236 32.3856 62.6144 32.5309 63.9854C32.5724 64.4839 32.6554 65.1902 32.6554 65.4187C32.4478 65.2525 32.0327 64.6501 31.5967 64.0269L31.5137 63.9023C30.8494 62.9468 31.2853 60.3294 31.5344 59.3115C31.7005 59.1661 31.8458 59.0415 31.9496 58.9376C31.9704 58.9168 32.0327 58.8545 32.1987 58.8961C32.7385 59.0207 33.6726 59.997 34.0878 61.0772C34.5237 62.2197 35.1672 62.8221 35.4371 63.0298C35.4371 63.1337 35.4786 63.2376 35.5824 63.3622C35.6447 63.4245 36.0599 63.9023 36.5581 64.4632C39.2982 67.5791 39.838 68.1399 39.9833 68.223C40.0248 68.2438 40.0663 68.2646 40.1078 68.2646C40.3777 68.2646 40.44 68.0361 40.5645 67.4544C40.7721 66.4573 41.208 64.3593 42.7649 63.3207C44.7578 61.9704 47.8301 59.3738 48.0792 58.0652C48.3075 56.9434 48.3075 52.8097 47.8093 50.4C48.8057 51.3348 50.7363 53.1212 51.6704 53.6613C51.712 53.6821 51.8573 53.8067 51.9818 54.3053C52.48 56.3618 51.9196 61.9704 51.2553 63.2583C50.508 62.9468 48.0999 62.012 47.1035 62.282C46.0656 62.5728 45.2767 63.0714 44.5709 63.8815C44.4672 63.9854 44.4879 64.1516 44.5917 64.2554C44.6332 64.297 44.6955 64.3178 44.7578 64.3178C44.8201 64.3178 44.9031 64.297 44.9446 64.2347C45.5881 63.4868 46.2939 63.0506 47.2281 62.7806C48.0169 62.5521 50.3834 63.4453 51.2345 63.8192C51.3383 63.8608 51.4629 63.84 51.5251 63.7569C51.5459 63.7153 51.5874 63.6946 51.6082 63.653C52.3347 62.5313 52.9367 57.2758 52.5423 54.7C53.8294 54.9908 58.3133 55.9671 59.9324 56.341C60.2023 56.4033 60.5137 56.4657 60.8458 56.5072C62.9009 56.8603 66.0355 57.4212 67.883 61.3888C69.4607 64.8163 71.4951 72.066 72.5745 75.9713C73.052 77.7162 73.3011 78.5679 73.4049 78.7756C73.737 79.5234 74.3805 81.2683 74.3805 81.9746C74.3805 82.4316 74.5466 82.6809 74.6712 82.8886C74.7957 83.0548 74.8787 83.2002 74.8787 83.5118C74.8787 83.948 74.9825 84.218 75.1071 84.5089C75.2109 84.7789 75.3354 85.0697 75.3977 85.589C75.5638 86.9393 75.8752 93.1711 75.7506 93.6489C75.4185 94.0643 70.2288 96.0377 68.0491 96.0377C67.9868 96.0377 67.9246 96.0377 67.883 96.0377C67.5094 96.017 67.4264 95.9339 67.4264 95.9131C66.8036 94.9576 64.873 90.9692 64.188 89.2243C64.188 89.2035 64.1672 89.1827 64.1672 89.1827C64.0219 88.8088 63.9389 88.5595 63.9596 88.4557C63.9804 88.3726 64.0012 88.3518 64.2295 88.3518C64.3748 88.3518 64.5409 88.3518 64.6654 88.2272C64.7277 88.1649 64.79 88.0818 64.79 87.9156C64.79 87.5832 64.3748 85.5891 63.9389 83.5741L63.8143 83.034C63.752 82.7432 63.6483 82.307 63.5237 81.8084C63.1708 80.3335 62.4858 77.6123 62.6726 76.9891C62.9217 76.0959 63.3161 74.6003 63.3161 74.6003L62.8179 74.4756C62.8179 74.4756 62.4442 75.9713 62.1744 76.8645C61.9668 77.55 62.465 79.6688 63.0255 81.9538C63.15 82.4524 63.2538 82.8886 63.3161 83.1586L63.4407 83.7195C63.6898 84.9035 64.2087 87.3132 64.271 87.8741C64.2503 87.8741 64.2503 87.8741 64.2295 87.8741C64.0427 87.8741 63.6275 87.8741 63.4614 88.3103C63.3992 88.4557 63.4822 88.8088 63.669 89.2866C63.4407 89.7021 62.5273 91.447 62.7556 92.7764C63.0047 94.1474 63.2746 101.688 63.1916 104.43C63.1708 105.572 63.1916 107.961 63.2123 110.496C63.2538 114.006 63.2954 117.995 63.1916 118.638C63.1293 119.075 63.067 119.552 63.0255 120.03C62.984 120.57 62.9009 121.422 62.7971 121.547C62.6726 121.651 48.4944 131.227 40.2531 128.36C40.3154 127.488 40.4815 124.517 39.3397 123.873C38.883 123.624 38.5924 123.707 38.4264 123.811C38.0527 124.06 37.9904 124.621 37.9904 125.016C33.0083 124.351 25.4106 122.668 25.3691 120.799C25.3483 119.677 25.1407 118.825 24.9539 118.078C24.601 116.81 24.3727 115.896 24.9539 114.422Z" fill="#D256AD"/>
</svg>
