<svg width="19" height="17" viewBox="0 0 19 17" fill="none" xmlns="http://www.w3.org/2000/svg">
<path fill-rule="evenodd" clip-rule="evenodd" d="M4.88564 0.292879L6.82239 3.05623C7.13228 3.55222 7.20975 4.11906 6.82239 4.54419L5.19552 6.03215C6.99328 8.39675 9.25175 10.4384 11.858 12.0548L13.4074 10.6377C13.8722 10.2126 14.492 10.2835 15.0342 10.6377L18.0556 12.3383C18.5979 12.6217 18.5204 13.4011 18.0556 13.8262C17.2809 14.4639 16.5836 15.1725 15.8089 15.8102C12.4777 18.8569 -2.24163 5.39445 1.08959 2.34768C1.8643 1.70998 2.56153 1.00143 3.33623 0.292879C3.72358 -0.0613969 4.57576 -0.132252 4.88564 0.292879Z" fill="#C6437D"/>
</svg>
