<svg width="960" height="98" viewBox="0 0 960 98" fill="none" xmlns="http://www.w3.org/2000/svg">
<g clip-path="url(#clip0)">
<path d="M480 4.73684C484.997 4.73684 489.881 6.2185 494.035 8.99445C498.19 11.7704 501.428 15.716 503.34 20.3322C505.252 24.9484 505.753 30.028 504.778 34.9286C503.803 39.8292 501.397 44.3306 497.864 47.8638C494.331 51.3969 489.829 53.803 484.929 54.7777C480.028 55.7525 474.948 55.2522 470.332 53.3401C465.716 51.428 461.77 48.19 458.994 44.0355C456.218 39.881 454.737 34.9966 454.737 30C454.737 23.2998 457.398 16.874 462.136 12.1363C466.874 7.39849 473.3 4.73684 480 4.73684ZM480 0C474.067 0 468.266 1.75947 463.333 5.05591C458.399 8.35236 454.554 13.0377 452.284 18.5195C450.013 24.0013 449.419 30.0333 450.576 35.8527C451.734 41.6721 454.591 47.0176 458.787 51.2132C462.982 55.4088 468.328 58.266 474.147 59.4236C479.967 60.5811 485.999 59.987 491.481 57.7164C496.962 55.4458 501.648 51.6006 504.944 46.6671C508.241 41.7336 510 35.9334 510 30C510 22.0435 506.839 14.4129 501.213 8.7868C495.587 3.16071 487.956 0 480 0V0Z" fill="#C6437D"/>
<path d="M473.163 44.7316V16.8474L490.989 30.0632L473.163 44.7316Z" fill="#C6437D"/>
</g>
<path d="M442.489 80.2L439.241 90H437.309L434.887 82.748L432.423 90H430.477L427.229 80.2H429.119L431.555 87.648L434.089 80.2H435.769L438.247 87.69L440.753 80.2H442.489ZM450.013 87.732H445.113L444.147 90H442.271L446.681 80.2H448.473L452.897 90H450.993L450.013 87.732ZM449.411 86.304L447.563 82.02L445.729 86.304H449.411ZM455.639 81.74H452.391V80.2H460.707V81.74H457.459V90H455.639V81.74ZM466.472 90.14C465.483 90.14 464.587 89.9253 463.784 89.496C462.991 89.0573 462.365 88.4553 461.908 87.69C461.46 86.9247 461.236 86.0613 461.236 85.1C461.236 84.1387 461.465 83.2753 461.922 82.51C462.379 81.7447 463.005 81.1473 463.798 80.718C464.601 80.2793 465.497 80.06 466.486 80.06C467.289 80.06 468.021 80.2 468.684 80.48C469.347 80.76 469.907 81.166 470.364 81.698L469.188 82.804C468.479 82.0387 467.606 81.656 466.57 81.656C465.898 81.656 465.296 81.8053 464.764 82.104C464.232 82.3933 463.817 82.7993 463.518 83.322C463.219 83.8447 463.07 84.4373 463.07 85.1C463.07 85.7627 463.219 86.3553 463.518 86.878C463.817 87.4007 464.232 87.8113 464.764 88.11C465.296 88.3993 465.898 88.544 466.57 88.544C467.606 88.544 468.479 88.1567 469.188 87.382L470.364 88.502C469.907 89.034 469.342 89.44 468.67 89.72C468.007 90 467.275 90.14 466.472 90.14ZM480.816 80.2V90H478.996V85.8H473.928V90H472.108V80.2H473.928V84.246H478.996V80.2H480.816ZM496.271 80.2L492.001 90H490.209L485.925 80.2H487.899L491.161 87.76L494.451 80.2H496.271ZM497.305 80.2H499.125V90H497.305V80.2ZM501.776 80.2H506.06C507.105 80.2 508.034 80.4053 508.846 80.816C509.658 81.2173 510.288 81.7913 510.736 82.538C511.184 83.2753 511.408 84.1293 511.408 85.1C511.408 86.0707 511.184 86.9293 510.736 87.676C510.288 88.4133 509.658 88.9873 508.846 89.398C508.034 89.7993 507.105 90 506.06 90H501.776V80.2ZM505.976 88.46C506.695 88.46 507.325 88.3247 507.866 88.054C508.417 87.774 508.837 87.382 509.126 86.878C509.425 86.3647 509.574 85.772 509.574 85.1C509.574 84.428 509.425 83.84 509.126 83.336C508.837 82.8227 508.417 82.4307 507.866 82.16C507.325 81.88 506.695 81.74 505.976 81.74H503.596V88.46H505.976ZM520.692 88.474V90H513.342V80.2H520.496V81.726H515.162V84.274H519.894V85.772H515.162V88.474H520.692ZM527.258 90.14C526.26 90.14 525.359 89.9253 524.556 89.496C523.754 89.0573 523.124 88.4553 522.666 87.69C522.209 86.9153 521.98 86.052 521.98 85.1C521.98 84.148 522.209 83.2893 522.666 82.524C523.124 81.7493 523.754 81.1473 524.556 80.718C525.359 80.2793 526.26 80.06 527.258 80.06C528.257 80.06 529.158 80.2793 529.96 80.718C530.763 81.1473 531.393 81.7447 531.85 82.51C532.308 83.2753 532.536 84.1387 532.536 85.1C532.536 86.0613 532.308 86.9247 531.85 87.69C531.393 88.4553 530.763 89.0573 529.96 89.496C529.158 89.9253 528.257 90.14 527.258 90.14ZM527.258 88.544C527.912 88.544 528.5 88.3993 529.022 88.11C529.545 87.8113 529.956 87.4007 530.254 86.878C530.553 86.346 530.702 85.7533 530.702 85.1C530.702 84.4467 530.553 83.8587 530.254 83.336C529.956 82.804 529.545 82.3933 529.022 82.104C528.5 81.8053 527.912 81.656 527.258 81.656C526.605 81.656 526.017 81.8053 525.494 82.104C524.972 82.3933 524.561 82.804 524.262 83.336C523.964 83.8587 523.814 84.4467 523.814 85.1C523.814 85.7533 523.964 86.346 524.262 86.878C524.561 87.4007 524.972 87.8113 525.494 88.11C526.017 88.3993 526.605 88.544 527.258 88.544Z" fill="#C6437D"/>
<defs>
<clipPath id="clip0">
<rect x="450" width="60" height="60" fill="white"/>
</clipPath>
</defs>
</svg>
