<svg width="60" height="60" viewBox="0 0 60 60" fill="none" xmlns="http://www.w3.org/2000/svg">
<circle cx="30" cy="30" r="30" fill="#F7E3EC"/>
<path d="M9.98657 35.4697L9.15709 36.7969C8.78438 37.3435 8.45172 37.9164 8.16171 38.5111C7.50363 40.037 7.11089 41.6641 7.00043 43.3221C6.9875 44.0616 7.26552 44.7765 7.77462 45.3129C8.25624 45.765 8.89486 46.0121 9.55538 46.0017C10.2159 45.9914 10.8465 45.7245 11.3137 45.2576L16.5118 40.6125C16.5686 40.5556 16.6398 40.5153 16.7177 40.4958C16.7956 40.4763 16.8774 40.4784 16.9542 40.5019C17.0221 40.5411 17.0783 40.5975 17.1172 40.6655C17.156 40.7335 17.1761 40.8107 17.1754 40.889V47.8566C17.1178 48.3529 17.2143 48.8549 17.4519 49.2944C17.6532 49.6776 17.9554 49.9986 18.3257 50.2227C18.696 50.4468 19.1204 50.5656 19.5533 50.5663H19.6086C19.9363 50.5689 20.2614 50.5067 20.5651 50.3834C20.8688 50.26 21.1451 50.0779 21.3781 49.8474C23.087 48.2441 24.313 46.1944 24.9173 43.9304L25.3597 42.4374C25.415 42.1609 25.5256 41.9397 25.5809 41.7185C25.8006 41.0232 26.1657 40.3825 26.6519 39.8391C27.1382 39.2957 27.7344 38.8618 28.4011 38.5664C30.3485 37.7583 31.9119 36.2344 32.7697 34.3084C32.9845 33.8475 33.1513 33.3657 33.2674 32.8706L33.6545 33.313C34.1145 33.7821 34.4628 34.3489 34.6734 34.9713C34.8841 35.5936 34.9516 36.2554 34.8711 36.9075C34.8654 37.1509 34.8282 37.3925 34.7605 37.6263L34.5393 39.1747C34.4293 39.8326 34.3738 40.4985 34.3734 41.1655C34.381 42.832 34.6998 44.4824 35.3135 46.0318C35.456 46.3732 35.6669 46.6818 35.9331 46.9385C36.1994 47.1953 36.5155 47.3949 36.8618 47.5248C37.11 47.6125 37.3732 47.6501 37.636 47.6354C38.156 47.6421 38.665 47.4856 39.0915 47.188C39.518 46.8905 39.8406 46.4668 40.0139 45.9765L42.8341 39.6171C42.8557 39.5433 42.8988 39.4775 42.9579 39.4283C43.017 39.379 43.0894 39.3485 43.1659 39.3406C43.2501 39.345 43.3312 39.3734 43.3998 39.4224C43.4683 39.4714 43.5215 39.5389 43.553 39.6171L46.3732 45.9765C46.5357 46.4486 46.8459 46.8558 47.258 47.1378C47.5866 47.4044 47.9817 47.5763 48.4008 47.6347C48.8198 47.6932 49.2469 47.6361 49.6359 47.4695C50.2627 47.1835 50.7571 46.6694 51.0183 46.0318C51.9004 43.8607 52.1867 41.4935 51.8478 39.1747L51.5713 37.6263C51.5713 37.4052 51.516 37.1287 51.516 36.9075C51.4183 36.1825 51.4816 35.4448 51.7015 34.7471C51.9213 34.0494 52.2923 33.4087 52.7879 32.8706C54.2219 31.2998 55.0116 29.2465 54.9999 27.1196C54.9999 22.7509 51.6819 19.1565 47.6451 19.1565C45.8217 19.0934 44.0425 19.726 42.6682 20.9261C42.6333 20.9582 42.5919 20.9825 42.5468 20.9973C42.5017 21.0121 42.4539 21.0171 42.4068 21.0118C42.3596 21.0066 42.3141 20.9913 42.2733 20.9669C42.2326 20.9426 42.1975 20.9098 42.1705 20.8708C41.5838 20.3058 40.8904 19.8633 40.1309 19.5689C39.3714 19.2746 38.5609 19.1344 37.7466 19.1565C34.6499 19.1565 32.0508 21.8109 31.3872 25.4053C30.7987 24.8299 30.1277 24.3454 29.3965 23.9675C27.7415 23.1722 25.8515 23.0147 24.0878 23.5251C24.0444 23.5423 23.9979 23.5502 23.9512 23.5482C23.9046 23.5462 23.8589 23.5343 23.8171 23.5135C23.7754 23.4926 23.7385 23.4631 23.7089 23.427C23.6793 23.3909 23.6577 23.349 23.6454 23.3039C23.352 22.5383 22.9068 21.84 22.3366 21.2508C21.7664 20.6616 21.083 20.1938 20.3275 19.8754C17.0648 18.3823 12.9174 20.4284 11.0925 24.4652C10.5969 25.4823 10.3075 26.5874 10.2411 27.7168C10.1747 28.8462 10.3325 29.9776 10.7055 31.0458C10.9396 31.666 11.0313 32.3309 10.9739 32.9914C10.9165 33.6518 10.7113 34.2909 10.3737 34.8614L9.98657 35.4697ZM37.7466 21.3685C38.2754 21.3526 38.802 21.4422 39.2957 21.6321C39.7894 21.8219 40.2404 22.1083 40.6222 22.4745C41.0821 22.949 41.7087 23.226 42.3693 23.2466C43.0299 23.2673 43.6726 23.03 44.1613 22.585C45.1238 21.7481 46.3708 21.3126 47.6451 21.3685C50.4654 21.3685 52.7879 23.9675 52.7879 27.1196C52.8066 28.6837 52.211 30.1927 51.1289 31.3223C50.434 32.1076 49.9123 33.0306 49.5979 34.031C49.2835 35.0315 49.1834 36.0869 49.3041 37.1287C49.3136 37.4081 49.3507 37.6859 49.4147 37.9581L49.6359 39.5065C49.9471 41.4299 49.7173 43.402 48.9723 45.2023C48.917 45.3129 48.8617 45.4235 48.8064 45.4235C48.7511 45.4235 48.6405 45.4235 48.5852 45.3682L48.4193 45.2023L45.5438 38.677C45.3401 38.2163 45.0069 37.8246 44.5848 37.5497C44.1626 37.2748 43.6697 37.1285 43.1659 37.1287C42.6652 37.1417 42.1779 37.2934 41.7581 37.5667C41.3383 37.84 41.0026 38.2244 40.7881 38.677L37.9678 45.147H37.9125C37.9059 45.1837 37.892 45.2186 37.8716 45.2498C37.8512 45.2809 37.8247 45.3076 37.7937 45.3283C37.7627 45.3489 37.7279 45.3631 37.6913 45.37C37.6547 45.3768 37.6171 45.3762 37.5807 45.3682C37.5254 45.3682 37.4148 45.3129 37.3595 45.147C36.854 43.8609 36.5915 42.4921 36.5853 41.1102C36.5859 40.5531 36.6415 39.9974 36.7512 39.4512L36.9724 37.9028C37.0277 37.6263 37.0277 37.3499 37.083 37.1287C37.192 36.1377 37.0744 35.135 36.7391 34.1962C36.4038 33.2574 35.8596 32.4071 35.1476 31.7094C33.9932 30.4432 33.3782 28.7768 33.4333 27.0643C33.4333 23.9675 35.3688 21.3685 37.7466 21.3685ZM10.982 38.0134L11.8667 36.6863L12.2538 36.0227C12.7684 35.1649 13.0807 34.2012 13.1669 33.2046C13.2532 32.2081 13.1111 31.205 12.7515 30.2716C12.2313 28.6487 12.35 26.8884 13.0833 25.35C14.4105 22.4744 17.2307 20.9261 19.4427 21.9215C19.9278 22.1189 20.3686 22.4114 20.739 22.7818C21.1094 23.1522 21.4019 23.593 21.5993 24.0781C21.8249 24.7047 22.2871 25.2178 22.8868 25.5073C23.4865 25.7968 24.1758 25.8396 24.8067 25.6265C26.0286 25.2914 27.3319 25.4297 28.4564 26.0136C31.0001 27.1749 32.0508 30.4928 30.7237 33.3683C30.0918 34.7869 28.9457 35.9132 27.5163 36.5204C26.5512 36.942 25.6869 37.5645 24.9813 38.3464C24.2757 39.1283 23.7449 40.0516 23.4242 41.0549C23.3177 41.3024 23.2433 41.5626 23.203 41.8291L22.7606 43.3221C22.2296 45.203 21.1975 46.9041 19.7745 48.2437C19.7528 48.2821 19.7202 48.3131 19.6808 48.3328C19.6414 48.3525 19.597 48.36 19.5533 48.3543L19.3321 48.2437C19.3321 48.1884 19.2768 48.1331 19.3321 48.0225V40.889C19.3254 40.3867 19.1764 39.8967 18.9023 39.4758C18.6282 39.0549 18.2403 38.7204 17.7837 38.5111C17.4563 38.3543 17.0959 38.2785 16.733 38.2899C16.0844 38.301 15.4595 38.5354 14.9635 38.9535L9.71008 43.5986C9.71008 43.6539 9.71008 43.6539 9.65478 43.6539C9.64119 43.6918 9.61753 43.7252 9.58637 43.7506C9.5552 43.776 9.51769 43.7924 9.47788 43.7981C9.43808 43.8038 9.39747 43.7985 9.36043 43.7829C9.3234 43.7672 9.29133 43.7418 9.26769 43.7092C9.21239 43.7092 9.15709 43.5986 9.15709 43.4327C9.21189 42.0513 9.55073 40.6959 10.1525 39.4512C10.3951 38.9532 10.6723 38.4728 10.982 38.0134Z" fill="#591144"/>
<path d="M32.1614 11.9677V6.10598C32.1614 5.81265 32.0449 5.53134 31.8375 5.32393C31.6301 5.11652 31.3488 5 31.0554 5C30.7621 5 30.4808 5.11652 30.2734 5.32393C30.066 5.53134 29.9495 5.81265 29.9495 6.10598V11.9677C29.9495 12.261 30.066 12.5423 30.2734 12.7497C30.4808 12.9571 30.7621 13.0736 31.0554 13.0736C31.3488 13.0736 31.6301 12.9571 31.8375 12.7497C32.0449 12.5423 32.1614 12.261 32.1614 11.9677Z" fill="#591144"/>
<path d="M39.3502 16.3916C39.5402 16.3834 39.7252 16.3287 39.8892 16.2323C40.0531 16.1359 40.1908 16.0007 40.2902 15.8386L43.6082 10.5299C43.6887 10.4114 43.744 10.2777 43.7709 10.137C43.7978 9.99627 43.7957 9.85156 43.7646 9.71172C43.7335 9.57189 43.6742 9.43988 43.5902 9.32382C43.5063 9.20776 43.3995 9.11009 43.2764 9.03682C43.0242 8.88596 42.7242 8.8363 42.4369 8.89788C42.1495 8.95945 41.8962 9.12766 41.728 9.36861L38.4101 14.6773C38.2592 14.9295 38.2096 15.2295 38.2711 15.5168C38.3327 15.8041 38.5009 16.0575 38.7419 16.2257C38.9275 16.3312 39.1367 16.3882 39.3502 16.3916Z" fill="#591144"/>
<path d="M22.7605 16.3916C22.974 16.3882 23.1832 16.3312 23.3688 16.2257C23.6098 16.0575 23.778 15.8041 23.8395 15.5168C23.9011 15.2295 23.8515 14.9295 23.7006 14.6773L20.3827 9.36861C20.2144 9.12766 19.9611 8.95945 19.6738 8.89788C19.3865 8.8363 19.0865 8.88596 18.8343 9.03682C18.7112 9.11009 18.6044 9.20776 18.5204 9.32382C18.4365 9.43988 18.3771 9.57189 18.3461 9.71172C18.315 9.85156 18.3128 9.99627 18.3397 10.137C18.3666 10.2777 18.422 10.4114 18.5025 10.5299L21.8204 15.8386C21.9199 16.0007 22.0576 16.1359 22.2215 16.2323C22.3854 16.3287 22.5705 16.3834 22.7605 16.3916Z" fill="#591144"/>
</svg>
