<svg width="69" height="74" viewBox="0 0 69 74" fill="none" xmlns="http://www.w3.org/2000/svg">
<circle cx="30" cy="30" r="30" fill="#F7E3EC"/>
<path d="M13.8602 15.4008C13.789 15.4718 13.7326 15.5562 13.6941 15.6491C13.6556 15.742 13.6357 15.8416 13.6357 15.9422C13.6357 16.0427 13.6556 16.1423 13.6941 16.2352C13.7326 16.3281 13.789 16.4125 13.8602 16.4836L20.6172 23.2444C20.7607 23.388 20.9555 23.4686 21.1586 23.4686C21.3616 23.4686 21.5564 23.388 21.7 23.2444C21.8435 23.1008 21.9242 22.906 21.9242 22.703C21.9242 22.4999 21.8435 22.3052 21.7 22.1616L14.9391 15.4008C14.7958 15.2583 14.6018 15.1783 14.3997 15.1783C14.1975 15.1783 14.0035 15.2583 13.8602 15.4008Z" fill="#591144"/>
<path d="M35.6999 19.1313V9.69217C35.6999 9.48922 35.6193 9.29458 35.4758 9.15107C35.3323 9.00756 35.1376 8.92694 34.9347 8.92694C34.7317 8.92694 34.5371 9.00756 34.3936 9.15107C34.2501 9.29458 34.1694 9.48922 34.1694 9.69217V19.1313C34.1694 19.3342 34.2501 19.5289 34.3936 19.6724C34.5371 19.8159 34.7317 19.8965 34.9347 19.8965C35.1376 19.8965 35.3323 19.8159 35.4758 19.6724C35.6193 19.5289 35.6999 19.3342 35.6999 19.1313Z" fill="#591144"/>
<path d="M23.8352 5.57522C23.8101 5.47775 23.766 5.38617 23.7055 5.30573C23.645 5.22529 23.5692 5.15755 23.4825 5.10639C23.3958 5.05523 23.2999 5.02164 23.2003 5.00755C23.1006 4.99346 22.9991 4.99913 22.9016 5.02426C22.8042 5.04938 22.7126 5.09346 22.6321 5.15397C22.5517 5.21448 22.484 5.29025 22.4328 5.37694C22.3816 5.46363 22.3481 5.55955 22.334 5.65922C22.3199 5.75889 22.3256 5.86036 22.3507 5.95784L24.6464 15.1406C24.6715 15.2381 24.7156 15.3296 24.7761 15.4101C24.8366 15.4905 24.9124 15.5583 24.999 15.6094C25.0857 15.6606 25.1817 15.6942 25.2813 15.7083C25.381 15.7224 25.4825 15.7167 25.5799 15.6916C25.6774 15.6664 25.769 15.6224 25.8494 15.5618C25.9299 15.5013 25.9976 15.4256 26.0488 15.3389C26.0999 15.2522 26.1335 15.1563 26.1476 15.0566C26.1617 14.9569 26.156 14.8555 26.1309 14.758L23.8352 5.57522Z" fill="#591144"/>
<path d="M13.7455 32.848C16.1483 36.2916 16.1292 37.845 16.1138 39.3525C15.9991 50.3106 23.594 53.6967 28.105 53.9684C28.4494 53.9875 28.7822 53.999 29.1151 53.999C31.2011 54.0237 33.2687 53.6058 35.1813 52.7729C37.094 51.9399 38.8082 50.7107 40.2109 49.1665L42.7171 46.4041L42.7591 46.3543L44.0026 44.9807C44.4429 44.5401 44.7563 43.9889 44.9099 43.3852C45.0634 42.7816 45.0515 42.1477 44.8753 41.5502C44.6991 40.9527 44.3652 40.4138 43.9086 39.99C43.4521 39.5662 42.8898 39.2733 42.2809 39.142C42.4004 38.7077 42.4243 38.2527 42.3509 37.8083C42.2775 37.3639 42.1086 36.9406 41.8558 36.5678C41.603 36.195 41.2724 35.8815 40.8867 35.6488C40.501 35.4162 40.0694 35.2699 39.6217 35.2202C39.7461 34.8766 39.8108 34.5143 39.813 34.1489C39.8151 33.3509 39.54 32.577 39.0348 31.9594C38.5295 31.3418 37.8254 30.9188 37.0429 30.7628L41.1943 26.5961C41.5199 26.2714 41.7777 25.8852 41.9525 25.4598C42.1273 25.0345 42.2156 24.5786 42.2123 24.1187C42.209 23.6589 42.1141 23.2043 41.9332 22.7815C41.7523 22.3587 41.489 21.9762 41.1587 21.6563C40.8283 21.3364 40.4376 21.0854 40.0092 20.9182C39.5809 20.7509 39.1235 20.6706 38.6637 20.6821C38.204 20.6935 37.7512 20.7964 37.3316 20.9847C36.9121 21.173 36.5343 21.443 36.2203 21.779C31.671 26.6344 26.0159 32.1593 23.7853 33.0661C22.4844 33.6018 22.1706 33.1847 21.1644 31.5357C20.4655 30.2437 19.5372 29.0897 18.4248 28.1304C17.101 27.0552 15.5438 27.0246 14.2543 28.0462C12.7966 29.1979 12.5861 31.1798 13.7455 32.848ZM41.5424 40.5998C41.7963 40.5988 42.0478 40.6484 42.2823 40.7456C42.5168 40.8428 42.7296 40.9858 42.9084 41.1661C43.0887 41.3488 43.2311 41.5654 43.3275 41.8034C43.4238 42.0414 43.4721 42.2961 43.4696 42.5529C43.4671 42.8096 43.4139 43.0633 43.3129 43.2994C43.212 43.5355 43.0654 43.7493 42.8816 43.9285L41.6687 45.2639C41.3438 45.4173 40.9798 45.4676 40.6255 45.4081C40.2712 45.3486 39.9437 45.1821 39.6868 44.931L39.6179 44.8583C39.305 44.5514 39.1169 44.1395 39.0901 43.702C39.0632 43.2646 39.1995 42.8327 39.4725 42.4899L41.3856 40.5768L41.5424 40.5998ZM40.3946 37.1792C40.6779 37.4602 40.8448 37.8377 40.8618 38.2364C40.8788 38.635 40.7447 39.0254 40.4864 39.3295C40.4544 39.3588 40.425 39.3908 40.3984 39.4252L38.2022 41.6214C37.892 41.7348 37.5563 41.7591 37.2331 41.6915C36.9098 41.6238 36.612 41.467 36.3733 41.2388L36.2815 41.1469C35.9803 40.8342 35.8033 40.4224 35.7836 39.9887C35.7639 39.5549 35.9028 39.1288 36.1743 38.79C36.4804 38.5528 37.7622 37.5389 38.4433 36.9535C38.7463 36.77 39.1018 36.6925 39.4538 36.7334C39.8057 36.7743 40.134 36.9311 40.3869 37.1792H40.3946ZM37.7163 32.7753C37.8966 32.954 38.0395 33.1669 38.1367 33.4014C38.2339 33.6359 38.2835 33.8874 38.2826 34.1413C38.2326 34.7628 37.9448 35.3412 37.4791 35.7559C37.0123 36.1615 36.006 36.9688 35.2637 37.5504C34.9472 37.6407 34.6123 37.6443 34.2939 37.5609C33.9755 37.4774 33.6854 37.3099 33.454 37.0759L33.4042 37.0262C33.0558 36.6775 32.8602 36.2048 32.8602 35.7119C32.8602 35.219 33.0558 34.7463 33.4042 34.3976L35.2025 32.5993C35.571 32.3197 36.0283 32.1831 36.4898 32.2148C36.9512 32.2464 37.3856 32.4442 37.7125 32.7715L37.7163 32.7753ZM15.2071 29.2285C15.9417 28.6469 16.6801 28.6699 17.4607 29.3012C18.4345 30.1504 19.2461 31.1693 19.8558 32.3085C20.2108 32.9727 20.6563 33.5844 21.1797 34.126C21.1939 34.1471 21.2093 34.1675 21.2256 34.1872C21.2906 34.256 22.756 35.8592 21.2638 38.1893C21.1633 38.3601 21.133 38.5633 21.1792 38.756C21.2254 38.9487 21.3447 39.116 21.5117 39.2226C21.6788 39.3292 21.8808 39.3668 22.075 39.3275C22.2693 39.2882 22.4407 39.1751 22.5533 39.0119C22.9755 38.4066 23.2578 37.7149 23.3795 36.9869C23.5013 36.2589 23.4595 35.513 23.2573 34.8032C23.6363 34.7513 24.0068 34.6497 24.3592 34.5009C27.3704 33.2651 34.4296 25.938 37.3298 22.8426C37.506 22.6526 37.7189 22.5004 37.9557 22.3952C38.1925 22.2899 38.4482 22.2339 38.7073 22.2305C38.9667 22.2264 39.2243 22.2744 39.4648 22.3717C39.7054 22.469 39.9239 22.6135 40.1076 22.7967C40.2875 22.9762 40.4302 23.1894 40.5276 23.4241C40.625 23.6588 40.6751 23.9105 40.6751 24.1646C40.6751 24.4187 40.625 24.6703 40.5276 24.905C40.4302 25.1397 40.2875 25.3529 40.1076 25.5324L32.3176 33.3072C32.0011 33.6222 31.7499 33.9966 31.5785 34.4089C31.4072 34.8213 31.3189 35.2634 31.3189 35.71C31.3189 36.1565 31.4072 36.5987 31.5785 37.011C31.7499 37.4234 32.0011 37.7978 32.3176 38.1128L32.3597 38.1549C32.8866 38.6833 33.5745 39.0212 34.3148 39.1152C34.1814 39.6674 34.1916 40.2446 34.3443 40.7917C34.497 41.3389 34.7871 41.8379 35.1872 42.2412L35.2178 42.268L35.2484 42.2986C35.8692 42.9137 36.7085 43.2577 37.5824 43.2551C37.5301 43.7441 37.5882 44.2386 37.7524 44.7021C37.9166 45.1657 38.1828 45.5864 38.5313 45.9334L38.5886 45.9985C39.0313 46.4401 39.5897 46.7478 40.1995 46.8862L39.0516 48.1526L39.021 48.187C37.651 49.6619 35.9669 50.8098 34.0932 51.5456C32.2195 52.2814 30.2043 52.5864 28.1968 52.4379C26.2253 52.2669 24.327 51.6096 22.6719 50.5248C22.7905 50.5248 22.9129 50.5248 23.0354 50.5248H23.3606C25.2736 50.4024 27.0222 49.2431 28.5833 47.0813C28.6959 46.9162 28.7395 46.7136 28.7047 46.5167C28.6699 46.3199 28.5595 46.1445 28.397 46.028C28.2346 45.9116 28.033 45.8633 27.8355 45.8935C27.6379 45.9238 27.46 46.0301 27.3398 46.1898C26.0657 47.9651 24.6997 48.914 23.2764 49.0097C21.2906 49.1398 19.764 47.5519 19.741 47.5289C19.7072 47.4936 19.67 47.4616 19.6301 47.4333C18.4325 45.5432 17.6099 42.9491 17.6481 39.3639C17.6711 37.3399 17.4874 35.511 15.0043 31.9604C14.4265 31.1492 14.2696 29.9784 15.2071 29.2285Z" fill="#591144"/>
<path d="M27.1218 20.5967L25.4307 20.8416L26.655 22.0353L26.3642 23.7189L27.8756 22.923L29.3869 23.7189L29.0961 22.0353L30.3205 20.8416L28.6293 20.5967L27.8756 19.0663L27.1218 20.5967Z" fill="#591144"/>
<path d="M29.5819 11.3948L30.0984 12.5579L30.7106 11.4369L31.9771 11.3068L31.1009 10.3809L31.3687 9.13354L30.217 9.68068L29.1113 9.04172L29.2758 10.3082L28.3269 11.1614L29.5819 11.3948Z" fill="#591144"/>
<path d="M19.4004 10.8821L18.4783 10.0059L18.3405 11.2724L17.2195 11.8807L18.3826 12.4011L18.616 13.6561L19.4693 12.7072L20.7357 12.8755L20.0967 11.7698L20.6477 10.6219L19.4004 10.8821Z" fill="#591144"/>
</svg>
