<svg width="60" height="60" viewBox="0 0 60 60" fill="none" xmlns="http://www.w3.org/2000/svg">
<circle cx="30" cy="30" r="30" fill="#F7E3EC"/>
<path fill-rule="evenodd" clip-rule="evenodd" d="M10 30C10 41.0286 18.9714 50 30 50C41.0286 50 50 41.0286 50 30C50 18.9714 41.0286 10 30 10C18.9714 10 10 18.9714 10 30ZM12.1849 30C12.1849 20.1765 20.1765 12.1849 30 12.1849C39.8235 12.1849 47.8151 20.1765 47.8151 30C47.8151 39.8235 39.8235 47.8151 30 47.8151C20.1765 47.8151 12.1849 39.8235 12.1849 30ZM17.7041 30.7933C17.7041 37.5731 23.2201 43.0891 29.9999 43.0891C36.7797 43.0874 42.2957 37.5714 42.2957 30.7933C42.2957 30.1899 41.8066 29.7008 41.2033 29.7008H18.7965C18.1932 29.7008 17.7041 30.1899 17.7041 30.7933ZM29.9999 40.9025C24.7932 40.9025 20.494 36.9496 19.9478 31.8857H40.052C39.5058 36.9462 35.2066 40.9025 29.9999 40.9025ZM25.7812 22.4639C25.1779 22.4639 24.6888 21.9748 24.6888 21.3715C24.6888 20.0773 23.6367 19.0252 22.3426 19.0252C21.0501 19.0252 19.998 20.0773 19.998 21.3715C19.998 21.9748 19.5089 22.4639 18.9056 22.4639C18.3022 22.4639 17.8132 21.9748 17.8132 21.3715C17.8132 18.874 19.8451 16.842 22.3426 16.842C24.8417 16.842 26.8737 18.874 26.8737 21.3715C26.8737 21.9748 26.3846 22.4639 25.7812 22.4639ZM40.0185 22.0252C40.0185 22.6286 40.5076 23.1176 41.1109 23.1176C41.716 23.1176 42.205 22.6286 42.2034 22.0252C42.2034 19.5277 40.1714 17.4958 37.6739 17.4958C35.1765 17.4958 33.1445 19.5277 33.1445 22.0252C33.1445 22.6286 33.6336 23.1176 34.237 23.1176C34.8403 23.1176 35.3294 22.6286 35.3294 22.0252C35.3294 20.7328 36.3798 19.6807 37.6739 19.6807C38.9681 19.6807 40.0185 20.7328 40.0185 22.0252Z" fill="#591144"/>
</svg>
