<svg width="60" height="60" viewBox="0 0 60 60" fill="none" xmlns="http://www.w3.org/2000/svg">
<circle cx="30" cy="30" r="30" fill="#F7E3EC"/>
<path d="M37.2987 50.9992C37.0857 50.9992 36.8511 50.9804 36.5942 50.9374C33.863 50.4862 31.8041 47.9645 31.8041 45.0713V38.0673C31.7754 36.866 31.4415 32.9156 28.3916 32.8046C25.852 32.869 24.3678 34.2601 24.3114 36.6422V45.5081C24.3114 48.0692 22.5846 50.3125 20.2052 50.8425C18.8069 51.1522 18.0791 50.633 17.7094 50.1425C15.4213 47.1006 15.057 43.8869 14.7052 40.7788C14.5288 39.223 14.3462 37.6135 13.9282 35.9986C13.5477 34.5323 13.0652 33.3381 12.5979 32.1842C11.658 29.8603 10.77 27.6653 11.0537 24.0103C11.3205 20.5728 12.5854 18.2175 14.8126 17.0108C17.4534 15.5803 21.3376 15.9894 25.2075 18.1021C26.3435 18.7233 27.5958 19.0214 28.8652 18.9668C29.3746 18.9444 29.7989 19.3365 29.8212 19.8423C29.8436 20.3481 29.4515 20.776 28.9458 20.7983C27.3577 20.8637 25.758 20.4931 24.3284 19.7116C21.7637 18.3106 18.1481 17.2874 15.6863 18.6231C14.041 19.5147 13.0974 21.3748 12.8817 24.1517C12.631 27.3771 13.4036 29.2865 14.297 31.4967C14.7866 32.7061 15.2924 33.9567 15.7024 35.5384C16.1536 37.2787 16.3434 38.9527 16.5269 40.5721C16.8662 43.5682 17.1866 46.3979 19.1739 49.0396C19.2339 49.1184 19.4944 49.1229 19.8059 49.0521C21.3546 48.7075 22.4781 47.217 22.4781 45.5081V36.6207C22.5577 33.2817 24.8145 31.1019 28.2592 30.9748V30.9685L28.5805 30.9775C32.1818 31.1762 33.5577 34.7211 33.6374 38.0459V45.0713C33.6374 47.0783 35.0375 48.8221 36.8932 49.1291C37.3694 49.2079 37.5798 49.1434 37.6156 49.1148C39.3371 46.2636 39.662 43.4581 40.0058 40.487C40.2125 38.7029 40.4265 36.8579 40.9564 34.9602C41.4219 33.2915 42.0351 32.0902 42.5758 31.0294C42.8838 30.4252 43.1756 29.8531 43.4092 29.2543C43.5936 28.7834 44.1236 28.5497 44.5971 28.7341C45.068 28.9186 45.3017 29.4503 45.1173 29.9221C44.8496 30.6051 44.5381 31.2165 44.2086 31.8628C43.6823 32.8941 43.1389 33.9611 42.7217 35.4525C42.2303 37.2124 42.0253 38.984 41.8275 40.6974C41.4756 43.733 41.1122 46.8706 39.1822 50.0655C38.9109 50.5149 38.3694 50.9992 37.2987 50.9992Z" fill="#591144"/>
<path d="M51.0595 36.3334C51.0049 36.3334 50.9494 36.3325 50.8948 36.3298C49.7955 36.2832 48.7589 35.7748 48.0499 34.9342L36.8986 21.724C36.0536 22.0633 34.5747 22.5834 33.4584 22.5834C29.1624 22.5834 25.6667 19.0877 25.6667 14.7917C25.6667 10.4957 29.1624 7 33.4584 7C37.7544 7 41.2501 10.4957 41.2501 14.7917C41.2501 15.908 40.73 17.3868 40.3907 18.2319L53.6018 29.3841C54.4415 30.0922 54.95 31.1288 54.9965 32.2281C55.0431 33.3265 54.6241 34.4025 53.8462 35.1795C53.1077 35.918 52.0997 36.3334 51.0595 36.3334ZM37.4142 19.4932L49.4509 33.7517C49.8358 34.2082 50.3756 34.4732 50.9718 34.4982C51.5644 34.5179 52.1275 34.3058 52.55 33.8833C52.9716 33.4616 53.1901 32.9012 53.165 32.305C53.1399 31.7089 52.875 31.1691 52.4193 30.785L38.1599 18.7475L38.4491 18.1146C38.7176 17.5247 39.4168 15.7782 39.4168 14.7917C39.4168 11.5064 36.7437 8.83334 33.4584 8.83334C30.1731 8.83334 27.5001 11.5064 27.5001 14.7917C27.5001 18.077 30.1731 20.75 33.4584 20.75C34.4449 20.75 36.1923 20.0509 36.7813 19.7823L37.4142 19.4932Z" fill="#591144"/>
<path d="M34.367 11.5833H32.5337V17.0834H34.367V11.5833Z" fill="#591144"/>
<path d="M36.2004 13.4167H30.7004V15.25H36.2004V13.4167Z" fill="#591144"/>
</svg>
