<svg width="63" height="60" viewBox="0 0 63 60" fill="none" xmlns="http://www.w3.org/2000/svg">
<circle cx="33" cy="30" r="30" fill="#F7E3EC"/>
<path d="M48.6142 16.6547C48.2789 16.2919 47.7126 16.2693 47.3492 16.6052C46.9864 16.9405 46.9638 17.5068 47.2997 17.8702C50.2634 21.0768 51.9801 25.1867 52.1877 29.527H50.335C49.841 29.527 49.44 29.9274 49.44 30.422C49.44 30.9167 49.841 31.3171 50.335 31.3171H52.1871C51.7325 40.805 44.0961 48.4413 34.6076 48.896V47.0439C34.6076 46.5499 34.2066 46.1489 33.7126 46.1489C33.2185 46.1489 32.8176 46.5499 32.8176 47.0439V48.896C23.3291 48.4413 15.6927 40.805 15.238 31.3165H17.0907C17.5854 31.3165 17.9858 30.9161 17.9858 30.4215C17.9858 29.9268 17.5854 29.5264 17.0907 29.5264H15.2482C15.5805 22.7702 19.6356 16.6255 25.7856 13.7035C26.2325 13.4917 26.4223 12.9577 26.2099 12.5108C25.998 12.0638 25.464 11.8753 25.0171 12.0865C17.9756 15.4321 13.4253 22.6293 13.4253 30.4215C13.4253 41.6081 22.5259 50.7087 33.7126 50.7087C44.8992 50.7087 53.9999 41.6081 53.9999 30.4215C53.9999 25.3013 52.0869 20.4127 48.6142 16.6547Z" fill="#591144"/>
<path d="M33.0038 27.7543L23.2641 18.0152C22.9145 17.6655 22.3482 17.6655 21.9986 18.0152C21.6489 18.3642 21.6489 18.9317 21.9986 19.2807L31.4948 28.777C31.1523 29.2376 30.9423 29.8033 30.9423 30.422C30.9423 31.9519 32.1822 33.1925 33.7127 33.1925C35.2432 33.1925 36.4831 31.9525 36.4831 30.422C36.4831 29.9847 36.3721 29.5765 36.1925 29.2084L44.0419 21.3584C44.3916 21.0093 44.3916 20.4419 44.0419 20.0928C43.6922 19.7432 43.126 19.7432 42.7763 20.0928L34.9264 27.9422C34.5582 27.7614 34.1501 27.651 33.7127 27.651C33.4663 27.651 33.2312 27.694 33.0038 27.7543Z" fill="#591144"/>
<path d="M3.87843 23.8579H9.84528C10.3399 23.8579 10.7403 23.4575 10.7403 22.9629C10.7403 22.4682 10.3399 22.0679 9.84528 22.0679H3.87843C3.38377 22.0679 2.9834 22.4682 2.9834 22.9629C2.9834 23.4575 3.38377 23.8579 3.87843 23.8579Z" fill="#591144"/>
<path d="M11.337 29.5264H0.895028C0.400376 29.5264 0 29.9268 0 30.4215C0 30.9161 0.400376 31.3165 0.895028 31.3165H11.337C11.8317 31.3165 12.232 30.9161 12.232 30.4215C12.232 29.9268 11.8317 29.5264 11.337 29.5264Z" fill="#591144"/>
<path d="M9.84528 36.985H3.87843C3.38377 36.985 2.9834 37.386 2.9834 37.88C2.9834 38.3741 3.38377 38.775 3.87843 38.775H9.84528C10.3399 38.775 10.7403 38.3741 10.7403 37.88C10.7403 37.386 10.3399 36.985 9.84528 36.985Z" fill="#591144"/>
</svg>
