<svg width="209" height="226" viewBox="0 0 209 226" fill="none" xmlns="http://www.w3.org/2000/svg">
<path d="M89.325 106.585C90.015 106.735 90.545 107.035 90.915 107.485C91.295 107.925 91.485 108.495 91.485 109.195C91.485 110.095 91.15 110.79 90.48 111.28C89.82 111.76 88.84 112 87.54 112H82.71V101.5H87.24C88.41 101.5 89.315 101.735 89.955 102.205C90.605 102.675 90.93 103.34 90.93 104.2C90.93 104.78 90.785 105.275 90.495 105.685C90.215 106.085 89.825 106.385 89.325 106.585ZM83.82 102.415V106.225H87.165C88.015 106.225 88.67 106.065 89.13 105.745C89.59 105.415 89.82 104.94 89.82 104.32C89.82 103.7 89.59 103.23 89.13 102.91C88.67 102.58 88.015 102.415 87.165 102.415H83.82ZM87.525 111.085C88.465 111.085 89.175 110.925 89.655 110.605C90.135 110.285 90.375 109.785 90.375 109.105C90.375 107.795 89.425 107.14 87.525 107.14H83.82V111.085H87.525ZM100.664 108.385H94.0636C94.1236 109.205 94.4386 109.87 95.0086 110.38C95.5786 110.88 96.2986 111.13 97.1686 111.13C97.6586 111.13 98.1086 111.045 98.5186 110.875C98.9286 110.695 99.2836 110.435 99.5836 110.095L100.184 110.785C99.8336 111.205 99.3936 111.525 98.8636 111.745C98.3436 111.965 97.7686 112.075 97.1386 112.075C96.3286 112.075 95.6086 111.905 94.9786 111.565C94.3586 111.215 93.8736 110.735 93.5236 110.125C93.1736 109.515 92.9986 108.825 92.9986 108.055C92.9986 107.285 93.1636 106.595 93.4936 105.985C93.8336 105.375 94.2936 104.9 94.8736 104.56C95.4636 104.22 96.1236 104.05 96.8536 104.05C97.5836 104.05 98.2386 104.22 98.8186 104.56C99.3986 104.9 99.8536 105.375 100.184 105.985C100.514 106.585 100.679 107.275 100.679 108.055L100.664 108.385ZM96.8536 104.965C96.0936 104.965 95.4536 105.21 94.9336 105.7C94.4236 106.18 94.1336 106.81 94.0636 107.59H99.6586C99.5886 106.81 99.2936 106.18 98.7736 105.7C98.2636 105.21 97.6236 104.965 96.8536 104.965ZM106.866 104.05C107.856 104.05 108.641 104.34 109.221 104.92C109.811 105.49 110.106 106.325 110.106 107.425V112H109.041V107.53C109.041 106.71 108.836 106.085 108.426 105.655C108.016 105.225 107.431 105.01 106.671 105.01C105.821 105.01 105.146 105.265 104.646 105.775C104.156 106.275 103.911 106.97 103.911 107.86V112H102.846V104.11H103.866V105.565C104.156 105.085 104.556 104.715 105.066 104.455C105.586 104.185 106.186 104.05 106.866 104.05ZM119.897 108.385H113.297C113.357 109.205 113.672 109.87 114.242 110.38C114.812 110.88 115.532 111.13 116.402 111.13C116.892 111.13 117.342 111.045 117.752 110.875C118.162 110.695 118.517 110.435 118.817 110.095L119.417 110.785C119.067 111.205 118.627 111.525 118.097 111.745C117.577 111.965 117.002 112.075 116.372 112.075C115.562 112.075 114.842 111.905 114.212 111.565C113.592 111.215 113.107 110.735 112.757 110.125C112.407 109.515 112.232 108.825 112.232 108.055C112.232 107.285 112.397 106.595 112.727 105.985C113.067 105.375 113.527 104.9 114.107 104.56C114.697 104.22 115.357 104.05 116.087 104.05C116.817 104.05 117.472 104.22 118.052 104.56C118.632 104.9 119.087 105.375 119.417 105.985C119.747 106.585 119.912 107.275 119.912 108.055L119.897 108.385ZM116.087 104.965C115.327 104.965 114.687 105.21 114.167 105.7C113.657 106.18 113.367 106.81 113.297 107.59H118.892C118.822 106.81 118.527 106.18 118.007 105.7C117.497 105.21 116.857 104.965 116.087 104.965ZM126.1 104.05C127.09 104.05 127.875 104.34 128.455 104.92C129.045 105.49 129.34 106.325 129.34 107.425V112H128.275V107.53C128.275 106.71 128.07 106.085 127.66 105.655C127.25 105.225 126.665 105.01 125.905 105.01C125.055 105.01 124.38 105.265 123.88 105.775C123.39 106.275 123.145 106.97 123.145 107.86V112H122.08V104.11H123.1V105.565C123.39 105.085 123.79 104.715 124.3 104.455C124.82 104.185 125.42 104.05 126.1 104.05ZM85.245 122.05C86.275 122.05 87.065 122.31 87.615 122.83C88.165 123.34 88.44 124.1 88.44 125.11V130H87.42V128.77C87.18 129.18 86.825 129.5 86.355 129.73C85.895 129.96 85.345 130.075 84.705 130.075C83.825 130.075 83.125 129.865 82.605 129.445C82.085 129.025 81.825 128.47 81.825 127.78C81.825 127.11 82.065 126.57 82.545 126.16C83.035 125.75 83.81 125.545 84.87 125.545H87.375V125.065C87.375 124.385 87.185 123.87 86.805 123.52C86.425 123.16 85.87 122.98 85.14 122.98C84.64 122.98 84.16 123.065 83.7 123.235C83.24 123.395 82.845 123.62 82.515 123.91L82.035 123.115C82.435 122.775 82.915 122.515 83.475 122.335C84.035 122.145 84.625 122.05 85.245 122.05ZM84.87 129.235C85.47 129.235 85.985 129.1 86.415 128.83C86.845 128.55 87.165 128.15 87.375 127.63V126.34H84.9C83.55 126.34 82.875 126.81 82.875 127.75C82.875 128.21 83.05 128.575 83.4 128.845C83.75 129.105 84.24 129.235 84.87 129.235ZM92.3527 123.655C92.6027 123.125 92.9727 122.725 93.4627 122.455C93.9627 122.185 94.5777 122.05 95.3077 122.05V123.085L95.0527 123.07C94.2227 123.07 93.5727 123.325 93.1027 123.835C92.6327 124.345 92.3977 125.06 92.3977 125.98V130H91.3327V122.11H92.3527V123.655ZM107.076 122.05C108.066 122.05 108.841 122.335 109.401 122.905C109.971 123.475 110.256 124.315 110.256 125.425V130H109.191V125.53C109.191 124.71 108.991 124.085 108.591 123.655C108.201 123.225 107.646 123.01 106.926 123.01C106.106 123.01 105.461 123.265 104.991 123.775C104.521 124.275 104.286 124.97 104.286 125.86V130H103.221V125.53C103.221 124.71 103.021 124.085 102.621 123.655C102.231 123.225 101.671 123.01 100.941 123.01C100.131 123.01 99.486 123.265 99.006 123.775C98.536 124.275 98.301 124.97 98.301 125.86V130H97.236V122.11H98.256V123.55C98.536 123.07 98.926 122.7 99.426 122.44C99.926 122.18 100.501 122.05 101.151 122.05C101.811 122.05 102.381 122.19 102.861 122.47C103.351 122.75 103.716 123.165 103.956 123.715C104.246 123.195 104.661 122.79 105.201 122.5C105.751 122.2 106.376 122.05 107.076 122.05ZM120.043 126.385H113.443C113.503 127.205 113.818 127.87 114.388 128.38C114.958 128.88 115.678 129.13 116.548 129.13C117.038 129.13 117.488 129.045 117.898 128.875C118.308 128.695 118.663 128.435 118.963 128.095L119.563 128.785C119.213 129.205 118.773 129.525 118.243 129.745C117.723 129.965 117.148 130.075 116.518 130.075C115.708 130.075 114.988 129.905 114.358 129.565C113.738 129.215 113.253 128.735 112.903 128.125C112.553 127.515 112.378 126.825 112.378 126.055C112.378 125.285 112.543 124.595 112.873 123.985C113.213 123.375 113.673 122.9 114.253 122.56C114.843 122.22 115.503 122.05 116.233 122.05C116.963 122.05 117.618 122.22 118.198 122.56C118.778 122.9 119.233 123.375 119.563 123.985C119.893 124.585 120.058 125.275 120.058 126.055L120.043 126.385ZM116.233 122.965C115.473 122.965 114.833 123.21 114.313 123.7C113.803 124.18 113.513 124.81 113.443 125.59H119.038C118.968 124.81 118.673 124.18 118.153 123.7C117.643 123.21 117.003 122.965 116.233 122.965ZM126.246 122.05C127.236 122.05 128.021 122.34 128.601 122.92C129.191 123.49 129.486 124.325 129.486 125.425V130H128.421V125.53C128.421 124.71 128.216 124.085 127.806 123.655C127.396 123.225 126.811 123.01 126.051 123.01C125.201 123.01 124.526 123.265 124.026 123.775C123.536 124.275 123.291 124.97 123.291 125.86V130H122.226V122.11H123.246V123.565C123.536 123.085 123.936 122.715 124.446 122.455C124.966 122.185 125.566 122.05 126.246 122.05ZM89.79 140.11V147.04C89.79 148.38 89.46 149.37 88.8 150.01C88.15 150.66 87.165 150.985 85.845 150.985C85.115 150.985 84.42 150.875 83.76 150.655C83.11 150.445 82.58 150.15 82.17 149.77L82.71 148.96C83.09 149.3 83.55 149.565 84.09 149.755C84.64 149.945 85.215 150.04 85.815 150.04C86.815 150.04 87.55 149.805 88.02 149.335C88.49 148.875 88.725 148.155 88.725 147.175V146.17C88.395 146.67 87.96 147.05 87.42 147.31C86.89 147.57 86.3 147.7 85.65 147.7C84.91 147.7 84.235 147.54 83.625 147.22C83.025 146.89 82.55 146.435 82.2 145.855C81.86 145.265 81.69 144.6 81.69 143.86C81.69 143.12 81.86 142.46 82.2 141.88C82.55 141.3 83.025 140.85 83.625 140.53C84.225 140.21 84.9 140.05 85.65 140.05C86.32 140.05 86.925 140.185 87.465 140.455C88.005 140.725 88.44 141.115 88.77 141.625V140.11H89.79ZM85.755 146.755C86.325 146.755 86.84 146.635 87.3 146.395C87.76 146.145 88.115 145.8 88.365 145.36C88.625 144.92 88.755 144.42 88.755 143.86C88.755 143.3 88.625 142.805 88.365 142.375C88.115 141.935 87.76 141.595 87.3 141.355C86.85 141.105 86.335 140.98 85.755 140.98C85.185 140.98 84.67 141.1 84.21 141.34C83.76 141.58 83.405 141.92 83.145 142.36C82.895 142.8 82.77 143.3 82.77 143.86C82.77 144.42 82.895 144.92 83.145 145.36C83.405 145.8 83.76 146.145 84.21 146.395C84.67 146.635 85.185 146.755 85.755 146.755ZM93.7882 141.655C94.0382 141.125 94.4082 140.725 94.8982 140.455C95.3982 140.185 96.0132 140.05 96.7432 140.05V141.085L96.4882 141.07C95.6582 141.07 95.0082 141.325 94.5382 141.835C94.0682 142.345 93.8332 143.06 93.8332 143.98V148H92.7682V140.11H93.7882V141.655ZM101.823 148.075C101.063 148.075 100.378 147.905 99.7683 147.565C99.1583 147.215 98.6783 146.735 98.3283 146.125C97.9783 145.515 97.8033 144.825 97.8033 144.055C97.8033 143.285 97.9783 142.595 98.3283 141.985C98.6783 141.375 99.1583 140.9 99.7683 140.56C100.378 140.22 101.063 140.05 101.823 140.05C102.583 140.05 103.268 140.22 103.878 140.56C104.488 140.9 104.963 141.375 105.303 141.985C105.653 142.595 105.828 143.285 105.828 144.055C105.828 144.825 105.653 145.515 105.303 146.125C104.963 146.735 104.488 147.215 103.878 147.565C103.268 147.905 102.583 148.075 101.823 148.075ZM101.823 147.13C102.383 147.13 102.883 147.005 103.323 146.755C103.773 146.495 104.123 146.13 104.373 145.66C104.623 145.19 104.748 144.655 104.748 144.055C104.748 143.455 104.623 142.92 104.373 142.45C104.123 141.98 103.773 141.62 103.323 141.37C102.883 141.11 102.383 140.98 101.823 140.98C101.263 140.98 100.758 141.11 100.308 141.37C99.8683 141.62 99.5183 141.98 99.2583 142.45C99.0083 142.92 98.8833 143.455 98.8833 144.055C98.8833 144.655 99.0083 145.19 99.2583 145.66C99.5183 146.13 99.8683 146.495 100.308 146.755C100.758 147.005 101.263 147.13 101.823 147.13ZM112.158 147.52C111.958 147.7 111.708 147.84 111.408 147.94C111.118 148.03 110.813 148.075 110.493 148.075C109.753 148.075 109.183 147.875 108.783 147.475C108.383 147.075 108.183 146.51 108.183 145.78V141.01H106.773V140.11H108.183V138.385H109.248V140.11H111.648V141.01H109.248V145.72C109.248 146.19 109.363 146.55 109.593 146.8C109.833 147.04 110.173 147.16 110.613 147.16C110.833 147.16 111.043 147.125 111.243 147.055C111.453 146.985 111.633 146.885 111.783 146.755L112.158 147.52ZM120.688 144.385H114.088C114.148 145.205 114.463 145.87 115.033 146.38C115.603 146.88 116.323 147.13 117.193 147.13C117.683 147.13 118.133 147.045 118.543 146.875C118.953 146.695 119.308 146.435 119.608 146.095L120.208 146.785C119.858 147.205 119.418 147.525 118.888 147.745C118.368 147.965 117.793 148.075 117.163 148.075C116.353 148.075 115.633 147.905 115.003 147.565C114.383 147.215 113.898 146.735 113.548 146.125C113.198 145.515 113.023 144.825 113.023 144.055C113.023 143.285 113.188 142.595 113.518 141.985C113.858 141.375 114.318 140.9 114.898 140.56C115.488 140.22 116.148 140.05 116.878 140.05C117.608 140.05 118.263 140.22 118.843 140.56C119.423 140.9 119.878 141.375 120.208 141.985C120.538 142.585 120.703 143.275 120.703 144.055L120.688 144.385ZM116.878 140.965C116.118 140.965 115.478 141.21 114.958 141.7C114.448 142.18 114.158 142.81 114.088 143.59H119.683C119.613 142.81 119.318 142.18 118.798 141.7C118.288 141.21 117.648 140.965 116.878 140.965ZM130.862 140.05C131.602 140.05 132.272 140.22 132.872 140.56C133.472 140.89 133.942 141.36 134.282 141.97C134.622 142.58 134.792 143.275 134.792 144.055C134.792 144.835 134.622 145.53 134.282 146.14C133.942 146.75 133.472 147.225 132.872 147.565C132.272 147.905 131.602 148.075 130.862 148.075C130.202 148.075 129.607 147.935 129.077 147.655C128.557 147.375 128.137 146.97 127.817 146.44V148H126.797V136.87H127.862V141.61C128.192 141.1 128.612 140.715 129.122 140.455C129.642 140.185 130.222 140.05 130.862 140.05ZM130.787 147.13C131.337 147.13 131.837 147.005 132.287 146.755C132.737 146.495 133.087 146.13 133.337 145.66C133.597 145.19 133.727 144.655 133.727 144.055C133.727 143.455 133.597 142.92 133.337 142.45C133.087 141.98 132.737 141.62 132.287 141.37C131.837 141.11 131.337 140.98 130.787 140.98C130.227 140.98 129.722 141.11 129.272 141.37C128.832 141.62 128.482 141.98 128.222 142.45C127.972 142.92 127.847 143.455 127.847 144.055C127.847 144.655 127.972 145.19 128.222 145.66C128.482 146.13 128.832 146.495 129.272 146.755C129.722 147.005 130.227 147.13 130.787 147.13ZM136.963 140.11H138.028V148H136.963V140.11ZM137.503 138.385C137.283 138.385 137.098 138.31 136.948 138.16C136.798 138.01 136.723 137.83 136.723 137.62C136.723 137.42 136.798 137.245 136.948 137.095C137.098 136.945 137.283 136.87 137.503 136.87C137.723 136.87 137.908 136.945 138.058 137.095C138.208 137.235 138.283 137.405 138.283 137.605C138.283 137.825 138.208 138.01 138.058 138.16C137.908 138.31 137.723 138.385 137.503 138.385ZM143.916 144.04L142.056 145.75V148H140.991V136.87H142.056V144.415L146.766 140.11H148.086L144.711 143.335L148.401 148H147.096L143.916 144.04ZM149.882 140.11H150.947V148H149.882V140.11ZM150.422 138.385C150.202 138.385 150.017 138.31 149.867 138.16C149.717 138.01 149.642 137.83 149.642 137.62C149.642 137.42 149.717 137.245 149.867 137.095C150.017 136.945 150.202 136.87 150.422 136.87C150.642 136.87 150.827 136.945 150.977 137.095C151.127 137.235 151.202 137.405 151.202 137.605C151.202 137.825 151.127 138.01 150.977 138.16C150.827 138.31 150.642 138.385 150.422 138.385ZM157.931 140.05C158.921 140.05 159.706 140.34 160.286 140.92C160.876 141.49 161.171 142.325 161.171 143.425V148H160.106V143.53C160.106 142.71 159.901 142.085 159.491 141.655C159.081 141.225 158.496 141.01 157.736 141.01C156.886 141.01 156.211 141.265 155.711 141.775C155.221 142.275 154.976 142.97 154.976 143.86V148H153.911V140.11H154.931V141.565C155.221 141.085 155.621 140.715 156.131 140.455C156.651 140.185 157.251 140.05 157.931 140.05ZM164.062 140.11H165.127V148H164.062V140.11ZM164.602 138.385C164.382 138.385 164.197 138.31 164.047 138.16C163.897 138.01 163.822 137.83 163.822 137.62C163.822 137.42 163.897 137.245 164.047 137.095C164.197 136.945 164.382 136.87 164.602 136.87C164.822 136.87 165.007 136.945 165.157 137.095C165.307 137.235 165.382 137.405 165.382 137.605C165.382 137.825 165.307 138.01 165.157 138.16C165.007 138.31 164.822 138.385 164.602 138.385ZM168.09 136.87H169.155V148H168.09V136.87ZM172.119 140.11H173.184V148H172.119V140.11ZM172.659 138.385C172.439 138.385 172.254 138.31 172.104 138.16C171.954 138.01 171.879 137.83 171.879 137.62C171.879 137.42 171.954 137.245 172.104 137.095C172.254 136.945 172.439 136.87 172.659 136.87C172.879 136.87 173.064 136.945 173.214 137.095C173.364 137.235 173.439 137.405 173.439 137.605C173.439 137.825 173.364 138.01 173.214 138.16C173.064 138.31 172.879 138.385 172.659 138.385ZM174.977 150.985C174.647 150.985 174.337 150.94 174.047 150.85C173.747 150.77 173.502 150.645 173.312 150.475L173.687 149.665C173.997 149.935 174.407 150.07 174.917 150.07C175.337 150.07 175.657 149.945 175.877 149.695C176.107 149.445 176.222 149.075 176.222 148.585V140.11H177.287V148.585C177.287 149.325 177.087 149.91 176.687 150.34C176.287 150.77 175.717 150.985 174.977 150.985ZM176.762 138.37C176.542 138.37 176.357 138.295 176.207 138.145C176.057 137.995 175.982 137.815 175.982 137.605C175.982 137.405 176.057 137.23 176.207 137.08C176.357 136.93 176.542 136.855 176.762 136.855C176.982 136.855 177.167 136.93 177.317 137.08C177.467 137.22 177.542 137.39 177.542 137.59C177.542 137.81 177.467 137.995 177.317 138.145C177.167 138.295 176.982 138.37 176.762 138.37ZM184.283 140.05C185.273 140.05 186.058 140.34 186.638 140.92C187.228 141.49 187.523 142.325 187.523 143.425V148H186.458V143.53C186.458 142.71 186.253 142.085 185.843 141.655C185.433 141.225 184.848 141.01 184.088 141.01C183.238 141.01 182.563 141.265 182.063 141.775C181.573 142.275 181.328 142.97 181.328 143.86V148H180.263V140.11H181.283V141.565C181.573 141.085 181.973 140.715 182.483 140.455C183.003 140.185 183.603 140.05 184.283 140.05ZM85.71 166.075C84.95 166.075 84.265 165.905 83.655 165.565C83.045 165.215 82.565 164.735 82.215 164.125C81.865 163.515 81.69 162.825 81.69 162.055C81.69 161.285 81.865 160.595 82.215 159.985C82.565 159.375 83.045 158.9 83.655 158.56C84.265 158.22 84.95 158.05 85.71 158.05C86.47 158.05 87.155 158.22 87.765 158.56C88.375 158.9 88.85 159.375 89.19 159.985C89.54 160.595 89.715 161.285 89.715 162.055C89.715 162.825 89.54 163.515 89.19 164.125C88.85 164.735 88.375 165.215 87.765 165.565C87.155 165.905 86.47 166.075 85.71 166.075ZM85.71 165.13C86.27 165.13 86.77 165.005 87.21 164.755C87.66 164.495 88.01 164.13 88.26 163.66C88.51 163.19 88.635 162.655 88.635 162.055C88.635 161.455 88.51 160.92 88.26 160.45C88.01 159.98 87.66 159.62 87.21 159.37C86.77 159.11 86.27 158.98 85.71 158.98C85.15 158.98 84.645 159.11 84.195 159.37C83.755 159.62 83.405 159.98 83.145 160.45C82.895 160.92 82.77 161.455 82.77 162.055C82.77 162.655 82.895 163.19 83.145 163.66C83.405 164.13 83.755 164.495 84.195 164.755C84.645 165.005 85.15 165.13 85.71 165.13ZM94.8143 162.04L92.9543 163.75V166H91.8893V154.87H92.9543V162.415L97.6643 158.11H98.9843L95.6093 161.335L99.2993 166H97.9943L94.8143 162.04ZM102.779 166.075C102.139 166.075 101.524 165.985 100.934 165.805C100.354 165.615 99.8987 165.38 99.5687 165.1L100.049 164.26C100.379 164.52 100.794 164.735 101.294 164.905C101.794 165.065 102.314 165.145 102.854 165.145C103.574 165.145 104.104 165.035 104.444 164.815C104.794 164.585 104.969 164.265 104.969 163.855C104.969 163.565 104.874 163.34 104.684 163.18C104.494 163.01 104.254 162.885 103.964 162.805C103.674 162.715 103.289 162.63 102.809 162.55C102.169 162.43 101.654 162.31 101.264 162.19C100.874 162.06 100.539 161.845 100.259 161.545C99.9887 161.245 99.8537 160.83 99.8537 160.3C99.8537 159.64 100.129 159.1 100.679 158.68C101.229 158.26 101.994 158.05 102.974 158.05C103.484 158.05 103.994 158.12 104.504 158.26C105.014 158.39 105.434 158.565 105.764 158.785L105.299 159.64C104.649 159.19 103.874 158.965 102.974 158.965C102.294 158.965 101.779 159.085 101.429 159.325C101.089 159.565 100.919 159.88 100.919 160.27C100.919 160.57 101.014 160.81 101.204 160.99C101.404 161.17 101.649 161.305 101.939 161.395C102.229 161.475 102.629 161.56 103.139 161.65C103.769 161.77 104.274 161.89 104.654 162.01C105.034 162.13 105.359 162.335 105.629 162.625C105.899 162.915 106.034 163.315 106.034 163.825C106.034 164.515 105.744 165.065 105.164 165.475C104.594 165.875 103.799 166.075 102.779 166.075ZM114.873 162.385H108.273C108.333 163.205 108.648 163.87 109.218 164.38C109.788 164.88 110.508 165.13 111.378 165.13C111.868 165.13 112.318 165.045 112.728 164.875C113.138 164.695 113.493 164.435 113.793 164.095L114.393 164.785C114.043 165.205 113.603 165.525 113.073 165.745C112.553 165.965 111.978 166.075 111.348 166.075C110.538 166.075 109.818 165.905 109.188 165.565C108.568 165.215 108.083 164.735 107.733 164.125C107.383 163.515 107.208 162.825 107.208 162.055C107.208 161.285 107.373 160.595 107.703 159.985C108.043 159.375 108.503 158.9 109.083 158.56C109.673 158.22 110.333 158.05 111.063 158.05C111.793 158.05 112.448 158.22 113.028 158.56C113.608 158.9 114.063 159.375 114.393 159.985C114.723 160.585 114.888 161.275 114.888 162.055L114.873 162.385ZM111.063 158.965C110.303 158.965 109.663 159.21 109.143 159.7C108.633 160.18 108.343 160.81 108.273 161.59H113.868C113.798 160.81 113.503 160.18 112.983 159.7C112.473 159.21 111.833 158.965 111.063 158.965ZM117.055 154.87H118.12V166H117.055V154.87ZM123.199 166.075C122.559 166.075 121.944 165.985 121.354 165.805C120.774 165.615 120.319 165.38 119.989 165.1L120.469 164.26C120.799 164.52 121.214 164.735 121.714 164.905C122.214 165.065 122.734 165.145 123.274 165.145C123.994 165.145 124.524 165.035 124.864 164.815C125.214 164.585 125.389 164.265 125.389 163.855C125.389 163.565 125.294 163.34 125.104 163.18C124.914 163.01 124.674 162.885 124.384 162.805C124.094 162.715 123.709 162.63 123.229 162.55C122.589 162.43 122.074 162.31 121.684 162.19C121.294 162.06 120.959 161.845 120.679 161.545C120.409 161.245 120.274 160.83 120.274 160.3C120.274 159.64 120.549 159.1 121.099 158.68C121.649 158.26 122.414 158.05 123.394 158.05C123.904 158.05 124.414 158.12 124.924 158.26C125.434 158.39 125.854 158.565 126.184 158.785L125.719 159.64C125.069 159.19 124.294 158.965 123.394 158.965C122.714 158.965 122.199 159.085 121.849 159.325C121.509 159.565 121.339 159.88 121.339 160.27C121.339 160.57 121.434 160.81 121.624 160.99C121.824 161.17 122.069 161.305 122.359 161.395C122.649 161.475 123.049 161.56 123.559 161.65C124.189 161.77 124.694 161.89 125.074 162.01C125.454 162.13 125.779 162.335 126.049 162.625C126.319 162.915 126.454 163.315 126.454 163.825C126.454 164.515 126.164 165.065 125.584 165.475C125.014 165.875 124.219 166.075 123.199 166.075Z" fill="#D256AD"/>
<path d="M61 208H208V1H22V48" stroke="#D256AD"/>
<path d="M0.0208094 218.869C0.0416188 218.932 0.0416188 218.974 0.0624283 219.016C0.0832377 219.037 0.0624283 219.058 0.0832377 219.079L0.541045 219.605C0.541045 219.605 0.561854 219.605 0.561854 219.626C0.582664 219.626 0.561854 219.647 0.582664 219.668L1.22776 220.193C1.24857 220.214 1.26937 220.214 1.29018 220.214C1.31099 220.235 1.31099 220.256 1.3318 220.256L2.10175 220.551C2.18499 220.572 2.22661 220.572 2.28904 220.572H2.60118L2.49713 220.908C2.49713 220.929 2.49713 220.95 2.49713 220.971C2.49713 220.992 2.47632 221.013 2.47632 221.034V221.917C2.47632 221.917 2.47632 221.917 2.47632 221.938C2.47632 221.938 2.47632 221.938 2.47632 221.959L2.60118 223.725C2.60118 223.746 2.62199 223.746 2.62199 223.767C2.6428 223.81 2.66361 223.852 2.68442 223.894C2.70522 223.936 2.74684 223.978 2.78846 224.02C2.80927 224.041 2.80927 224.062 2.83008 224.062L4.76536 225.071C4.78617 225.071 4.80698 225.071 4.82779 225.092C4.84859 225.092 4.84859 225.113 4.84859 225.113L5.84745 225.344C5.88907 225.344 5.90987 225.365 5.95149 225.365H7.05439C7.0752 225.365 7.0752 225.365 7.09601 225.365L9.718 225.071C9.73881 225.071 9.73881 225.05 9.73881 225.05C9.78043 225.05 9.82205 225.05 9.86366 225.029L11.2787 224.314C11.3411 224.272 11.4036 224.23 11.4452 224.146L12.0695 222.884L13.3388 222.926L14.1296 223.137L14.7331 223.473C14.7955 223.515 14.8579 223.515 14.9412 223.515C15.0452 223.515 15.1493 223.473 15.2325 223.389L15.4614 223.158C15.5238 223.095 15.5238 223.032 15.5446 222.948C15.5446 222.926 15.5863 222.884 15.5863 222.863V220.887L15.6903 219.71L15.9608 218.911L18.0418 215.106C18.0418 215.084 18.0418 215.085 18.0418 215.063C18.0418 215.042 18.0626 215.042 18.0626 215.021L18.4788 213.718C18.4788 213.697 18.4788 213.697 18.4788 213.676C18.4788 213.655 18.4996 213.655 18.4996 213.634L18.6244 212.814V212.793C18.6244 212.772 18.6452 212.772 18.6452 212.772V210.985L19.103 209.03C19.103 209.009 19.0822 209.009 19.103 208.987C19.1239 208.966 19.1239 208.966 19.1239 208.945V207.327L19.4152 203.248L20.0603 199.316L20.9967 195.721L21.5169 193.766C21.5169 193.745 21.4961 193.724 21.5169 193.703C21.5169 193.682 21.5378 193.682 21.5378 193.661V191.937L22.599 186.723V186.702L22.6198 186.681L22.8904 184.116L23.7435 181.719L24.5967 180.269C24.6175 180.247 24.5967 180.205 24.6175 180.184C24.6384 180.163 24.6592 180.142 24.6592 180.1L24.784 179.028C24.784 179.028 24.784 179.028 24.784 179.007C24.784 178.986 24.784 179.007 24.784 178.986L24.9089 176.652L25.117 175.58L25.7204 174.529C25.7413 174.487 25.7204 174.466 25.7413 174.424C25.7621 174.382 25.7829 174.361 25.7829 174.319V172.048L26.6152 170.366V170.345C26.6152 170.324 26.6361 170.324 26.6361 170.324L27.2811 168.432C27.2811 168.411 27.2811 168.411 27.2811 168.39C27.2811 168.369 27.302 168.369 27.302 168.348L27.6557 165.089L28.8002 162.125C28.8002 162.125 28.8002 162.125 28.8002 162.104L29.3829 160.275C29.3829 160.275 29.3829 160.275 29.3829 160.254L29.6118 159.392L29.7159 159.118C29.7367 159.076 29.7159 159.034 29.7159 158.971C29.7159 158.908 29.7367 158.866 29.7159 158.803C29.695 158.74 29.6534 158.719 29.6118 158.677L29.591 158.656L31.5887 155.965L32.213 155.271C32.2338 155.25 32.213 155.229 32.2338 155.229C32.2546 155.208 32.2754 155.187 32.2962 155.145L32.65 154.262V154.241L32.6708 154.22L33.1286 152.559V152.538C33.1286 152.538 33.1286 152.517 33.1494 152.517L33.7945 149.111L34.2939 147.639L35.0431 146.125C35.0431 146.104 35.0431 146.104 35.0431 146.083C35.0431 146.062 35.0639 146.062 35.0639 146.041L35.5217 144.107L36.146 142.32L37.124 140.701C37.1448 140.68 37.124 140.659 37.124 140.638C37.1448 140.617 37.1656 140.596 37.1656 140.575L37.4986 139.208L39.2674 136.244C39.2674 136.244 39.2674 136.244 39.2882 136.223L40.2038 134.478L41.1402 133.364L41.3483 133.301L41.5772 133.91V135.256C41.5772 135.298 41.598 135.319 41.6188 135.361C41.6188 135.403 41.6188 135.424 41.6396 135.466L41.9518 136.034L41.9934 136.559L41.931 137.905C41.931 137.905 41.931 137.905 41.931 137.926C41.931 137.926 41.931 137.926 41.931 137.947L41.9934 140.617C41.9934 140.638 42.0142 140.638 42.0142 140.659C42.0142 140.68 41.9934 140.701 42.0142 140.701L42.8258 143.729V147.219C42.8258 147.219 42.8258 147.24 42.8466 147.24V147.261L43.0131 148.858L43.3668 151.676V154.724C43.3668 154.745 43.3876 154.745 43.3876 154.766C43.3876 154.787 43.3668 154.787 43.3876 154.808L43.6165 156.196V158.109L43.4917 161.284L43.0339 164.458C43.0339 164.479 43.0339 164.479 43.0339 164.479L43.0131 164.5V165.447C43.0131 165.489 43.0547 165.531 43.0547 165.573C43.0755 165.615 43.0547 165.657 43.0755 165.699L43.6582 166.582L44.4697 167.801C44.4489 167.822 44.4281 167.843 44.4073 167.864C44.4073 167.885 44.3865 167.885 44.3657 167.906L44.1576 168.411L43.6582 169.21C43.6582 169.231 43.6582 169.231 43.6582 169.252C43.6582 169.273 43.6374 169.273 43.6374 169.294L43.2836 170.177C43.2628 170.198 43.2836 170.219 43.2836 170.261C43.2836 170.282 43.2628 170.303 43.2628 170.345V170.934C43.2628 170.976 43.2836 170.997 43.3044 171.018C43.3044 171.06 43.2836 171.081 43.3044 171.123L43.6165 171.775L43.7622 172.49L43.2836 173.625V173.646L43.2628 173.667L43.0339 174.487C43.0339 174.508 43.0547 174.529 43.0339 174.55C43.0339 174.571 43.0131 174.592 43.0131 174.613V175.748C43.0131 175.769 43.0339 175.79 43.0547 175.832C43.0547 175.853 43.0339 175.896 43.0547 175.917L43.3668 176.631L43.2628 177.325L42.8674 179.386L41.7645 183.38L41.3067 185.398C41.3067 185.419 41.3275 185.44 41.3067 185.44C41.3067 185.461 41.2859 185.462 41.2859 185.483V187.501C41.2859 187.501 41.2859 187.501 41.2859 187.522C41.2859 187.543 41.2859 187.522 41.2859 187.543L41.4107 189.456L41.1194 191.979L40.1206 196.352V196.373L40.0998 196.394L39.6419 201.314L39.0177 203.395C39.0177 203.416 39.0177 203.437 39.0177 203.458C39.0177 203.479 38.9969 203.479 38.9969 203.5L38.8928 205.413L38.3934 206.402C38.3726 206.423 38.3934 206.465 38.3934 206.486C38.3934 206.507 38.3518 206.528 38.3518 206.549L38.2269 207.726V207.747V207.768V212.036L37.894 213.213C37.894 213.234 37.9148 213.255 37.894 213.276C37.894 213.297 37.8731 213.318 37.8731 213.339V214.37L37.7691 215.106L37.2697 216.241L36.7494 217.481C36.7494 217.502 36.7494 217.502 36.7494 217.523C36.7494 217.544 36.7286 217.544 36.7286 217.565L36.4997 218.68C36.4789 218.722 36.5205 218.764 36.5205 218.806C36.5205 218.869 36.5205 218.911 36.5413 218.974C36.5621 219.016 36.6038 219.037 36.6454 219.079C36.687 219.1 36.687 219.142 36.7286 219.163L38.0812 219.689L37.8731 222.043C37.8731 222.065 37.894 222.086 37.894 222.107C37.894 222.128 37.8731 222.149 37.8731 222.17L37.998 222.758C37.998 222.779 38.0396 222.8 38.0396 222.842C38.0396 222.863 38.0396 222.884 38.0604 222.905L38.5182 223.662C38.5182 223.662 38.539 223.662 38.539 223.683C38.5599 223.704 38.539 223.704 38.5599 223.725L39.0801 224.314C39.1009 224.335 39.1217 224.335 39.1425 224.356C39.1633 224.377 39.1841 224.419 39.2049 224.419L39.9749 224.777H39.9957L40.8697 225.134C40.9113 225.155 40.9737 225.155 41.0154 225.155H41.7853C41.8061 225.155 41.8477 225.155 41.8686 225.155L43.3252 224.861C43.346 224.861 43.346 224.84 43.346 224.84C43.3668 224.84 43.4085 224.84 43.4293 224.819L44.4697 224.293L44.9692 224.083H45.1148C45.1356 224.083 45.1772 224.083 45.1981 224.083L45.7183 223.957C45.7391 223.957 45.7599 223.915 45.7807 223.915C45.8223 223.894 45.864 223.894 45.8848 223.873L46.9877 222.99C46.9877 222.99 46.9877 222.99 46.9877 222.969C47.0501 222.905 47.1125 222.842 47.1333 222.758L47.4247 221.518V221.497L47.4455 221.476L47.5287 220.593L49.568 220.446L51.0039 220.383H51.0247C51.0247 220.383 51.0247 220.383 51.0455 220.383C51.0871 220.383 51.1496 220.383 51.1912 220.362L51.7114 220.13C51.753 220.109 51.753 220.067 51.7946 220.046C51.8155 220.025 51.8571 220.025 51.8779 220.004L52.6478 219.058C52.6686 219.016 52.6686 218.974 52.6894 218.932C52.7103 218.89 52.7519 218.848 52.7519 218.806L52.9808 212.604L53.501 206.423L53.8548 202.302L54.5831 198.749L55.3114 197.571C55.3322 197.529 55.3114 197.487 55.3322 197.445C55.3531 197.403 55.3739 197.382 55.3739 197.34V196.415L55.4987 194.67C55.4987 194.67 55.4987 194.67 55.4987 194.649C55.4987 194.649 55.4987 194.649 55.4987 194.628V190.654L55.7068 189.898C55.7068 189.877 55.686 189.856 55.7068 189.835C55.7068 189.813 55.7276 189.792 55.7276 189.771V187.354L56.0814 184.389L56.6016 181.572V181.551C56.6016 181.53 56.6224 181.53 56.6224 181.53L56.7473 178.755L56.8721 173.331L57.3299 168.642C57.3508 168.579 57.3924 168.537 57.3924 168.474V167.969L57.5589 167.549L57.8918 167.255C57.9126 167.234 57.9126 167.213 57.9126 167.213C57.9334 167.192 57.975 167.149 57.9959 167.107L58.2248 166.582C58.2456 166.54 58.2248 166.519 58.2248 166.477C58.2248 166.435 58.2664 166.414 58.2664 166.393L58.1623 164.437L59.1404 159.938C59.1404 159.938 59.1404 159.938 59.1404 159.917C59.1404 159.917 59.1404 159.917 59.1404 159.896L59.4941 157.478V157.457C59.4941 157.436 59.5149 157.436 59.5149 157.436V155.187L59.8063 150.856L60.6803 146.209C60.6803 146.188 60.6595 146.188 60.6803 146.167C60.6803 146.146 60.7011 146.146 60.7011 146.125V141.605L62.4491 132.775C62.4491 132.754 62.4283 132.754 62.4491 132.733C62.4699 132.712 62.4699 132.712 62.4699 132.691V126.068C62.4699 126.068 62.4699 126.068 62.4699 126.047C62.4699 126.047 62.4699 126.047 62.4699 126.026L62.345 123.608V121.737C62.345 121.695 62.3034 121.653 62.3034 121.611C62.2826 121.569 62.3034 121.527 62.2826 121.485L61.9913 121.065C61.9705 121.044 61.9288 121.044 61.908 121.001C61.8872 120.98 61.8664 120.938 61.8456 120.917H61.8248L61.9288 120.602V120.581C61.9288 120.56 61.9496 120.56 61.9496 120.56L62.2202 119.214L63.115 117.764L64.7173 115.388L65.737 114.358C65.7578 114.337 65.737 114.316 65.7578 114.316C65.7786 114.295 65.7994 114.274 65.8202 114.232L66.174 113.412C66.1948 113.391 66.174 113.349 66.174 113.328C66.174 113.307 66.2156 113.286 66.2156 113.244V110.931C66.2156 110.91 66.1948 110.889 66.1948 110.868C66.1948 110.847 66.2156 110.826 66.1948 110.805L65.841 109.691C65.841 109.669 65.8202 109.669 65.7994 109.648C65.7994 109.627 65.7994 109.606 65.7786 109.585L64.9254 108.387L64.53 107.315C64.5092 107.273 64.4676 107.252 64.4468 107.231C64.426 107.189 64.426 107.147 64.3843 107.126L63.5728 106.537L63.0317 105.57L62.9277 104.582L63.1566 103.53C63.1566 103.488 63.1358 103.446 63.1358 103.404C63.1358 103.362 63.1566 103.32 63.1358 103.278L62.6572 102.101C62.6572 102.101 62.6364 102.101 62.6364 102.08C62.6155 102.038 62.5739 101.996 62.5115 101.954C62.4699 101.912 62.4491 101.87 62.4074 101.849C62.4074 101.849 62.4074 101.827 62.3866 101.827L61.9288 101.68L61.6375 101.428L61.5751 101.05L61.804 100.797C61.8248 100.776 61.8248 100.734 61.8248 100.713C61.8456 100.671 61.8664 100.629 61.8664 100.566C61.8664 100.503 61.8664 100.461 61.8664 100.419C61.8664 100.398 61.8664 100.377 61.8664 100.335L61.367 99.2625L61.1381 98.1272C61.1381 98.1062 61.1173 98.1062 61.1173 98.0852C61.1173 98.0642 61.1173 98.0431 61.1173 98.0221L60.597 96.9289L60.7843 96.3822C60.7843 96.3822 60.7843 96.3822 60.7843 96.3612C60.8051 96.2981 60.7843 96.2561 60.7635 96.193C60.7635 96.151 60.7635 96.0879 60.7427 96.0458V96.0248L60.0976 94.9105C60.0976 94.9105 60.0768 94.9105 60.0768 94.8895C60.0768 94.8685 60.0768 94.8685 60.0768 94.8685L59.9103 94.6582C59.9311 94.6372 59.9311 94.6162 59.9519 94.5952C59.9727 94.5531 60.0144 94.5111 60.0144 94.469C60.0144 94.427 60.0144 94.3639 59.9936 94.3008C59.9936 94.2588 60.0144 94.2167 59.9936 94.1747C59.9936 94.1537 59.9727 94.1537 59.9519 94.1537C59.9311 94.1327 59.9519 94.1116 59.9311 94.1116L59.8063 93.9224L59.7022 91.6938L59.6398 87.2157V84.5246L60.0352 82.0858C60.0352 82.0648 60.0352 82.0648 60.0352 82.0438C60.0352 82.0227 60.056 82.0228 60.056 82.0017V77.9861L60.1808 72.4357C60.1808 72.4357 60.1808 72.4357 60.1808 72.4147C60.1808 72.4147 60.1808 72.4147 60.1808 72.3937L60.056 69.6185C60.056 69.5765 60.0144 69.5554 60.0144 69.5344C60.0144 69.4924 60.0144 69.4713 59.9936 69.4293L59.2236 68.0627C59.2028 68.0417 59.182 68.0417 59.1612 68.0207C59.1404 67.9997 59.1404 67.9786 59.1404 67.9576L58.0375 66.9695L56.4351 65.1193L55.9773 64.5517L55.8733 63.8369L55.7692 62.5334L56.1646 59.9474L56.6016 59.1905C56.6224 59.1695 56.6016 59.1485 56.6016 59.1275C56.6224 59.1064 56.6432 59.0854 56.6432 59.0434L56.7681 58.2234V58.2024C56.7681 58.1814 56.7889 58.1814 56.7889 58.1814V56.8779C56.7889 56.8779 56.7889 56.8779 56.7889 56.8569L56.664 54.1447C56.664 54.1237 56.6432 54.1237 56.6432 54.1027C56.6432 54.0817 56.664 54.0607 56.6432 54.0396L56.1438 52.4628L56.1854 51.769L56.4768 51.3275C56.4976 51.3065 56.4768 51.2855 56.4976 51.2644C56.5184 51.2434 56.5392 51.2224 56.5392 51.2014L56.893 49.9609C56.893 49.9399 56.8721 49.9189 56.893 49.8979C56.893 49.8768 56.9138 49.8558 56.9138 49.8348V48.4472C56.9138 48.4262 56.893 48.4052 56.893 48.3631C56.893 48.3421 56.9138 48.3211 56.893 48.279L56.3103 46.8073C56.3103 46.8073 56.2895 46.8073 56.2895 46.7863V46.7653L55.9149 46.0294V45.651C55.9149 45.651 55.9149 45.651 55.9149 45.63L55.7901 43.023L55.5611 40.1216C55.5611 40.1006 55.5403 40.1006 55.5403 40.0796C55.5403 40.0586 55.5403 40.0376 55.5403 40.0376L54.7704 37.5567C54.7704 37.5357 54.7496 37.5357 54.7496 37.5147C54.7496 37.4936 54.7496 37.4726 54.7496 37.4726L53.397 35.0759L53.2929 34.0457C53.2721 33.9195 53.2305 33.8144 53.1264 33.7513L52.1484 32.8893C52.1484 32.8893 52.1276 32.8893 52.1276 32.8683C52.1276 32.8683 52.1276 32.8473 52.1068 32.8473L47.1958 29.6516C47.175 29.6516 47.175 29.6516 47.1541 29.6516C47.1333 29.6516 47.1333 29.6306 47.1333 29.6306L46.0304 29.1681C46.0096 29.1471 45.9888 29.1681 45.9472 29.1681C45.9264 29.1681 45.9056 29.126 45.8848 29.126L44.4489 29.0419C44.4281 29.0419 44.4281 29.063 44.4073 29.063C44.3865 29.063 44.3865 29.0419 44.3657 29.0419L43.0755 29.2311L42.3055 29.3573C42.2431 29.3573 42.2015 29.4204 42.1599 29.4414C42.1183 29.4624 42.0766 29.4624 42.035 29.5045L41.7021 29.946H41.6188C41.598 29.946 41.598 29.967 41.5772 29.967C41.5564 29.967 41.5356 29.946 41.5148 29.967L41.3067 30.0301L40.9737 30.0931C40.9737 30.0931 40.9737 30.0931 40.9529 30.0931H40.9321L40.7032 30.1562L40.4119 30.2193C40.4119 30.2193 40.4119 30.2193 40.3911 30.2193C40.3703 30.2193 40.3703 30.2193 40.3703 30.2193L40.1622 30.2824L39.8292 30.3454C39.8084 30.3454 39.7876 30.3875 39.746 30.3875C39.7252 30.4085 39.6836 30.3875 39.6628 30.4085L39.5587 30.4926L39.3922 30.5346L39.3714 30.5557H39.3506L38.9969 30.6818L38.976 30.7028H38.9552L38.7263 30.829C38.7055 30.829 38.7055 30.85 38.7055 30.85H38.6847L38.5182 30.9551C38.4974 30.9551 38.4974 30.9762 38.4974 30.9972C38.4766 30.9972 38.4766 30.9972 38.4558 31.0182L36.8119 32.6791C36.7911 32.7001 36.8119 32.7001 36.7911 32.7212C36.7911 32.7422 36.7702 32.7422 36.7494 32.7422L35.7506 34.2769V34.298C35.7506 34.298 35.7298 34.298 35.7298 34.319L34.7309 36.2112C34.7101 36.2322 34.7309 36.2532 34.7309 36.2742C34.7309 36.2953 34.7101 36.2953 34.6893 36.3373L34.3355 38.0192L33.087 41.257V41.278C33.087 41.278 33.0662 41.278 33.0662 41.299L32.4835 43.5486C32.4835 43.5696 32.5043 43.5906 32.4835 43.6117C32.4835 43.6327 32.4627 43.6537 32.4627 43.6537V45.3146L31.7344 49.0149C31.7344 49.0359 31.7344 49.0359 31.7344 49.0569C31.7344 49.0779 31.7136 49.0779 31.7136 49.099L31.5887 53.0515C31.5887 53.0725 31.6095 53.0935 31.6095 53.0935C31.6095 53.0935 31.5887 53.1356 31.6095 53.1566L31.776 53.8294L31.2974 54.1658L29.695 54.8596C29.6742 54.8596 29.6742 54.8806 29.6534 54.9016C29.6534 54.9016 29.6534 54.9016 29.6326 54.9016L29.1956 54.376L29.0916 54.1868C29.0708 54.1658 29.0499 54.1658 29.0499 54.1447C29.0291 54.1237 29.0499 54.1027 29.0291 54.0817C29.0083 54.0606 28.9667 54.0607 28.9459 54.0396C28.9043 53.9976 28.8627 53.9976 28.8002 53.9766C28.7378 53.9766 28.717 53.9766 28.6546 53.9976C28.613 53.9976 28.5921 53.9766 28.5505 53.9976C28.5297 54.0186 28.5297 54.0396 28.5089 54.0396C28.4881 54.0607 28.4673 54.0396 28.4465 54.0606L28.0719 54.4391L27.4476 54.8596L26.7609 55.0488L26.1158 54.8385C26.095 54.8385 26.0742 54.8385 26.0534 54.8385C26.0326 54.8385 26.0118 54.8175 25.991 54.8175H24.347C24.3262 54.8175 24.3262 54.8175 24.3262 54.8175L22.6823 54.9437C22.6823 54.9437 22.6823 54.9437 22.6615 54.9437C22.6615 54.9437 22.6615 54.9437 22.6406 54.9437L21.7667 55.0698C21.7458 55.0698 21.725 55.0908 21.7042 55.1119C21.6834 55.1119 21.6626 55.1119 21.621 55.1119L20.7678 55.5744L19.2695 56.1L18.5204 56.3943C18.4788 56.4154 18.4788 56.4364 18.4371 56.4574C18.4163 56.4784 18.3747 56.4784 18.3539 56.4995L17.8337 57.1302L17.2094 57.4245L17.1678 57.4455C17.1262 57.4666 17.1262 57.5086 17.0845 57.5296C17.0429 57.5717 17.0013 57.5717 16.9597 57.6348L16.4394 58.686L15.2325 60.6833C15.2117 60.7043 15.2325 60.7253 15.2325 60.7253C15.2325 60.7253 15.2117 60.7463 15.1909 60.7673L14.4209 63.1221C14.4209 63.1431 14.4209 63.1431 14.4209 63.1641L14.4001 63.1851L14.0464 65.2455L13.755 67.0956L13.0059 69.3242V69.3452L12.9851 69.3662L11.9862 74.4541L10.2382 84.1041L9.59314 88.6033L9.23938 90.8319C9.23938 90.8529 9.23938 90.8529 9.23938 90.8739C9.23938 90.8949 9.21857 90.8949 9.21857 90.916V92.9763C9.21857 92.9973 9.23938 93.0184 9.23938 93.0394C9.23938 93.0604 9.21857 93.0814 9.23938 93.1025L9.59314 94.3639L9.75962 95.6043L9.65557 96.9499C9.65557 96.9919 9.67638 97.013 9.69719 97.055C9.69719 97.0971 9.67638 97.1181 9.69719 97.1601L10.5712 99.0313L11.6741 101.891L11.903 103.32C11.903 103.341 11.9238 103.341 11.9238 103.362C11.9238 103.383 11.9238 103.383 11.9238 103.404L12.444 105.002L14.7747 111.393L14.7955 111.414V111.436L15.4406 112.802C15.4406 112.802 15.4406 112.802 15.4614 112.823C15.4822 112.844 15.4614 112.823 15.4614 112.844L16.3354 114.442C16.3354 114.463 16.3562 114.463 16.377 114.463C16.3978 114.484 16.377 114.505 16.3978 114.526L17.5007 115.703H17.5215C17.5215 115.703 17.5215 115.724 17.5423 115.724L18.9366 116.965C18.9366 116.965 18.9366 116.965 18.9574 116.965C19.0198 117.028 19.1239 117.07 19.2279 117.07C19.2695 117.07 19.2903 117.07 19.332 117.049L19.5609 116.986C19.5609 116.986 19.5609 116.986 19.5817 116.986C19.5817 116.986 19.5817 116.986 19.6025 116.986L21.184 119.488C21.2048 119.509 21.2256 119.509 21.2464 119.53C21.2672 119.551 21.2672 119.551 21.288 119.572V119.593C21.3088 119.635 21.3088 119.698 21.3505 119.74L21.3921 119.782C21.3921 119.824 21.4129 119.845 21.4337 119.887C21.4545 119.908 21.4545 119.95 21.4753 119.971V119.992C21.4753 120.076 21.5169 120.118 21.5586 120.182C21.5794 120.203 21.5794 120.245 21.6002 120.266V120.329C21.6002 120.392 21.6418 120.413 21.6626 120.476C21.6834 120.518 21.6834 120.581 21.725 120.623V120.665L21.4129 121.548C21.4129 121.569 21.4129 121.569 21.4129 121.59C21.4129 121.611 21.3921 121.611 21.3921 121.632L21.2672 122.473L20.747 125.29L20.1227 126.741C20.1227 126.762 20.1227 126.783 20.1227 126.804C20.1227 126.825 20.1019 126.825 20.1019 126.846L19.9979 127.645L19.5817 128.276V128.297C19.5817 128.297 19.5609 128.297 19.5609 128.318L19.2695 128.843C19.2487 128.886 19.2695 128.907 19.2487 128.949C19.2279 128.991 19.2071 129.012 19.2071 129.054V129.895L19.0822 131.577C19.0822 131.598 19.103 131.598 19.103 131.619C19.103 131.64 19.0822 131.64 19.0822 131.661L19.1863 132.334L19.103 132.355H18.8533C18.8533 132.355 18.8533 132.355 18.8325 132.355C18.7701 132.355 18.7285 132.397 18.6869 132.418C18.6452 132.439 18.5828 132.439 18.5412 132.481C18.5412 132.481 18.5412 132.481 18.5204 132.481L18.1042 132.943C18.0834 132.985 18.0834 133.027 18.0626 133.069C18.0418 133.111 18.021 133.153 18.021 133.217C18.021 133.28 18.0418 133.301 18.0626 133.364C18.0834 133.406 18.0626 133.448 18.1042 133.49L18.4788 133.952L18.3331 134.057C18.2915 134.079 18.2915 134.121 18.2707 134.163C18.229 134.205 18.1874 134.247 18.1666 134.331L18.0418 134.856C18.0418 134.856 18.0418 134.856 18.0418 134.877L17.8129 136.181C17.8129 136.181 17.8129 136.181 17.8129 136.202V136.223L17.688 137.337L17.584 137.905L17.3134 138.578C17.2926 138.599 17.3134 138.641 17.3134 138.662C17.3134 138.683 17.2718 138.704 17.2718 138.746V139.692L16.5851 140.827C16.5851 140.848 16.5851 140.848 16.5851 140.869C16.5851 140.89 16.5643 140.89 16.5643 140.89L16.3354 141.479V141.5C16.3146 141.563 16.3354 141.605 16.3354 141.668C16.3354 141.731 16.3354 141.773 16.3562 141.815V141.836L16.7516 142.53L16.9389 142.951V143.287L16.9181 143.308C16.8764 143.329 16.8348 143.371 16.7932 143.413C16.7724 143.434 16.7516 143.434 16.7516 143.455L16.4394 143.939C16.4186 143.96 16.4394 144.002 16.4186 144.023C16.4186 144.044 16.377 144.065 16.377 144.086L16.2522 144.969C16.2522 144.99 16.273 144.99 16.273 145.011C16.273 145.032 16.2522 145.032 16.2522 145.053L16.3562 146.609L15.6903 148.291C15.6903 148.312 15.6903 148.333 15.6903 148.333C15.6903 148.333 15.6695 148.354 15.6695 148.375L15.399 150.393L15.066 152.054L14.088 154.136C14.088 154.157 14.088 154.178 14.088 154.178C14.088 154.199 14.0672 154.199 14.0672 154.22L13.9007 155.103C13.9007 155.124 13.9215 155.124 13.9007 155.145C13.8799 155.166 13.8591 155.166 13.8591 155.187V155.965L13.8799 155.986C13.8799 155.986 13.8591 156.007 13.8799 156.007L14.1712 158.067L14.088 158.614L13.5053 159.476C13.4845 159.497 13.5053 159.518 13.4845 159.518C13.4637 159.518 13.4637 159.539 13.4429 159.56L13.1516 160.338C13.1307 160.38 13.1516 160.422 13.1516 160.464C13.1516 160.506 13.1307 160.548 13.1307 160.59L13.2972 161.326L13.0059 162.755L12.2151 164.416C12.1943 164.437 12.2151 164.479 12.2151 164.5C12.2151 164.521 12.1735 164.542 12.1735 164.585L12.1111 165.951V166.981L11.7989 167.213C11.7781 167.234 11.7781 167.276 11.7365 167.297C11.6949 167.318 11.6741 167.339 11.6533 167.36L10.2382 170.492C10.2382 170.513 10.2382 170.513 10.2382 170.534C10.2382 170.555 10.2174 170.555 10.2174 170.555L9.86366 171.901L9.21857 173.52C9.21857 173.52 9.21857 173.52 9.21857 173.541L8.76077 174.97C8.76077 174.991 8.76077 175.012 8.76077 175.012C8.76077 175.034 8.73996 175.034 8.73996 175.055L8.6151 176.652C8.6151 176.652 8.6151 176.652 8.6151 176.673C8.6151 176.673 8.6151 176.673 8.6151 176.694V177.073L8.26134 177.788L7.38734 179.386C7.36653 179.407 7.38734 179.428 7.38734 179.47C7.36653 179.491 7.34573 179.512 7.34573 179.533L7.22087 180.353C7.22087 180.395 7.24168 180.416 7.24168 180.437C7.24168 180.458 7.22087 180.5 7.24168 180.521L7.69949 182.098V182.161L7.15844 182.644L7.11682 182.686C7.0752 182.707 7.09601 182.749 7.0752 182.791C7.05439 182.833 7.01277 182.876 6.99196 182.918L6.82549 183.969V183.99L6.80468 184.011L6.72144 186.302L5.7434 190.381L5.16074 192.568C5.16074 192.589 5.16074 192.61 5.16074 192.631C5.16074 192.652 5.13993 192.652 5.13993 192.673L5.0775 195.217V197.424L4.61969 199.989L2.6428 209.303L2.12256 211.279L1.12371 213.928L0.72833 214.916C0.72833 214.937 0.72833 214.958 0.72833 214.979C0.72833 215 0.70752 215.021 0.70752 215.042L0.582664 216.22V216.241V216.262V217.355L0.145666 218.28V218.301C0.145666 218.301 0.124857 218.301 0.124857 218.322L0 218.68C0 218.701 0 218.722 0 218.743C0 218.785 0.0208094 218.827 0.0208094 218.869ZM7.03358 221.329L11.2371 222.695L10.7585 223.62L9.55152 224.23L7.01277 224.524H5.9723L5.0775 224.314L3.39194 223.431L3.28789 221.917V221.097L3.45436 220.635L7.03358 221.329ZM40.287 119.446L38.9136 119.341H38.8928L37.3529 119.214L35.9587 118.983L34.5644 118.689L33.191 118.352L32.0257 117.448L31.4222 116.607C31.4014 116.586 31.3806 116.586 31.3598 116.565C31.339 116.544 31.339 116.523 31.3182 116.502L30.2153 115.682L29.9656 115.451L30.9436 115.83H30.9644L33.1286 116.481H33.1494L35.3136 117.007C35.3344 117.007 35.3344 117.007 35.3552 117.007L37.6859 117.301H37.7067L39.9957 117.427H40.0165H41.4316L41.3067 117.596C41.2859 117.638 41.2859 117.68 41.2859 117.722C41.2859 117.764 41.2443 117.785 41.2443 117.848V117.974L41.2026 118.163C41.1818 118.205 41.2235 118.226 41.2235 118.268C41.2235 118.31 41.2026 118.352 41.2026 118.395L41.2651 118.563C41.2651 118.584 41.2859 118.605 41.3067 118.626C41.3067 118.647 41.3067 118.668 41.3275 118.668L41.4524 118.836L41.5772 119.004C41.5772 119.025 41.598 119.004 41.598 119.025C41.6188 119.046 41.598 119.067 41.6188 119.067L41.7437 119.193C41.7645 119.214 41.8061 119.214 41.8477 119.235C41.8894 119.256 41.8894 119.299 41.931 119.299L42.1599 119.362C42.1807 119.362 42.2223 119.383 42.2431 119.383L41.6813 119.446H41.3899H40.287ZM31.7136 121.233L30.7355 122.116L29.6326 122.746V119.866C29.6326 119.845 29.6118 119.845 29.6118 119.824C29.6118 119.803 29.6326 119.803 29.6118 119.782L29.5286 119.256L31.4638 120.707C31.4847 120.728 31.5263 120.728 31.5679 120.749C31.5887 120.749 31.5887 120.791 31.6303 120.791L31.9841 120.875L31.7136 121.233ZM26.9482 123.524H25.5956L24.2014 123.356L23.1609 122.915L22.4742 120.623V120.56V120.392C22.4742 120.329 22.4326 120.308 22.4117 120.245C22.3909 120.203 22.3909 120.14 22.3493 120.097V120.034C22.3493 119.95 22.3077 119.908 22.2661 119.845C22.2453 119.824 22.2453 119.782 22.2245 119.761V119.74C22.2245 119.656 22.1828 119.614 22.1412 119.551C22.1204 119.509 22.1204 119.488 22.0996 119.446L22.0788 119.425C22.0788 119.404 22.058 119.383 22.058 119.362C22.0372 119.32 22.0372 119.256 21.9956 119.214L21.9747 119.193C21.9539 119.151 21.9331 119.109 21.9123 119.067C21.8915 119.025 21.8499 118.983 21.8083 118.941C21.7875 118.92 21.7875 118.899 21.7667 118.878H21.7458L20.1435 116.355L20.8094 115.619L22.1412 114.61L25.2834 113.012L28.0303 114.799L28.3008 115.073C28.3008 115.073 28.3008 115.073 28.3216 115.073C28.3216 115.073 28.3216 115.073 28.3216 115.094L29.6742 116.334H29.695C29.695 116.334 29.695 116.355 29.7159 116.355L30.7771 117.154L31.3806 117.995C31.4014 118.016 31.4222 118.016 31.4222 118.016C31.443 118.037 31.443 118.058 31.4638 118.079L32.754 119.088H32.7748C32.7748 119.088 32.7748 119.109 32.7956 119.109L33.9818 119.845L34.0026 119.866L33.9402 119.929L33.8361 120.034L33.7737 120.097L33.7113 120.14C33.6905 120.161 33.6904 120.182 33.6696 120.182C33.6488 120.182 33.628 120.182 33.6072 120.203L33.5656 120.245H33.5448H33.4824C33.4615 120.245 33.4615 120.266 33.4407 120.266C33.4199 120.266 33.4199 120.245 33.3991 120.266L33.2118 120.308H33.191L32.8373 120.203C32.8373 120.203 32.8373 120.203 32.8165 120.203L31.9008 119.992L29.2164 117.974C29.1748 117.932 29.1124 117.953 29.0708 117.932C29.0291 117.911 28.9667 117.89 28.9251 117.89C28.8835 117.89 28.8419 117.932 28.8002 117.953C28.7378 117.974 28.6754 117.995 28.6546 118.037C28.6338 118.079 28.6338 118.121 28.613 118.163C28.5921 118.226 28.5713 118.289 28.5713 118.331L28.8002 119.824V123.041L28.3008 123.23L26.9482 123.524ZM22.058 122.158L22.0996 122.305L22.0372 122.263L22.058 122.158ZM31.2557 114.904C31.2766 114.904 31.2766 114.904 31.2974 114.904L34.6269 114.61L41.6813 114.316L48.153 114.148C48.1738 114.148 48.1946 114.148 48.1946 114.148L51.9403 113.685H51.9611L53.7715 113.391H53.8548L53.1264 113.769L51.0663 114.694L48.9229 115.388L46.8004 115.977L44.5113 116.376L43.8663 116.439L42.2639 116.607H40.0581L37.7899 116.481L35.5009 116.187L33.3575 115.661L31.2141 115.031L30.902 114.904H31.2557ZM57.3924 111.961L59.182 111.33L61.3254 110.574L62.241 110.405H62.4491L62.9277 110.7L64.093 112.382L64.8838 113.916L64.0514 114.757C64.0514 114.778 64.0514 114.778 64.0306 114.799C64.0306 114.799 64.0098 114.799 63.989 114.82L62.345 117.238C62.345 117.238 62.345 117.238 62.345 117.259L61.3878 118.815C61.367 118.836 61.3878 118.857 61.367 118.878C61.3462 118.899 61.3254 118.92 61.3254 118.941L61.034 120.329L60.8051 120.959C60.7843 121.001 60.8051 121.044 60.8051 121.107C60.8051 121.17 60.7843 121.191 60.8051 121.233L60.3057 121.548L59.1612 121.885L57.9334 121.99L56.7889 121.927L55.686 121.59L54.6455 121.149L54.1669 120.77H54.1461C54.1461 120.77 54.1461 120.749 54.1253 120.749L53.7299 120.518V119.908L55.1033 116.797C55.1033 116.776 55.1033 116.776 55.1033 116.755C55.1241 116.692 55.1033 116.649 55.1033 116.607C55.1033 116.544 55.1033 116.502 55.0825 116.46C55.0825 116.439 55.0825 116.418 55.0825 116.418C55.0617 116.376 55.0201 116.376 54.9785 116.355C54.9577 116.334 54.9369 116.292 54.8952 116.271C54.8744 116.271 54.8744 116.271 54.8536 116.271C54.7912 116.25 54.7496 116.25 54.6872 116.271C54.6455 116.271 54.5831 116.271 54.5415 116.292C54.5207 116.292 54.4999 116.292 54.4999 116.292L52.5022 117.617L51.6282 117.869H51.5033L51.316 117.827C51.2952 117.827 51.2744 117.827 51.2744 117.827C51.2536 117.827 51.2536 117.806 51.2328 117.806H51.1496L51.1287 117.785C51.1079 117.785 51.1079 117.785 51.0871 117.785C51.0663 117.785 51.0663 117.764 51.0455 117.764L50.8166 117.701L50.6501 117.659L50.5669 117.596L50.4837 117.511L51.5033 116.649L55.6028 113.454L57.3924 111.961ZM48.8189 118.289L47.4247 118.689L45.9888 118.92C45.9888 118.92 45.9888 118.92 45.968 118.92L44.5946 119.214L44.3033 119.235V117.238L44.5738 117.217C44.5946 117.217 44.5946 117.217 44.5946 117.217L46.9252 116.797C46.946 116.797 46.946 116.797 46.946 116.797L49.1102 116.208H49.131L51.2952 115.493C51.2952 115.493 51.2952 115.493 51.316 115.493C51.3368 115.493 51.3368 115.493 51.3368 115.493L51.9195 115.241L50.8998 116.04L49.5056 117.217C49.5056 117.217 49.5056 117.238 49.4848 117.238C49.464 117.238 49.464 117.238 49.4432 117.259C49.4016 117.301 49.4224 117.343 49.4016 117.385C49.3808 117.427 49.3599 117.469 49.3599 117.533C49.3599 117.596 49.3808 117.638 49.4016 117.68C49.4224 117.722 49.4016 117.764 49.4432 117.806C49.4432 117.806 49.464 117.806 49.464 117.827C49.464 117.848 49.464 117.848 49.4848 117.869L49.6929 118.058L48.8189 118.289ZM42.4304 118.184C42.4512 118.184 42.4512 118.184 42.4304 118.184V118.184ZM43.0755 119.235C43.0963 119.214 43.0963 119.193 43.1171 119.172C43.1379 119.151 43.1587 119.172 43.1795 119.151L43.3044 119.025C43.3252 119.004 43.3044 119.004 43.3252 118.983C43.346 118.962 43.3668 118.941 43.3876 118.92L43.4709 118.752V119.299L43.0963 119.32L42.8466 119.341L43.0755 119.235ZM43.4709 117.554C43.4501 117.511 43.4293 117.469 43.3876 117.427C43.3876 117.427 43.3876 117.406 43.3668 117.406L43.3044 117.343L43.4709 117.322V117.554ZM52.7935 118.373C52.8143 118.373 52.8143 118.352 52.8351 118.352C52.8559 118.331 52.8767 118.352 52.9184 118.331L53.7924 117.764L52.96 119.656C52.9392 119.677 52.96 119.719 52.96 119.74C52.96 119.761 52.9392 119.761 52.9392 119.782L52.8767 119.719C52.8767 119.719 52.8559 119.719 52.8559 119.698C52.8559 119.677 52.8559 119.677 52.8351 119.677L52.6478 119.53L52.5022 119.341C52.5022 119.32 52.4814 119.341 52.4814 119.32C52.4814 119.299 52.4814 119.299 52.4605 119.299L52.2525 119.088L52.1692 118.941C52.1692 118.92 52.1484 118.92 52.1276 118.92C52.1276 118.899 52.1276 118.899 52.1068 118.878L51.9195 118.689L51.8987 118.668L52.7935 118.373ZM41.7853 120.287L42.7009 120.224V126.152L41.7853 125.375V120.287ZM43.5333 127.141C43.5333 127.12 43.5125 127.098 43.5333 127.077C43.5333 127.056 43.5541 127.056 43.5541 127.035V120.161L43.9287 120.14L44.6986 120.076C44.7194 120.076 44.7402 120.076 44.7402 120.076L46.1345 119.782L47.5703 119.551C47.5911 119.551 47.5911 119.551 47.6119 119.551L49.027 119.13L50.3796 118.731C50.3796 118.731 50.3796 118.731 50.4004 118.71C50.4212 118.71 50.4212 118.71 50.442 118.71L50.7126 118.584L50.7542 118.605L50.879 118.752C50.879 118.752 50.8998 118.752 50.8998 118.773C50.8998 118.794 50.8998 118.794 50.9206 118.815L51.1079 119.004L51.1912 119.172C51.212 119.193 51.2328 119.214 51.2536 119.235C51.2536 119.256 51.2536 119.278 51.2744 119.278L51.4825 119.488L51.5866 119.635C51.5866 119.656 51.6074 119.635 51.6282 119.656C51.649 119.677 51.6282 119.698 51.649 119.698L51.8571 119.908L52.0235 120.118C52.0444 120.14 52.0652 120.118 52.0652 120.14C52.086 120.161 52.086 120.182 52.1068 120.203L52.3149 120.371L52.523 120.581L52.627 120.686L52.7727 120.896C52.7935 120.917 52.8143 120.917 52.8143 120.917C52.8351 120.938 52.8351 120.959 52.8559 120.98L53.0848 121.149H53.1056C53.1056 121.149 53.1056 121.17 53.1264 121.17L53.6883 121.527L54.1877 121.927C54.2085 121.948 54.2293 121.948 54.2502 121.948C54.271 121.948 54.271 121.969 54.2918 121.99L55.3947 122.452C55.4155 122.452 55.4155 122.452 55.4155 122.452C55.4155 122.452 55.4155 122.452 55.4363 122.452L56.6016 122.81C56.6224 122.831 56.664 122.831 56.6849 122.831H56.7057L57.9126 122.894H57.9334C57.9542 122.894 57.9542 122.894 57.975 122.894L59.2652 122.768C59.286 122.768 59.3068 122.768 59.3277 122.746L60.5554 122.389C60.5762 122.389 60.5762 122.368 60.5762 122.368C60.597 122.368 60.6178 122.368 60.6386 122.347L61.4294 121.885V123.63C61.4294 123.63 61.4294 123.63 61.4294 123.651L61.5543 126.068V132.628L59.8063 141.458C59.8063 141.479 59.8271 141.479 59.8063 141.5C59.7855 141.521 59.7855 141.521 59.7855 141.542V146.062L58.9115 150.688C58.9115 150.709 58.9115 150.709 58.9115 150.709C58.9115 150.73 58.8907 150.73 58.8907 150.73L58.5993 155.103C58.5993 155.103 58.5993 155.103 58.5993 155.124C58.5993 155.124 58.5993 155.124 58.5993 155.145V157.352L58.2456 159.749L57.2467 164.269C57.2467 164.29 57.2675 164.311 57.2675 164.332C57.2675 164.353 57.2467 164.374 57.2467 164.395L57.3508 166.309L57.2051 166.666L56.8721 166.96C56.8513 166.981 56.8513 167.023 56.8305 167.044C56.8097 167.065 56.7681 167.086 56.7681 167.128L56.5392 167.717C56.5392 167.738 56.5392 167.759 56.5392 167.78C56.5392 167.801 56.5184 167.822 56.5184 167.843L55.9981 173.289C55.9981 173.289 55.9981 173.289 55.9981 173.31C55.9981 173.31 55.9981 173.31 55.9981 173.331L55.8733 178.755L55.7484 181.509L55.2282 184.305C55.2282 184.305 55.2282 184.305 55.2282 184.326C55.2282 184.326 55.2282 184.326 55.2282 184.347L54.8744 187.375V187.396L54.8536 187.417V189.729L54.6455 190.486C54.6455 190.507 54.6663 190.528 54.6455 190.549C54.6455 190.57 54.6247 190.591 54.6247 190.612V194.628L54.4999 196.373C54.4999 196.373 54.4999 196.373 54.4999 196.394C54.4999 196.394 54.4999 196.394 54.4999 196.415V197.235L53.8132 198.37C53.7924 198.391 53.8132 198.412 53.7924 198.454C53.7715 198.475 53.7507 198.496 53.7507 198.517L52.9808 202.176V202.197L52.96 202.218L52.6062 206.359L52.086 212.562L51.8571 218.638L51.2536 219.394L50.879 219.563L49.5056 219.626L47.1333 219.794L42.7634 219.731H40.7865L39.3922 219.563L38.7055 219.1C38.6847 219.1 38.6639 219.1 38.6639 219.1C38.6431 219.1 38.6431 219.079 38.6223 219.058L37.3113 218.532L37.457 217.797L37.9564 216.598L38.4766 215.421C38.4766 215.4 38.4766 215.379 38.4766 215.358C38.4766 215.337 38.4974 215.316 38.4974 215.295L38.6223 214.475V214.454C38.6223 214.433 38.6431 214.433 38.6431 214.433V213.424L38.976 212.246C38.976 212.225 38.9552 212.204 38.976 212.183C38.976 212.162 38.9969 212.141 38.9969 212.12V207.831L39.1009 206.738L39.6003 205.75C39.6211 205.729 39.6003 205.687 39.6003 205.666C39.6003 205.645 39.6419 205.624 39.6419 205.582L39.7668 203.626L40.3911 201.545C40.3911 201.524 40.3911 201.524 40.3911 201.503C40.3911 201.482 40.4119 201.482 40.4119 201.461L40.8697 196.52L41.8686 192.168V192.147C41.8686 192.147 41.8685 192.126 41.8894 192.126L42.1807 189.519C42.1807 189.498 42.1599 189.498 42.1599 189.477C42.1599 189.456 42.1807 189.456 42.1807 189.435L42.0558 187.501V185.525L42.5136 183.569L43.6165 179.554C43.6165 179.554 43.6165 179.554 43.6165 179.533C43.6165 179.533 43.6165 179.533 43.6374 179.512L44.0535 177.451C44.0535 177.451 44.0535 177.451 44.0535 177.43L44.1784 176.61C44.1784 176.568 44.1576 176.526 44.1576 176.505C44.1576 176.484 44.1784 176.421 44.1576 176.4L43.8454 175.643V174.655L44.0535 173.898L44.553 172.7C44.5738 172.658 44.553 172.616 44.553 172.574C44.553 172.532 44.5946 172.49 44.5738 172.448L44.4073 171.565C44.4073 171.544 44.3865 171.522 44.3657 171.501C44.3657 171.48 44.3657 171.459 44.3657 171.438L44.0535 170.829V170.408L44.3657 169.63L44.8651 168.831V168.81C44.8651 168.789 44.8859 168.789 44.8859 168.768L45.0316 168.453L45.1564 168.432C45.1772 168.432 45.1772 168.411 45.1981 168.411C45.2397 168.411 45.2813 168.411 45.3229 168.369C45.3437 168.348 45.3437 168.327 45.3645 168.306C45.4062 168.264 45.427 168.222 45.4478 168.18C45.4686 168.117 45.4894 168.096 45.4894 168.032C45.4894 168.011 45.5102 167.99 45.5102 167.969C45.5102 167.927 45.4686 167.927 45.4686 167.885C45.4478 167.864 45.4686 167.822 45.4478 167.801L44.3449 166.14L43.8246 165.362V164.563L44.2824 161.41V161.389L44.3033 161.368L44.4281 158.172V156.217C44.4281 156.196 44.4073 156.196 44.4073 156.175C44.4073 156.154 44.4281 156.154 44.4073 156.133L44.1784 154.745V151.718C44.1784 151.697 44.1576 151.697 44.1576 151.697V151.676L43.8038 148.837L43.6374 147.261V143.75C43.6374 143.729 43.6165 143.708 43.6165 143.687C43.6165 143.666 43.6373 143.644 43.6165 143.623L42.805 140.596L42.7425 138.01L42.805 136.664C42.805 136.643 42.7842 136.643 42.7842 136.643V136.622L42.7217 135.971C42.7217 135.929 42.7009 135.929 42.6801 135.887C42.6801 135.866 42.6801 135.824 42.6801 135.802L42.368 135.256V133.952C42.368 133.931 42.3472 133.91 42.3472 133.889C42.3472 133.868 42.368 133.847 42.3472 133.805L41.9934 132.88L43.5333 127.141ZM45.4686 223.137L45.094 223.221H44.9067C44.8859 223.221 44.8651 223.242 44.8235 223.263C44.8027 223.263 44.7611 223.242 44.7402 223.263L44.1576 223.494C44.1576 223.494 44.1576 223.494 44.1368 223.515H44.116L43.1171 224.02L41.7437 224.293H41.0986L40.3078 223.978L39.6211 223.662L39.1841 223.158L38.7888 222.485L38.7055 222.022L38.872 220.151L39.0385 220.277C39.0801 220.298 39.1217 220.32 39.1841 220.32C39.2049 220.32 39.2049 220.341 39.2258 220.341L40.7448 220.509C40.7657 220.509 40.7865 220.509 40.7865 220.509H42.7634L46.6963 220.572L46.6339 221.329L46.3842 222.401L45.4686 223.137ZM55.7276 78.8271C55.4987 78.8271 55.3114 79.0163 55.3114 79.2476V86.1225C55.249 86.1014 55.1866 86.1435 55.145 86.1435C55.1033 86.1435 55.0409 86.1435 54.9993 86.1645C54.9577 86.1855 54.9577 86.2276 54.9369 86.2696C54.8952 86.3117 54.8536 86.3537 54.8328 86.4168L54.5415 87.5521V84.7559C54.5415 84.7349 54.5207 84.7138 54.5207 84.6928C54.5207 84.6718 54.5415 84.6508 54.5207 84.6297L50.6085 70.2703C50.5877 70.2282 50.5669 70.2282 50.5461 70.1862C50.5253 70.1441 50.5045 70.1021 50.4628 70.06C50.4212 70.018 50.3796 70.018 50.3172 69.9969C50.2756 69.9759 50.2547 69.9549 50.2131 69.9549C50.1923 69.9549 50.1715 69.9759 50.1507 69.9759C50.1299 69.9759 50.1091 69.9549 50.0883 69.9759C50.0467 69.9759 50.0258 70.018 50.005 70.039C49.9634 70.06 49.9218 70.06 49.901 70.081L48.7357 63.8369L48.2779 61.5242C48.257 61.4611 48.2154 61.4401 48.1946 61.3981C48.1738 61.356 48.1738 61.335 48.153 61.293L48.1114 61.2509L46.8212 60.0946L46.3634 59.1275V58.0342L46.7171 56.7728L48.6316 54.8385C48.6524 54.8175 48.6316 54.7965 48.6524 54.7965C48.6524 54.7755 48.6732 54.7965 48.6732 54.7755L49.9634 52.8202C49.9634 52.7992 49.9634 52.7782 49.9634 52.7782C49.9842 52.7572 50.005 52.7361 50.005 52.7151L50.8374 50.1712C50.8582 50.1291 50.8166 50.1081 50.8374 50.0661C50.8374 50.024 50.8582 50.003 50.8582 49.9609L49.7553 44.6839V39.4699L49.9218 37.4306C49.9426 37.1993 49.7761 36.9891 49.5472 36.968C49.3391 36.947 49.1102 37.1152 49.0894 37.3465L48.9854 38.5238L48.5068 38.0403C48.5068 38.0403 48.5068 38.0403 48.4859 38.0403C48.4651 38.0403 48.4859 38.0403 48.4859 38.0192L47.9657 37.5567C47.9449 37.5357 47.9241 37.5357 47.9033 37.5357C47.8825 37.5357 47.8825 37.4936 47.8409 37.4726L47.4039 37.3044L47.1333 37.1572H47.1125C47.1125 37.1572 47.1125 37.1572 47.0917 37.1362L46.738 36.947C46.7171 36.947 46.6963 36.947 46.6963 36.947C46.6963 36.947 46.6755 36.926 46.6547 36.926L46.1969 36.7998C46.1969 36.7998 46.1969 36.7998 46.1761 36.7998L45.8848 36.7368H45.864C45.864 36.7368 45.864 36.7368 45.8432 36.7368L45.3853 36.6737C45.3645 36.6737 45.3645 36.6737 45.3645 36.6737L45.3437 36.6527H44.9275H44.4697C44.4489 36.6527 44.4489 36.6737 44.4281 36.6737C44.4073 36.6737 44.4073 36.6527 44.3865 36.6737L44.0952 36.7368L43.6374 36.8629L43.6165 36.8839C43.5957 36.8839 43.5957 36.8839 43.5957 36.8839L43.4085 36.968V36.5475C43.4085 36.5265 43.3876 36.5265 43.3876 36.5055C43.3876 36.4845 43.4084 36.4845 43.3876 36.4635L42.4304 30.4295L42.6801 30.1142L43.2628 30.0301L44.5113 29.8619L45.7391 29.9249L46.7588 30.3454L51.6074 33.499L52.4605 34.2559L52.5646 35.223C52.5646 35.2651 52.6062 35.2861 52.6062 35.3071C52.6062 35.3281 52.6062 35.3702 52.627 35.3912L54.0004 37.83L54.7288 40.2268L54.9577 43.065L55.0825 45.672V46.1346C55.0825 46.1766 55.1033 46.1976 55.1241 46.2186C55.1241 46.2607 55.1033 46.2817 55.1241 46.3238L55.5195 47.1437L56.0606 48.5313V49.7507L55.7484 50.865L55.4363 51.3485C55.4155 51.3906 55.4155 51.4116 55.4155 51.4537C55.3947 51.4957 55.3739 51.5167 55.3739 51.5378L55.3114 52.4208C55.3114 52.4418 55.3322 52.4628 55.3322 52.4838C55.3322 52.5049 55.3114 52.5259 55.3322 52.5679L55.8317 54.1658L55.9565 56.8358V58.0973L55.8525 58.8121L55.4155 59.569C55.3947 59.59 55.4155 59.611 55.3947 59.6531C55.3947 59.6741 55.3531 59.6951 55.3531 59.7161L54.9369 62.4283C54.9369 62.4493 54.9577 62.4703 54.9577 62.4703C54.9577 62.4913 54.9369 62.5124 54.9369 62.5124L55.0617 63.8789C55.0617 63.8789 55.0617 63.8789 55.0617 63.8999L55.1866 64.7409L55.4779 69.9759V69.9969V70.018L56.1022 74.0546C56.0814 74.0546 56.0814 74.0546 56.0606 74.0546C56.0398 74.0756 56.0398 74.0967 56.019 74.1177C55.9773 74.1387 55.9357 74.1807 55.9149 74.2438C55.8941 74.2859 55.8733 74.3279 55.8525 74.391C55.8525 74.412 55.8317 74.433 55.8317 74.4541V78.8271H55.7276ZM46.5923 64.4466L45.0108 65.0773L43.3252 65.4768L41.6188 65.5819L39.9333 65.4137L38.2269 65.0142L36.6038 64.4045L35.2512 63.4795L33.8985 62.3862L32.7124 61.1248L31.7552 59.7161L31.006 58.0973L30.6939 57.1932H31.3806C31.4222 57.1932 31.4638 57.1932 31.4847 57.1722L32.5459 56.8779L32.8581 58.0552C32.8789 58.0973 32.8997 58.1183 32.9205 58.1604C32.9413 58.1814 32.9205 58.2024 32.9413 58.2234C32.9413 58.2234 32.9621 58.2234 32.9829 58.2445C33.0662 58.3286 33.1494 58.3706 33.2535 58.3706C33.2951 58.3706 33.3159 58.3706 33.3575 58.3496C33.3783 58.3496 33.3991 58.3075 33.4199 58.3075C33.4615 58.2865 33.4824 58.2865 33.524 58.2655L35.6257 56.4364C35.6882 56.3733 35.7506 56.2892 35.7714 56.1841L36.2916 52.4628C36.2916 52.4418 36.2708 52.4208 36.2708 52.4208C36.2708 52.3997 36.2916 52.3997 36.2916 52.3787L35.8338 47.2909C35.8338 47.2699 35.8338 47.2699 35.8546 47.2488C35.8754 47.2068 35.8962 47.1647 35.9171 47.1017C35.9171 47.0806 35.9379 47.0596 35.9379 47.0386V46.9755V46.8494V46.7863V46.7232C35.9379 46.7022 35.9171 46.6812 35.9171 46.6602C35.9171 46.5971 35.8754 46.555 35.8546 46.513C35.8338 46.4709 35.813 46.4499 35.7922 46.4289C35.7714 46.4079 35.7714 46.3868 35.7298 46.3658C35.709 46.3658 35.709 46.3658 35.709 46.3448C35.6882 46.3238 35.6673 46.3027 35.6465 46.2817C35.6257 46.2607 35.6049 46.2397 35.5841 46.2397C35.5217 46.1766 35.4384 46.1556 35.3344 46.1556C35.272 46.1556 35.2095 46.1346 35.1679 46.1766L35.0847 46.1135L34.9598 45.8402L34.939 45.8192V45.7982L34.7309 45.5038L34.6269 45.1464C34.6269 45.1254 34.6061 45.1254 34.5853 45.1044C34.5644 45.0833 34.5853 45.0623 34.5853 45.0623L34.3772 44.6839L34.2731 44.3895L34.1483 43.927C34.1483 43.927 34.1274 43.927 34.1274 43.906C34.1274 43.906 34.1274 43.906 34.1274 43.885L34.0442 43.5486L34.0026 43.3173V43.065V42.8338V42.5394V42.3502L34.0442 42.203L34.1274 42.0559L34.3355 41.8036V41.7826H34.3563L34.4188 41.6985V41.6564H34.4604H34.4812H34.6061C34.6477 41.6564 34.6685 41.6144 34.7101 41.6144C34.7517 41.6354 34.8142 41.6564 34.8766 41.6564H34.8974H34.9182L34.9598 41.6774L34.9806 41.8246C34.9806 41.8456 35.0014 41.8456 35.0014 41.8667C35.0014 41.8877 35.0014 41.8877 35.0014 41.9087L35.0847 42.1189V42.161C35.0847 42.161 35.0847 42.161 35.0847 42.182C35.0847 42.203 35.0847 42.182 35.0847 42.203L35.2095 44.0952C35.2095 44.1373 35.2512 44.1583 35.272 44.2003C35.2928 44.2424 35.2928 44.2844 35.3344 44.3265C35.376 44.3895 35.4384 44.4106 35.5009 44.4316C35.5425 44.4526 35.5633 44.4736 35.5841 44.4947C35.6049 44.4947 35.6257 44.4947 35.6465 44.4947H35.6673C35.6882 44.4947 35.709 44.4736 35.7298 44.4526C35.7922 44.4316 35.8546 44.4106 35.9171 44.3685C35.9379 44.3475 35.9587 44.3055 35.9795 44.2634C36.0003 44.2214 36.0419 44.1793 36.0419 44.1373L36.2708 42.5604L36.7078 41.2149L37.4778 39.8694L38.4142 38.7971L38.9552 38.3766L39.2049 38.2295L39.5379 38.0613L39.85 37.9562H39.8708L40.1622 37.83L40.4535 37.7249L40.8073 37.6829H41.1194H41.4732H41.8477L42.1183 37.7249L42.368 37.83H42.3888L42.7425 37.9562C42.7842 37.9772 42.8258 37.9772 42.8674 37.9772C42.909 37.9772 42.9715 37.9772 43.0131 37.9562L43.4917 37.7669L43.7622 37.6618L44.1784 37.5567L44.4281 37.5147H44.8651H45.2605L45.6767 37.5777L45.9472 37.6408L46.3634 37.7459L46.6547 37.8931L46.9252 38.0613C46.946 38.0613 46.946 38.0613 46.9669 38.0823C46.9877 38.0823 46.9877 38.1033 46.9877 38.1033L47.383 38.2505L47.8409 38.65L48.8397 39.6591V44.81C48.8397 44.8311 48.8605 44.8311 48.8605 44.8521C48.8605 44.8731 48.8397 44.8731 48.8605 44.8941L49.9426 50.1081L49.1727 52.5049L47.9449 54.355L45.9888 56.3313C45.968 56.3523 45.968 56.3943 45.9472 56.4364C45.9264 56.4574 45.8848 56.4784 45.8848 56.5205L45.4686 57.9501C45.4686 57.9711 45.4894 57.9922 45.4686 58.0132C45.4686 58.0342 45.4478 58.0552 45.4478 58.0763V59.3167C45.4478 59.3587 45.4686 59.3798 45.4894 59.4008C45.4894 59.4428 45.4686 59.4639 45.4894 59.4849L46.0512 60.5781C46.0721 60.6202 46.1137 60.6412 46.1345 60.6622C46.1553 60.6833 46.1345 60.7043 46.1553 60.7043L47.4455 61.8606L47.82 63.7318L46.5923 64.4466ZM31.6511 54.9226C31.6719 54.9226 31.6719 54.9016 31.6719 54.9016C31.6927 54.9016 31.7136 54.9016 31.7136 54.8806L32.4835 54.355C32.5043 54.334 32.5043 54.3129 32.5251 54.2919C32.5667 54.2499 32.5876 54.2078 32.6084 54.1658C32.6292 54.1237 32.6292 54.0607 32.6292 54.0186C32.6292 53.9766 32.65 53.9555 32.65 53.9345L32.4211 53.0305L32.5459 49.162L33.2951 45.4408C33.2951 45.4408 33.2951 45.4197 33.2951 45.3987C33.2951 45.3777 33.3159 45.3777 33.3159 45.3567V43.948L33.3783 44.1162L33.5032 44.5788C33.5032 44.5788 33.5032 44.5998 33.524 44.5998C33.524 44.5998 33.524 44.5998 33.524 44.6208L33.6488 44.9782C33.6488 44.9992 33.6696 44.9992 33.6696 45.0203C33.6696 45.0413 33.6696 45.0413 33.6696 45.0623L33.8777 45.4197L33.9818 45.7982C33.9818 45.8192 34.0234 45.8402 34.0234 45.8612C34.0234 45.8823 34.0234 45.9033 34.0442 45.9033L34.2731 46.2397L34.4396 46.5761C34.4604 46.6181 34.502 46.6391 34.5228 46.6602C34.5436 46.6812 34.5228 46.7022 34.5436 46.7022L34.6269 46.7863C34.6269 46.7863 34.6269 46.7863 34.6269 46.8073V46.9124C34.6269 46.9335 34.6477 46.9335 34.6477 46.9335C34.6477 46.9335 34.6269 46.9545 34.6269 46.9755C34.6269 46.9965 34.6477 46.9965 34.6477 46.9965C34.6477 46.9965 34.6269 47.0176 34.6269 47.0386C34.6269 47.0596 34.6477 47.0806 34.6477 47.1017C34.6685 47.1647 34.6685 47.2068 34.7101 47.2488C34.7309 47.2909 34.7725 47.3329 34.8142 47.375C34.835 47.375 34.835 47.396 34.835 47.417C34.8974 47.5011 34.9598 47.5432 35.0639 47.5642L35.5009 52.4208L35.0014 55.9528L33.524 57.2353L33.2743 56.2892C33.2535 56.1841 33.1702 56.1 33.087 56.0579C33.0245 56.0159 32.9621 56.0369 32.8997 56.0369C32.8581 56.0369 32.8165 56.0159 32.7748 56.0159L31.3806 56.4154H30.4026L30.0696 55.7005L30.1112 55.6795L31.6511 54.9226ZM35.1471 38.1874C35.1471 38.1664 35.1471 38.1664 35.1471 38.1454C35.1471 38.1244 35.1679 38.1244 35.1679 38.1033L35.5009 36.4424L36.4581 34.6133L37.4153 33.1416L38.9969 31.5438L39.1217 31.4597L39.309 31.3756L39.6003 31.2705L39.8292 31.2074C39.85 31.2074 39.85 31.1864 39.8708 31.1864C39.8917 31.1654 39.9333 31.1864 39.9541 31.1654L40.0581 31.1023L40.3287 31.0602C40.3495 31.0602 40.3495 31.0602 40.3495 31.0602L40.5576 30.9972L40.8281 30.9341H40.8489L41.057 30.871L41.3899 30.808H41.4107L41.494 30.7869L42.4096 36.5686V36.947L42.3472 36.926C42.3264 36.926 42.3055 36.926 42.3055 36.926C42.2847 36.926 42.2847 36.905 42.2639 36.905L41.9102 36.8419C41.8894 36.8419 41.8894 36.8419 41.8686 36.8419C41.8477 36.8419 41.8477 36.8209 41.8269 36.8209H41.4107H41.057H40.7865C40.7657 36.8209 40.7657 36.8419 40.7657 36.8419C40.7448 36.8419 40.7448 36.8209 40.7448 36.8419L40.3287 36.905C40.3078 36.905 40.3078 36.926 40.287 36.926C40.2662 36.926 40.2662 36.926 40.2454 36.926L39.8917 37.0521C39.8917 37.0521 39.8917 37.0521 39.8708 37.0521C39.8708 37.0521 39.8708 37.0521 39.85 37.0521L39.5795 37.1572L39.2466 37.2624C39.2258 37.2624 39.2258 37.2834 39.2258 37.2834C39.2049 37.2834 39.2049 37.2834 39.1841 37.2834L38.8304 37.4726C38.8304 37.4726 38.8304 37.4726 38.8096 37.4936H38.7888L38.4974 37.6829C38.4766 37.6829 38.4766 37.7039 38.4766 37.7039H38.4558L37.8731 38.1874C37.8523 38.1874 37.8731 38.2085 37.8523 38.2295C37.8315 38.2295 37.8315 38.2295 37.8107 38.2505L36.8119 39.3648C36.7911 39.3858 36.8119 39.3858 36.7911 39.4068C36.7702 39.4279 36.7702 39.4279 36.7494 39.4279L35.9379 40.8575C35.9379 40.8785 35.9379 40.8785 35.9379 40.8995C35.9379 40.9206 35.9171 40.9206 35.9171 40.9416L35.7298 41.4882L35.709 41.4251C35.709 41.3831 35.6673 41.3621 35.6465 41.32C35.6257 41.278 35.6257 41.2359 35.6049 41.1939L35.4801 41.0677C35.4592 41.0467 35.4384 41.0467 35.4176 41.0467C35.3968 41.0257 35.3968 41.0047 35.376 41.0047L35.2512 40.9416L35.1471 40.8785C35.1263 40.8575 35.0847 40.8785 35.0431 40.8785C35.0014 40.8785 34.9806 40.8365 34.939 40.8365H34.9598L34.939 40.8154C34.9182 40.7944 34.8766 40.8154 34.8558 40.8154C34.8142 40.8154 34.7933 40.7734 34.7725 40.7734H34.6477C34.5853 40.7734 34.5644 40.8154 34.502 40.8365H34.4812H34.3563C34.3147 40.8365 34.2939 40.8575 34.2731 40.8785C34.2315 40.8785 34.2107 40.8785 34.1691 40.8785H34.1274L35.1471 38.1874ZM22.2036 101.344L22.4117 103.131L22.3077 104.708L22.0788 105.633C22.058 105.675 22.0996 105.696 22.0996 105.738C22.0996 105.78 22.0788 105.801 22.0788 105.843L22.3077 106.663C22.3285 106.705 22.3493 106.726 22.3701 106.747C22.3909 106.768 22.3701 106.789 22.3909 106.81L22.6198 107.105C22.6406 107.126 22.6823 107.126 22.7031 107.147V108.009L22.2453 108.639L22.0788 108.324L21.8499 107.84C21.8499 107.819 21.8291 107.819 21.8291 107.819C21.8291 107.819 21.8291 107.798 21.8083 107.777L21.6626 107.588L21.4545 107.105C21.4337 107.084 21.4129 107.062 21.3921 107.041C21.3713 107.02 21.3713 106.978 21.3505 106.957L20.8927 106.537C20.8718 106.516 20.8302 106.516 20.8094 106.516C20.7886 106.495 20.7678 106.474 20.747 106.453C20.747 106.453 20.747 106.453 20.747 106.432V105.654C20.747 105.633 20.7262 105.633 20.7262 105.612C20.7262 105.549 20.7054 105.528 20.6638 105.465C20.6429 105.423 20.6221 105.381 20.5805 105.339C20.5597 105.317 20.5597 105.317 20.5597 105.296L19.8938 104.897L20.0395 103.909C20.0395 103.888 20.0187 103.867 20.0187 103.867C20.0187 103.846 20.0395 103.846 20.0395 103.825L19.9562 103.047C19.9562 103.005 19.9146 102.963 19.8938 102.921C19.873 102.879 19.873 102.837 19.8522 102.795L19.5609 102.458L19.4776 102.038C19.4568 101.975 19.4152 101.954 19.3944 101.912C19.3736 101.87 19.3736 101.849 19.3528 101.806L19.3111 101.785L18.8533 101.365L18.9574 99.683C18.9574 99.662 18.9366 99.641 18.9366 99.5989C18.9366 99.5779 18.9574 99.5359 18.9366 99.5148L18.5828 98.5057C18.5828 98.4636 18.5412 98.4636 18.5204 98.4216C18.4996 98.3795 18.4996 98.3585 18.4788 98.3165L18.2082 98.0852V98.0011C18.2082 97.959 18.1666 97.917 18.1666 97.8749C18.1458 97.8329 18.1666 97.7908 18.1458 97.7488L17.688 97.034C17.688 97.034 17.6672 97.034 17.6672 97.013V96.9919L17.5631 96.8658V96.8448L17.8961 96.4663C17.9169 96.4453 17.9169 96.4243 17.9169 96.4033C17.9377 96.3612 17.9793 96.3402 17.9793 96.2981L18.1042 95.7725C18.1042 95.7515 18.0834 95.7515 18.1042 95.7305C18.1042 95.7095 18.125 95.7095 18.125 95.6884V94.9105C18.125 94.8685 18.0834 94.8264 18.0626 94.7844C18.0418 94.7423 18.0418 94.6793 18.0001 94.6372C17.9585 94.5952 17.9169 94.5742 17.8545 94.5531C17.8129 94.5321 17.7921 94.4901 17.7296 94.4901L17.5007 94.469L17.4591 94.3429V93.8804L17.4799 93.7963L17.7921 93.3337C17.8129 93.2917 17.8129 93.2496 17.8129 93.2076C17.8337 93.1655 17.8545 93.1445 17.8545 93.0814V92.6189C17.8545 92.5769 17.8337 92.5558 17.8129 92.5138C17.8129 92.4717 17.8129 92.4507 17.7921 92.4087L17.4799 91.82L18.0418 90.5165C18.0626 90.4744 18.0418 90.4324 18.0418 90.3904C18.0418 90.3483 18.0834 90.3063 18.0626 90.2642L17.8337 89.2551V89.1289C17.8545 89.1079 17.8961 89.0869 17.9169 89.0658C17.9377 89.0448 17.9585 89.0238 17.9793 89.0028C18.0001 88.9817 18.0418 88.9607 18.0418 88.9187L18.458 87.9726C18.4788 87.9516 18.458 87.9095 18.458 87.8885C18.458 87.8675 18.4996 87.8464 18.4996 87.8044V87.0265L18.8117 86.0173L19.1863 85.3656V86.4799L19.2071 86.5009C19.2071 86.5009 19.1863 86.5219 19.2071 86.5219L19.436 88.2879L19.5609 89.1079C19.5609 89.1289 19.5817 89.1289 19.5817 89.1499C19.5817 89.171 19.5817 89.171 19.5817 89.192L19.9146 90.117L20.1227 90.8739V91.6518C20.1227 91.6728 20.1435 91.6939 20.1435 91.7149C20.1435 91.7359 20.1227 91.7779 20.1435 91.799L20.747 93.3337L20.8718 96.5084L21.0383 99.704C21.0383 99.7461 21.0799 99.7881 21.1008 99.8302C21.1216 99.8722 21.1007 99.9143 21.1424 99.9563L22.2036 101.344ZM2.91332 211.552V211.531L2.93413 211.51L3.45436 209.492L5.45207 200.157L5.90987 197.55C5.90987 197.529 5.88907 197.529 5.90987 197.508C5.90987 197.487 5.93068 197.487 5.93068 197.466V195.238L5.99311 192.757L6.57578 190.612L7.57463 186.471C7.57463 186.45 7.57463 186.45 7.57463 186.429C7.57463 186.408 7.59544 186.408 7.59544 186.387L7.72029 184.095L7.86596 183.212L8.11567 182.981C8.13648 182.981 8.15729 183.002 8.1781 183.002C8.28215 183.002 8.36539 182.96 8.42782 182.897C8.44862 182.876 8.46943 182.855 8.46943 182.833C8.49024 182.812 8.51105 182.791 8.53186 182.77L8.65672 182.539C8.73996 182.392 8.67753 182.224 8.59429 182.098V182.056C8.59429 182.035 8.57348 182.014 8.57348 181.993C8.57348 181.971 8.59429 181.95 8.57348 181.929L8.13648 180.416L8.21972 179.743L9.0521 178.208L9.46829 177.388C9.4891 177.367 9.46829 177.325 9.46829 177.304C9.46829 177.262 9.5099 177.241 9.5099 177.22V176.758L9.61395 175.244L10.0718 173.877L10.7169 172.237V172.216L10.7377 172.195L11.0706 170.871L12.4024 167.801L12.7978 167.507C12.7978 167.507 12.7978 167.486 12.8186 167.486C12.8602 167.444 12.8602 167.402 12.9018 167.36C12.9226 167.297 12.9643 167.276 12.9643 167.213L12.9851 167.192V165.972L13.0475 164.69L13.8383 163.05C13.8383 163.029 13.8383 163.008 13.8383 163.008C13.8383 162.987 13.8591 162.987 13.8591 162.945L14.1504 161.41C14.1504 161.389 14.1296 161.347 14.1296 161.326C14.1296 161.305 14.1504 161.284 14.1504 161.242L14.0047 160.548L14.2336 159.938L14.8579 159.034C14.8787 159.013 14.8579 158.971 14.8787 158.95C14.8995 158.929 14.9204 158.908 14.9204 158.866L14.9828 158.13C14.9828 158.109 14.962 158.088 14.962 158.067C14.962 158.046 14.9828 158.025 14.9828 158.004L14.6915 155.902V155.208L14.8579 154.409L15.836 152.327C15.836 152.306 15.836 152.306 15.836 152.285C15.836 152.264 15.8568 152.264 15.8568 152.243L16.2105 150.54C16.2105 150.54 16.2105 150.54 16.2105 150.519C16.2105 150.498 16.2105 150.519 16.2105 150.498L16.5019 148.522L17.1886 146.798C17.2094 146.756 17.1886 146.735 17.1886 146.693C17.1886 146.672 17.2094 146.63 17.2094 146.609L17.0845 144.99L17.1886 144.212L17.3342 143.96C17.5632 143.96 17.7296 143.771 17.7296 143.539V142.761C17.7296 142.719 17.7088 142.698 17.688 142.677C17.688 142.656 17.7088 142.614 17.688 142.593L17.4799 142.11C17.4799 142.11 17.4591 142.11 17.4591 142.089V142.068L17.147 141.542L17.2926 141.164L18.021 139.944C18.0418 139.902 18.021 139.86 18.0418 139.839C18.0626 139.797 18.0834 139.776 18.0834 139.734V138.746L18.3331 138.115C18.3331 138.094 18.3331 138.094 18.3331 138.073C18.3331 138.052 18.3539 138.052 18.3539 138.031L18.4788 137.379C18.4788 137.379 18.4788 137.379 18.4788 137.358V137.337L18.6036 136.244L18.8325 134.962L18.9158 134.604L19.3111 134.352C19.3111 134.352 19.3111 134.352 19.332 134.331H19.3528C19.3944 134.289 19.3944 134.247 19.4152 134.205C19.436 134.163 19.4776 134.121 19.4776 134.079C19.4776 134.015 19.4568 133.973 19.4568 133.91C19.436 133.868 19.4568 133.826 19.436 133.763H19.4152V133.742L18.9782 133.195L19.0406 133.132H19.0822C19.1239 133.132 19.1447 133.132 19.1863 133.111L19.6441 132.985C19.6857 132.964 19.7065 132.943 19.7273 132.922C19.7689 132.901 19.8106 132.88 19.8522 132.838C19.8938 132.796 19.8938 132.754 19.9146 132.691C19.9354 132.649 19.9562 132.628 19.9562 132.586V132.355C19.9562 132.334 19.9354 132.334 19.9354 132.334C19.9354 132.312 19.9562 132.312 19.9354 132.291L19.8314 131.493L19.9562 129.832C19.9562 129.832 19.9562 129.832 19.9562 129.811C19.9562 129.79 19.9562 129.79 19.9562 129.79V129.075L20.1851 128.654L20.6429 127.96C20.6638 127.939 20.6429 127.897 20.6638 127.876C20.6846 127.834 20.7054 127.813 20.7054 127.792L20.8094 126.972L21.4337 125.543C21.4337 125.522 21.4337 125.501 21.4337 125.501C21.4337 125.48 21.4545 125.48 21.4545 125.459L21.8707 123.167L22.5782 123.608C22.599 123.608 22.599 123.608 22.6198 123.63C22.6198 123.63 22.6198 123.651 22.6406 123.651L23.9308 124.176C23.9516 124.197 23.9933 124.197 24.0141 124.197C24.0141 124.197 24.0349 124.197 24.0349 124.218L25.4915 124.386C25.5123 124.386 25.5332 124.386 25.5332 124.386H26.9482C26.969 124.386 26.9898 124.386 27.0106 124.386L28.4049 124.155C28.4049 124.155 28.4049 124.155 28.4257 124.155C28.4465 124.155 28.4673 124.155 28.4881 124.134L29.3205 123.84H29.3413L29.8615 123.608C29.8615 123.608 29.8615 123.587 29.8823 123.587H29.9031L31.1309 122.873C31.1517 122.873 31.1517 122.852 31.1517 122.831C31.1725 122.831 31.1725 122.831 31.1933 122.81L32.2546 121.863C32.2754 121.863 32.2546 121.842 32.2754 121.821C32.2962 121.8 32.2962 121.821 32.317 121.8L32.8581 121.128L33.0037 121.17C33.0454 121.191 33.087 121.191 33.1078 121.191H33.2326C33.2743 121.191 33.2951 121.191 33.3367 121.17L33.524 121.128H33.5864C33.628 121.128 33.6696 121.128 33.7113 121.107L33.8777 121.044C33.9194 121.023 33.9194 121.001 33.9402 120.98C33.961 120.959 34.0026 120.959 34.0234 120.938L34.0858 120.875L34.1483 120.854C34.1691 120.833 34.1691 120.812 34.1899 120.812C34.2107 120.812 34.2315 120.812 34.2523 120.791L34.3772 120.665L34.4812 120.539L34.6061 120.413C34.6269 120.392 34.6061 120.392 34.6269 120.371C34.6269 120.371 34.6477 120.371 34.6685 120.35L34.7933 120.182C34.8142 120.14 34.8142 120.097 34.8142 120.055C34.835 120.013 34.8558 119.992 34.8558 119.929V119.761C34.8558 119.698 34.8142 119.656 34.7933 119.614L35.7506 119.824H35.7714L37.1656 120.055C37.1864 120.055 37.1864 120.055 37.2072 120.055L38.7888 120.182L40.183 120.308C40.2038 120.308 40.2038 120.308 40.2246 120.308H40.9113V125.564V125.585C40.9113 125.648 40.9529 125.669 40.9737 125.732C40.9946 125.774 41.0154 125.837 41.0362 125.879C41.0362 125.879 41.0362 125.9 41.057 125.9L42.5969 127.204L41.2026 132.523L40.7032 132.691C40.6616 132.712 40.6408 132.733 40.62 132.754C40.5784 132.775 40.5576 132.775 40.5159 132.796L39.4547 134.036C39.4338 134.057 39.4547 134.057 39.4338 134.079C39.413 134.1 39.413 134.1 39.3922 134.1L38.4558 135.866L36.6454 138.851C36.6246 138.872 36.6454 138.893 36.6246 138.914C36.6038 138.935 36.583 138.935 36.583 138.977L36.25 140.344L35.2928 141.942C35.2928 141.963 35.2928 141.963 35.2928 141.984C35.2928 142.005 35.272 142.005 35.272 142.026L34.6269 143.855V143.876L34.6061 143.897L34.1483 145.81L33.4199 147.303C33.4199 147.324 33.4199 147.324 33.4199 147.324L33.3991 147.345L32.9829 148.879C32.9829 148.901 32.9829 148.901 32.9829 148.901C32.9829 148.922 32.9621 148.922 32.9621 148.922L32.317 152.327L31.8592 153.946L31.5471 154.745L30.9644 155.397V155.418C30.9644 155.418 30.9436 155.418 30.9436 155.439L28.6546 158.509C28.6546 158.53 28.6546 158.53 28.6338 158.551C28.613 158.572 28.613 158.572 28.613 158.572C28.5921 158.614 28.613 158.656 28.613 158.698C28.613 158.761 28.5921 158.803 28.5921 158.845C28.5921 158.887 28.6338 158.929 28.6754 158.971C28.6962 159.013 28.6962 159.055 28.7378 159.076C28.7586 159.076 28.7586 159.076 28.7794 159.097C28.8002 159.097 28.8002 159.118 28.8002 159.118H28.821L28.5921 159.98L28.0095 161.788L26.8442 164.795C26.8442 164.816 26.8442 164.837 26.8442 164.858C26.8442 164.879 26.8233 164.9 26.8233 164.921L26.4696 168.18L25.8453 170.009L24.9713 171.775C24.9505 171.796 24.9713 171.838 24.9713 171.88C24.9713 171.922 24.9297 171.943 24.9297 171.964V174.214L24.347 175.244C24.3262 175.265 24.347 175.286 24.3262 175.307C24.3054 175.328 24.2846 175.349 24.2846 175.37L24.0557 176.547C24.0557 176.568 24.0557 176.568 24.0557 176.589C24.0557 176.61 24.0349 176.61 24.0349 176.61L23.91 178.965L23.806 179.932L22.9736 181.341C22.9736 181.362 22.9736 181.362 22.9736 181.383C22.9736 181.404 22.9528 181.404 22.9528 181.404L22.0788 183.885C22.0788 183.906 22.0788 183.927 22.0788 183.948C22.0788 183.969 22.058 183.969 22.058 183.99L21.7667 186.576L20.6638 191.832C20.6638 191.853 20.6846 191.853 20.6638 191.874C20.6429 191.895 20.6429 191.895 20.6429 191.916V193.64L20.1435 195.532L19.2071 199.127V199.148C19.2071 199.148 19.1863 199.148 19.1863 199.169L18.562 203.122V203.143V203.164L18.2707 207.306C18.2707 207.306 18.2707 207.306 18.2707 207.327C18.2707 207.327 18.2707 207.327 18.2707 207.348V208.903L17.8129 210.859C17.8129 210.88 17.8337 210.901 17.8129 210.901C17.8129 210.922 17.7921 210.922 17.7921 210.943V212.751L17.688 213.508L17.2926 214.727L15.2117 218.532C15.2117 218.553 15.2117 218.553 15.2117 218.575C15.2117 218.596 15.1909 218.596 15.1909 218.617L14.8995 219.5C14.8995 219.521 14.8995 219.521 14.8995 219.542C14.8995 219.563 14.8787 219.563 14.8787 219.584L14.7539 220.824V220.845V220.866V222.527L14.5042 222.38C14.4834 222.38 14.4625 222.38 14.4417 222.38C14.4209 222.38 14.4209 222.359 14.4001 222.359L13.5261 222.128C13.5053 222.128 13.5053 222.128 13.4845 222.128C13.4637 222.128 13.4637 222.107 13.4429 222.107L11.903 222.043L7.2833 220.53C7.26249 220.53 7.26249 220.53 7.26249 220.53C7.24168 220.53 7.24168 220.509 7.24168 220.509L3.26708 219.752C3.24627 219.752 3.24627 219.752 3.22546 219.752C3.20465 219.752 3.20465 219.731 3.18384 219.731H2.35146L1.72718 219.5L1.16533 219.037L0.873996 218.722L0.915614 218.617L1.37342 217.628C1.39423 217.607 1.37342 217.565 1.37342 217.544C1.37342 217.502 1.41504 217.481 1.41504 217.46V216.304L1.51909 215.19L1.91447 214.244L2.91332 211.552Z" fill="#D256AD"/>
</svg>
